<?xml version="1.0" encoding="UTF-8"?><svg id="a" xmlns="http://www.w3.org/2000/svg" xmlns:xlink="http://www.w3.org/1999/xlink" viewBox="0 0 616.26 480.64"><defs><clipPath id="dc"><rect x="72.42" y=".87" width="527.17" height="419.01" fill="none"/></clipPath><clipPath id="de"><rect x="72.42" y=".87" width="527.17" height="419.01" fill="none"/></clipPath><clipPath id="dg"><rect x="72.42" y=".87" width="527.17" height="419.01" fill="none"/></clipPath><clipPath id="di"><rect x="72.42" y=".87" width="527.17" height="419.01" fill="none"/></clipPath><clipPath id="dk"><rect x="72.42" y=".87" width="527.17" height="419.01" fill="none"/></clipPath><clipPath id="dm"><rect x="72.42" y=".87" width="527.17" height="419.01" fill="none"/></clipPath><clipPath id="do"><rect x="72.42" y=".87" width="527.17" height="419.01" fill="none"/></clipPath><clipPath id="dq"><rect x="72.42" y=".87" width="527.17" height="419.01" fill="none"/></clipPath><clipPath id="ds"><rect x="72.42" y=".87" width="527.17" height="419.01" fill="none"/></clipPath><clipPath id="du"><rect x="72.42" y=".87" width="527.17" height="419.01" fill="none"/></clipPath><clipPath id="dw"><rect x="72.42" y=".87" width="527.17" height="419.01" fill="none"/></clipPath><clipPath id="dy"><rect x="72.42" y=".87" width="527.17" height="419.01" fill="none"/></clipPath><clipPath id="ea"><rect x="72.42" y=".87" width="527.17" height="419.01" fill="none"/></clipPath><clipPath id="ec"><rect x="72.42" y=".87" width="527.17" height="419.01" fill="none"/></clipPath><clipPath id="ee"><rect x="72.42" y=".87" width="527.17" height="419.01" fill="none"/></clipPath><clipPath id="eg"><rect x="72.42" y=".87" width="527.17" height="419.01" fill="none"/></clipPath><clipPath id="ei"><rect x="72.42" y=".87" width="527.17" height="419.01" fill="none"/></clipPath><clipPath id="ek"><rect x="72.42" y=".87" width="527.17" height="419.01" fill="none"/></clipPath><clipPath id="em"><rect x="72.42" y=".87" width="527.17" height="419.01" fill="none"/></clipPath><clipPath id="eo"><rect x="72.42" y=".87" width="527.17" height="419.01" fill="none"/></clipPath><clipPath id="eq"><rect x="72.42" y=".87" width="527.17" height="419.01" fill="none"/></clipPath><clipPath id="es"><rect x="72.42" y=".87" width="527.17" height="419.01" fill="none"/></clipPath><clipPath id="eu"><rect x="72.42" y=".87" width="527.17" height="419.01" fill="none"/></clipPath><clipPath id="ew"><rect x="72.42" y=".87" width="527.17" height="419.01" fill="none"/></clipPath><clipPath id="ey"><rect x="72.42" y=".87" width="527.17" height="419.01" fill="none"/></clipPath><clipPath id="fa"><rect x="72.42" y=".87" width="527.17" height="419.01" fill="none"/></clipPath><clipPath id="fc"><rect x="72.42" y=".87" width="527.17" height="419.01" fill="none"/></clipPath><clipPath id="fe"><rect x="72.42" y=".87" width="527.17" height="419.01" fill="none"/></clipPath><clipPath id="fg"><rect x="72.42" y=".87" width="527.17" height="419.01" fill="none"/></clipPath><clipPath id="fi"><rect x="72.42" y=".87" width="527.17" height="419.01" fill="none"/></clipPath><clipPath id="fk"><rect x="72.42" y=".87" width="527.17" height="419.01" fill="none"/></clipPath><clipPath id="fm"><rect x="72.42" y=".87" width="527.17" height="419.01" fill="none"/></clipPath><clipPath id="fo"><rect x="72.42" y=".87" width="527.17" height="419.01" fill="none"/></clipPath><clipPath id="fq"><rect x="72.42" y=".87" width="527.17" height="419.01" fill="none"/></clipPath><clipPath id="fs"><rect x="72.42" y=".87" width="527.17" height="419.01" fill="none"/></clipPath><clipPath id="fu"><rect x="72.42" y=".87" width="527.17" height="419.01" fill="none"/></clipPath><clipPath id="fw"><rect x="72.42" y=".87" width="527.17" height="419.01" fill="none"/></clipPath><clipPath id="fy"><rect x="72.42" y=".87" width="527.17" height="419.01" fill="none"/></clipPath><clipPath id="ga"><rect x="72.42" y=".87" width="527.17" height="419.01" fill="none"/></clipPath><clipPath id="gc"><rect x="72.42" y=".87" width="527.17" height="419.01" fill="none"/></clipPath><clipPath id="ge"><rect x="72.42" y=".87" width="527.17" height="419.01" fill="none"/></clipPath><clipPath id="gg"><rect x="72.42" y=".87" width="527.17" height="419.01" fill="none"/></clipPath><clipPath id="gi"><rect x="72.42" y=".87" width="527.17" height="419.01" fill="none"/></clipPath><clipPath id="gk"><rect x="72.42" y=".87" width="527.17" height="419.01" fill="none"/></clipPath><clipPath id="gm"><rect x="72.42" y=".87" width="527.17" height="419.01" fill="none"/></clipPath><clipPath id="go"><rect x="72.42" y=".87" width="527.17" height="419.01" fill="none"/></clipPath><clipPath id="gq"><rect x="72.42" y=".87" width="527.17" height="419.01" fill="none"/></clipPath><clipPath id="gs"><rect x="72.42" y=".87" width="527.17" height="419.01" fill="none"/></clipPath></defs><g id="b"><g><line x1="72.08" y1="361.6" x2="599.38" y2="361.6" fill="none" stroke="#d0d2d3"/><line x1="72.11" y1="303.58" x2="599.41" y2="303.58" fill="none" stroke="#d0d2d3"/><line x1="72.05" y1="245.65" x2="599.35" y2="245.65" fill="none" stroke="#d0d2d3"/><line x1="72.02" y1="187.66" x2="599.32" y2="187.66" fill="none" stroke="#d0d2d3"/><line x1="72.05" y1="129.67" x2="599.35" y2="129.67" fill="none" stroke="#d0d2d3"/><line x1="72.02" y1="71.66" x2="599.32" y2="71.66" fill="none" stroke="#d0d2d3"/><line x1="72.13" y1="13.63" x2="599.42" y2="13.63" fill="none" stroke="#d0d2d3"/></g><g id="c"><path d="M72.14,419.61V.38" fill="none" stroke="#000" stroke-linecap="square" stroke-width=".76"/></g><g id="d"><path d="M599.58,419.61V.38" fill="none" stroke="#000" stroke-linecap="square" stroke-width=".76"/></g><g id="e"><path d="M72.14,419.61H599.58" fill="none" stroke="#000" stroke-linecap="square" stroke-width=".76"/></g><g id="f"><path d="M72.14,.38H599.58" fill="none" stroke="#000" stroke-linecap="square" stroke-width=".76"/></g><g id="g"><g id="h"><g id="i"><path id="j" d="M96.12,419.61v3.31" stroke="#000" stroke-linejoin="round" stroke-width=".76"/></g><g id="k"><g isolation="isolate"><path d="M95.34,427.18c-2.16,2.56-3.61,4.82-4.37,6.79s-1.14,4.16-1.14,6.6v1.86h-2.31v-1.86c0-2.58,.47-4.9,1.42-6.97s2.32-4.21,4.12-6.42h-9.05v-1.82h11.32v1.82Z"/><path d="M98.44,434.85l.98-9.48h8.54v2.05h-6.6l-.55,4.91c.37-.27,.77-.5,1.22-.67s.95-.27,1.52-.28c1.58-.02,2.81,.48,3.71,1.48s1.34,2.38,1.34,4.13-.46,3.09-1.38,4.12-2.26,1.56-4.01,1.56c-1.45,0-2.65-.39-3.61-1.18s-1.42-1.95-1.38-3.48l.02-.07h2.09c0,.93,.27,1.65,.8,2.16s1.23,.77,2.08,.77c.98,0,1.73-.34,2.27-1.03s.81-1.63,.81-2.82c0-1.09-.27-1.96-.81-2.64s-1.3-1.01-2.27-1.01c-.91,0-1.56,.14-1.97,.41s-.71,.7-.9,1.27l-1.91-.2Z"/></g></g></g><g id="l"><g id="m"><g isolation="isolate"><path d="M194.61,429.73c0,.89-.25,1.67-.75,2.35s-1.16,1.18-1.99,1.52c.97,.34,1.75,.87,2.33,1.61s.88,1.58,.88,2.54c0,1.57-.51,2.79-1.53,3.64s-2.32,1.29-3.9,1.29c-1.67,0-3.04-.43-4.1-1.29s-1.59-2.07-1.59-3.64c0-.96,.3-1.81,.9-2.54s1.4-1.27,2.42-1.62c-.88-.33-1.57-.83-2.07-1.51s-.76-1.46-.76-2.35c0-1.49,.48-2.63,1.44-3.42s2.21-1.18,3.74-1.18c1.45,0,2.65,.4,3.58,1.19s1.4,1.93,1.4,3.42Zm-1.83,7.97c0-.93-.3-1.7-.91-2.3s-1.35-.9-2.24-.9c-.97,0-1.77,.3-2.4,.9s-.95,1.37-.95,2.3,.31,1.73,.94,2.31,1.44,.87,2.43,.87c.89,0,1.63-.29,2.23-.87s.9-1.35,.9-2.3Zm-.48-7.93c0-.82-.26-1.5-.77-2.03s-1.15-.8-1.9-.8c-.84,0-1.52,.26-2.06,.77s-.81,1.2-.81,2.06,.27,1.57,.82,2.11,1.24,.81,2.07,.81c.76,0,1.39-.27,1.89-.81s.76-1.24,.76-2.11Z"/><path d="M208.47,436.41c0,1.93-.49,3.46-1.47,4.58s-2.3,1.69-3.96,1.69-2.97-.56-3.96-1.69-1.48-2.65-1.48-4.58v-5.02c0-1.91,.49-3.44,1.47-4.57s2.29-1.7,3.94-1.7,2.98,.57,3.97,1.7,1.48,2.66,1.48,4.57v5.02Zm-2.31-5.5c0-1.23-.27-2.2-.82-2.91s-1.32-1.07-2.32-1.07-1.76,.36-2.3,1.07-.81,1.68-.81,2.91v5.96c0,1.23,.28,2.2,.83,2.92s1.32,1.08,2.3,1.08,1.77-.36,2.31-1.07,.81-1.69,.81-2.92v-5.96Z"/></g></g></g><g id="n"><g id="o"><path id="p" d="M295.9,419.61v3.31" stroke="#000" stroke-linejoin="round" stroke-width=".76"/></g><g id="q"><g isolation="isolate"><path d="M294.5,429.73c0,.89-.25,1.67-.75,2.35s-1.16,1.18-1.99,1.52c.97,.34,1.75,.87,2.33,1.61s.88,1.58,.88,2.54c0,1.57-.51,2.79-1.53,3.64s-2.32,1.29-3.9,1.29c-1.67,0-3.04-.43-4.1-1.29s-1.59-2.07-1.59-3.64c0-.96,.3-1.81,.9-2.54s1.4-1.27,2.42-1.62c-.88-.33-1.57-.83-2.07-1.51s-.76-1.46-.76-2.35c0-1.49,.48-2.63,1.44-3.42s2.21-1.18,3.74-1.18c1.45,0,2.65,.4,3.58,1.19s1.4,1.93,1.4,3.42Zm-1.83,7.97c0-.93-.3-1.7-.91-2.3s-1.35-.9-2.24-.9c-.97,0-1.77,.3-2.4,.9s-.95,1.37-.95,2.3,.31,1.73,.94,2.31,1.44,.87,2.43,.87c.89,0,1.63-.29,2.23-.87s.9-1.35,.9-2.3Zm-.48-7.93c0-.82-.26-1.5-.77-2.03s-1.15-.8-1.9-.8c-.84,0-1.52,.26-2.06,.77s-.81,1.2-.81,2.06,.27,1.57,.82,2.11,1.24,.81,2.07,.81c.76,0,1.39-.27,1.89-.81s.76-1.24,.76-2.11Z"/><path d="M298.23,434.85l.98-9.48h8.54v2.05h-6.6l-.55,4.91c.37-.27,.77-.5,1.22-.67s.95-.27,1.52-.28c1.58-.02,2.81,.48,3.71,1.48s1.34,2.38,1.34,4.13-.46,3.09-1.38,4.12-2.26,1.56-4.01,1.56c-1.45,0-2.65-.39-3.61-1.18s-1.42-1.95-1.38-3.48l.02-.07h2.09c0,.93,.27,1.65,.8,2.16s1.23,.77,2.08,.77c.98,0,1.73-.34,2.27-1.03s.81-1.63,.81-2.82c0-1.09-.27-1.96-.81-2.64s-1.3-1.01-2.27-1.01c-.91,0-1.56,.14-1.97,.41s-.71,.7-.9,1.27l-1.91-.2Z"/></g></g></g><g id="r"><g id="s"><path id="t" d="M395.8,419.61v3.31" stroke="#000" stroke-linejoin="round" stroke-width=".76"/></g><g id="u"><g isolation="isolate"><path d="M388.43,440.87c1.11,0,2.01-.38,2.69-1.15s1.03-1.85,1.03-3.26v-1.45c-.38,.55-.84,.97-1.4,1.26s-1.17,.43-1.83,.43c-1.64,0-2.93-.51-3.86-1.52s-1.4-2.42-1.4-4.21,.5-3.12,1.49-4.21,2.22-1.63,3.68-1.63c1.7,0,3.07,.54,4.1,1.61s1.55,2.58,1.55,4.54v5.18c0,1.96-.56,3.49-1.69,4.59s-2.57,1.65-4.35,1.65c-.6,0-1.22-.06-1.85-.19s-1.22-.31-1.76-.55l.35-1.76c.52,.25,1.02,.43,1.52,.53s1.08,.16,1.74,.16Zm.48-5.98c.8,0,1.48-.18,2.03-.55s.95-.84,1.2-1.41v-2.02c0-1.27-.29-2.26-.86-2.95s-1.37-1.04-2.4-1.04c-.84,0-1.53,.37-2.09,1.12s-.84,1.72-.84,2.91,.26,2.12,.77,2.84,1.24,1.08,2.18,1.08Z"/><path d="M408.26,436.41c0,1.93-.49,3.46-1.47,4.58s-2.3,1.69-3.96,1.69-2.97-.56-3.96-1.69-1.48-2.65-1.48-4.58v-5.02c0-1.91,.49-3.44,1.47-4.57s2.29-1.7,3.94-1.7,2.98,.57,3.97,1.7,1.48,2.66,1.48,4.57v5.02Zm-2.31-5.5c0-1.23-.27-2.2-.82-2.91s-1.32-1.07-2.32-1.07-1.76,.36-2.3,1.07-.81,1.68-.81,2.91v5.96c0,1.23,.28,2.2,.83,2.92s1.32,1.08,2.3,1.08,1.77-.36,2.31-1.07,.81-1.69,.81-2.92v-5.96Z"/></g></g></g><g id="v"><g id="w"><path id="x" d="M495.69,419.61v3.31" stroke="#000" stroke-linejoin="round" stroke-width=".76"/></g><g id="y"><g isolation="isolate"><path d="M488.33,440.87c1.11,0,2.01-.38,2.69-1.15s1.03-1.85,1.03-3.26v-1.45c-.38,.55-.84,.97-1.4,1.26s-1.17,.43-1.83,.43c-1.64,0-2.93-.51-3.86-1.52s-1.4-2.42-1.4-4.21,.5-3.12,1.49-4.21,2.22-1.63,3.68-1.63c1.7,0,3.07,.54,4.1,1.61s1.55,2.58,1.55,4.54v5.18c0,1.96-.56,3.49-1.69,4.59s-2.57,1.65-4.35,1.65c-.6,0-1.22-.06-1.85-.19s-1.22-.31-1.76-.55l.35-1.76c.52,.25,1.02,.43,1.52,.53s1.08,.16,1.74,.16Zm.48-5.98c.8,0,1.48-.18,2.03-.55s.95-.84,1.2-1.41v-2.02c0-1.27-.29-2.26-.86-2.95s-1.37-1.04-2.4-1.04c-.84,0-1.53,.37-2.09,1.12s-.84,1.72-.84,2.91,.26,2.12,.77,2.84,1.24,1.08,2.18,1.08Z"/><path d="M498.02,434.85l.98-9.48h8.54v2.05h-6.6l-.55,4.91c.37-.27,.77-.5,1.22-.67s.95-.27,1.52-.28c1.58-.02,2.81,.48,3.71,1.48s1.34,2.38,1.34,4.13-.46,3.09-1.38,4.12-2.26,1.56-4.01,1.56c-1.45,0-2.65-.39-3.61-1.18s-1.42-1.95-1.38-3.48l.02-.07h2.09c0,.93,.27,1.65,.8,2.16s1.23,.77,2.08,.77c.98,0,1.73-.34,2.27-1.03s.81-1.63,.81-2.82c0-1.09-.27-1.96-.81-2.64s-1.3-1.01-2.27-1.01c-.91,0-1.56,.14-1.97,.41s-.71,.7-.9,1.27l-1.91-.2Z"/></g></g></g><g id="z"><g id="aa"><path id="ab" d="M595.59,419.61v3.31" stroke="#000" stroke-linejoin="round" stroke-width=".76"/></g><g id="ac"><g isolation="isolate"><path d="M584.04,442.43h-2.32v-14.93l-3.71,.04v-1.78l6.04-.63v17.31Z"/><path d="M601.42,436.41c0,1.93-.49,3.46-1.47,4.58s-2.3,1.69-3.96,1.69-2.97-.56-3.96-1.69-1.48-2.65-1.48-4.58v-5.02c0-1.91,.49-3.44,1.47-4.57s2.29-1.7,3.94-1.7,2.98,.57,3.97,1.7,1.48,2.66,1.48,4.57v5.02Zm-2.31-5.5c0-1.23-.27-2.2-.82-2.91s-1.32-1.07-2.32-1.07-1.76,.36-2.3,1.07-.81,1.68-.81,2.91v5.96c0,1.23,.28,2.2,.83,2.92s1.32,1.08,2.3,1.08,1.77-.36,2.31-1.07,.81-1.69,.81-2.92v-5.96Z"/><path d="M614.93,436.41c0,1.93-.49,3.46-1.47,4.58s-2.3,1.69-3.96,1.69-2.97-.56-3.96-1.69-1.48-2.65-1.48-4.58v-5.02c0-1.91,.49-3.44,1.47-4.57s2.29-1.7,3.94-1.7,2.98,.57,3.97,1.7,1.48,2.66,1.48,4.57v5.02Zm-2.31-5.5c0-1.23-.27-2.2-.82-2.91s-1.32-1.07-2.32-1.07-1.76,.36-2.3,1.07-.81,1.68-.81,2.91v5.96c0,1.23,.28,2.2,.83,2.92s1.32,1.08,2.3,1.08,1.77-.36,2.31-1.07,.81-1.69,.81-2.92v-5.96Z"/></g></g></g><g id="ad"><path id="ae" d="M196.01,419.61v3.31" stroke="#000" stroke-linejoin="round" stroke-width=".76"/></g><g id="af"><path id="ag" d="M216.18,419.61v3.31" stroke="#000" stroke-linejoin="round" stroke-width=".76"/></g><g id="ah"><path id="ai" d="M176.27,419.61v3.31" stroke="#000" stroke-linejoin="round" stroke-width=".76"/></g><g id="aj"><path id="ak" d="M236.12,419.61v3.31" stroke="#000" stroke-linejoin="round" stroke-width=".76"/></g><g id="al"><path id="am" d="M256.21,419.61v3.31" stroke="#000" stroke-linejoin="round" stroke-width=".76"/></g><g id="an"><path id="ao" d="M276,419.61v3.31" stroke="#000" stroke-linejoin="round" stroke-width=".76"/></g><g id="ap"><path id="aq" d="M316.03,419.61v3.31" stroke="#000" stroke-linejoin="round" stroke-width=".76"/></g><g id="ar"><path id="as" d="M335.97,419.61v3.31" stroke="#000" stroke-linejoin="round" stroke-width=".76"/></g><g id="at"><path id="au" d="M355.99,419.61v3.31" stroke="#000" stroke-linejoin="round" stroke-width=".76"/></g><g id="av"><path id="aw" d="M375.93,419.61v3.31" stroke="#000" stroke-linejoin="round" stroke-width=".76"/></g><g id="ax"><path id="ay" d="M415.88,419.61v3.31" stroke="#000" stroke-linejoin="round" stroke-width=".76"/></g><g id="az"><path id="ba" d="M435.9,419.61v3.31" stroke="#000" stroke-linejoin="round" stroke-width=".76"/></g><g id="bb"><path id="bc" d="M455.84,419.61v3.31" stroke="#000" stroke-linejoin="round" stroke-width=".76"/></g><g id="bd"><path id="be" d="M475.78,419.61v3.31" stroke="#000" stroke-linejoin="round" stroke-width=".76"/></g><g id="bf"><path id="bg" d="M515.73,419.61v3.31" stroke="#000" stroke-linejoin="round" stroke-width=".76"/></g><g id="bh"><path id="bi" d="M535.67,419.61v3.31" stroke="#000" stroke-linejoin="round" stroke-width=".76"/></g><g id="bj"><path id="bk" d="M555.69,419.61v3.31" stroke="#000" stroke-linejoin="round" stroke-width=".76"/></g><g id="bl"><path id="bm" d="M575.63,419.61v3.31" stroke="#000" stroke-linejoin="round" stroke-width=".76"/></g></g><g id="bn"><g id="bo"><g id="bp"><path id="bq" d="M71.14,419.61h-3.31" stroke="#000" stroke-linejoin="round" stroke-width=".76"/></g><g id="br"><g isolation="isolate"><path d="M64.47,421.2c0,1.93-.49,3.46-1.47,4.58s-2.3,1.69-3.96,1.69-2.97-.56-3.96-1.69-1.48-2.65-1.48-4.58v-5.02c0-1.91,.49-3.44,1.47-4.57s2.29-1.7,3.94-1.7,2.98,.57,3.97,1.7,1.48,2.66,1.48,4.57v5.02Zm-2.31-5.5c0-1.23-.27-2.2-.82-2.91s-1.32-1.07-2.32-1.07-1.76,.36-2.3,1.07-.81,1.68-.81,2.91v5.96c0,1.23,.28,2.2,.83,2.92s1.32,1.08,2.3,1.08,1.77-.36,2.31-1.07,.81-1.69,.81-2.92v-5.96Z"/></g></g></g><g id="bs"><g id="bt"><path id="bu" d="M71.14,361.62h-3.31" stroke="#000" stroke-linejoin="round" stroke-width=".76"/></g><g id="bv"><g isolation="isolate"><path d="M54.34,361.65l.98-9.48h8.54v2.05h-6.6l-.55,4.91c.37-.27,.77-.5,1.22-.67s.95-.27,1.52-.28c1.58-.02,2.81,.48,3.71,1.48s1.34,2.38,1.34,4.13-.46,3.09-1.38,4.12-2.26,1.56-4.01,1.56c-1.45,0-2.65-.39-3.61-1.18s-1.42-1.95-1.38-3.48l.02-.07h2.09c0,.93,.27,1.65,.8,2.16s1.23,.77,2.08,.77c.98,0,1.73-.34,2.27-1.03s.81-1.63,.81-2.82c0-1.09-.27-1.96-.81-2.64s-1.3-1.01-2.27-1.01c-.91,0-1.56,.14-1.97,.41s-.71,.7-.9,1.27l-1.91-.2Z"/></g></g></g><g id="bw"><g id="bx"><path id="by" d="M71.14,303.63h-3.31" stroke="#000" stroke-linejoin="round" stroke-width=".76"/></g><g id="bz"><g isolation="isolate"><path d="M47.35,311.24h-2.32v-14.93l-3.71,.04v-1.78l6.04-.63v17.31Z"/><path d="M64.73,305.22c0,1.93-.49,3.46-1.47,4.58s-2.3,1.69-3.96,1.69-2.97-.56-3.96-1.69-1.48-2.65-1.48-4.58v-5.01c0-1.91,.49-3.44,1.47-4.57s2.29-1.7,3.94-1.7,2.98,.57,3.97,1.7,1.48,2.66,1.48,4.57v5.01Zm-2.31-5.5c0-1.23-.27-2.2-.82-2.91s-1.32-1.07-2.32-1.07-1.76,.36-2.3,1.07-.81,1.68-.81,2.91v5.96c0,1.23,.28,2.2,.83,2.92s1.32,1.08,2.3,1.08,1.77-.36,2.31-1.07,.81-1.69,.81-2.92v-5.96Z"/></g></g></g><g id="ca"><g id="cb"><path id="cc" d="M71.14,245.64h-3.31" stroke="#000" stroke-linejoin="round" stroke-width=".76"/></g><g id="cd"><g isolation="isolate"><path d="M47.35,253.25h-2.32v-14.93l-3.71,.04v-1.78l6.04-.63v17.31Z"/><path d="M54.59,245.67l.98-9.48h8.54v2.05h-6.6l-.55,4.91c.37-.27,.77-.5,1.22-.67s.95-.27,1.52-.28c1.58-.02,2.81,.48,3.71,1.48s1.34,2.38,1.34,4.13-.46,3.09-1.38,4.12-2.26,1.56-4.01,1.56c-1.45,0-2.65-.39-3.61-1.18s-1.42-1.95-1.38-3.48l.02-.07h2.09c0,.93,.27,1.65,.8,2.16s1.23,.77,2.08,.77c.98,0,1.73-.34,2.27-1.03s.81-1.63,.81-2.82c0-1.09-.27-1.96-.81-2.64s-1.3-1.01-2.27-1.01c-.91,0-1.56,.14-1.97,.41s-.71,.7-.9,1.27l-1.91-.2Z"/></g></g></g><g id="ce"><g id="cf"><path id="cg" d="M71.14,187.65h-3.31" stroke="#000" stroke-linejoin="round" stroke-width=".76"/></g><g id="ch"><g isolation="isolate"><path d="M51.38,195.26h-10.59v-1.58l5.36-6.39c.95-1.16,1.6-2.08,1.94-2.76s.51-1.37,.51-2.07c0-.79-.23-1.44-.69-1.94s-1.1-.76-1.91-.76c-1.01,0-1.78,.31-2.3,.93s-.79,1.39-.79,2.31h-2.23l-.02-.07c-.04-1.39,.43-2.57,1.39-3.53s2.29-1.45,3.95-1.45c1.52,0,2.72,.42,3.6,1.27s1.31,1.93,1.31,3.27c0,.9-.25,1.78-.74,2.64s-1.25,1.94-2.27,3.23l-4.3,5.04,.02,.06h7.77v1.8Z"/><path d="M64.73,189.24c0,1.93-.49,3.46-1.47,4.58s-2.3,1.69-3.96,1.69-2.97-.56-3.96-1.69-1.48-2.65-1.48-4.58v-5.02c0-1.91,.49-3.44,1.47-4.57s2.29-1.7,3.94-1.7,2.98,.57,3.97,1.7,1.48,2.66,1.48,4.57v5.02Zm-2.31-5.5c0-1.23-.27-2.2-.82-2.91s-1.32-1.07-2.32-1.07-1.76,.36-2.3,1.07-.81,1.68-.81,2.91v5.96c0,1.23,.28,2.2,.83,2.92s1.32,1.08,2.3,1.08,1.77-.36,2.31-1.07,.81-1.69,.81-2.92v-5.96Z"/></g></g></g><g id="ci"><g id="cj"><path id="ck" d="M71.14,129.66h-3.31" stroke="#000" stroke-linejoin="round" stroke-width=".76"/></g><g id="cl"><g isolation="isolate"><path d="M51.38,137.27h-10.59v-1.58l5.36-6.39c.95-1.16,1.6-2.08,1.94-2.76s.51-1.37,.51-2.07c0-.79-.23-1.44-.69-1.94s-1.1-.76-1.91-.76c-1.01,0-1.78,.31-2.3,.93s-.79,1.39-.79,2.31h-2.23l-.02-.07c-.04-1.39,.43-2.57,1.39-3.53s2.29-1.45,3.95-1.45c1.52,0,2.72,.42,3.6,1.27s1.31,1.93,1.31,3.27c0,.9-.25,1.78-.74,2.64s-1.25,1.94-2.27,3.23l-4.3,5.04,.02,.06h7.77v1.8Z"/><path d="M54.59,129.69l.98-9.48h8.54v2.05h-6.6l-.55,4.91c.37-.27,.77-.5,1.22-.67s.95-.27,1.52-.28c1.58-.02,2.81,.48,3.71,1.48s1.34,2.38,1.34,4.13-.46,3.09-1.38,4.12-2.26,1.56-4.01,1.56c-1.45,0-2.65-.39-3.61-1.18s-1.42-1.95-1.38-3.48l.02-.07h2.09c0,.93,.27,1.65,.8,2.16s1.23,.77,2.08,.77c.98,0,1.73-.34,2.27-1.03s.81-1.63,.81-2.82c0-1.09-.27-1.96-.81-2.64s-1.3-1.01-2.27-1.01c-.91,0-1.56,.14-1.97,.41s-.71,.7-.9,1.27l-1.91-.2Z"/></g></g></g><g id="cm"><g id="cn"><path id="co" d="M71.14,71.67h-3.31" stroke="#000" stroke-linejoin="round" stroke-width=".76"/></g><g id="cp"><g isolation="isolate"><path d="M45.81,69.58c1.03,0,1.76-.26,2.19-.77s.64-1.23,.64-2.15c0-.86-.23-1.55-.7-2.08s-1.15-.79-2.07-.79-1.63,.28-2.21,.83-.87,1.24-.87,2.07h-2.2l-.04-.07c-.04-1.28,.45-2.38,1.45-3.28s2.3-1.36,3.87-1.36,2.83,.4,3.73,1.2,1.35,1.98,1.35,3.53c0,.8-.21,1.52-.63,2.18s-1,1.17-1.75,1.54c.86,.34,1.51,.87,1.96,1.56s.67,1.54,.67,2.54c0,1.56-.49,2.79-1.48,3.67s-2.27,1.33-3.85,1.33c-1.45,0-2.73-.43-3.84-1.28s-1.64-1.99-1.6-3.39l.02-.07h2.2c0,.83,.3,1.53,.9,2.09s1.37,.85,2.31,.85,1.68-.29,2.21-.87,.81-1.34,.81-2.28c0-1.07-.25-1.87-.74-2.4s-1.28-.8-2.34-.8h-1.9v-1.79h1.9Z"/><path d="M64.73,73.26c0,1.93-.49,3.46-1.47,4.58s-2.3,1.69-3.96,1.69-2.97-.56-3.96-1.69-1.48-2.65-1.48-4.58v-5.02c0-1.91,.49-3.44,1.47-4.57s2.29-1.7,3.94-1.7,2.98,.57,3.97,1.7,1.48,2.66,1.48,4.57v5.02Zm-2.31-5.5c0-1.23-.27-2.2-.82-2.91s-1.32-1.07-2.32-1.07-1.76,.36-2.3,1.07-.81,1.68-.81,2.91v5.96c0,1.23,.28,2.2,.83,2.92s1.32,1.08,2.3,1.08,1.77-.36,2.31-1.07,.81-1.69,.81-2.92v-5.96Z"/></g></g></g><g id="cq"><g id="cr"><path id="cs" d="M71.14,13.68h-3.31" stroke="#000" stroke-linejoin="round" stroke-width=".76"/></g><g id="ct"><g isolation="isolate"><path d="M45.81,11.59c1.03,0,1.76-.26,2.19-.77s.64-1.23,.64-2.15c0-.86-.23-1.55-.7-2.08s-1.15-.79-2.07-.79-1.63,.28-2.21,.83-.87,1.24-.87,2.07h-2.2l-.04-.07c-.04-1.28,.45-2.37,1.45-3.28s2.3-1.36,3.87-1.36,2.83,.4,3.73,1.2,1.35,1.98,1.35,3.53c0,.8-.21,1.52-.63,2.18s-1,1.17-1.75,1.54c.86,.34,1.51,.87,1.96,1.56s.67,1.54,.67,2.54c0,1.56-.49,2.79-1.48,3.67s-2.27,1.33-3.85,1.33c-1.45,0-2.73-.43-3.84-1.28s-1.64-1.99-1.6-3.39l.02-.07h2.2c0,.83,.3,1.53,.9,2.09s1.37,.85,2.31,.85,1.68-.29,2.21-.87,.81-1.34,.81-2.28c0-1.07-.25-1.87-.74-2.4s-1.28-.8-2.34-.8h-1.9v-1.79h1.9Z"/><path d="M54.59,13.71l.98-9.48h8.54v2.05h-6.6l-.55,4.91c.37-.27,.77-.5,1.22-.67s.95-.27,1.52-.28c1.58-.02,2.81,.48,3.71,1.48s1.34,2.38,1.34,4.13-.46,3.09-1.38,4.12-2.26,1.56-4.01,1.56c-1.45,0-2.65-.39-3.61-1.18s-1.42-1.95-1.38-3.48l.02-.07h2.09c0,.93,.27,1.65,.8,2.16s1.23,.77,2.08,.77c.98,0,1.73-.34,2.27-1.03s.81-1.63,.81-2.82c0-1.09-.27-1.96-.81-2.64s-1.3-1.01-2.27-1.01c-.91,0-1.56,.14-1.97,.41s-.71,.7-.9,1.27l-1.91-.2Z"/></g></g></g></g><g id="cu"><g isolation="isolate"><path d="M6.75,304.49c-1.01,0-1.85-.33-2.52-.98s-1.01-1.56-1.01-2.72,.33-2.09,1-2.74,1.51-.97,2.53-.97h.9c1.01,0,1.84,.32,2.51,.97s1,1.55,1,2.72-.33,2.09-1,2.74-1.5,.98-2.51,.98h-.9Zm12.5-4.29l-.88,1.66-13.34-8.33,.88-1.66,13.34,8.33Zm-11.6,2.02c.45,0,.83-.12,1.14-.38s.46-.61,.46-1.08-.15-.8-.46-1.05-.69-.37-1.14-.37h-.9c-.45,0-.84,.12-1.15,.38s-.47,.61-.47,1.07,.16,.81,.47,1.06,.7,.37,1.15,.37h.9Zm8.7-5.88c-1,0-1.84-.33-2.51-.98s-1.01-1.57-1.01-2.73,.33-2.08,1-2.74,1.51-.98,2.51-.98h.9c1.02,0,1.86,.32,2.52,.97s1,1.55,1,2.72-.33,2.09-1,2.75-1.51,.99-2.51,.99h-.9Zm.9-2.27c.45,0,.83-.13,1.14-.4s.47-.62,.47-1.06c0-.51-.15-.87-.44-1.09s-.69-.33-1.18-.33h-.9c-.45,0-.83,.12-1.14,.38s-.47,.61-.47,1.07,.16,.83,.47,1.07,.7,.37,1.14,.37h.9Z" fill="#231f20"/><path d="M14.07,281.12c-1.89,0-3.44-.53-4.65-1.58s-1.81-2.52-1.81-4.38,.6-3.34,1.8-4.41,2.75-1.59,4.65-1.59h.25c1.91,0,3.46,.53,4.66,1.59s1.8,2.52,1.8,4.39-.6,3.34-1.8,4.4-2.75,1.59-4.66,1.59h-.25Zm.25-3.41c1.16,0,2.08-.2,2.78-.61s1.05-1.06,1.05-1.97-.35-1.53-1.05-1.94-1.63-.62-2.78-.62h-.25c-1.12,0-2.04,.21-2.75,.62s-1.07,1.07-1.07,1.96,.36,1.53,1.07,1.94,1.63,.62,2.75,.62h.25Z" fill="#231f20"/><path d="M20.53,266.15H10.25v1.89h-2.4v-1.89h-1.41c-1.42,0-2.52-.41-3.29-1.23s-1.15-1.97-1.15-3.46c0-.29,.02-.58,.06-.88s.1-.63,.18-.99l2.54,.29c-.03,.19-.06,.37-.08,.54s-.04,.38-.04,.62c0,.55,.15,.97,.46,1.26s.74,.43,1.31,.43h1.41v-2.44h2.4v2.44h10.28v3.42Z" fill="#231f20"/><path d="M18.15,247.4c0-.59-.18-1.07-.53-1.42s-.83-.53-1.42-.53v-3.12l.07-.02c1.28-.03,2.35,.45,3.22,1.43s1.29,2.2,1.29,3.66c0,1.88-.6,3.32-1.8,4.35s-2.73,1.54-4.6,1.54h-.35c-1.86,0-3.39-.51-4.6-1.53s-1.81-2.46-1.81-4.33c0-1.55,.45-2.79,1.34-3.74s2.06-1.4,3.52-1.37l.07,.02v3.12c-.66,0-1.2,.17-1.63,.52s-.65,.83-.65,1.45c0,.88,.35,1.51,1.06,1.88s1.61,.56,2.71,.56h.35c1.12,0,2.04-.19,2.73-.56s1.04-1.01,1.04-1.9Z" fill="#231f20"/><path d="M14.07,240.85c-1.89,0-3.44-.53-4.65-1.58s-1.81-2.52-1.81-4.38,.6-3.34,1.8-4.41,2.75-1.59,4.65-1.59h.25c1.91,0,3.46,.53,4.66,1.59s1.8,2.52,1.8,4.39-.6,3.34-1.8,4.4-2.75,1.59-4.66,1.59h-.25Zm.25-3.41c1.16,0,2.08-.2,2.78-.61s1.05-1.06,1.05-1.97-.35-1.53-1.05-1.94-1.63-.62-2.78-.62h-.25c-1.12,0-2.04,.21-2.75,.62s-1.07,1.07-1.07,1.96,.36,1.53,1.07,1.94,1.63,.62,2.75,.62h.25Z" fill="#231f20"/><path d="M7.85,223.6l1.68-.14c-.61-.41-1.08-.92-1.41-1.53s-.5-1.32-.5-2.13,.18-1.51,.54-2.09,.9-1.02,1.63-1.31c-.68-.39-1.21-.9-1.59-1.52s-.57-1.36-.57-2.2c0-1.25,.44-2.24,1.33-2.96s2.24-1.08,4.06-1.08h7.52v3.42h-7.54c-1.02,0-1.72,.16-2.12,.47s-.6,.78-.6,1.39c0,.48,.11,.9,.32,1.26s.51,.64,.9,.85c.15,0,.28,0,.38-.01s.21-.01,.32-.01h8.33v3.41h-7.54c-.99,0-1.69,.16-2.1,.47s-.62,.78-.62,1.41c0,.46,.09,.87,.26,1.21s.42,.63,.74,.86h9.25v3.41H7.85v-3.18Z" fill="#231f20"/><path d="M14.54,194.57c1.88,0,3.38,.43,4.52,1.3s1.71,2.08,1.71,3.63c0,.66-.12,1.25-.37,1.77s-.61,.96-1.08,1.32h6.08v3.41H7.85v-3.08l1.5-.2c-.55-.38-.98-.83-1.28-1.35s-.45-1.14-.45-1.85c0-1.57,.61-2.79,1.84-3.66s2.84-1.3,4.84-1.3h.25Zm-.25,3.42c-1.2,0-2.16,.2-2.91,.6s-1.11,1.01-1.11,1.83c0,.52,.11,.96,.32,1.32s.51,.65,.9,.86h5.55c.36-.21,.63-.5,.82-.86s.28-.81,.28-1.34c0-.83-.32-1.44-.97-1.82s-1.53-.58-2.64-.58h-.25Z" fill="#231f20"/><path d="M20.53,184.99c-.29,.12-.59,.23-.91,.32s-.65,.15-.98,.19c.62,.35,1.13,.82,1.54,1.39s.61,1.27,.61,2.06c0,1.33-.34,2.35-1.03,3.07s-1.62,1.08-2.79,1.08c-1.24,0-2.21-.48-2.89-1.44s-1.03-2.35-1.03-4.19v-1.92h-1.01c-.61,0-1.08,.16-1.42,.48s-.5,.8-.5,1.43c0,.55,.13,.98,.4,1.28s.64,.45,1.11,.45v3.29l-.07,.02c-1.07,.05-1.99-.41-2.77-1.4s-1.17-2.28-1.17-3.87,.38-2.76,1.15-3.7,1.86-1.41,3.29-1.41h5.24c.59,0,1.15-.04,1.68-.13s1.04-.23,1.56-.43v3.41Zm-2.29,3.13c0-.59-.15-1.12-.45-1.59s-.64-.79-1.03-.96h-1.79v1.92c0,.73,.18,1.28,.54,1.65s.8,.56,1.32,.56c.43,0,.77-.14,1.03-.42s.38-.66,.38-1.15Z" fill="#231f20"/><path d="M10.79,172.9l-.04,1.25c0,.51,.11,.93,.32,1.25s.51,.58,.89,.75h8.57v3.41H7.85v-3.18l1.88-.15c-.66-.3-1.18-.68-1.55-1.15s-.56-1.02-.56-1.63c0-.17,.01-.33,.04-.47s.06-.29,.1-.44l3.04,.36Z" fill="#231f20"/><path d="M4.82,167.53v3.42H2.25v-3.42h2.57Zm15.71,0v3.42H7.85v-3.42h12.68Z" fill="#231f20"/><path d="M17.02,157.86c-.38,0-.7,.18-.97,.54s-.51,1.04-.71,2.02c-.3,1.48-.75,2.61-1.35,3.38s-1.42,1.15-2.45,1.15c-1.09,0-2.01-.46-2.78-1.38s-1.15-2.15-1.15-3.68,.38-2.88,1.15-3.85,1.72-1.43,2.86-1.39l.07,.02v3.3c-.51,0-.92,.16-1.24,.49s-.48,.8-.48,1.42c0,.55,.14,.98,.41,1.3s.61,.48,1.01,.48,.71-.17,.96-.5,.47-1.01,.66-2.02c.31-1.55,.77-2.71,1.38-3.47s1.44-1.14,2.5-1.14c1.14,0,2.07,.49,2.8,1.46s1.09,2.27,1.09,3.87c0,1.69-.43,3.02-1.28,4s-1.83,1.45-2.92,1.4l-.07-.02v-3.13c.68-.02,1.17-.25,1.48-.67s.46-.97,.46-1.65c0-.63-.13-1.12-.38-1.45s-.6-.5-1.04-.5Z" fill="#231f20"/><path d="M14.07,152.87c-1.89,0-3.44-.53-4.65-1.58s-1.81-2.52-1.81-4.38,.6-3.34,1.8-4.41,2.75-1.59,4.65-1.59h.25c1.91,0,3.46,.53,4.66,1.59s1.8,2.52,1.8,4.39-.6,3.34-1.8,4.4-2.75,1.59-4.66,1.59h-.25Zm.25-3.41c1.16,0,2.08-.2,2.78-.61s1.05-1.06,1.05-1.97-.35-1.53-1.05-1.94-1.63-.62-2.78-.62h-.25c-1.12,0-2.04,.21-2.75,.62s-1.07,1.07-1.07,1.96,.36,1.53,1.07,1.94,1.63,.62,2.75,.62h.25Z" fill="#231f20"/><path d="M7.85,135.66l1.82-.15c-.65-.42-1.15-.94-1.51-1.56s-.54-1.31-.54-2.07c0-1.28,.41-2.28,1.24-3s2.13-1.08,3.91-1.08h7.77v3.43h-7.76c-.91,0-1.55,.16-1.93,.47s-.57,.79-.57,1.42c0,.51,.1,.96,.29,1.34s.46,.71,.79,.96h9.18v3.42H7.85v-3.19Z" fill="#231f20"/><path d="M17.02,118.39c-.38,0-.7,.18-.97,.54s-.51,1.04-.71,2.02c-.3,1.48-.75,2.61-1.35,3.38s-1.42,1.15-2.45,1.15c-1.09,0-2.01-.46-2.78-1.38s-1.15-2.15-1.15-3.68,.38-2.88,1.15-3.85,1.72-1.43,2.86-1.39l.07,.02v3.3c-.51,0-.92,.16-1.24,.49s-.48,.8-.48,1.42c0,.55,.14,.98,.41,1.3s.61,.48,1.01,.48,.71-.17,.96-.5,.47-1.01,.66-2.02c.31-1.55,.77-2.71,1.38-3.47s1.44-1.14,2.5-1.14c1.14,0,2.07,.49,2.8,1.46s1.09,2.27,1.09,3.87c0,1.69-.43,3.02-1.28,4s-1.83,1.45-2.92,1.4l-.07-.02v-3.13c.68-.02,1.17-.25,1.48-.67s.46-.97,.46-1.65c0-.63-.13-1.12-.38-1.45s-.6-.5-1.04-.5Z" fill="#231f20"/></g></g><g id="cv"><g isolation="isolate"><path d="M314.74,470.46h-5.53l-1.15,3.68h-3.57l5.75-17.06h3.5l5.73,17.06h-3.57l-1.16-3.68Zm-4.69-2.68h3.86l-1.89-6.01h-.07l-1.9,6.01Z" fill="#231f20"/><path d="M334.91,474.14h-3.42l-6.88-11.51h-.07v11.51h-3.42v-17.06h3.42l6.88,11.5h.07v-11.5h3.42v17.06Z" fill="#231f20"/><path d="M341.7,474.14h-3.42v-17.06h3.42v17.06Z" fill="#231f20"/><path d="M350.61,460.36c0-1.01,.33-1.85,.98-2.52s1.56-1.01,2.72-1.01,2.09,.33,2.74,1,.97,1.51,.97,2.53v.9c0,1.01-.32,1.84-.97,2.51s-1.55,1-2.72,1-2.09-.33-2.74-1-.98-1.5-.98-2.51v-.9Zm2.27,.9c0,.45,.12,.83,.38,1.14s.61,.46,1.08,.46,.8-.15,1.05-.46,.37-.69,.37-1.14v-.9c0-.45-.12-.84-.38-1.15s-.61-.47-1.07-.47-.81,.16-1.06,.47-.37,.7-.37,1.15v.9Zm2.02,11.6l-1.66-.88,8.33-13.34,1.66,.88-8.33,13.34Zm3.87-2.91c0-1,.33-1.84,.98-2.51s1.57-1.01,2.73-1.01,2.08,.33,2.74,1,.98,1.51,.98,2.51v.9c0,1.02-.32,1.86-.97,2.52s-1.55,1-2.72,1-2.09-.33-2.75-1-.99-1.51-.99-2.51v-.9Zm2.27,.9c0,.45,.13,.83,.4,1.14s.62,.47,1.06,.47c.51,0,.87-.15,1.09-.44s.33-.69,.33-1.18v-.9c0-.45-.12-.83-.38-1.14s-.61-.47-1.07-.47-.83,.16-1.07,.47-.37,.7-.37,1.14v.9Z" fill="#231f20"/></g></g><g id="cw"><rect x="96.25" y="10.84" width="244.05" height="71.49" rx="11.59" ry="11.59" fill="#f1f1f2" isolation="isolate" stroke="#e6e7e8"/><g><g><g id="cx"><path d="M106.92,37.08h24.57v-8.6h-24.57v8.6Z" fill="rgba(79,45,130,.75)" stroke="#000" stroke-width=".94"/></g><g id="cy"><g isolation="isolate"><path d="M159.83,34.33l.02,.07c.03,1.6-.53,2.94-1.69,4.02s-2.68,1.62-4.58,1.62-3.5-.68-4.72-2.05-1.82-3.1-1.82-5.2v-3.04c0-2.1,.61-3.84,1.82-5.21s2.79-2.06,4.72-2.06,3.46,.51,4.61,1.54,1.7,2.39,1.66,4.08l-.02,.07h-2.21c0-1.2-.35-2.14-1.05-2.84s-1.7-1.04-2.98-1.04-2.32,.52-3.08,1.56-1.15,2.33-1.15,3.87v3.06c0,1.55,.38,2.85,1.15,3.89s1.79,1.56,3.08,1.56,2.27-.35,2.98-1.04,1.05-1.65,1.05-2.87h2.21Z" fill="#231f20"/><path d="M164.84,28.81c.44-.61,.97-1.08,1.61-1.42s1.34-.51,2.12-.51c1.35,0,2.4,.41,3.16,1.22s1.13,2.06,1.13,3.75v7.95h-2.31v-7.97c0-1.05-.22-1.82-.67-2.32s-1.12-.75-2.01-.75c-.69,0-1.29,.13-1.79,.4s-.92,.65-1.23,1.13v9.5h-2.31V21.51h2.31v7.3Z" fill="#231f20"/><path d="M183.97,39.8c-.08-.38-.14-.72-.18-1.01s-.07-.59-.08-.88c-.43,.61-.99,1.12-1.68,1.53s-1.44,.62-2.23,.62c-1.32,0-2.33-.34-3.02-1.01s-1.04-1.61-1.04-2.79,.49-2.16,1.47-2.84,2.31-1.03,3.99-1.03h2.51v-1.25c0-.74-.23-1.33-.68-1.76s-1.09-.65-1.92-.65c-.75,0-1.36,.19-1.82,.56s-.69,.82-.69,1.35l-2.19,.02-.02-.07c-.05-.92,.38-1.77,1.29-2.53s2.1-1.15,3.56-1.15,2.59,.37,3.47,1.1,1.31,1.78,1.31,3.16v6.11c0,.45,.02,.89,.07,1.31s.13,.84,.26,1.24h-2.38Zm-3.83-1.69c.84,0,1.59-.21,2.26-.64s1.11-.92,1.31-1.48v-2.06h-2.59c-.93,0-1.67,.23-2.23,.7s-.84,1.02-.84,1.65c0,.56,.18,1.01,.53,1.34s.87,.49,1.56,.49Z" fill="#231f20"/><path d="M191.43,27.12l.16,1.89c.42-.67,.95-1.19,1.59-1.56s1.36-.56,2.17-.56c1.37,0,2.43,.4,3.18,1.2s1.12,2.04,1.12,3.71v8h-2.31v-7.96c0-1.12-.22-1.91-.66-2.38s-1.12-.7-2.02-.7c-.71,0-1.31,.14-1.81,.43s-.89,.69-1.18,1.2v9.41h-2.31v-12.68h2.06Z" fill="#231f20"/><path d="M202.6,33.69c0-2.04,.44-3.68,1.31-4.93s2.09-1.88,3.65-1.88c.8,0,1.51,.16,2.12,.49s1.12,.79,1.54,1.4l.28-1.65h1.84v12.75c0,1.62-.47,2.87-1.42,3.74s-2.31,1.31-4.09,1.31c-.61,0-1.27-.08-1.97-.25s-1.33-.4-1.87-.69l.35-1.79c.45,.23,.98,.42,1.61,.57s1.25,.22,1.86,.22c1.12,0,1.94-.26,2.46-.77s.77-1.29,.77-2.34v-1.44c-.41,.53-.91,.93-1.49,1.21s-1.25,.41-2,.41c-1.55,0-2.76-.56-3.63-1.68s-1.31-2.6-1.31-4.42v-.25Zm2.31,.25c0,1.27,.26,2.3,.79,3.07s1.33,1.16,2.43,1.16c.7,0,1.28-.16,1.75-.47s.86-.76,1.16-1.34v-5.84c-.3-.54-.68-.97-1.16-1.28s-1.05-.47-1.72-.47c-1.1,0-1.92,.46-2.44,1.37s-.79,2.1-.79,3.56v.25Z" fill="#231f20"/><path d="M221.9,40.04c-1.82,0-3.24-.58-4.26-1.75s-1.53-2.7-1.53-4.59v-.52c0-1.82,.53-3.33,1.58-4.52s2.33-1.79,3.85-1.79c1.7,0,2.97,.53,3.81,1.58s1.27,2.46,1.27,4.21v1.22h-8.11l-.04,.06c0,1.27,.28,2.31,.84,3.1s1.42,1.19,2.58,1.19c.78,0,1.47-.11,2.06-.33s1.1-.53,1.52-.92l.9,1.5c-.45,.44-1.05,.81-1.79,1.11s-1.64,.45-2.68,.45Zm-.36-11.34c-.8,0-1.47,.31-2,.93s-.85,1.42-.97,2.38l.02,.06h5.72v-.19c0-.92-.23-1.68-.68-2.29s-1.15-.9-2.1-.9Z" fill="#231f20"/><path d="M228.69,33.69c0-2.04,.44-3.68,1.31-4.93s2.09-1.88,3.66-1.88c.74,0,1.4,.14,1.97,.41s1.06,.67,1.47,1.2v-6.97h2.31v18.28h-1.77l-.35-1.61c-.41,.61-.93,1.07-1.54,1.38s-1.32,.47-2.12,.47c-1.55,0-2.76-.56-3.63-1.68s-1.31-2.6-1.31-4.42v-.25Zm2.31,.25c0,1.28,.26,2.31,.79,3.08s1.34,1.15,2.44,1.15c.69,0,1.27-.16,1.73-.47s.85-.75,1.15-1.31v-5.92c-.3-.52-.68-.94-1.15-1.25s-1.04-.46-1.71-.46c-1.11,0-1.93,.46-2.46,1.37s-.79,2.1-.79,3.56v.25Z" fill="#231f20"/><path d="M256.19,36.39c0-.51-.19-.92-.58-1.24s-1.12-.6-2.2-.84c-1.49-.32-2.64-.77-3.44-1.35s-1.2-1.35-1.2-2.32c0-1.03,.44-1.91,1.32-2.65s2.02-1.1,3.42-1.1,2.6,.39,3.49,1.17,1.32,1.69,1.28,2.73l-.02,.07h-2.2c0-.55-.24-1.04-.72-1.49s-1.09-.67-1.82-.67c-.81,0-1.42,.18-1.82,.55s-.6,.8-.6,1.31,.17,.89,.52,1.16,1.06,.52,2.15,.75c1.55,.33,2.73,.79,3.54,1.39s1.21,1.39,1.21,2.36c0,1.12-.46,2.04-1.37,2.75s-2.1,1.07-3.57,1.07c-1.62,0-2.89-.41-3.82-1.23s-1.37-1.78-1.32-2.87l.02-.07h2.2c.04,.82,.34,1.42,.91,1.8s1.24,.57,2,.57c.82,0,1.46-.17,1.93-.52s.7-.79,.7-1.33Z" fill="#231f20"/><path d="M272.18,33.94c0,1.83-.44,3.3-1.31,4.42s-2.08,1.68-3.62,1.68c-.78,0-1.47-.13-2.06-.39s-1.09-.65-1.51-1.18v6.2h-2.31V27.12h1.77l.36,1.64c.41-.61,.93-1.07,1.55-1.39s1.34-.48,2.16-.48c1.57,0,2.79,.62,3.66,1.87s1.31,2.89,1.31,4.94v.25Zm-2.31-.25c0-1.44-.28-2.62-.85-3.54s-1.4-1.39-2.5-1.39c-.66,0-1.23,.15-1.7,.45s-.85,.71-1.14,1.24v6.13c.29,.52,.67,.93,1.14,1.22s1.04,.44,1.72,.44c1.09,0,1.92-.4,2.48-1.2s.84-1.83,.84-3.1v-.25Z" fill="#231f20"/><path d="M280.26,40.04c-1.82,0-3.24-.58-4.26-1.75s-1.53-2.7-1.53-4.59v-.52c0-1.82,.53-3.33,1.58-4.52s2.33-1.79,3.85-1.79c1.7,0,2.97,.53,3.81,1.58s1.27,2.46,1.27,4.21v1.22h-8.11l-.04,.06c0,1.27,.28,2.31,.84,3.1s1.42,1.19,2.58,1.19c.78,0,1.47-.11,2.06-.33s1.1-.53,1.52-.92l.9,1.5c-.45,.44-1.05,.81-1.79,1.11s-1.64,.45-2.68,.45Zm-.36-11.34c-.8,0-1.47,.31-2,.93s-.85,1.42-.97,2.38l.02,.06h5.72v-.19c0-.92-.23-1.68-.68-2.29s-1.15-.9-2.1-.9Z" fill="#231f20"/><path d="M292.61,38.24c.71,0,1.33-.24,1.86-.71s.8-1.05,.8-1.74h2.09l.04,.07c.03,1.09-.44,2.06-1.41,2.91s-2.09,1.27-3.38,1.27c-1.78,0-3.16-.61-4.12-1.82s-1.45-2.72-1.45-4.52v-.49c0-1.79,.49-3.29,1.46-4.51s2.35-1.82,4.12-1.82c1.41,0,2.57,.44,3.47,1.31s1.34,1.95,1.31,3.22l-.02,.07h-2.1c0-.77-.25-1.43-.76-1.97s-1.14-.81-1.9-.81c-1.13,0-1.96,.44-2.48,1.32s-.78,1.94-.78,3.19v.49c0,1.27,.26,2.35,.77,3.22s1.34,1.31,2.49,1.31Z" fill="#231f20"/><path d="M302.63,23.87h-2.31v-2.36h2.31v2.36Zm0,15.93h-2.31v-12.68h2.31v12.68Z" fill="#231f20"/><path d="M311.43,40.04c-1.82,0-3.24-.58-4.26-1.75s-1.53-2.7-1.53-4.59v-.52c0-1.82,.53-3.33,1.58-4.52s2.33-1.79,3.85-1.79c1.7,0,2.97,.53,3.81,1.58s1.27,2.46,1.27,4.21v1.22h-8.11l-.04,.06c0,1.27,.28,2.31,.84,3.1s1.42,1.19,2.58,1.19c.78,0,1.47-.11,2.06-.33s1.1-.53,1.52-.92l.9,1.5c-.45,.44-1.05,.81-1.79,1.11s-1.64,.45-2.68,.45Zm-.36-11.34c-.8,0-1.47,.31-2,.93s-.85,1.42-.97,2.38l.02,.06h5.72v-.19c0-.92-.23-1.68-.68-2.29s-1.15-.9-2.1-.9Z" fill="#231f20"/><path d="M326.12,36.39c0-.51-.19-.92-.58-1.24s-1.12-.6-2.2-.84c-1.49-.32-2.64-.77-3.44-1.35s-1.2-1.35-1.2-2.32c0-1.03,.44-1.91,1.32-2.65s2.02-1.1,3.42-1.1,2.6,.39,3.49,1.17,1.32,1.69,1.28,2.73l-.02,.07h-2.2c0-.55-.24-1.04-.72-1.49s-1.09-.67-1.82-.67c-.81,0-1.42,.18-1.82,.55s-.6,.8-.6,1.31,.17,.89,.52,1.16,1.06,.52,2.15,.75c1.55,.33,2.73,.79,3.54,1.39s1.21,1.39,1.21,2.36c0,1.12-.46,2.04-1.37,2.75s-2.1,1.07-3.57,1.07c-1.62,0-2.89-.41-3.82-1.23s-1.37-1.78-1.32-2.87l.02-.07h2.2c.04,.82,.34,1.42,.91,1.8s1.24,.57,2,.57c.82,0,1.46-.17,1.93-.52s.7-.79,.7-1.33Z" fill="#231f20"/></g></g></g><g><g id="cz"><path d="M106.92,64.68h24.57v-8.6h-24.57v8.6Z" fill="rgba(22,174,122,.75)" stroke="#000" stroke-width=".94"/></g><g id="da"><g isolation="isolate"><path d="M159.92,65.1c-.41,.63-1.11,1.21-2.12,1.75s-2.31,.8-3.91,.8c-1.97,0-3.6-.65-4.89-1.96s-1.93-2.99-1.93-5.06v-3.52c0-2.07,.62-3.76,1.86-5.06s2.84-1.96,4.8-1.96,3.4,.51,4.5,1.52,1.64,2.3,1.61,3.86l-.02,.07h-2.21c0-1.04-.34-1.9-1.01-2.6s-1.62-1.04-2.86-1.04c-1.3,0-2.36,.49-3.15,1.46s-1.2,2.21-1.2,3.71v3.54c0,1.52,.42,2.76,1.27,3.74s1.92,1.47,3.23,1.47c1.01,0,1.81-.13,2.4-.39s1.03-.57,1.32-.93v-3.84h-3.87v-1.8h6.18v6.23Z" fill="#231f20"/><path d="M175.84,52.15h-5.62v15.25h-2.31v-15.25h-5.55v-1.82h13.49v1.82Z" fill="#231f20"/><path d="M178.26,67.4v-17.06h5.37c2.23,0,4.02,.69,5.37,2.06s2.03,3.14,2.03,5.31v2.33c0,2.18-.68,3.95-2.03,5.31s-3.15,2.04-5.37,2.04h-5.37Zm2.31-15.25v13.44h3.06c1.58,0,2.82-.52,3.73-1.56s1.37-2.37,1.37-4v-2.36c0-1.61-.46-2.93-1.37-3.97s-2.15-1.56-3.73-1.56h-3.06Z" fill="#231f20"/><path d="M194.52,67.4v-17.06h5.57c1.78,0,3.18,.38,4.18,1.15s1.51,1.92,1.51,3.46c0,.73-.23,1.39-.68,1.97s-1.05,1.03-1.8,1.33c1.12,.16,2,.64,2.65,1.45s.98,1.77,.98,2.87c0,1.56-.51,2.76-1.52,3.58s-2.39,1.24-4.12,1.24h-6.76Zm2.31-9.81h3.74c.86,0,1.56-.24,2.1-.71s.81-1.13,.81-1.97c0-.92-.29-1.61-.87-2.07s-1.42-.69-2.51-.69h-3.26v5.44Zm0,1.8v6.2h4.45c1.05,0,1.87-.26,2.46-.78s.87-1.26,.87-2.21-.3-1.71-.89-2.29-1.39-.89-2.4-.93h-4.49Z" fill="#231f20"/><path d="M218.05,60v7.39h-2.31v-17.05h5.84c1.87,0,3.29,.41,4.28,1.24s1.48,2.03,1.48,3.61c0,.88-.23,1.64-.69,2.29s-1.12,1.16-2,1.55c.94,.3,1.61,.8,2.02,1.48s.62,1.53,.62,2.54v1.61c0,.53,.06,1.01,.18,1.43s.32,.77,.61,1.03v.28h-2.38c-.3-.27-.5-.66-.59-1.17s-.13-1.05-.13-1.59v-1.56c0-.92-.27-1.66-.81-2.23s-1.26-.84-2.17-.84h-3.95Zm0-1.82h3.29c1.3,0,2.24-.25,2.82-.74s.86-1.25,.86-2.27c0-.96-.28-1.71-.84-2.23s-1.43-.79-2.61-.79h-3.53v6.04Z" fill="#231f20"/><path d="M241.37,67.4h-10.59v-1.58l5.36-6.39c.95-1.16,1.6-2.08,1.94-2.76s.51-1.37,.51-2.07c0-.79-.23-1.44-.69-1.94s-1.1-.76-1.91-.76c-1.01,0-1.78,.31-2.3,.93s-.79,1.39-.79,2.31h-2.23l-.02-.07c-.04-1.39,.43-2.57,1.39-3.53s2.29-1.45,3.95-1.45c1.52,0,2.72,.42,3.6,1.27s1.31,1.93,1.31,3.27c0,.9-.25,1.78-.74,2.64s-1.25,1.94-2.27,3.23l-4.3,5.04,.02,.06h7.77v1.8Z" fill="#231f20"/><path d="M254.71,61.37c0,1.93-.49,3.46-1.47,4.58s-2.3,1.69-3.96,1.69-2.97-.56-3.96-1.69-1.48-2.65-1.48-4.58v-5.02c0-1.91,.49-3.44,1.47-4.57s2.29-1.7,3.94-1.7,2.98,.57,3.97,1.7,1.48,2.66,1.48,4.57v5.02Zm-2.31-5.5c0-1.23-.27-2.2-.82-2.91s-1.32-1.07-2.32-1.07-1.76,.36-2.3,1.07-.81,1.68-.81,2.91v5.96c0,1.23,.28,2.2,.83,2.92s1.32,1.08,2.3,1.08,1.77-.36,2.31-1.07,.81-1.69,.81-2.92v-5.96Z" fill="#231f20"/><path d="M268.5,52.15c-2.16,2.56-3.61,4.82-4.37,6.79s-1.14,4.16-1.14,6.6v1.86h-2.31v-1.86c0-2.58,.47-4.9,1.42-6.97s2.32-4.21,4.12-6.42h-9.05v-1.82h11.32v1.82Z" fill="#231f20"/></g></g></g></g></g></g><g id="db"><g clip-path="url(#dc)"><path d="M106.36,419.89h0Z" fill="rgba(30,174,122,.75)" stroke="#000" stroke-width=".94"/></g></g><g id="dd"><g clip-path="url(#de)"><path d="M126.33,419.89h9.98v-.07h-9.98v.07Z" fill="rgba(30,174,122,.75)" stroke="#000" stroke-width=".94"/></g></g><g id="df"><g clip-path="url(#dg)"><path d="M146.3,419.89h9.98v-.26h-9.98v.26Z" fill="rgba(30,174,122,.75)" stroke="#000" stroke-width=".94"/></g></g><g id="dh"><g clip-path="url(#di)"><path d="M166.27,419.89h9.98v-9.19h-9.98v9.19Z" fill="rgba(30,174,122,.75)" stroke="#000" stroke-width=".94"/></g></g><g id="dj"><g clip-path="url(#dk)"><path d="M186.24,419.89h9.98v-48.18h-9.98v48.18Z" fill="rgba(30,174,122,.75)" stroke="#000" stroke-width=".94"/></g></g><g id="dl"><g clip-path="url(#dm)"><path d="M206.2,419.89h9.98v-135.74h-9.98v135.74Z" fill="rgba(30,174,122,.75)" stroke="#000" stroke-width=".94"/></g></g><g id="dn"><g clip-path="url(#do)"><path d="M226.17,419.89h9.98V212.12h-9.98v207.76Z" fill="rgba(30,174,122,.75)" stroke="#000" stroke-width=".94"/></g></g><g id="dp"><g clip-path="url(#dq)"><path d="M246.14,419.89h9.98v-125.61h-9.98v125.61Z" fill="rgba(30,174,122,.75)" stroke="#000" stroke-width=".94"/></g></g><g id="dr"><g clip-path="url(#ds)"><path d="M266.11,419.89h9.98v-126.68h-9.98v126.68Z" fill="rgba(30,174,122,.75)" stroke="#000" stroke-width=".94"/></g></g><g id="dt"><g clip-path="url(#du)"><path d="M286.08,419.89h9.98v-96.91h-9.98v96.91Z" fill="rgba(30,174,122,.75)" stroke="#000" stroke-width=".94"/></g></g><g id="dv"><g clip-path="url(#dw)"><path d="M306.05,419.89h9.98v-57.05h-9.98v57.05Z" fill="rgba(30,174,122,.75)" stroke="#000" stroke-width=".94"/></g></g><g id="dx"><g clip-path="url(#dy)"><path d="M326.01,419.89h9.98v-41.49h-9.98v41.49Z" fill="rgba(30,174,122,.75)" stroke="#000" stroke-width=".94"/></g></g><g id="dz"><g clip-path="url(#ea)"><path d="M345.98,419.89h9.98v-32.3h-9.98v32.3Z" fill="rgba(30,174,122,.75)" stroke="#000" stroke-width=".94"/></g></g><g id="eb"><g clip-path="url(#ec)"><path d="M365.95,419.89h9.98v-26.01h-9.98v26.01Z" fill="rgba(30,174,122,.75)" stroke="#000" stroke-width=".94"/></g></g><g id="ed"><g clip-path="url(#ee)"><path d="M385.92,419.89h9.98v-24.54h-9.98v24.54Z" fill="rgba(30,174,122,.75)" stroke="#000" stroke-width=".94"/></g></g><g id="ef"><g clip-path="url(#eg)"><path d="M405.89,419.89h9.98v-22.63h-9.98v22.63Z" fill="rgba(30,174,122,.75)" stroke="#000" stroke-width=".94"/></g></g><g id="eh"><g clip-path="url(#ei)"><path d="M425.86,419.89h9.98v-31.17h-9.98v31.17Z" fill="rgba(30,174,122,.75)" stroke="#000" stroke-width=".94"/></g></g><g id="ej"><g clip-path="url(#ek)"><path d="M445.83,419.89h9.98v-47.37h-9.98v47.37Z" fill="rgba(30,174,122,.75)" stroke="#000" stroke-width=".94"/></g></g><g id="el"><g clip-path="url(#em)"><path d="M465.79,419.89h9.98v-62.34h-9.98v62.34Z" fill="rgba(30,174,122,.75)" stroke="#000" stroke-width=".94"/></g></g><g id="en"><g clip-path="url(#eo)"><path d="M485.76,419.89h9.98v-42.72h-9.98v42.72Z" fill="rgba(30,174,122,.75)" stroke="#000" stroke-width=".94"/></g></g><g id="ep"><g clip-path="url(#eq)"><path d="M505.73,419.89h9.98v-4.02h-9.98v4.02Z" fill="rgba(30,174,122,.75)" stroke="#000" stroke-width=".94"/></g></g><g id="er"><g clip-path="url(#es)"><path d="M525.7,419.89h9.98v-3.34h-9.98v3.34Z" fill="rgba(30,174,122,.75)" stroke="#000" stroke-width=".94"/></g></g><g id="et"><g clip-path="url(#eu)"><path d="M545.67,419.89h9.98v-5.17h-9.98v5.17Z" fill="rgba(30,174,122,.75)" stroke="#000" stroke-width=".94"/></g></g><g id="ev"><g clip-path="url(#ew)"><path d="M565.64,419.89h9.98v-8.65h-9.98v8.65Z" fill="rgba(30,174,122,.75)" stroke="#000" stroke-width=".94"/></g></g><g id="ex"><g clip-path="url(#ey)"><path d="M96.38,419.89h0Z" fill="rgba(79,41,132,.75)" stroke="#000" stroke-width=".94"/></g></g><g id="ez"><g clip-path="url(#fa)"><path d="M116.35,419.89h0Z" fill="rgba(79,41,132,.75)" stroke="#000" stroke-width=".94"/></g></g><g id="fb"><g clip-path="url(#fc)"><path d="M136.31,419.89h0Z" fill="rgba(79,41,132,.75)" stroke="#000" stroke-width=".94"/></g></g><g id="fd"><g clip-path="url(#fe)"><path d="M156.28,419.89h9.98v-.21h-9.98v.21Z" fill="rgba(79,41,132,.75)" stroke="#000" stroke-width=".94"/></g></g><g id="ff"><g clip-path="url(#fg)"><path d="M176.25,419.89h9.98v-1.73h-9.98v1.73Z" fill="rgba(79,41,132,.75)" stroke="#000" stroke-width=".94"/></g></g><g id="fh"><g clip-path="url(#fi)"><path d="M196.22,419.89h9.98v-16.49h-9.98v16.49Z" fill="rgba(79,41,132,.75)" stroke="#000" stroke-width=".94"/></g></g><g id="fj"><g clip-path="url(#fk)"><path d="M216.19,419.89h9.98v-42.97h-9.98v42.97Z" fill="rgba(79,41,132,.75)" stroke="#000" stroke-width=".94"/></g></g><g id="fl"><g clip-path="url(#fm)"><path d="M236.16,419.89h9.98v-21.21h-9.98v21.21Z" fill="rgba(79,41,132,.75)" stroke="#000" stroke-width=".94"/></g></g><g id="fn"><g clip-path="url(#fo)"><path d="M256.13,419.89h9.98v-23.22h-9.98v23.22Z" fill="rgba(79,41,132,.75)" stroke="#000" stroke-width=".94"/></g></g><g id="fp"><g clip-path="url(#fq)"><path d="M276.09,419.89h9.98v-24.6h-9.98v24.6Z" fill="rgba(79,41,132,.75)" stroke="#000" stroke-width=".94"/></g></g><g id="fr"><g clip-path="url(#fs)"><path d="M296.06,419.89h9.98v-9.63h-9.98v9.63Z" fill="rgba(79,41,132,.75)" stroke="#000" stroke-width=".94"/></g></g><g id="ft"><g clip-path="url(#fu)"><path d="M316.03,419.89h9.98v-15.32h-9.98v15.32Z" fill="rgba(79,41,132,.75)" stroke="#000" stroke-width=".94"/></g></g><g id="fv"><g clip-path="url(#fw)"><path d="M336,419.89h9.98v-9.98h-9.98v9.98Z" fill="rgba(79,41,132,.75)" stroke="#000" stroke-width=".94"/></g></g><g id="fx"><g clip-path="url(#fy)"><path d="M355.97,419.89h9.98v-13.65h-9.98v13.65Z" fill="rgba(79,41,132,.75)" stroke="#000" stroke-width=".94"/></g></g><g id="fz"><g clip-path="url(#ga)"><path d="M375.94,419.89h9.98v-10.67h-9.98v10.67Z" fill="rgba(79,41,132,.75)" stroke="#000" stroke-width=".94"/></g></g><g id="gb"><g clip-path="url(#gc)"><path d="M395.9,419.89h9.98v-14.42h-9.98v14.42Z" fill="rgba(79,41,132,.75)" stroke="#000" stroke-width=".94"/></g></g><g id="gd"><g clip-path="url(#ge)"><path d="M415.87,419.89h9.98v-65.49h-9.98v65.49Z" fill="rgba(79,41,132,.75)" stroke="#000" stroke-width=".94"/></g></g><g id="gf"><g clip-path="url(#gg)"><path d="M435.84,419.89h9.98V239h-9.98v180.89Z" fill="rgba(79,41,132,.75)" stroke="#000" stroke-width=".94"/></g></g><g id="gh"><g clip-path="url(#gi)"><path d="M455.81,419.89h9.98V20.83h-9.98V419.89Z" fill="rgba(79,41,132,.75)" stroke="#000" stroke-width=".94"/></g></g><g id="gj"><g clip-path="url(#gk)"><path d="M475.78,419.89h9.98V141.42h-9.98V419.89Z" fill="rgba(79,41,132,.75)" stroke="#000" stroke-width=".94"/></g></g><g id="gl"><g clip-path="url(#gm)"><path d="M495.75,419.89h9.98v-21.9h-9.98v21.9Z" fill="rgba(79,41,132,.75)" stroke="#000" stroke-width=".94"/></g></g><g id="gn"><g clip-path="url(#go)"><path d="M515.72,419.89h9.98v-6.51h-9.98v6.51Z" fill="rgba(79,41,132,.75)" stroke="#000" stroke-width=".94"/></g></g><g id="gp"><g clip-path="url(#gq)"><path d="M535.68,419.89h9.98v-2.15h-9.98v2.15Z" fill="rgba(79,41,132,.75)" stroke="#000" stroke-width=".94"/></g></g><g id="gr"><g clip-path="url(#gs)"><path d="M555.65,419.89h9.98v-.62h-9.98v.62Z" fill="rgba(79,41,132,.75)" stroke="#000" stroke-width=".94"/></g></g></svg>