<?xml version="1.0" encoding="UTF-8"?><svg id="a" xmlns="http://www.w3.org/2000/svg" viewBox="0 0 324.82 118.45"><g id="b"><g id="c"><path d="M24.32,21.14l-6.63-6.63,6.63-6.63v13.26Zm-18.91,.04l5.97-5.97,2.8,2.8,2.8-2.8,5.97,5.97H5.4Zm-1.37-.04V7.87l6.63,6.63-6.63,6.63ZM23.61,7.17l-9.44,9.44L4.74,7.17H23.61Zm.49-7.17H4.25C1.9,0,0,1.9,0,4.25V24.09c0,2.35,1.9,4.25,4.25,4.25H24.09c2.35,0,4.25-1.9,4.25-4.25V4.25c0-2.35-1.9-4.25-4.25-4.25" fill="#fff"/><g><path d="M52.38,22.68c-.14-.31-.25-.64-.35-.99s-.17-.7-.21-1.07c-.38,.67-.88,1.22-1.51,1.66s-1.37,.66-2.23,.66c-1.44,0-2.55-.37-3.33-1.11-.78-.74-1.17-1.75-1.17-3.03,0-1.35,.52-2.39,1.56-3.13,1.04-.74,2.55-1.11,4.54-1.11h2.08v-1.09c0-.66-.17-1.17-.52-1.54s-.86-.55-1.55-.55c-.6,0-1.06,.15-1.39,.44-.33,.29-.49,.69-.49,1.2h-3.57l-.03-.08c-.06-1.16,.45-2.16,1.52-3,1.07-.84,2.47-1.26,4.2-1.26s2.99,.42,4.01,1.24,1.53,2.02,1.53,3.57v5.67c0,.64,.05,1.25,.15,1.82s.25,1.13,.46,1.69h-3.69Zm-3.39-2.48c.64,0,1.22-.16,1.73-.48s.85-.69,1.04-1.12v-1.94h-2.08c-.79,0-1.38,.19-1.78,.58s-.6,.87-.6,1.43c0,.47,.15,.84,.45,1.11,.3,.28,.72,.41,1.25,.41Z" fill="#fff"/><path d="M62.85,22.68h-3.71v-3.25h3.71v3.25Z" fill="#fff"/><path d="M70.24,8.94l.15,1.82c.44-.66,.99-1.17,1.66-1.53,.66-.36,1.43-.54,2.3-.54s1.63,.19,2.26,.58,1.1,.98,1.42,1.76c.42-.74,.97-1.31,1.65-1.73s1.47-.62,2.39-.62c1.35,0,2.42,.48,3.21,1.44,.78,.96,1.17,2.43,1.17,4.4v8.15h-3.71V14.51c0-1.1-.17-1.87-.51-2.3s-.84-.65-1.51-.65c-.52,0-.98,.12-1.36,.35-.39,.23-.69,.56-.92,.97,0,.16,0,.3,.01,.41,0,.11,.01,.23,.01,.35v9.03h-3.69V14.51c0-1.08-.17-1.83-.51-2.28-.34-.45-.85-.67-1.52-.67-.5,0-.94,.09-1.31,.29-.38,.19-.69,.46-.93,.81v10.02h-3.69V8.94h3.44Z" fill="#fff"/><path d="M98.2,20.65c-.42,.74-.96,1.3-1.61,1.7s-1.41,.6-2.27,.6c-1.45,0-2.58-.49-3.4-1.47s-1.23-2.5-1.23-4.57v-7.96h3.69v7.99c0,1.2,.16,2.02,.49,2.47,.33,.44,.83,.67,1.52,.67,.59,0,1.1-.1,1.52-.29,.42-.19,.77-.47,1.04-.84V8.94h3.71v13.74h-3.07l-.39-2.03Z" fill="#fff"/><path d="M112.38,18.87c0-.41-.2-.76-.59-1.05-.39-.29-1.12-.55-2.19-.77-1.61-.32-2.83-.81-3.66-1.46s-1.25-1.54-1.25-2.65c0-1.18,.5-2.18,1.5-3.01s2.33-1.24,3.99-1.24,3.12,.42,4.17,1.24,1.55,1.86,1.5,3.1l-.03,.08h-3.58c0-.55-.18-1-.53-1.35s-.87-.52-1.54-.52c-.59,0-1.06,.15-1.41,.44s-.52,.66-.52,1.09,.18,.77,.54,1.04c.36,.27,1.09,.5,2.19,.72,1.68,.34,2.94,.84,3.76,1.49,.83,.66,1.24,1.56,1.24,2.71,0,1.24-.53,2.25-1.59,3.03s-2.45,1.18-4.19,1.18c-1.83,0-3.27-.46-4.34-1.39-1.06-.93-1.57-1.98-1.52-3.17l.03-.08h3.39c.03,.74,.27,1.27,.72,1.6s1.05,.5,1.79,.5c.69,0,1.21-.14,1.57-.41,.36-.27,.54-.65,.54-1.12Z" fill="#fff"/><path d="M126.28,18.87c0-.41-.2-.76-.59-1.05-.39-.29-1.12-.55-2.19-.77-1.61-.32-2.83-.81-3.66-1.46s-1.25-1.54-1.25-2.65c0-1.18,.5-2.18,1.5-3.01s2.33-1.24,3.99-1.24,3.12,.42,4.17,1.24,1.55,1.86,1.5,3.1l-.03,.08h-3.58c0-.55-.18-1-.53-1.35s-.87-.52-1.54-.52c-.59,0-1.06,.15-1.41,.44s-.52,.66-.52,1.09,.18,.77,.54,1.04c.36,.27,1.09,.5,2.19,.72,1.68,.34,2.94,.84,3.76,1.49,.83,.66,1.24,1.56,1.24,2.71,0,1.24-.53,2.25-1.59,3.03s-2.45,1.18-4.19,1.18c-1.83,0-3.27-.46-4.34-1.39-1.06-.93-1.57-1.98-1.52-3.17l.03-.08h3.39c.03,.74,.27,1.27,.72,1.6s1.05,.5,1.79,.5c.69,0,1.21-.14,1.57-.41,.36-.27,.54-.65,.54-1.12Z" fill="#fff"/><path d="M136.65,5.65h-3.71V2.87h3.71v2.78Zm0,17.02h-3.71V8.94h3.71v13.74Z" fill="#fff"/><path d="M139.65,15.92c0-2.17,.47-3.91,1.41-5.24s2.26-1.99,3.96-1.99c.77,0,1.45,.17,2.03,.52s1.08,.84,1.5,1.49l.29-1.75h3.19v13.67c0,1.79-.58,3.17-1.75,4.15-1.17,.98-2.8,1.47-4.89,1.47-.69,0-1.43-.09-2.21-.29-.78-.19-1.5-.45-2.16-.78l.62-2.77c.57,.27,1.15,.48,1.76,.62,.6,.14,1.26,.21,1.96,.21,1.02,0,1.76-.21,2.24-.63s.72-1.08,.72-1.98v-1.24c-.41,.52-.88,.91-1.43,1.18s-1.18,.41-1.89,.41c-1.68,0-3-.62-3.94-1.85s-1.41-2.87-1.41-4.9v-.27Zm3.71,.27c0,1.2,.2,2.15,.6,2.84,.4,.69,1.06,1.04,1.97,1.04,.57,0,1.05-.1,1.44-.31,.39-.21,.71-.51,.95-.91v-5.95c-.24-.42-.55-.75-.95-.98s-.87-.34-1.42-.34c-.91,0-1.57,.4-1.98,1.21s-.62,1.85-.62,3.15v.27Z" fill="#fff"/><path d="M175.91,16.16c-.08,1.84-.62,3.44-1.62,4.77-1.01,1.34-2.51,2.01-4.52,2.01-.66,0-1.23-.19-1.71-.56s-.83-.89-1.03-1.56c-.37,.69-.84,1.21-1.39,1.56s-1.2,.52-1.95,.52c-1.19,0-2.11-.5-2.75-1.51s-.87-2.34-.7-4c.21-2.15,.82-3.87,1.82-5.17s2.22-1.94,3.65-1.94c.98,0,1.77,.11,2.37,.33s1.25,.56,1.96,1.02l-.04,.05h.06l-.65,7.27c-.06,.8,0,1.35,.18,1.65,.18,.3,.42,.44,.72,.44,.97,0,1.75-.46,2.34-1.38,.59-.92,.92-2.09,.98-3.5,.13-2.99-.44-5.32-1.73-7-1.29-1.68-3.29-2.51-5.99-2.51s-4.61,.9-6.14,2.7-2.36,4.22-2.49,7.25c-.14,3,.47,5.37,1.85,7.11s3.36,2.6,5.95,2.6c.72,0,1.46-.08,2.23-.25s1.42-.38,1.97-.63l.48,1.87c-.57,.36-1.29,.63-2.17,.83-.88,.2-1.73,.3-2.57,.3-3.35,0-5.94-1.05-7.75-3.16s-2.65-4.99-2.51-8.66c.15-3.61,1.23-6.51,3.24-8.68,2.01-2.17,4.66-3.26,7.94-3.26s5.78,1.03,7.53,3.08c1.74,2.05,2.55,4.86,2.41,8.41Zm-12.82,1.23c-.08,1.08,0,1.89,.23,2.44,.24,.55,.63,.83,1.17,.83,.47,0,.9-.11,1.29-.33s.73-.63,1.03-1.22v-.08s0-.05,.01-.08l.56-6.3c-.19-.06-.39-.11-.58-.14s-.4-.05-.61-.05c-.94,0-1.65,.41-2.15,1.22-.49,.82-.81,2.05-.96,3.7Z" fill="#fff"/><path d="M187.34,20.65c-.42,.74-.96,1.3-1.61,1.7-.65,.4-1.41,.6-2.27,.6-1.45,0-2.58-.49-3.4-1.47-.82-.98-1.23-2.5-1.23-4.57v-7.96h3.69v7.99c0,1.2,.16,2.02,.49,2.47,.33,.44,.83,.67,1.52,.67,.59,0,1.1-.1,1.52-.29,.42-.19,.77-.47,1.04-.84V8.94h3.71v13.74h-3.07l-.39-2.03Z" fill="#fff"/><path d="M193.55,15.92c0-2.17,.47-3.91,1.4-5.24,.94-1.33,2.25-1.99,3.96-1.99,.76,0,1.43,.17,2.01,.5,.58,.33,1.07,.81,1.49,1.44l.34-1.69h3.15V27.96h-3.71v-6.56c-.41,.51-.88,.89-1.43,1.16s-1.17,.39-1.87,.39c-1.68,0-2.99-.62-3.93-1.85-.93-1.24-1.4-2.87-1.4-4.9v-.27Zm3.69,.27c0,1.2,.2,2.15,.61,2.86s1.07,1.05,1.98,1.05c.54,0,1.01-.1,1.4-.3,.39-.2,.71-.5,.95-.89v-6.09c-.25-.41-.56-.72-.95-.94-.38-.22-.84-.33-1.38-.33-.91,0-1.57,.41-1.99,1.22s-.63,1.87-.63,3.16v.27Z" fill="#fff"/><path d="M213.43,22.68h-3.71v-3.25h3.71v3.25Z" fill="#fff"/><path d="M223.36,22.94c-2.05,0-3.65-.63-4.8-1.89-1.15-1.26-1.73-2.88-1.73-4.86v-.51c0-2.06,.56-3.74,1.68-5.05s2.65-1.96,4.61-1.96c1.84,0,3.26,.56,4.25,1.7,.99,1.13,1.48,2.65,1.48,4.56v1.92h-8.19l-.04,.08c.06,.94,.34,1.7,.86,2.29,.51,.58,1.27,.88,2.28,.88,.83,0,1.53-.08,2.11-.25,.58-.17,1.18-.43,1.8-.77l1,2.29c-.55,.45-1.29,.83-2.23,1.13s-1.96,.46-3.07,.46Zm-.24-11.4c-.75,0-1.32,.26-1.72,.77-.4,.51-.65,1.19-.73,2.04l.03,.06h4.52v-.28c0-.8-.17-1.44-.5-1.9-.33-.46-.86-.69-1.6-.69Z" fill="#fff"/><path d="M230.92,15.92c0-2.17,.47-3.91,1.4-5.24,.94-1.33,2.25-1.99,3.96-1.99,.69,0,1.3,.15,1.85,.44,.55,.3,1.03,.72,1.45,1.27V2.87h3.72V22.68h-3.16l-.32-1.69c-.43,.63-.94,1.12-1.54,1.45-.59,.33-1.27,.5-2.03,.5-1.68,0-2.99-.62-3.93-1.85-.93-1.24-1.4-2.87-1.4-4.9v-.27Zm3.69,.27c0,1.2,.2,2.15,.61,2.84,.41,.69,1.07,1.04,1.98,1.04,.53,0,1-.11,1.4-.32,.4-.21,.72-.53,.98-.95v-5.85c-.25-.43-.58-.77-.97-1.01-.39-.24-.85-.36-1.38-.36-.91,0-1.57,.4-1.99,1.21s-.63,1.85-.63,3.15v.27Z" fill="#fff"/><path d="M255.11,20.65c-.42,.74-.96,1.3-1.61,1.7-.65,.4-1.41,.6-2.27,.6-1.45,0-2.58-.49-3.4-1.47-.82-.98-1.23-2.5-1.23-4.57v-7.96h3.69v7.99c0,1.2,.16,2.02,.49,2.47,.33,.44,.83,.67,1.52,.67,.59,0,1.1-.1,1.52-.29,.42-.19,.77-.47,1.04-.84V8.94h3.71v13.74h-3.07l-.39-2.03Z" fill="#fff"/><path d="M266,22.68h-3.71v-3.25h3.71v3.25Z" fill="#fff"/><path d="M278.07,22.68c-.13-.31-.25-.64-.35-.99-.1-.35-.17-.7-.21-1.07-.38,.67-.88,1.22-1.51,1.66-.63,.44-1.37,.66-2.23,.66-1.44,0-2.55-.37-3.33-1.11-.78-.74-1.17-1.75-1.17-3.03,0-1.35,.52-2.39,1.56-3.13,1.04-.74,2.55-1.11,4.54-1.11h2.08v-1.09c0-.66-.17-1.17-.52-1.54-.35-.36-.86-.55-1.55-.55-.6,0-1.06,.15-1.39,.44-.33,.29-.49,.69-.49,1.2h-3.57l-.03-.08c-.06-1.16,.45-2.16,1.52-3,1.07-.84,2.47-1.26,4.2-1.26s2.99,.42,4.01,1.24c1.02,.83,1.53,2.02,1.53,3.57v5.67c0,.64,.05,1.25,.15,1.82,.1,.57,.25,1.13,.46,1.69h-3.69Zm-3.39-2.48c.64,0,1.22-.16,1.73-.48s.86-.69,1.04-1.12v-1.94h-2.08c-.79,0-1.38,.19-1.78,.58-.4,.39-.6,.87-.6,1.43,0,.47,.15,.84,.45,1.11,.3,.28,.72,.41,1.25,.41Z" fill="#fff"/><path d="M292.85,20.65c-.42,.74-.96,1.3-1.61,1.7-.65,.4-1.41,.6-2.27,.6-1.45,0-2.58-.49-3.4-1.47-.82-.98-1.23-2.5-1.23-4.57v-7.96h3.69v7.99c0,1.2,.16,2.02,.49,2.47,.33,.44,.83,.67,1.52,.67,.59,0,1.1-.1,1.52-.29,.42-.19,.77-.47,1.04-.84V8.94h3.71v13.74h-3.07l-.39-2.03Z" fill="#fff"/></g></g><g id="d"><path d="M21.68,56.62c0,.17,.01,.33,.01,.5,0,5.12-3.9,11.02-11.02,11.02-2.19,0-4.23-.64-5.94-1.74,.3,.04,.61,.05,.92,.05,1.82,0,3.49-.62,4.81-1.66-1.7-.03-3.13-1.15-3.62-2.69,.24,.04,.48,.07,.73,.07,.35,0,.7-.05,1.02-.14-1.77-.36-3.11-1.92-3.11-3.8,0-.02,0-.03,0-.05,.52,.29,1.12,.46,1.75,.49-1.04-.69-1.72-1.88-1.72-3.22,0-.71,.19-1.38,.52-1.95,1.91,2.34,4.77,3.89,7.99,4.05-.07-.28-.1-.58-.1-.88,0-2.14,1.73-3.87,3.87-3.87,1.11,0,2.12,.47,2.83,1.22,.88-.17,1.71-.5,2.46-.94-.29,.9-.9,1.66-1.7,2.14,.78-.09,1.53-.3,2.23-.61-.52,.78-1.18,1.46-1.93,2.01m2.41-10.32H4.25c-2.35,0-4.25,1.9-4.25,4.25v19.84c0,2.35,1.9,4.25,4.25,4.25H24.09c2.35,0,4.25-1.9,4.25-4.25v-19.84c0-2.35-1.9-4.25-4.25-4.25" fill="#fff"/><g><path d="M64.82,59.63c-.08,1.84-.62,3.44-1.62,4.77s-2.51,2.01-4.52,2.01c-.66,0-1.23-.19-1.71-.56s-.83-.89-1.03-1.56c-.37,.69-.84,1.21-1.39,1.56s-1.2,.52-1.95,.52c-1.19,0-2.11-.5-2.75-1.51s-.87-2.34-.7-4c.21-2.15,.82-3.87,1.82-5.17s2.22-1.94,3.65-1.94c.98,0,1.77,.11,2.37,.33s1.25,.56,1.96,1.02l-.04,.05h.06l-.65,7.27c-.06,.8,0,1.35,.18,1.65s.42,.44,.72,.44c.97,0,1.75-.46,2.34-1.38s.92-2.09,.98-3.5c.14-2.99-.44-5.32-1.73-7s-3.29-2.51-5.99-2.51-4.61,.9-6.14,2.7-2.36,4.22-2.49,7.25c-.14,3,.47,5.37,1.85,7.11s3.36,2.6,5.95,2.6c.72,0,1.46-.08,2.23-.25s1.42-.38,1.97-.63l.48,1.87c-.57,.36-1.29,.63-2.16,.83-.88,.2-1.73,.3-2.57,.3-3.35,0-5.94-1.05-7.75-3.16s-2.65-4.99-2.51-8.66c.15-3.61,1.23-6.51,3.24-8.68,2.01-2.17,4.66-3.26,7.94-3.26s5.78,1.03,7.53,3.08c1.74,2.05,2.55,4.86,2.41,8.41Zm-12.82,1.23c-.08,1.08,0,1.89,.23,2.44,.24,.55,.63,.83,1.17,.83,.47,0,.9-.11,1.29-.33s.73-.63,1.03-1.22v-.08s0-.05,.01-.08l.56-6.3c-.19-.06-.39-.11-.58-.14s-.4-.05-.61-.05c-.94,0-1.65,.41-2.15,1.22-.49,.82-.81,2.05-.96,3.7Z" fill="#fff"/><path d="M75.94,66.14c-.14-.31-.25-.64-.35-.99s-.17-.7-.21-1.07c-.38,.67-.88,1.22-1.51,1.66s-1.37,.66-2.23,.66c-1.44,0-2.55-.37-3.33-1.11-.78-.74-1.17-1.75-1.17-3.03,0-1.35,.52-2.39,1.56-3.13,1.04-.74,2.55-1.11,4.54-1.11h2.08v-1.09c0-.66-.17-1.17-.52-1.54s-.86-.55-1.55-.55c-.6,0-1.06,.15-1.39,.44-.33,.29-.49,.69-.49,1.2h-3.57l-.03-.08c-.06-1.16,.45-2.16,1.52-3,1.07-.84,2.47-1.26,4.2-1.26s2.99,.42,4.01,1.24,1.53,2.02,1.53,3.57v5.67c0,.64,.05,1.25,.15,1.82s.25,1.13,.46,1.69h-3.69Zm-3.39-2.48c.64,0,1.22-.16,1.73-.48s.85-.69,1.04-1.12v-1.94h-2.08c-.79,0-1.38,.19-1.78,.58s-.6,.87-.6,1.43c0,.47,.15,.84,.45,1.11,.3,.28,.72,.41,1.25,.41Z" fill="#fff"/><path d="M90.4,66.14c-.14-.31-.25-.64-.35-.99s-.17-.7-.21-1.07c-.38,.67-.88,1.22-1.51,1.66s-1.37,.66-2.23,.66c-1.44,0-2.55-.37-3.33-1.11-.78-.74-1.17-1.75-1.17-3.03,0-1.35,.52-2.39,1.56-3.13,1.04-.74,2.55-1.11,4.54-1.11h2.08v-1.09c0-.66-.17-1.17-.52-1.54s-.86-.55-1.55-.55c-.6,0-1.06,.15-1.39,.44-.33,.29-.49,.69-.49,1.2h-3.57l-.03-.08c-.06-1.16,.45-2.16,1.52-3,1.07-.84,2.47-1.26,4.2-1.26s2.99,.42,4.01,1.24,1.53,2.02,1.53,3.57v5.67c0,.64,.05,1.25,.15,1.82s.25,1.13,.46,1.69h-3.69Zm-3.39-2.48c.64,0,1.22-.16,1.73-.48s.85-.69,1.04-1.12v-1.94h-2.08c-.79,0-1.38,.19-1.78,.58s-.6,.87-.6,1.43c0,.47,.15,.84,.45,1.11,.3,.28,.72,.41,1.25,.41Z" fill="#fff"/><path d="M103.98,55.59l-1.36-.04c-.55,0-1,.11-1.36,.34s-.63,.55-.81,.96v9.28h-3.69v-13.74h3.44l.17,2.03c.32-.72,.74-1.28,1.25-1.68,.51-.4,1.1-.6,1.77-.6,.19,0,.36,.01,.51,.04,.16,.03,.32,.07,.48,.11l-.39,3.29Z" fill="#fff"/><path d="M105.83,59.14c0-2.05,.57-3.73,1.71-5.03,1.14-1.31,2.73-1.96,4.75-1.96s3.62,.65,4.77,1.96,1.73,2.98,1.73,5.04v.27c0,2.07-.57,3.75-1.72,5.05-1.15,1.3-2.73,1.95-4.75,1.95s-3.62-.65-4.77-1.95c-1.15-1.3-1.72-2.98-1.72-5.05v-.27Zm3.69,.27c0,1.25,.22,2.26,.66,3.02,.44,.76,1.15,1.14,2.13,1.14s1.66-.38,2.1-1.14,.67-1.76,.67-3.01v-.27c0-1.22-.22-2.21-.67-2.98s-1.16-1.16-2.12-1.16-1.66,.39-2.1,1.16c-.44,.78-.67,1.77-.67,2.98v.27Z" fill="#fff"/><path d="M124.96,52.4l.17,1.97c.46-.7,1.02-1.25,1.69-1.64s1.42-.58,2.25-.58c1.39,0,2.47,.45,3.25,1.34,.78,.89,1.17,2.3,1.17,4.23v8.42h-3.72v-8.4c0-.98-.17-1.68-.51-2.09-.34-.41-.86-.62-1.54-.62-.55,0-1.03,.1-1.45,.31-.42,.21-.76,.49-1.03,.86v9.94h-3.71v-13.74h3.45Z" fill="#fff"/><path d="M140.18,52.4l.15,1.82c.44-.66,.99-1.17,1.66-1.53,.66-.36,1.43-.54,2.3-.54s1.63,.19,2.26,.58,1.1,.98,1.42,1.76c.42-.74,.97-1.31,1.65-1.73s1.47-.62,2.39-.62c1.35,0,2.42,.48,3.21,1.44,.78,.96,1.17,2.43,1.17,4.4v8.15h-3.71v-8.16c0-1.1-.17-1.87-.51-2.3s-.84-.65-1.51-.65c-.52,0-.98,.12-1.36,.35-.39,.23-.69,.56-.92,.97,0,.16,0,.3,.01,.41,0,.11,.01,.23,.01,.35v9.03h-3.69v-8.16c0-1.08-.17-1.83-.51-2.28-.34-.45-.85-.67-1.52-.67-.5,0-.94,.09-1.31,.29-.38,.19-.69,.46-.93,.81v10.02h-3.69v-13.74h3.44Z" fill="#fff"/><path d="M168.15,64.11c-.42,.74-.96,1.3-1.61,1.7s-1.41,.6-2.27,.6c-1.45,0-2.58-.49-3.4-1.47s-1.23-2.5-1.23-4.57v-7.96h3.69v7.99c0,1.2,.16,2.02,.49,2.47,.33,.44,.83,.67,1.52,.67,.59,0,1.1-.1,1.52-.29,.42-.19,.77-.47,1.04-.84v-9.99h3.71v13.74h-3.07l-.39-2.03Z" fill="#fff"/><path d="M182.33,62.33c0-.41-.2-.76-.59-1.05-.39-.29-1.12-.55-2.19-.77-1.61-.32-2.83-.81-3.66-1.46-.83-.65-1.25-1.54-1.25-2.65,0-1.18,.5-2.18,1.5-3.01,1-.83,2.33-1.24,3.99-1.24s3.12,.42,4.17,1.24c1.05,.83,1.55,1.86,1.5,3.1l-.03,.08h-3.58c0-.55-.18-1-.53-1.35s-.87-.52-1.54-.52c-.59,0-1.06,.15-1.41,.44-.35,.3-.52,.66-.52,1.09s.18,.77,.54,1.04c.36,.27,1.09,.5,2.19,.72,1.68,.34,2.94,.84,3.76,1.49,.83,.66,1.24,1.56,1.24,2.71,0,1.24-.53,2.25-1.59,3.03-1.06,.79-2.46,1.18-4.19,1.18-1.83,0-3.27-.46-4.34-1.39-1.06-.93-1.57-1.98-1.52-3.17l.03-.08h3.39c.03,.74,.27,1.27,.72,1.6s1.05,.5,1.79,.5c.69,0,1.21-.14,1.57-.41,.36-.27,.54-.65,.54-1.12Z" fill="#fff"/><path d="M196.23,62.33c0-.41-.2-.76-.59-1.05-.39-.29-1.12-.55-2.19-.77-1.61-.32-2.83-.81-3.66-1.46-.83-.65-1.25-1.54-1.25-2.65,0-1.18,.5-2.18,1.5-3.01,1-.83,2.33-1.24,3.99-1.24s3.12,.42,4.17,1.24c1.04,.83,1.55,1.86,1.5,3.1l-.03,.08h-3.58c0-.55-.18-1-.53-1.35s-.87-.52-1.54-.52c-.59,0-1.06,.15-1.41,.44-.35,.3-.52,.66-.52,1.09s.18,.77,.54,1.04c.36,.27,1.09,.5,2.19,.72,1.68,.34,2.94,.84,3.76,1.49,.83,.66,1.24,1.56,1.24,2.71,0,1.24-.53,2.25-1.59,3.03-1.06,.79-2.45,1.18-4.19,1.18-1.83,0-3.27-.46-4.33-1.39-1.06-.93-1.57-1.98-1.52-3.17l.03-.08h3.39c.03,.74,.27,1.27,.72,1.6s1.05,.5,1.79,.5c.69,0,1.21-.14,1.57-.41,.36-.27,.54-.65,.54-1.12Z" fill="#fff"/><path d="M206.6,49.11h-3.71v-2.78h3.71v2.78Zm0,17.02h-3.71v-13.74h3.71v13.74Z" fill="#fff"/><path d="M209.6,59.38c0-2.17,.47-3.91,1.41-5.24s2.26-1.99,3.96-1.99c.77,0,1.45,.17,2.03,.52s1.08,.84,1.5,1.49l.29-1.75h3.19v13.67c0,1.79-.58,3.17-1.75,4.15-1.17,.98-2.8,1.47-4.89,1.47-.69,0-1.43-.09-2.21-.29-.78-.19-1.5-.45-2.16-.78l.62-2.77c.57,.27,1.15,.48,1.76,.62,.6,.14,1.26,.21,1.96,.21,1.02,0,1.76-.21,2.24-.63,.48-.42,.72-1.08,.72-1.98v-1.24c-.41,.52-.88,.91-1.43,1.18-.55,.27-1.18,.41-1.89,.41-1.68,0-3-.62-3.94-1.85s-1.41-2.87-1.41-4.9v-.27Zm3.71,.27c0,1.2,.2,2.15,.6,2.84,.4,.69,1.06,1.04,1.97,1.04,.57,0,1.05-.1,1.44-.31,.39-.21,.71-.51,.95-.91v-5.95c-.24-.42-.55-.75-.95-.98s-.87-.34-1.42-.34c-.91,0-1.57,.4-1.98,1.21-.41,.8-.62,1.85-.62,3.15v.27Z" fill="#fff"/></g></g><g id="e"><g><path d="M16.39,99.11h-2.62v8.79h2.71c3.86,0,4.75-2.93,4.75-4.4,0-2.38-1.52-4.4-4.84-4.4Z" fill="#fff"/><path d="M14.17,88.82c-7.83,0-14.17,6.34-14.17,14.17s6.34,14.17,14.17,14.17,14.17-6.34,14.17-14.17-6.34-14.17-14.17-14.17Zm-4.62,14.12v6.5h-1.71v-11.86h1.71v5.36Zm-.85-6.71c-.62,0-1.12-.51-1.12-1.12s.5-1.12,1.12-1.12,1.12,.51,1.12,1.12-.5,1.12-1.12,1.12Zm7.98,13.22h-4.63v-11.87h4.61c4.38,0,6.31,3.13,6.31,5.94,0,3.05-2.38,5.94-6.29,5.94Z" fill="#fff"/></g><g><path d="M56.5,104.72c0,2.17-.57,3.87-1.71,5.1s-2.65,1.85-4.53,1.85-3.42-.62-4.56-1.85-1.71-2.94-1.71-5.1v-5.09c0-2.16,.57-3.86,1.71-5.1s2.65-1.87,4.54-1.87,3.39,.62,4.54,1.87,1.72,2.95,1.72,5.1v5.09Zm-3.69-5.47c0-1.18-.23-2.1-.68-2.75s-1.08-.98-1.89-.98-1.44,.33-1.89,.98-.67,1.57-.67,2.75v5.83c0,1.21,.22,2.14,.67,2.79,.45,.65,1.08,.97,1.9,.97s1.43-.32,1.87-.97c.44-.65,.67-1.58,.67-2.79v-5.83Z" fill="#fff"/><path d="M71.91,104.72c0,2.17-.57,3.87-1.71,5.1s-2.65,1.85-4.53,1.85-3.42-.62-4.56-1.85-1.71-2.94-1.71-5.1v-5.09c0-2.16,.57-3.86,1.71-5.1s2.65-1.87,4.54-1.87,3.39,.62,4.54,1.87,1.72,2.95,1.72,5.1v5.09Zm-3.69-5.47c0-1.18-.23-2.1-.68-2.75s-1.08-.98-1.89-.98-1.44,.33-1.89,.98-.67,1.57-.67,2.75v5.83c0,1.21,.22,2.14,.67,2.79,.45,.65,1.08,.97,1.9,.97s1.43-.32,1.87-.97c.44-.65,.67-1.58,.67-2.79v-5.83Z" fill="#fff"/><path d="M87.32,104.72c0,2.17-.57,3.87-1.71,5.1s-2.65,1.85-4.53,1.85-3.42-.62-4.56-1.85-1.71-2.94-1.71-5.1v-5.09c0-2.16,.57-3.86,1.71-5.1s2.65-1.87,4.54-1.87,3.39,.62,4.54,1.87,1.72,2.95,1.72,5.1v5.09Zm-3.69-5.47c0-1.18-.23-2.1-.68-2.75s-1.08-.98-1.89-.98-1.44,.33-1.89,.98-.67,1.57-.67,2.75v5.83c0,1.21,.22,2.14,.67,2.79,.45,.65,1.08,.97,1.9,.97s1.43-.32,1.87-.97c.44-.65,.67-1.58,.67-2.79v-5.83Z" fill="#fff"/><path d="M102.73,104.72c0,2.17-.57,3.87-1.71,5.1s-2.65,1.85-4.53,1.85-3.42-.62-4.56-1.85-1.71-2.94-1.71-5.1v-5.09c0-2.16,.57-3.86,1.71-5.1s2.65-1.87,4.54-1.87,3.39,.62,4.54,1.87,1.72,2.95,1.72,5.1v5.09Zm-3.69-5.47c0-1.18-.23-2.1-.68-2.75s-1.08-.98-1.89-.98-1.44,.33-1.89,.98-.67,1.57-.67,2.75v5.83c0,1.21,.22,2.14,.67,2.79,.45,.65,1.08,.97,1.9,.97s1.43-.32,1.87-.97c.44-.65,.67-1.58,.67-2.79v-5.83Z" fill="#fff"/><path d="M113.76,104.93h-7.48v-2.86h7.48v2.86Z" fill="#fff"/><path d="M129.96,104.72c0,2.17-.57,3.87-1.71,5.1s-2.65,1.85-4.53,1.85-3.42-.62-4.56-1.85-1.71-2.94-1.71-5.1v-5.09c0-2.16,.57-3.86,1.71-5.1s2.65-1.87,4.54-1.87,3.39,.62,4.54,1.87,1.72,2.95,1.72,5.1v5.09Zm-3.69-5.47c0-1.18-.23-2.1-.68-2.75s-1.08-.98-1.89-.98-1.44,.33-1.89,.98-.67,1.57-.67,2.75v5.83c0,1.21,.22,2.14,.67,2.79,.45,.65,1.08,.97,1.9,.97s1.43-.32,1.87-.97c.44-.65,.67-1.58,.67-2.79v-5.83Z" fill="#fff"/><path d="M145.37,104.72c0,2.17-.57,3.87-1.71,5.1s-2.65,1.85-4.53,1.85-3.42-.62-4.56-1.85-1.71-2.94-1.71-5.1v-5.09c0-2.16,.57-3.86,1.71-5.1s2.65-1.87,4.54-1.87,3.39,.62,4.54,1.87,1.72,2.95,1.72,5.1v5.09Zm-3.69-5.47c0-1.18-.23-2.1-.68-2.75s-1.08-.98-1.89-.98-1.44,.33-1.89,.98-.67,1.57-.67,2.75v5.83c0,1.21,.22,2.14,.67,2.79,.45,.65,1.08,.97,1.9,.97s1.43-.32,1.87-.97c.44-.65,.67-1.58,.67-2.79v-5.83Z" fill="#fff"/><path d="M160.78,104.72c0,2.17-.57,3.87-1.71,5.1s-2.65,1.85-4.53,1.85-3.42-.62-4.56-1.85-1.71-2.94-1.71-5.1v-5.09c0-2.16,.57-3.86,1.71-5.1s2.65-1.87,4.54-1.87,3.39,.62,4.54,1.87,1.72,2.95,1.72,5.1v5.09Zm-3.69-5.47c0-1.18-.23-2.1-.68-2.75s-1.08-.98-1.89-.98-1.44,.33-1.89,.98-.67,1.57-.67,2.75v5.83c0,1.21,.22,2.14,.67,2.79,.45,.65,1.08,.97,1.9,.97s1.43-.32,1.87-.97c.44-.65,.67-1.58,.67-2.79v-5.83Z" fill="#fff"/><path d="M176.37,111.41h-12.4v-2.42l5.73-6.47c.85-1.01,1.46-1.86,1.82-2.56,.36-.7,.54-1.34,.54-1.92,0-.76-.19-1.37-.57-1.83s-.95-.69-1.71-.69c-.8,0-1.43,.29-1.87,.88s-.66,1.32-.66,2.22h-3.61l-.03-.08c-.04-1.64,.5-3.03,1.62-4.17,1.13-1.14,2.64-1.71,4.53-1.71s3.37,.48,4.42,1.45c1.05,.97,1.57,2.27,1.57,3.9,0,1.11-.29,2.12-.88,3.03-.59,.91-1.6,2.18-3.04,3.8l-3.05,3.66,.03,.06h7.55v2.84Z" fill="#fff"/><path d="M187.22,104.93h-7.48v-2.86h7.48v2.86Z" fill="#fff"/><path d="M196.46,108.83c.91,0,1.66-.34,2.25-1.03,.58-.69,.88-1.65,.88-2.89v-1.19c-.41,.53-.91,.94-1.47,1.21-.57,.27-1.18,.41-1.83,.41-1.72,0-3.07-.56-4.04-1.68s-1.47-2.64-1.47-4.56,.58-3.39,1.74-4.61c1.16-1.22,2.64-1.83,4.44-1.83s3.38,.63,4.56,1.88c1.18,1.25,1.76,2.99,1.76,5.21v4.98c0,2.13-.64,3.83-1.92,5.08s-2.91,1.88-4.89,1.88c-.64,0-1.31-.07-1.99-.21-.68-.14-1.32-.34-1.92-.59l.62-2.68c.53,.22,1.05,.38,1.56,.48s1.08,.15,1.73,.15Zm.44-6.22c.6,0,1.13-.12,1.59-.37s.82-.58,1.09-.99v-2.16c0-1.16-.24-2.05-.71-2.66-.47-.61-1.11-.92-1.9-.92-.74,0-1.35,.34-1.8,1.04-.46,.69-.69,1.54-.69,2.54,0,1.06,.21,1.91,.62,2.55,.42,.64,1.02,.96,1.8,.96Z" fill="#fff"/><path d="M211.88,108.83c.91,0,1.66-.34,2.25-1.03,.58-.69,.88-1.65,.88-2.89v-1.19c-.41,.53-.91,.94-1.47,1.21-.57,.27-1.18,.41-1.83,.41-1.72,0-3.07-.56-4.04-1.68s-1.47-2.64-1.47-4.56,.58-3.39,1.74-4.61c1.16-1.22,2.64-1.83,4.44-1.83s3.38,.63,4.56,1.88c1.18,1.25,1.76,2.99,1.76,5.21v4.98c0,2.13-.64,3.83-1.92,5.08s-2.91,1.88-4.89,1.88c-.64,0-1.31-.07-1.99-.21-.68-.14-1.32-.34-1.92-.59l.62-2.68c.53,.22,1.05,.38,1.56,.48s1.08,.15,1.73,.15Zm.44-6.22c.6,0,1.13-.12,1.59-.37s.82-.58,1.09-.99v-2.16c0-1.16-.24-2.05-.71-2.66-.47-.61-1.11-.92-1.9-.92-.74,0-1.35,.34-1.8,1.04-.46,.69-.69,1.54-.69,2.54,0,1.06,.21,1.91,.62,2.55,.42,.64,1.02,.96,1.8,.96Z" fill="#fff"/><path d="M233.94,97.72c0,.91-.24,1.72-.71,2.43-.47,.71-1.13,1.26-1.96,1.66,1.01,.42,1.81,1.01,2.4,1.78,.59,.78,.89,1.66,.89,2.66,0,1.71-.59,3.04-1.78,3.99-1.19,.95-2.71,1.43-4.56,1.43s-3.53-.48-4.77-1.43c-1.24-.95-1.87-2.28-1.87-3.99,0-1,.31-1.88,.92-2.66,.61-.77,1.45-1.37,2.5-1.78-.87-.4-1.56-.95-2.05-1.66-.5-.71-.74-1.52-.74-2.43,0-1.62,.55-2.88,1.66-3.75,1.11-.88,2.55-1.31,4.33-1.31s3.08,.44,4.15,1.31c1.07,.88,1.6,2.13,1.6,3.75Zm-3.08,8.35c0-.82-.26-1.5-.77-2.03-.51-.53-1.14-.79-1.9-.79-.83,0-1.52,.26-2.07,.79-.55,.53-.83,1.2-.83,2.03s.27,1.51,.82,2.01,1.25,.75,2.1,.75c.76,0,1.39-.25,1.89-.75,.5-.5,.75-1.17,.75-2.01Zm-.61-8.19c0-.73-.19-1.31-.57-1.73-.38-.43-.88-.64-1.49-.64-.69,0-1.25,.21-1.66,.63-.42,.42-.62,1-.62,1.75s.21,1.36,.63,1.82c.42,.46,.98,.69,1.68,.69,.61,0,1.1-.23,1.47-.69,.37-.46,.56-1.07,.56-1.83Z" fill="#fff"/><path d="M249.35,97.72c0,.91-.24,1.72-.71,2.43-.47,.71-1.13,1.26-1.96,1.66,1.01,.42,1.81,1.01,2.4,1.78,.59,.78,.89,1.66,.89,2.66,0,1.71-.59,3.04-1.78,3.99-1.19,.95-2.71,1.43-4.56,1.43s-3.53-.48-4.77-1.43c-1.24-.95-1.87-2.28-1.87-3.99,0-1,.31-1.88,.92-2.66,.61-.77,1.45-1.37,2.5-1.78-.87-.4-1.56-.95-2.05-1.66-.5-.71-.74-1.52-.74-2.43,0-1.62,.55-2.88,1.66-3.75,1.11-.88,2.55-1.31,4.33-1.31s3.08,.44,4.15,1.31c1.07,.88,1.6,2.13,1.6,3.75Zm-3.08,8.35c0-.82-.26-1.5-.77-2.03-.51-.53-1.14-.79-1.9-.79-.83,0-1.52,.26-2.07,.79-.55,.53-.83,1.2-.83,2.03s.27,1.51,.82,2.01,1.25,.75,2.1,.75c.76,0,1.39-.25,1.89-.75,.5-.5,.75-1.17,.75-2.01Zm-.61-8.19c0-.73-.19-1.31-.57-1.73-.38-.43-.88-.64-1.49-.64-.69,0-1.25,.21-1.66,.63-.42,.42-.62,1-.62,1.75s.21,1.36,.63,1.82c.42,.46,.98,.69,1.68,.69,.61,0,1.1-.23,1.47-.69,.37-.46,.56-1.07,.56-1.83Z" fill="#fff"/><path d="M260.69,104.93h-7.48v-2.86h7.48v2.86Z" fill="#fff"/><path d="M276.88,104.72c0,2.17-.57,3.87-1.71,5.1-1.14,1.24-2.65,1.85-4.53,1.85s-3.42-.62-4.56-1.85-1.71-2.94-1.71-5.1v-5.09c0-2.16,.57-3.86,1.71-5.1,1.14-1.24,2.65-1.87,4.54-1.87s3.39,.62,4.54,1.87c1.15,1.24,1.72,2.95,1.72,5.1v5.09Zm-3.69-5.47c0-1.18-.23-2.1-.68-2.75-.45-.65-1.08-.98-1.88-.98s-1.44,.33-1.89,.98-.67,1.57-.67,2.75v5.83c0,1.21,.22,2.14,.67,2.79,.45,.65,1.08,.97,1.9,.97s1.43-.32,1.87-.97c.44-.65,.67-1.58,.67-2.79v-5.83Z" fill="#fff"/><path d="M291.99,97.72c0,.91-.24,1.72-.71,2.43-.47,.71-1.12,1.26-1.96,1.66,1.01,.42,1.81,1.01,2.4,1.78,.59,.78,.89,1.66,.89,2.66,0,1.71-.59,3.04-1.78,3.99-1.19,.95-2.71,1.43-4.56,1.43s-3.53-.48-4.77-1.43c-1.24-.95-1.87-2.28-1.87-3.99,0-1,.31-1.88,.92-2.66,.61-.77,1.45-1.37,2.49-1.78-.87-.4-1.55-.95-2.05-1.66-.5-.71-.74-1.52-.74-2.43,0-1.62,.55-2.88,1.66-3.75,1.11-.88,2.55-1.31,4.33-1.31s3.08,.44,4.15,1.31c1.07,.88,1.6,2.13,1.6,3.75Zm-3.08,8.35c0-.82-.26-1.5-.77-2.03-.51-.53-1.14-.79-1.9-.79-.83,0-1.52,.26-2.07,.79-.55,.53-.83,1.2-.83,2.03s.27,1.51,.82,2.01,1.25,.75,2.1,.75c.76,0,1.39-.25,1.89-.75,.5-.5,.75-1.17,.75-2.01Zm-.61-8.19c0-.73-.19-1.31-.57-1.73-.38-.43-.88-.64-1.49-.64-.69,0-1.25,.21-1.66,.63-.41,.42-.62,1-.62,1.75s.21,1.36,.63,1.82c.42,.46,.98,.69,1.68,.69,.61,0,1.1-.23,1.47-.69,.37-.46,.56-1.07,.56-1.83Z" fill="#fff"/><path d="M302.49,92.66c.72,0,1.39,.07,2,.2,.61,.13,1.22,.32,1.82,.58l-.66,2.72c-.58-.19-1.09-.34-1.55-.44-.46-.1-.99-.15-1.59-.15-1.08,0-1.96,.42-2.62,1.24-.67,.83-1,1.98-1,3.47v.6c.49-.48,1.08-.86,1.76-1.12,.68-.27,1.44-.4,2.28-.4,1.58,0,2.82,.56,3.71,1.68,.89,1.12,1.33,2.58,1.33,4.39s-.58,3.36-1.73,4.52c-1.15,1.16-2.65,1.74-4.51,1.74s-3.5-.66-4.72-1.98c-1.21-1.32-1.82-3.13-1.82-5.42v-3.87c0-2.34,.69-4.22,2.06-5.63,1.38-1.41,3.12-2.11,5.22-2.11Zm-.79,9.5c-.67,0-1.24,.11-1.71,.32-.47,.22-.84,.51-1.1,.9v.99c0,1.42,.26,2.52,.78,3.3s1.21,1.17,2.06,1.17c.77,0,1.38-.32,1.84-.97,.46-.65,.69-1.46,.69-2.44s-.23-1.81-.69-2.39c-.46-.58-1.09-.87-1.87-.87Z" fill="#fff"/><path d="M317.9,92.66c.72,0,1.39,.07,2,.2,.61,.13,1.22,.32,1.82,.58l-.66,2.72c-.58-.19-1.09-.34-1.55-.44-.46-.1-.99-.15-1.59-.15-1.08,0-1.96,.42-2.62,1.24-.67,.83-1,1.98-1,3.47v.6c.49-.48,1.08-.86,1.76-1.12,.68-.27,1.44-.4,2.28-.4,1.58,0,2.82,.56,3.71,1.68,.89,1.12,1.33,2.58,1.33,4.39s-.58,3.36-1.73,4.52c-1.15,1.16-2.65,1.74-4.51,1.74s-3.5-.66-4.72-1.98c-1.21-1.32-1.82-3.13-1.82-5.42v-3.87c0-2.34,.69-4.22,2.06-5.63,1.38-1.41,3.12-2.11,5.22-2.11Zm-.79,9.5c-.67,0-1.24,.11-1.71,.32-.47,.22-.84,.51-1.1,.9v.99c0,1.42,.26,2.52,.78,3.3s1.21,1.17,2.06,1.17c.77,0,1.38-.32,1.84-.97,.46-.65,.69-1.46,.69-2.44s-.23-1.81-.69-2.39c-.46-.58-1.09-.87-1.87-.87Z" fill="#fff"/></g></g></g></svg>