<?xml version="1.0" encoding="UTF-8"?><svg id="a" xmlns="http://www.w3.org/2000/svg" xmlns:xlink="http://www.w3.org/1999/xlink" viewBox="0 0 807.67 496.04"><defs><clipPath id="z"><rect x="81.32" y="14.78" width="725.82" height="424.26" fill="none"/></clipPath><clipPath id="ad"><rect x="81.32" y="14.78" width="725.82" height="424.26" fill="none"/></clipPath><clipPath id="ah"><rect x="81.32" y="14.78" width="725.82" height="424.26" fill="none"/></clipPath><clipPath id="al"><rect x="81.32" y="14.78" width="725.82" height="424.26" fill="none"/></clipPath><clipPath id="as"><rect x="81.32" y="14.78" width="725.82" height="424.26" fill="none"/></clipPath><clipPath id="au"><rect x="81.32" y="14.78" width="725.82" height="424.26" fill="none"/></clipPath><clipPath id="aw"><rect x="81.32" y="14.78" width="725.82" height="424.26" fill="none"/></clipPath><clipPath id="ay"><rect x="81.32" y="14.78" width="725.82" height="424.26" fill="none"/></clipPath><clipPath id="ba"><rect x="81.32" y="14.78" width="725.82" height="424.26" fill="none"/></clipPath><clipPath id="bc"><rect x="81.32" y="14.78" width="725.82" height="424.26" fill="none"/></clipPath><clipPath id="be"><rect x="81.32" y="14.78" width="725.82" height="424.26" fill="none"/></clipPath><clipPath id="bg"><rect x="81.32" y="14.78" width="725.82" height="424.26" fill="none"/></clipPath><clipPath id="bi"><rect x="81.32" y="14.78" width="725.82" height="424.26" fill="none"/></clipPath><clipPath id="bk"><rect x="81.32" y="14.78" width="725.82" height="424.26" fill="none"/></clipPath><clipPath id="bm"><rect x="81.32" y="14.78" width="725.82" height="424.26" fill="none"/></clipPath><clipPath id="bo"><rect x="81.32" y="14.78" width="725.82" height="424.26" fill="none"/></clipPath><clipPath id="bq"><rect x="81.32" y="14.78" width="725.82" height="424.26" fill="none"/></clipPath><clipPath id="bs"><rect x="81.32" y="14.78" width="725.82" height="424.26" fill="none"/></clipPath><clipPath id="bu"><rect x="81.32" y="14.78" width="725.82" height="424.26" fill="none"/></clipPath><clipPath id="bw"><rect x="81.32" y="14.78" width="725.82" height="424.26" fill="none"/></clipPath><clipPath id="by"><rect x="81.32" y="14.78" width="725.82" height="424.26" fill="none"/></clipPath><clipPath id="ca"><rect x="81.32" y="14.78" width="725.82" height="424.26" fill="none"/></clipPath><clipPath id="cc"><rect x="81.32" y="14.78" width="725.82" height="424.26" fill="none"/></clipPath><clipPath id="ce"><rect x="81.32" y="14.78" width="725.82" height="424.26" fill="none"/></clipPath><clipPath id="cg"><rect x="81.32" y="14.78" width="725.82" height="424.26" fill="none"/></clipPath><clipPath id="ci"><rect x="81.32" y="14.78" width="725.82" height="424.26" fill="none"/></clipPath><clipPath id="ck"><rect x="81.32" y="14.78" width="725.82" height="424.26" fill="none"/></clipPath><clipPath id="cm"><rect x="81.32" y="14.78" width="725.82" height="424.26" fill="none"/></clipPath><clipPath id="co"><rect x="81.32" y="14.78" width="725.82" height="424.26" fill="none"/></clipPath><clipPath id="cq"><rect x="81.32" y="14.78" width="725.82" height="424.26" fill="none"/></clipPath><clipPath id="cs"><rect x="81.32" y="14.78" width="725.82" height="424.26" fill="none"/></clipPath><clipPath id="cu"><rect x="81.32" y="14.78" width="725.82" height="424.26" fill="none"/></clipPath><clipPath id="cw"><rect x="81.32" y="14.78" width="725.82" height="424.26" fill="none"/></clipPath><clipPath id="cy"><rect x="81.32" y="14.78" width="725.82" height="424.26" fill="none"/></clipPath><clipPath id="da"><rect x="81.32" y="14.78" width="725.82" height="424.26" fill="none"/></clipPath><clipPath id="dc"><rect x="81.32" y="14.78" width="725.82" height="424.26" fill="none"/></clipPath><clipPath id="de"><rect x="81.32" y="14.78" width="725.82" height="424.26" fill="none"/></clipPath><clipPath id="dg"><rect x="81.32" y="14.78" width="725.82" height="424.26" fill="none"/></clipPath><clipPath id="di"><rect x="81.32" y="14.78" width="725.82" height="424.26" fill="none"/></clipPath><clipPath id="dk"><rect x="81.32" y="14.78" width="725.82" height="424.26" fill="none"/></clipPath><clipPath id="dm"><rect x="81.32" y="14.78" width="725.82" height="424.26" fill="none"/></clipPath><clipPath id="do"><rect x="81.32" y="14.78" width="725.82" height="424.26" fill="none"/></clipPath><clipPath id="dq"><rect x="81.32" y="14.78" width="725.82" height="424.26" fill="none"/></clipPath><clipPath id="ds"><rect x="81.32" y="14.78" width="725.82" height="424.26" fill="none"/></clipPath><clipPath id="du"><rect x="81.32" y="14.78" width="725.82" height="424.26" fill="none"/></clipPath><clipPath id="dw"><rect x="81.32" y="14.78" width="725.82" height="424.26" fill="none"/></clipPath><clipPath id="dy"><rect x="81.32" y="14.78" width="725.82" height="424.26" fill="none"/></clipPath><clipPath id="ea"><rect x="81.32" y="14.78" width="725.82" height="424.26" fill="none"/></clipPath><clipPath id="ec"><rect x="81.32" y="14.78" width="725.82" height="424.26" fill="none"/></clipPath><clipPath id="ee"><rect x="81.32" y="14.78" width="725.82" height="424.26" fill="none"/></clipPath><clipPath id="eg"><rect x="81.32" y="14.78" width="725.82" height="424.26" fill="none"/></clipPath><clipPath id="ei"><rect x="81.32" y="14.78" width="725.82" height="424.26" fill="none"/></clipPath></defs><g id="b"><g id="c"><g id="d"><g id="e"><g isolation="isolate"><path d="M125.3,461.24h-2.32v-14.93l-3.71,.04v-1.78l6.04-.63v17.31Z" fill="#262626"/></g></g></g><g id="f"><g id="g"><g isolation="isolate"><path d="M209.76,453.66l.98-9.48h8.54v2.05h-6.6l-.55,4.91c.37-.27,.77-.5,1.22-.67s.95-.27,1.52-.28c1.58-.02,2.81,.48,3.71,1.48s1.34,2.38,1.34,4.13-.46,3.09-1.38,4.12-2.26,1.56-4.01,1.56c-1.45,0-2.65-.39-3.61-1.18s-1.42-1.95-1.38-3.48l.02-.07h2.09c0,.93,.27,1.65,.8,2.16s1.23,.77,2.08,.77c.98,0,1.73-.34,2.27-1.03s.81-1.63,.81-2.82c0-1.09-.27-1.96-.81-2.64s-1.3-1.01-2.27-1.01c-.91,0-1.56,.14-1.97,.41s-.71,.7-.9,1.27l-1.91-.2Z" fill="#262626"/></g></g></g><g id="h"><g id="i"><g isolation="isolate"><path d="M302.06,461.24h-2.32v-14.93l-3.71,.04v-1.78l6.04-.63v17.31Z" fill="#262626"/><path d="M319.44,455.22c0,1.93-.49,3.46-1.47,4.58s-2.3,1.69-3.96,1.69-2.97-.56-3.96-1.69-1.48-2.65-1.48-4.58v-5.02c0-1.91,.49-3.44,1.47-4.57s2.29-1.7,3.94-1.7,2.98,.57,3.97,1.7,1.48,2.66,1.48,4.57v5.02Zm-2.31-5.5c0-1.23-.27-2.2-.82-2.91s-1.32-1.07-2.32-1.07-1.76,.36-2.3,1.07-.81,1.68-.81,2.91v5.96c0,1.23,.28,2.2,.83,2.92s1.32,1.08,2.3,1.08,1.77-.36,2.31-1.07,.81-1.69,.81-2.92v-5.96Z" fill="#262626"/></g></g></g><g id="j"><g id="k"><g isolation="isolate"><path d="M392.79,461.24h-2.32v-14.93l-3.71,.04v-1.78l6.04-.63v17.31Z" fill="#262626"/><path d="M400.03,453.66l.98-9.48h8.54v2.05h-6.6l-.55,4.91c.37-.27,.77-.5,1.22-.67s.95-.27,1.52-.28c1.58-.02,2.81,.48,3.71,1.48s1.34,2.38,1.34,4.13-.46,3.09-1.38,4.12-2.26,1.56-4.01,1.56c-1.45,0-2.65-.39-3.61-1.18s-1.42-1.95-1.38-3.48l.02-.07h2.09c0,.93,.27,1.65,.8,2.16s1.23,.77,2.08,.77c.98,0,1.73-.34,2.27-1.03s.81-1.63,.81-2.82c0-1.09-.27-1.96-.81-2.64s-1.3-1.01-2.27-1.01c-.91,0-1.56,.14-1.97,.41s-.71,.7-.9,1.27l-1.91-.2Z" fill="#262626"/></g></g></g><g id="l"><g id="m"><g isolation="isolate"><path d="M487.55,461.24h-10.59v-1.58l5.36-6.39c.95-1.16,1.6-2.08,1.94-2.76s.51-1.37,.51-2.07c0-.79-.23-1.44-.69-1.94s-1.1-.76-1.91-.76c-1.01,0-1.78,.31-2.3,.93s-.79,1.39-.79,2.31h-2.23l-.02-.07c-.04-1.39,.43-2.57,1.39-3.53s2.29-1.45,3.95-1.45c1.52,0,2.72,.42,3.6,1.27s1.31,1.93,1.31,3.27c0,.9-.25,1.78-.74,2.64s-1.25,1.94-2.27,3.23l-4.3,5.04,.02,.06h7.77v1.8Z" fill="#262626"/><path d="M500.89,455.22c0,1.93-.49,3.46-1.47,4.58s-2.3,1.69-3.96,1.69-2.97-.56-3.96-1.69-1.48-2.65-1.48-4.58v-5.02c0-1.91,.49-3.44,1.47-4.57s2.29-1.7,3.94-1.7,2.98,.57,3.97,1.7,1.48,2.66,1.48,4.57v5.02Zm-2.31-5.5c0-1.23-.27-2.2-.82-2.91s-1.32-1.07-2.32-1.07-1.76,.36-2.3,1.07-.81,1.68-.81,2.91v5.96c0,1.23,.28,2.2,.83,2.92s1.32,1.08,2.3,1.08,1.77-.36,2.31-1.07,.81-1.69,.81-2.92v-5.96Z" fill="#262626"/></g></g></g><g id="n"><g id="o"><g isolation="isolate"><path d="M572.71,451.54c1.03,0,1.76-.26,2.19-.77s.64-1.23,.64-2.15c0-.86-.23-1.55-.7-2.08s-1.15-.79-2.07-.79-1.63,.28-2.21,.83-.87,1.24-.87,2.07h-2.2l-.04-.07c-.04-1.28,.45-2.38,1.45-3.28s2.3-1.36,3.87-1.36,2.83,.4,3.73,1.2,1.35,1.98,1.35,3.53c0,.8-.21,1.52-.63,2.18s-1,1.17-1.75,1.54c.86,.34,1.51,.87,1.96,1.56s.67,1.54,.67,2.54c0,1.56-.49,2.79-1.48,3.67s-2.27,1.33-3.85,1.33c-1.45,0-2.73-.43-3.84-1.28s-1.64-1.99-1.6-3.39l.02-.07h2.2c0,.83,.3,1.53,.9,2.09s1.37,.85,2.31,.85,1.68-.29,2.21-.87,.81-1.34,.81-2.28c0-1.07-.25-1.87-.74-2.4s-1.28-.8-2.34-.8h-1.9v-1.79h1.9Z" fill="#262626"/><path d="M591.62,455.22c0,1.93-.49,3.46-1.47,4.58s-2.3,1.69-3.96,1.69-2.97-.56-3.96-1.69-1.48-2.65-1.48-4.58v-5.02c0-1.91,.49-3.44,1.47-4.57s2.29-1.7,3.94-1.7,2.98,.57,3.97,1.7,1.48,2.66,1.48,4.57v5.02Zm-2.31-5.5c0-1.23-.27-2.2-.82-2.91s-1.32-1.07-2.32-1.07-1.76,.36-2.3,1.07-.81,1.68-.81,2.91v5.96c0,1.23,.28,2.2,.83,2.92s1.32,1.08,2.3,1.08,1.77-.36,2.31-1.07,.81-1.69,.81-2.92v-5.96Z" fill="#262626"/></g></g></g><g id="p"><g id="q"><g isolation="isolate"><path d="M667.11,455.5h2.36v1.8h-2.36v3.94h-2.3v-3.94h-7.32v-1.3l7.18-11.82h2.44v11.32Zm-7.15,0h4.85v-8h-.07s-.22,.57-.22,.57l-4.56,7.43Z" fill="#262626"/><path d="M682.35,455.22c0,1.93-.49,3.46-1.47,4.58s-2.3,1.69-3.96,1.69-2.97-.56-3.96-1.69-1.48-2.65-1.48-4.58v-5.02c0-1.91,.49-3.44,1.47-4.57s2.29-1.7,3.94-1.7,2.98,.57,3.97,1.7,1.48,2.66,1.48,4.57v5.02Zm-2.31-5.5c0-1.23-.27-2.2-.82-2.91s-1.32-1.07-2.32-1.07-1.76,.36-2.3,1.07-.81,1.68-.81,2.91v5.96c0,1.23,.28,2.2,.83,2.92s1.32,1.08,2.3,1.08,1.77-.36,2.31-1.07,.81-1.69,.81-2.92v-5.96Z" fill="#262626"/></g></g></g><g id="r"><g id="s"><g isolation="isolate"><path d="M749.43,453.66l.98-9.48h8.54v2.05h-6.6l-.55,4.91c.37-.27,.77-.5,1.22-.67s.95-.27,1.52-.28c1.58-.02,2.81,.48,3.71,1.48s1.34,2.38,1.34,4.13-.46,3.09-1.38,4.12-2.26,1.56-4.01,1.56c-1.45,0-2.65-.39-3.61-1.18s-1.42-1.95-1.38-3.48l.02-.07h2.09c0,.93,.27,1.65,.8,2.16s1.23,.77,2.08,.77c.98,0,1.73-.34,2.27-1.03s.81-1.63,.81-2.82c0-1.09-.27-1.96-.81-2.64s-1.3-1.01-2.27-1.01c-.91,0-1.56,.14-1.97,.41s-.71,.7-.9,1.27l-1.91-.2Z" fill="#262626"/><path d="M773.08,455.22c0,1.93-.49,3.46-1.47,4.58s-2.3,1.69-3.96,1.69-2.97-.56-3.96-1.69-1.48-2.65-1.48-4.58v-5.02c0-1.91,.49-3.44,1.47-4.57s2.29-1.7,3.94-1.7,2.98,.57,3.97,1.7,1.48,2.66,1.48,4.57v5.02Zm-2.31-5.5c0-1.23-.27-2.2-.82-2.91s-1.32-1.07-2.32-1.07-1.76,.36-2.3,1.07-.81,1.68-.81,2.91v5.96c0,1.23,.28,2.2,.83,2.92s1.32,1.08,2.3,1.08,1.77-.36,2.31-1.07,.81-1.69,.81-2.92v-5.96Z" fill="#262626"/></g></g></g><g id="t"><g isolation="isolate"><path d="M326.75,475.76c0-1.01,.33-1.85,.98-2.52s1.56-1.01,2.72-1.01,2.09,.33,2.74,1,.97,1.51,.97,2.53v.9c0,1.01-.32,1.84-.97,2.51s-1.55,1-2.72,1-2.09-.33-2.74-1-.98-1.5-.98-2.51v-.9Zm2.27,.9c0,.45,.12,.83,.38,1.14s.61,.46,1.08,.46,.8-.15,1.05-.46,.37-.69,.37-1.14v-.9c0-.45-.12-.84-.38-1.15s-.61-.47-1.07-.47-.81,.16-1.06,.47-.37,.7-.37,1.15v.9Zm2.02,11.6l-1.66-.88,8.33-13.34,1.66,.88-8.33,13.34Zm3.87-2.91c0-1,.33-1.84,.98-2.51s1.57-1.01,2.73-1.01,2.08,.33,2.74,1,.98,1.51,.98,2.51v.9c0,1.02-.32,1.86-.97,2.52s-1.55,1-2.72,1-2.09-.33-2.75-1-.99-1.51-.99-2.51v-.9Zm2.27,.9c0,.45,.13,.83,.4,1.14s.62,.47,1.06,.47c.51,0,.87-.15,1.09-.44s.33-.69,.33-1.18v-.9c0-.45-.12-.83-.38-1.14s-.61-.47-1.07-.47-.83,.16-1.07,.47-.37,.7-.37,1.14v.9Z" fill="#262626"/><path d="M350.13,483.08c0-1.89,.53-3.44,1.58-4.65s2.52-1.81,4.38-1.81,3.34,.6,4.41,1.8,1.59,2.75,1.59,4.65v.25c0,1.91-.53,3.46-1.59,4.66s-2.52,1.8-4.39,1.8-3.34-.6-4.4-1.8-1.59-2.75-1.59-4.66v-.25Zm3.41,.25c0,1.16,.2,2.08,.61,2.78s1.06,1.05,1.97,1.05,1.53-.35,1.94-1.05,.62-1.63,.62-2.78v-.25c0-1.12-.21-2.04-.62-2.75s-1.07-1.07-1.96-1.07-1.53,.36-1.94,1.07-.62,1.63-.62,2.75v.25Z" fill="#262626"/><path d="M365.09,489.54v-10.28h-1.89v-2.4h1.89v-1.41c0-1.42,.41-2.52,1.23-3.29s1.97-1.15,3.46-1.15c.29,0,.58,.02,.88,.06s.63,.1,.99,.18l-.29,2.54c-.19-.03-.37-.06-.54-.08s-.38-.04-.62-.04c-.55,0-.97,.15-1.26,.46s-.43,.74-.43,1.31v1.41h2.44v2.4h-2.44v10.28h-3.42Z" fill="#262626"/><path d="M378.04,483.3c0-2,.43-3.61,1.3-4.84s2.09-1.84,3.66-1.84c.71,0,1.34,.16,1.88,.48s1,.78,1.38,1.37l.27-1.62h2.94v12.62c0,1.65-.54,2.92-1.62,3.83s-2.58,1.35-4.51,1.35c-.64,0-1.32-.09-2.04-.26s-1.38-.42-1.99-.72l.57-2.55c.52,.25,1.06,.44,1.62,.57s1.16,.19,1.81,.19c.94,0,1.63-.2,2.07-.59s.66-1,.66-1.83v-1.15c-.38,.48-.82,.84-1.32,1.09s-1.09,.38-1.75,.38c-1.55,0-2.77-.57-3.63-1.71s-1.3-2.65-1.3-4.52v-.25Zm3.42,.25c0,1.11,.19,1.98,.56,2.62s.98,.96,1.82,.96c.52,0,.97-.1,1.33-.29s.65-.47,.87-.84v-5.5c-.22-.39-.51-.69-.87-.9s-.8-.32-1.31-.32c-.84,0-1.45,.37-1.83,1.11s-.57,1.71-.57,2.91v.25Z" fill="#262626"/><path d="M397.59,489.78c-1.89,0-3.37-.58-4.43-1.74s-1.59-2.65-1.59-4.48v-.47c0-1.9,.52-3.45,1.55-4.66s2.45-1.81,4.25-1.8c1.7,0,3.01,.52,3.92,1.56s1.37,2.45,1.37,4.21v1.77h-7.56l-.04,.07c.05,.87,.32,1.57,.79,2.11s1.17,.81,2.1,.81c.77,0,1.42-.08,1.95-.23s1.09-.39,1.66-.71l.93,2.11c-.51,.41-1.2,.76-2.06,1.04s-1.81,.42-2.84,.42Zm-.22-10.52c-.69,0-1.22,.24-1.59,.71s-.6,1.1-.67,1.88l.02,.06h4.17v-.26c0-.74-.15-1.33-.46-1.75s-.8-.64-1.48-.64Z" fill="#262626"/><path d="M407.77,476.86l.15,1.82c.42-.65,.94-1.15,1.56-1.51s1.31-.54,2.07-.54c1.28,0,2.28,.41,3,1.24s1.08,2.13,1.08,3.91v7.77h-3.43v-7.76c0-.91-.16-1.55-.47-1.93s-.79-.57-1.42-.57c-.51,0-.96,.1-1.34,.29s-.71,.46-.96,.79v9.18h-3.42v-12.68h3.19Z" fill="#262626"/><path d="M417.66,483.08c0-1.89,.53-3.44,1.58-4.65s2.52-1.81,4.38-1.81,3.34,.6,4.41,1.8,1.59,2.75,1.59,4.65v.25c0,1.91-.53,3.46-1.59,4.66s-2.52,1.8-4.39,1.8-3.34-.6-4.4-1.8-1.59-2.75-1.59-4.66v-.25Zm3.41,.25c0,1.16,.2,2.08,.61,2.78s1.06,1.05,1.97,1.05,1.53-.35,1.94-1.05,.62-1.63,.62-2.78v-.25c0-1.12-.21-2.04-.62-2.75s-1.07-1.07-1.96-1.07-1.53,.36-1.94,1.07-.62,1.63-.62,2.75v.25Z" fill="#262626"/><path d="M434.91,476.86l.14,1.68c.41-.61,.92-1.08,1.53-1.41s1.32-.5,2.13-.5,1.51,.18,2.09,.54,1.02,.9,1.31,1.63c.39-.68,.9-1.21,1.52-1.59s1.36-.57,2.2-.57c1.25,0,2.24,.44,2.96,1.33s1.08,2.24,1.08,4.06v7.52h-3.42v-7.54c0-1.02-.16-1.72-.47-2.12s-.78-.6-1.39-.6c-.48,0-.9,.11-1.26,.32s-.64,.51-.85,.9c0,.15,0,.28,.01,.38s.01,.21,.01,.32v8.33h-3.41v-7.54c0-.99-.16-1.69-.47-2.1s-.78-.62-1.41-.62c-.46,0-.87,.09-1.21,.26s-.63,.42-.86,.74v9.25h-3.41v-12.68h3.18Z" fill="#262626"/><path d="M458,489.78c-1.89,0-3.37-.58-4.43-1.74s-1.59-2.65-1.59-4.48v-.47c0-1.9,.52-3.45,1.55-4.66s2.45-1.81,4.25-1.8c1.7,0,3.01,.52,3.92,1.56s1.37,2.45,1.37,4.21v1.77h-7.56l-.04,.07c.05,.87,.32,1.57,.79,2.11s1.17,.81,2.1,.81c.77,0,1.42-.08,1.95-.23s1.09-.39,1.66-.71l.93,2.11c-.51,.41-1.2,.76-2.06,1.04s-1.81,.42-2.84,.42Zm-.22-10.52c-.69,0-1.22,.24-1.59,.71s-.6,1.1-.67,1.88l.02,.06h4.17v-.26c0-.74-.15-1.33-.46-1.75s-.8-.64-1.48-.64Z" fill="#262626"/><path d="M477.7,479.8l-1.25-.04c-.51,0-.93,.11-1.25,.32s-.58,.51-.75,.89v8.57h-3.41v-12.68h3.18l.15,1.88c.3-.66,.68-1.18,1.15-1.55s1.02-.56,1.63-.56c.17,0,.33,.01,.47,.04s.29,.06,.44,.1l-.36,3.04Z" fill="#262626"/><path d="M484.75,489.78c-1.89,0-3.37-.58-4.43-1.74s-1.59-2.65-1.59-4.48v-.47c0-1.9,.52-3.45,1.55-4.66s2.45-1.81,4.25-1.8c1.7,0,3.01,.52,3.92,1.56s1.37,2.45,1.37,4.21v1.77h-7.56l-.04,.07c.05,.87,.32,1.57,.79,2.11s1.17,.81,2.1,.81c.77,0,1.42-.08,1.95-.23s1.09-.39,1.66-.71l.93,2.11c-.51,.41-1.2,.76-2.06,1.04s-1.81,.42-2.84,.42Zm-.22-10.52c-.69,0-1.22,.24-1.59,.71s-.6,1.1-.67,1.88l.02,.06h4.17v-.26c0-.74-.15-1.33-.46-1.75s-.8-.64-1.48-.64Z" fill="#262626"/><path d="M494.98,476.86l.14,1.68c.41-.61,.92-1.08,1.53-1.41s1.32-.5,2.13-.5,1.51,.18,2.09,.54,1.02,.9,1.31,1.63c.39-.68,.9-1.21,1.52-1.59s1.36-.57,2.2-.57c1.25,0,2.24,.44,2.96,1.33s1.08,2.24,1.08,4.06v7.52h-3.42v-7.54c0-1.02-.16-1.72-.47-2.12s-.78-.6-1.39-.6c-.48,0-.9,.11-1.26,.32s-.64,.51-.85,.9c0,.15,0,.28,.01,.38s.01,.21,.01,.32v8.33h-3.41v-7.54c0-.99-.16-1.69-.47-2.1s-.78-.62-1.41-.62c-.46,0-.87,.09-1.21,.26s-.63,.42-.86,.74v9.25h-3.41v-12.68h3.18Z" fill="#262626"/><path d="M512.04,483.08c0-1.89,.53-3.44,1.58-4.65s2.52-1.81,4.38-1.81,3.34,.6,4.41,1.8,1.59,2.75,1.59,4.65v.25c0,1.91-.53,3.46-1.59,4.66s-2.52,1.8-4.39,1.8-3.34-.6-4.4-1.8-1.59-2.75-1.59-4.66v-.25Zm3.41,.25c0,1.16,.2,2.08,.61,2.78s1.06,1.05,1.97,1.05,1.53-.35,1.94-1.05,.62-1.63,.62-2.78v-.25c0-1.12-.21-2.04-.62-2.75s-1.07-1.07-1.96-1.07-1.53,.36-1.94,1.07-.62,1.63-.62,2.75v.25Z" fill="#262626"/><path d="M530.52,484.81l.22,1.17h.07l.23-1.17,2.09-7.96h3.57l-4.31,12.68h-3.27l-4.31-12.68h3.57l2.13,7.96Z" fill="#262626"/><path d="M543.54,489.78c-1.89,0-3.37-.58-4.43-1.74s-1.59-2.65-1.59-4.48v-.47c0-1.9,.52-3.45,1.55-4.66s2.45-1.81,4.25-1.8c1.7,0,3.01,.52,3.92,1.56s1.37,2.45,1.37,4.21v1.77h-7.56l-.04,.07c.05,.87,.32,1.57,.79,2.11s1.17,.81,2.1,.81c.77,0,1.42-.08,1.95-.23s1.09-.39,1.66-.71l.93,2.11c-.51,.41-1.2,.76-2.06,1.04s-1.81,.42-2.84,.42Zm-.22-10.52c-.69,0-1.22,.24-1.59,.71s-.6,1.1-.67,1.88l.02,.06h4.17v-.26c0-.74-.15-1.33-.46-1.75s-.8-.64-1.48-.64Z" fill="#262626"/><path d="M550.07,483.3c0-2,.43-3.61,1.29-4.84s2.08-1.84,3.65-1.84c.63,0,1.2,.14,1.71,.41s.95,.66,1.34,1.17v-6.95h3.43v18.28h-2.92l-.29-1.56c-.4,.59-.87,1.03-1.42,1.34s-1.17,.46-1.88,.46c-1.55,0-2.76-.57-3.63-1.71s-1.29-2.65-1.29-4.52v-.25Zm3.41,.25c0,1.11,.19,1.98,.56,2.62s.98,.96,1.83,.96c.49,0,.92-.1,1.29-.3s.67-.49,.9-.87v-5.4c-.23-.4-.53-.71-.9-.93s-.79-.33-1.27-.33c-.84,0-1.45,.37-1.83,1.11s-.58,1.71-.58,2.91v.25Z" fill="#262626"/></g></g></g><g id="u"><g id="v"><g id="w"><g isolation="isolate"><path d="M69,441.06c0,1.93-.49,3.46-1.47,4.58s-2.3,1.69-3.96,1.69-2.97-.56-3.96-1.69-1.48-2.65-1.48-4.58v-5.02c0-1.91,.49-3.44,1.47-4.57s2.29-1.7,3.94-1.7,2.98,.57,3.97,1.7,1.48,2.66,1.48,4.57v5.02Zm-2.31-5.5c0-1.23-.27-2.2-.82-2.91s-1.32-1.07-2.32-1.07-1.76,.36-2.3,1.07-.81,1.68-.81,2.91v5.96c0,1.23,.28,2.2,.83,2.92s1.32,1.08,2.3,1.08,1.77-.36,2.31-1.07,.81-1.69,.81-2.92v-5.96Z" fill="#262626"/></g></g></g><g id="x"><g id="y"><g clip-path="url(#z)"><path d="M81.32,354.85H807.15" fill="none" stroke="#d0d2d3" stroke-linecap="round" stroke-linejoin="round" stroke-width="1.04"/></g></g><g id="aa"><g isolation="isolate"><path d="M59.76,362.91h-10.59v-1.58l5.36-6.39c.95-1.16,1.6-2.08,1.94-2.76s.51-1.37,.51-2.07c0-.79-.23-1.44-.69-1.94s-1.1-.76-1.91-.76c-1.01,0-1.78,.31-2.3,.93s-.79,1.39-.79,2.31h-2.23l-.02-.07c-.04-1.39,.43-2.57,1.39-3.53s2.29-1.45,3.95-1.45c1.52,0,2.72,.42,3.6,1.27s1.31,1.93,1.31,3.27c0,.9-.25,1.78-.74,2.64s-1.25,1.94-2.27,3.23l-4.3,5.04,.02,.06h7.77v1.8Z" fill="#262626"/><path d="M73.11,356.88c0,1.93-.49,3.46-1.47,4.58s-2.3,1.69-3.96,1.69-2.97-.56-3.96-1.69-1.48-2.65-1.48-4.58v-5.02c0-1.91,.49-3.44,1.47-4.57s2.29-1.7,3.94-1.7,2.98,.57,3.97,1.7,1.48,2.66,1.48,4.57v5.02Zm-2.31-5.5c0-1.23-.27-2.2-.82-2.91s-1.32-1.07-2.32-1.07-1.76,.36-2.3,1.07-.81,1.68-.81,2.91v5.96c0,1.23,.28,2.2,.83,2.92s1.32,1.08,2.3,1.08,1.77-.36,2.31-1.07,.81-1.69,.81-2.92v-5.96Z" fill="#262626"/></g></g></g><g id="ab"><g id="ac"><g clip-path="url(#ad)"><path d="M81.32,270.68H807.15" fill="none" stroke="#d0d2d3" stroke-linecap="round" stroke-linejoin="round" stroke-width="1.04"/></g></g><g id="ae"><g isolation="isolate"><path d="M57.87,272.99h2.36v1.8h-2.36v3.94h-2.3v-3.94h-7.32v-1.3l7.18-11.82h2.44v11.32Zm-7.15,0h4.85v-8h-.07s-.22,.57-.22,.57l-4.56,7.43Z" fill="#262626"/><path d="M73.11,272.71c0,1.93-.49,3.46-1.47,4.58s-2.3,1.69-3.96,1.69-2.97-.56-3.96-1.69-1.48-2.65-1.48-4.58v-5.02c0-1.91,.49-3.44,1.47-4.57s2.29-1.7,3.94-1.7,2.98,.57,3.97,1.7,1.48,2.66,1.48,4.57v5.02Zm-2.31-5.5c0-1.23-.27-2.2-.82-2.91s-1.32-1.07-2.32-1.07-1.76,.36-2.3,1.07-.81,1.68-.81,2.91v5.96c0,1.23,.28,2.2,.83,2.92s1.32,1.08,2.3,1.08,1.77-.36,2.31-1.07,.81-1.69,.81-2.92v-5.96Z" fill="#262626"/></g></g></g><g id="af"><g id="ag"><g clip-path="url(#ah)"><path d="M81.32,186.5H807.15" fill="none" stroke="#d0d2d3" stroke-linecap="round" stroke-linejoin="round" stroke-width="1.04"/></g></g><g id="ai"><g isolation="isolate"><path d="M54.92,177.24c.67,0,1.34,.07,1.99,.2s1.2,.3,1.63,.5l-.49,1.77c-.45-.2-.91-.35-1.41-.47s-1.07-.18-1.72-.18c-1.07,0-1.94,.46-2.61,1.37s-1,2.07-1,3.47v1.32c.48-.48,1.04-.85,1.69-1.12s1.35-.41,2.1-.41c1.47,0,2.63,.49,3.49,1.48s1.28,2.28,1.28,3.88c0,1.75-.48,3.15-1.44,4.19s-2.25,1.56-3.87,1.56-2.9-.6-3.96-1.8-1.59-2.84-1.59-4.92v-3.93c0-2,.57-3.65,1.71-4.96s2.54-1.96,4.2-1.96Zm-.55,8.17c-.73,0-1.35,.15-1.87,.46s-.92,.72-1.19,1.25v1.18c0,1.45,.31,2.59,.94,3.43s1.4,1.26,2.31,1.26c.96,0,1.7-.37,2.22-1.1s.78-1.68,.78-2.85c0-1.11-.28-1.99-.84-2.65s-1.35-.98-2.36-.98Z" fill="#262626"/><path d="M73.11,188.53c0,1.93-.49,3.46-1.47,4.58s-2.3,1.69-3.96,1.69-2.97-.56-3.96-1.69-1.48-2.65-1.48-4.58v-5.02c0-1.91,.49-3.44,1.47-4.57s2.29-1.7,3.94-1.7,2.98,.57,3.97,1.7,1.48,2.66,1.48,4.57v5.02Zm-2.31-5.5c0-1.23-.27-2.2-.82-2.91s-1.32-1.07-2.32-1.07-1.76,.36-2.3,1.07-.81,1.68-.81,2.91v5.96c0,1.23,.28,2.2,.83,2.92s1.32,1.08,2.3,1.08,1.77-.36,2.31-1.07,.81-1.69,.81-2.92v-5.96Z" fill="#262626"/></g></g></g><g id="aj"><g id="ak"><g clip-path="url(#al)"><path d="M81.32,102.32H807.15" fill="none" stroke="#d0d2d3" stroke-linecap="round" stroke-linejoin="round" stroke-width="1.04"/></g></g><g id="am"><g isolation="isolate"><path d="M59.24,97.67c0,.89-.25,1.67-.75,2.35s-1.16,1.18-1.99,1.52c.97,.34,1.75,.87,2.33,1.61s.88,1.58,.88,2.54c0,1.57-.51,2.79-1.53,3.64s-2.32,1.29-3.9,1.29c-1.67,0-3.04-.43-4.1-1.29s-1.59-2.07-1.59-3.64c0-.96,.3-1.81,.9-2.54s1.4-1.27,2.42-1.62c-.88-.33-1.57-.83-2.07-1.51s-.76-1.46-.76-2.35c0-1.49,.48-2.63,1.44-3.42s2.21-1.18,3.74-1.18c1.45,0,2.65,.4,3.58,1.19s1.4,1.93,1.4,3.42Zm-1.83,7.97c0-.93-.3-1.7-.91-2.3s-1.35-.9-2.24-.9c-.97,0-1.77,.3-2.4,.9s-.95,1.37-.95,2.3,.31,1.73,.94,2.31,1.44,.87,2.43,.87c.89,0,1.63-.29,2.23-.87s.9-1.35,.9-2.3Zm-.48-7.93c0-.82-.26-1.5-.77-2.03s-1.15-.8-1.9-.8c-.84,0-1.52,.26-2.06,.77s-.81,1.2-.81,2.06,.27,1.57,.82,2.11,1.24,.81,2.07,.81c.76,0,1.39-.27,1.89-.81s.76-1.24,.76-2.11Z" fill="#262626"/><path d="M73.11,104.35c0,1.93-.49,3.46-1.47,4.58s-2.3,1.69-3.96,1.69-2.97-.56-3.96-1.69-1.48-2.65-1.48-4.58v-5.02c0-1.91,.49-3.44,1.47-4.57s2.29-1.7,3.94-1.7,2.98,.57,3.97,1.7,1.48,2.66,1.48,4.57v5.02Zm-2.31-5.5c0-1.23-.27-2.2-.82-2.91s-1.32-1.07-2.32-1.07-1.76,.36-2.3,1.07-.81,1.68-.81,2.91v5.96c0,1.23,.28,2.2,.83,2.92s1.32,1.08,2.3,1.08,1.77-.36,2.31-1.07,.81-1.69,.81-2.92v-5.96Z" fill="#262626"/></g></g></g><g id="an"><g id="ap"><g isolation="isolate"><path d="M46.32,26.2h-2.32V11.27l-3.71,.04v-1.78l6.04-.63V26.2Z" fill="#262626"/><path d="M63.7,20.17c0,1.93-.49,3.46-1.47,4.58s-2.3,1.69-3.96,1.69-2.97-.56-3.96-1.69-1.48-2.65-1.48-4.58v-5.02c0-1.91,.49-3.44,1.47-4.57s2.29-1.7,3.94-1.7,2.98,.57,3.97,1.7,1.48,2.66,1.48,4.57v5.02Zm-2.31-5.5c0-1.23-.27-2.2-.82-2.91s-1.32-1.07-2.32-1.07-1.76,.36-2.3,1.07-.81,1.68-.81,2.91v5.96c0,1.23,.28,2.2,.83,2.92s1.32,1.08,2.3,1.08,1.77-.36,2.31-1.07,.81-1.69,.81-2.92v-5.96Z" fill="#262626"/><path d="M77.22,20.17c0,1.93-.49,3.46-1.47,4.58s-2.3,1.69-3.96,1.69-2.97-.56-3.96-1.69-1.48-2.65-1.48-4.58v-5.02c0-1.91,.49-3.44,1.47-4.57s2.29-1.7,3.94-1.7,2.98,.57,3.97,1.7,1.48,2.66,1.48,4.57v5.02Zm-2.31-5.5c0-1.23-.27-2.2-.82-2.91s-1.32-1.07-2.32-1.07-1.76,.36-2.3,1.07-.81,1.68-.81,2.91v5.96c0,1.23,.28,2.2,.83,2.92s1.32,1.08,2.3,1.08,1.77-.36,2.31-1.07,.81-1.69,.81-2.92v-5.96Z" fill="#262626"/></g></g></g><g id="aq"><g isolation="isolate"><path d="M20.53,438.45v3.42l-11.51,6.88v.07h11.51v3.42H3.47v-3.42l11.5-6.88v-.07H3.47v-3.42H20.53Z" fill="#262626"/><path d="M18.66,427.79c.68,.39,1.2,.89,1.57,1.49s.55,1.3,.55,2.1c0,1.34-.45,2.38-1.36,3.13s-2.31,1.13-4.22,1.13H7.85v-3.41h7.37c1.11,0,1.87-.15,2.28-.45s.62-.77,.62-1.4c0-.55-.09-1.02-.26-1.41s-.44-.71-.78-.96H7.85v-3.42h12.68v2.84l-1.88,.36Z" fill="#262626"/><path d="M7.85,418.84l1.68-.14c-.61-.41-1.08-.92-1.41-1.53s-.5-1.32-.5-2.13,.18-1.51,.54-2.09,.9-1.02,1.63-1.31c-.68-.39-1.21-.9-1.59-1.52s-.57-1.36-.57-2.2c0-1.25,.44-2.24,1.33-2.96s2.24-1.08,4.06-1.08h7.52v3.42h-7.54c-1.02,0-1.72,.16-2.12,.47s-.6,.78-.6,1.39c0,.48,.11,.9,.32,1.26s.51,.64,.9,.85c.15,0,.28,0,.38-.01s.21-.01,.32-.01h8.33v3.41h-7.54c-.99,0-1.69,.16-2.1,.47s-.62,.78-.62,1.41c0,.46,.09,.87,.26,1.21s.42,.63,.74,.86h9.25v3.41H7.85v-3.18Z" fill="#262626"/><path d="M14.54,389.81c1.89,0,3.4,.42,4.54,1.27s1.7,2.06,1.7,3.66c0,.74-.16,1.39-.47,1.94s-.77,1.02-1.37,1.4l1.59,.28v2.89H2.25v-3.41h6.95c-.51-.37-.9-.81-1.17-1.32s-.41-1.1-.41-1.76c0-1.61,.61-2.84,1.82-3.68s2.83-1.27,4.86-1.27h.25Zm-.25,3.41c-1.23,0-2.21,.18-2.94,.54s-1.08,.98-1.08,1.86c0,.53,.11,.98,.33,1.35s.54,.66,.96,.87h5.37c.38-.21,.68-.5,.88-.87s.3-.83,.3-1.37c0-.88-.31-1.5-.93-1.85s-1.5-.53-2.64-.53h-.25Z" fill="#262626"/><path d="M20.78,382.21c0,1.89-.58,3.37-1.74,4.43s-2.65,1.59-4.48,1.59h-.47c-1.9,0-3.45-.52-4.66-1.55s-1.81-2.45-1.8-4.25c0-1.7,.52-3.01,1.56-3.92s2.45-1.37,4.21-1.37h1.77v7.56l.07,.04c.87-.05,1.57-.32,2.11-.79s.81-1.17,.81-2.1c0-.77-.08-1.42-.23-1.95s-.39-1.09-.71-1.66l2.11-.93c.41,.51,.76,1.2,1.04,2.06s.42,1.81,.42,2.84Zm-10.52,.22c0,.69,.24,1.22,.71,1.59s1.1,.6,1.88,.67l.06-.02v-4.17h-.26c-.74,0-1.33,.15-1.75,.46s-.64,.8-.64,1.48Z" fill="#262626"/><path d="M10.79,368.48l-.04,1.25c0,.51,.11,.93,.32,1.25s.51,.58,.89,.75h8.57v3.41H7.85v-3.18l1.88-.15c-.66-.3-1.18-.68-1.55-1.15s-.56-1.02-.56-1.63c0-.17,.01-.33,.04-.47s.06-.29,.1-.44l3.04,.36Z" fill="#262626"/><path d="M14.07,361.25c-1.89,0-3.44-.53-4.65-1.58s-1.81-2.52-1.81-4.38,.6-3.34,1.8-4.41,2.75-1.59,4.65-1.59h.25c1.91,0,3.46,.53,4.66,1.59s1.8,2.52,1.8,4.39-.6,3.34-1.8,4.4-2.75,1.59-4.66,1.59h-.25Zm.25-3.41c1.16,0,2.08-.2,2.78-.61s1.05-1.06,1.05-1.97-.35-1.53-1.05-1.94-1.63-.62-2.78-.62h-.25c-1.12,0-2.04,.21-2.75,.62s-1.07,1.07-1.07,1.96,.36,1.53,1.07,1.94,1.63,.62,2.75,.62h.25Z" fill="#262626"/><path d="M20.53,346.29H10.25v1.89h-2.4v-1.89h-1.41c-1.42,0-2.52-.41-3.29-1.23s-1.15-1.97-1.15-3.46c0-.29,.02-.58,.06-.88s.1-.63,.18-.99l2.54,.29c-.03,.19-.06,.37-.08,.54s-.04,.38-.04,.62c0,.55,.15,.97,.46,1.26s.74,.43,1.31,.43h1.41v-2.44h2.4v2.44h10.28v3.42Z" fill="#262626"/><path d="M14.3,333.34c-2,0-3.61-.43-4.84-1.3s-1.84-2.09-1.84-3.66c0-.71,.16-1.34,.48-1.88s.78-1,1.37-1.38l-1.62-.27v-2.94h12.62c1.65,0,2.92,.54,3.83,1.62s1.35,2.58,1.35,4.51c0,.64-.09,1.32-.26,2.04s-.42,1.38-.72,1.99l-2.55-.57c.25-.52,.44-1.06,.57-1.62s.19-1.16,.19-1.81c0-.94-.2-1.63-.59-2.07s-1-.66-1.83-.66h-1.15c.48,.38,.84,.82,1.09,1.32s.38,1.09,.38,1.75c0,1.55-.57,2.77-1.71,3.63s-2.65,1.3-4.52,1.3h-.25Zm.25-3.42c1.11,0,1.98-.19,2.62-.56s.96-.98,.96-1.82c0-.52-.1-.97-.29-1.33s-.47-.65-.84-.87h-5.5c-.39,.22-.69,.51-.9,.87s-.32,.8-.32,1.31c0,.84,.37,1.45,1.11,1.83s1.71,.57,2.91,.57h.25Z" fill="#262626"/><path d="M20.78,313.79c0,1.89-.58,3.37-1.74,4.43s-2.65,1.59-4.48,1.59h-.47c-1.9,0-3.45-.52-4.66-1.55s-1.81-2.45-1.8-4.25c0-1.7,.52-3.01,1.56-3.92s2.45-1.37,4.21-1.37h1.77v7.56l.07,.04c.87-.05,1.57-.32,2.11-.79s.81-1.17,.81-2.1c0-.77-.08-1.42-.23-1.95s-.39-1.09-.71-1.66l2.11-.93c.41,.51,.76,1.2,1.04,2.06s.42,1.81,.42,2.84Zm-10.52,.22c0,.69,.24,1.22,.71,1.59s1.1,.6,1.88,.67l.06-.02v-4.17h-.26c-.74,0-1.33,.15-1.75,.46s-.64,.8-.64,1.48Z" fill="#262626"/><path d="M7.85,303.61l1.82-.15c-.65-.42-1.15-.94-1.51-1.56s-.54-1.31-.54-2.07c0-1.28,.41-2.28,1.24-3s2.13-1.08,3.91-1.08h7.77v3.43h-7.76c-.91,0-1.55,.16-1.93,.47s-.57,.79-.57,1.42c0,.51,.1,.96,.29,1.34s.46,.71,.79,.96h9.18v3.42H7.85v-3.19Z" fill="#262626"/><path d="M14.07,293.72c-1.89,0-3.44-.53-4.65-1.58s-1.81-2.52-1.81-4.38,.6-3.34,1.8-4.41,2.75-1.59,4.65-1.59h.25c1.91,0,3.46,.53,4.66,1.59s1.8,2.52,1.8,4.39-.6,3.34-1.8,4.4-2.75,1.59-4.66,1.59h-.25Zm.25-3.41c1.16,0,2.08-.2,2.78-.61s1.05-1.06,1.05-1.97-.35-1.53-1.05-1.94-1.63-.62-2.78-.62h-.25c-1.12,0-2.04,.21-2.75,.62s-1.07,1.07-1.07,1.96,.36,1.53,1.07,1.94,1.63,.62,2.75,.62h.25Z" fill="#262626"/><path d="M7.85,276.47l1.68-.14c-.61-.41-1.08-.92-1.41-1.53s-.5-1.32-.5-2.13,.18-1.51,.54-2.09,.9-1.02,1.63-1.31c-.68-.39-1.21-.9-1.59-1.52s-.57-1.36-.57-2.2c0-1.25,.44-2.24,1.33-2.96s2.24-1.08,4.06-1.08h7.52v3.42h-7.54c-1.02,0-1.72,.16-2.12,.47s-.6,.78-.6,1.39c0,.48,.11,.9,.32,1.26s.51,.64,.9,.85c.15,0,.28,0,.38-.01s.21-.01,.32-.01h8.33v3.41h-7.54c-.99,0-1.69,.16-2.1,.47s-.62,.78-.62,1.41c0,.46,.09,.87,.26,1.21s.42,.63,.74,.86h9.25v3.41H7.85v-3.18Z" fill="#262626"/><path d="M20.78,253.38c0,1.89-.58,3.37-1.74,4.43s-2.65,1.59-4.48,1.59h-.47c-1.9,0-3.45-.52-4.66-1.55s-1.81-2.45-1.8-4.25c0-1.7,.52-3.01,1.56-3.92s2.45-1.37,4.21-1.37h1.77v7.56l.07,.04c.87-.05,1.57-.32,2.11-.79s.81-1.17,.81-2.1c0-.77-.08-1.42-.23-1.95s-.39-1.09-.71-1.66l2.11-.93c.41,.51,.76,1.2,1.04,2.06s.42,1.81,.42,2.84Zm-10.52,.22c0,.69,.24,1.22,.71,1.59s1.1,.6,1.88,.67l.06-.02v-4.17h-.26c-.74,0-1.33,.15-1.75,.46s-.64,.8-.64,1.48Z" fill="#262626"/><path d="M17.02,239.47c-.38,0-.7,.18-.97,.54s-.51,1.04-.71,2.02c-.3,1.48-.75,2.61-1.35,3.38s-1.42,1.15-2.45,1.15c-1.09,0-2.01-.46-2.78-1.38s-1.15-2.15-1.15-3.68,.38-2.88,1.15-3.85,1.72-1.43,2.86-1.39l.07,.02v3.3c-.51,0-.92,.16-1.24,.49s-.48,.8-.48,1.42c0,.55,.14,.98,.41,1.3s.61,.48,1.01,.48,.71-.17,.96-.5,.47-1.01,.66-2.02c.31-1.55,.77-2.71,1.38-3.47s1.44-1.14,2.5-1.14c1.14,0,2.07,.49,2.8,1.46s1.09,2.27,1.09,3.87c0,1.69-.43,3.02-1.28,4s-1.83,1.45-2.92,1.4l-.07-.02v-3.13c.68-.02,1.17-.25,1.48-.67s.46-.97,.46-1.65c0-.63-.13-1.12-.38-1.45s-.6-.5-1.04-.5Z" fill="#262626"/><path d="M4.75,223.88h3.11v-2.14h2.4v2.14h6.46c.49,0,.84-.1,1.05-.31s.32-.48,.32-.81c0-.18,0-.34-.03-.47s-.05-.29-.1-.46l2.47-.28c.12,.34,.21,.68,.26,1s.09,.68,.09,1.06c0,1.18-.32,2.09-.97,2.72s-1.68,.96-3.08,.96h-6.47v1.85h-2.4v-1.85h-3.11v-3.41Z" fill="#262626"/><path d="M9.46,216.28c-.58-.4-1.03-.89-1.35-1.46s-.49-1.22-.49-1.92c0-1.32,.44-2.36,1.32-3.11s2.24-1.13,4.07-1.13h7.52v3.42h-7.55c-.98,0-1.68,.16-2.09,.47s-.62,.79-.62,1.42c0,.52,.08,.98,.25,1.37s.41,.7,.72,.94h9.28v3.42H2.25v-3.42h7.21Z" fill="#262626"/><path d="M20.53,198.6c-.29,.12-.59,.23-.91,.32s-.65,.15-.98,.19c.62,.35,1.13,.82,1.54,1.39s.61,1.27,.61,2.06c0,1.33-.34,2.35-1.03,3.07s-1.62,1.08-2.79,1.08c-1.24,0-2.21-.48-2.89-1.44s-1.03-2.35-1.03-4.19v-1.92h-1.01c-.61,0-1.08,.16-1.42,.48s-.5,.8-.5,1.43c0,.55,.13,.98,.4,1.28s.64,.45,1.11,.45v3.29l-.07,.02c-1.07,.05-1.99-.41-2.77-1.4s-1.17-2.28-1.17-3.87,.38-2.76,1.15-3.7c.77-.94,1.86-1.41,3.29-1.41h5.24c.59,0,1.15-.04,1.68-.13s1.04-.23,1.56-.43v3.41Zm-2.29,3.13c0-.59-.15-1.12-.45-1.59s-.64-.79-1.03-.96h-1.79v1.92c0,.73,.18,1.28,.54,1.65s.8,.56,1.32,.56c.43,0,.77-.14,1.03-.42s.38-.66,.38-1.15Z" fill="#262626"/><path d="M4.75,189.08h3.11v-2.14h2.4v2.14h6.46c.49,0,.84-.1,1.05-.31s.32-.48,.32-.81c0-.18,0-.34-.03-.47s-.05-.29-.1-.46l2.47-.28c.12,.34,.21,.68,.26,1s.09,.68,.09,1.06c0,1.18-.32,2.09-.97,2.72s-1.68,.96-3.08,.96h-6.47v1.85h-2.4v-1.85h-3.11v-3.41Z" fill="#262626"/><path d="M18.15,173.55c0-.59-.18-1.07-.53-1.42s-.83-.53-1.42-.53v-3.12l.07-.02c1.28-.03,2.35,.45,3.22,1.43s1.29,2.2,1.29,3.66c0,1.88-.6,3.32-1.8,4.35s-2.73,1.54-4.6,1.54h-.35c-1.86,0-3.39-.51-4.6-1.53s-1.81-2.46-1.81-4.33c0-1.55,.45-2.79,1.34-3.74s2.06-1.4,3.52-1.37l.07,.02v3.12c-.66,0-1.2,.17-1.63,.52s-.65,.83-.65,1.45c0,.88,.35,1.51,1.06,1.88s1.61,.56,2.71,.56h.35c1.12,0,2.04-.19,2.73-.56s1.04-1.01,1.04-1.9Z" fill="#262626"/><path d="M9.46,163.14c-.58-.4-1.03-.89-1.35-1.46s-.49-1.22-.49-1.92c0-1.32,.44-2.36,1.32-3.11s2.24-1.13,4.07-1.13h7.52v3.42h-7.55c-.98,0-1.68,.16-2.09,.47s-.62,.79-.62,1.42c0,.52,.08,.98,.25,1.37s.41,.7,.72,.94h9.28v3.42H2.25v-3.42h7.21Z" fill="#262626"/><path d="M20.53,145.45c-.29,.12-.59,.23-.91,.32s-.65,.15-.98,.19c.62,.35,1.13,.82,1.54,1.39s.61,1.27,.61,2.06c0,1.33-.34,2.35-1.03,3.07s-1.62,1.08-2.79,1.08c-1.24,0-2.21-.48-2.89-1.44s-1.03-2.35-1.03-4.19v-1.92h-1.01c-.61,0-1.08,.16-1.42,.48s-.5,.8-.5,1.43c0,.55,.13,.98,.4,1.28s.64,.45,1.11,.45v3.29l-.07,.02c-1.07,.05-1.99-.41-2.77-1.4s-1.17-2.28-1.17-3.87,.38-2.76,1.15-3.7,1.86-1.41,3.29-1.41h5.24c.59,0,1.15-.04,1.68-.13s1.04-.23,1.56-.43v3.41Zm-2.29,3.13c0-.59-.15-1.12-.45-1.59s-.64-.79-1.03-.96h-1.79v1.92c0,.73,.18,1.28,.54,1.65s.8,.56,1.32,.56c.43,0,.77-.14,1.03-.42s.38-.66,.38-1.15Z" fill="#262626"/><path d="M7.85,136.91l1.82-.15c-.65-.42-1.15-.94-1.51-1.56s-.54-1.31-.54-2.07c0-1.28,.41-2.28,1.24-3s2.13-1.08,3.91-1.08h7.77v3.43h-7.76c-.91,0-1.55,.16-1.93,.47s-.57,.79-.57,1.42c0,.51,.1,.96,.29,1.34s.46,.71,.79,.96h9.18v3.42H7.85v-3.19Z" fill="#262626"/><path d="M14.3,127c-2,0-3.61-.43-4.84-1.3s-1.84-2.09-1.84-3.66c0-.71,.16-1.34,.48-1.88s.78-1,1.37-1.38l-1.62-.27v-2.94h12.62c1.65,0,2.92,.54,3.83,1.62s1.35,2.58,1.35,4.51c0,.64-.09,1.32-.26,2.04s-.42,1.38-.72,1.99l-2.55-.57c.25-.52,.44-1.06,.57-1.62s.19-1.16,.19-1.81c0-.94-.2-1.63-.59-2.07s-1-.66-1.83-.66h-1.15c.48,.38,.84,.82,1.09,1.32s.38,1.09,.38,1.75c0,1.55-.57,2.77-1.71,3.63s-2.65,1.3-4.52,1.3h-.25Zm.25-3.42c1.11,0,1.98-.19,2.62-.56s.96-.98,.96-1.82c0-.52-.1-.97-.29-1.33s-.47-.65-.84-.87h-5.5c-.39,.22-.69,.51-.9,.87s-.32,.8-.32,1.31c0,.84,.37,1.45,1.11,1.83s1.71,.57,2.91,.57h.25Z" fill="#262626"/><path d="M20.78,107.45c0,1.89-.58,3.37-1.74,4.43s-2.65,1.59-4.48,1.59h-.47c-1.9,0-3.45-.52-4.66-1.55s-1.81-2.45-1.8-4.25c0-1.7,.52-3.01,1.56-3.92s2.45-1.37,4.21-1.37h1.77v7.56l.07,.04c.87-.05,1.57-.32,2.11-.79s.81-1.17,.81-2.1c0-.77-.08-1.42-.23-1.95s-.39-1.09-.71-1.66l2.11-.93c.41,.51,.76,1.2,1.04,2.06s.42,1.81,.42,2.84Zm-10.52,.22c0,.69,.24,1.22,.71,1.59s1.1,.6,1.88,.67l.06-.02v-4.17h-.26c-.74,0-1.33,.15-1.75,.46s-.64,.8-.64,1.48Z" fill="#262626"/><path d="M14.3,100.92c-2,0-3.61-.43-4.84-1.29s-1.84-2.08-1.84-3.65c0-.63,.14-1.2,.41-1.71s.66-.95,1.17-1.34H2.25v-3.43H20.53v2.92l-1.56,.29c.59,.4,1.03,.87,1.34,1.42s.46,1.17,.46,1.88c0,1.55-.57,2.76-1.71,3.63s-2.65,1.29-4.52,1.29h-.25Zm.25-3.41c1.11,0,1.98-.19,2.62-.56s.96-.98,.96-1.83c0-.49-.1-.92-.3-1.29s-.49-.67-.87-.9h-5.4c-.4,.23-.71,.53-.93,.9s-.33,.79-.33,1.27c0,.84,.37,1.45,1.11,1.83s1.71,.58,2.91,.58h.25Z" fill="#262626"/><path d="M17.02,74.02c-.38,0-.7,.18-.97,.54s-.51,1.04-.71,2.02c-.3,1.48-.75,2.61-1.35,3.38s-1.42,1.15-2.45,1.15c-1.09,0-2.01-.46-2.78-1.38s-1.15-2.15-1.15-3.68,.38-2.88,1.15-3.85,1.72-1.43,2.86-1.39l.07,.02v3.3c-.51,0-.92,.16-1.24,.49s-.48,.8-.48,1.42c0,.55,.14,.98,.41,1.3s.61,.48,1.01,.48,.71-.17,.96-.5,.47-1.01,.66-2.02c.31-1.55,.77-2.71,1.38-3.47s1.44-1.14,2.5-1.14c1.14,0,2.07,.49,2.8,1.46s1.09,2.27,1.09,3.87c0,1.69-.43,3.02-1.28,4s-1.83,1.45-2.92,1.4l-.07-.02v-3.13c.68-.02,1.17-.25,1.48-.67s.46-.97,.46-1.65c0-.63-.13-1.12-.38-1.45s-.6-.5-1.04-.5Z" fill="#262626"/><path d="M14.54,57.06c1.88,0,3.38,.43,4.52,1.3s1.71,2.08,1.71,3.63c0,.66-.12,1.25-.37,1.77s-.61,.96-1.08,1.32h6.08v3.41H7.85v-3.08l1.5-.2c-.55-.38-.98-.83-1.28-1.35s-.45-1.14-.45-1.85c0-1.57,.61-2.79,1.84-3.66s2.84-1.3,4.84-1.3h.25Zm-.25,3.42c-1.2,0-2.16,.2-2.91,.6s-1.11,1.01-1.11,1.83c0,.52,.11,.96,.32,1.32s.51,.65,.9,.86h5.55c.36-.21,.63-.5,.82-.86s.28-.81,.28-1.34c0-.83-.32-1.44-.97-1.82s-1.53-.58-2.64-.58h-.25Z" fill="#262626"/><path d="M20.78,49.45c0,1.89-.58,3.37-1.74,4.43s-2.65,1.59-4.48,1.59h-.47c-1.9,0-3.45-.52-4.66-1.55s-1.81-2.45-1.8-4.25c0-1.7,.52-3.01,1.56-3.92s2.45-1.37,4.21-1.37h1.77v7.56l.07,.04c.87-.05,1.57-.32,2.11-.79s.81-1.17,.81-2.1c0-.77-.08-1.42-.23-1.95s-.39-1.09-.71-1.66l2.11-.93c.41,.51,.76,1.2,1.04,2.06s.42,1.81,.42,2.84Zm-10.52,.22c0,.69,.24,1.22,.71,1.59s1.1,.6,1.88,.67l.06-.02v-4.17h-.26c-.74,0-1.33,.15-1.75,.46s-.64,.8-.64,1.48Z" fill="#262626"/><path d="M18.15,37.1c0-.59-.18-1.07-.53-1.42s-.83-.53-1.42-.53v-3.12l.07-.02c1.28-.03,2.35,.45,3.22,1.43s1.29,2.2,1.29,3.66c0,1.88-.6,3.32-1.8,4.35s-2.73,1.54-4.6,1.54h-.35c-1.86,0-3.39-.51-4.6-1.53s-1.81-2.46-1.81-4.33c0-1.55,.45-2.79,1.34-3.74s2.06-1.4,3.52-1.37l.07,.02v3.12c-.66,0-1.2,.17-1.63,.52s-.65,.83-.65,1.45c0,.88,.35,1.51,1.06,1.88s1.61,.56,2.71,.56h.35c1.12,0,2.04-.19,2.73-.56s1.04-1.01,1.04-1.9Z" fill="#262626"/><path d="M4.82,26.43v3.42H2.25v-3.42h2.57Zm15.71,0v3.42H7.85v-3.42h12.68Z" fill="#262626"/><path d="M20.78,18.12c0,1.89-.58,3.37-1.74,4.43s-2.65,1.59-4.48,1.59h-.47c-1.9,0-3.45-.52-4.66-1.55s-1.81-2.45-1.8-4.25c0-1.7,.52-3.01,1.56-3.92s2.45-1.37,4.21-1.37h1.77v7.56l.07,.04c.87-.05,1.57-.32,2.11-.79s.81-1.17,.81-2.1c0-.77-.08-1.42-.23-1.95s-.39-1.09-.71-1.66l2.11-.93c.41,.51,.76,1.2,1.04,2.06s.42,1.81,.42,2.84Zm-10.52,.22c0,.69,.24,1.22,.71,1.59s1.1,.6,1.88,.67l.06-.02v-4.17h-.26c-.74,0-1.33,.15-1.75,.46s-.64,.8-.64,1.48Z" fill="#262626"/><path d="M17.02,4.21c-.38,0-.7,.18-.97,.54s-.51,1.04-.71,2.02c-.3,1.48-.75,2.61-1.35,3.38s-1.42,1.15-2.45,1.15c-1.09,0-2.01-.46-2.78-1.38s-1.15-2.15-1.15-3.68,.38-2.88,1.15-3.85,1.72-1.43,2.86-1.39l.07,.02v3.3c-.51,0-.92,.16-1.24,.49s-.48,.8-.48,1.42c0,.55,.14,.98,.41,1.3s.61,.48,1.01,.48,.71-.17,.96-.5,.47-1.01,.66-2.02c.31-1.55,.77-2.71,1.38-3.47s1.44-1.14,2.5-1.14c1.14,0,2.07,.49,2.8,1.46s1.09,2.27,1.09,3.87c0,1.69-.43,3.02-1.28,4s-1.83,1.45-2.92,1.4l-.07-.02v-3.13c.68-.02,1.17-.25,1.48-.67s.46-.97,.46-1.65c0-.63-.13-1.12-.38-1.45s-.6-.5-1.04-.5Z" fill="#262626"/></g></g></g><g id="ar"><g clip-path="url(#as)"><path d="M90.4,439.03h24.19v-79.97h-24.19v79.97Z" fill="#4f2d83" stroke="#fff" stroke-width="1.3"/></g></g><g id="at"><g clip-path="url(#au)"><path d="M181.12,439.03h24.19v-105.22h-24.19v105.22Z" fill="#4f2d83" stroke="#fff" stroke-width="1.3"/></g></g><g id="av"><g clip-path="url(#aw)"><path d="M271.85,439.03h24.19v-172.56h-24.19v172.56Z" fill="#4f2d83" stroke="#fff" stroke-width="1.3"/></g></g><g id="ax"><g clip-path="url(#ay)"><path d="M362.58,439.03h24.19V215.96h-24.19v223.07Z" fill="#4f2d83" stroke="#fff" stroke-width="1.3"/></g></g><g id="az"><g clip-path="url(#ba)"><path d="M453.31,439.03h24.19V169.66h-24.19V439.03Z" fill="#4f2d83" stroke="#fff" stroke-width="1.3"/></g></g><g id="bb"><g clip-path="url(#bc)"><path d="M544.03,439.03h24.19V123.37h-24.19V439.03Z" fill="#4f2d83" stroke="#fff" stroke-width="1.3"/></g></g><g id="bd"><g clip-path="url(#be)"><path d="M634.76,439.03h24.19V98.11h-24.19V439.03Z" fill="#4f2d83" stroke="#fff" stroke-width="1.3"/></g></g><g id="bf"><g clip-path="url(#bg)"><path d="M725.49,439.03h24.19V34.98h-24.19V439.03Z" fill="#4f2d83" stroke="#fff" stroke-width="1.3"/></g></g><g id="bh"><g clip-path="url(#bi)"><path d="M114.59,439.03h0Z" fill="#ec9d3d" stroke="#fff" stroke-width="1.3"/></g></g><g id="bj"><g clip-path="url(#bk)"><path d="M205.32,439.03h0Z" fill="#ec9d3d" stroke="#fff" stroke-width="1.3"/></g></g><g id="bl"><g clip-path="url(#bm)"><path d="M296.04,439.03h24.19v-12.63h-24.19v12.63Z" fill="#ec9d3d" stroke="#fff" stroke-width="1.3"/></g></g><g id="bn"><g clip-path="url(#bo)"><path d="M386.77,439.03h24.19v-29.46h-24.19v29.46Z" fill="#ec9d3d" stroke="#fff" stroke-width="1.3"/></g></g><g id="bp"><g clip-path="url(#bq)"><path d="M477.5,439.03h24.19v-25.25h-24.19v25.25Z" fill="#ec9d3d" stroke="#fff" stroke-width="1.3"/></g></g><g id="br"><g clip-path="url(#bs)"><path d="M568.23,439.03h24.19v-42.09h-24.19v42.09Z" fill="#ec9d3d" stroke="#fff" stroke-width="1.3"/></g></g><g id="bt"><g clip-path="url(#bu)"><path d="M658.96,439.03h24.19v-113.64h-24.19v113.64Z" fill="#ec9d3d" stroke="#fff" stroke-width="1.3"/></g></g><g id="bv"><g clip-path="url(#bw)"><path d="M749.68,439.03h24.19v-159.94h-24.19v159.94Z" fill="#ec9d3d" stroke="#fff" stroke-width="1.3"/></g></g><g id="bx"><g clip-path="url(#by)"><path d="M138.78,439.03h0Z" fill="#16ae7a" stroke="#fff" stroke-width="1.3"/></g></g><g id="bz"><g clip-path="url(#ca)"><path d="M229.51,439.03h24.19v-21.04h-24.19v21.04Z" fill="#16ae7a" stroke="#fff" stroke-width="1.3"/></g></g><g id="cb"><g clip-path="url(#cc)"><path d="M320.24,439.03h24.19v-46.3h-24.19v46.3Z" fill="#16ae7a" stroke="#fff" stroke-width="1.3"/></g></g><g id="cd"><g clip-path="url(#ce)"><path d="M410.97,439.03h24.19v-71.55h-24.19v71.55Z" fill="#16ae7a" stroke="#fff" stroke-width="1.3"/></g></g><g id="cf"><g clip-path="url(#cg)"><path d="M501.69,439.03h24.19v-84.18h-24.19v84.18Z" fill="#16ae7a" stroke="#fff" stroke-width="1.3"/></g></g><g id="ch"><g clip-path="url(#ci)"><path d="M592.42,439.03h24.19v-126.27h-24.19v126.27Z" fill="#16ae7a" stroke="#fff" stroke-width="1.3"/></g></g><g id="cj"><g clip-path="url(#ck)"><path d="M683.15,439.03h24.19v-130.48h-24.19v130.48Z" fill="#16ae7a" stroke="#fff" stroke-width="1.3"/></g></g><g id="cl"><g clip-path="url(#cm)"><path d="M773.88,439.03h24.19V253.84h-24.19v185.19Z" fill="#16ae7a" stroke="#fff" stroke-width="1.3"/></g></g><g id="cn"><g clip-path="url(#co)"><path d="M90.4,439.03h24.19v-17.68h-24.19v17.68Z" fill="#bc1e53" stroke="#fff" stroke-width="1.3"/></g></g><g id="cp"><g clip-path="url(#cq)"><path d="M181.12,439.03h24.19v-15.99h-24.19v15.99Z" fill="#bc1e53" stroke="#fff" stroke-width="1.3"/></g></g><g id="cr"><g clip-path="url(#cs)"><path d="M271.85,439.03h24.19v-16.41h-24.19v16.41Z" fill="#bc1e53" stroke="#fff" stroke-width="1.3"/></g></g><g id="ct"><g clip-path="url(#cu)"><path d="M362.58,439.03h24.19v-17.68h-24.19v17.68Z" fill="#bc1e53" stroke="#fff" stroke-width="1.3"/></g></g><g id="cv"><g clip-path="url(#cw)"><path d="M453.31,439.03h24.19v-17.68h-24.19v17.68Z" fill="#bc1e53" stroke="#fff" stroke-width="1.3"/></g></g><g id="cx"><g clip-path="url(#cy)"><path d="M544.03,439.03h24.19v-26.94h-24.19v26.94Z" fill="#bc1e53" stroke="#fff" stroke-width="1.3"/></g></g><g id="cz"><g clip-path="url(#da)"><path d="M634.76,439.03h24.19v-26.52h-24.19v26.52Z" fill="#bc1e53" stroke="#fff" stroke-width="1.3"/></g></g><g id="db"><g clip-path="url(#dc)"><path d="M725.49,439.03h24.19v-28.62h-24.19v28.62Z" fill="#bc1e53" stroke="#fff" stroke-width="1.3"/></g></g><g id="dd"><g clip-path="url(#de)"><path d="M114.59,439.03h24.19v-.42h-24.19v.42Z" fill="#bc1e53" stroke="#fff" stroke-width="1.3"/></g></g><g id="df"><g clip-path="url(#dg)"><path d="M205.32,439.03h24.19v-4.21h-24.19v4.21Z" fill="#bc1e53" stroke="#fff" stroke-width="1.3"/></g></g><g id="dh"><g clip-path="url(#di)"><path d="M296.04,439.03h24.19v-9.26h-24.19v9.26Z" fill="#bc1e53" stroke="#fff" stroke-width="1.3"/></g></g><g id="dj"><g clip-path="url(#dk)"><path d="M386.77,439.03h24.19v-11.36h-24.19v11.36Z" fill="#bc1e53" stroke="#fff" stroke-width="1.3"/></g></g><g id="dl"><g clip-path="url(#dm)"><path d="M477.5,439.03h24.19v-14.31h-24.19v14.31Z" fill="#bc1e53" stroke="#fff" stroke-width="1.3"/></g></g><g id="dn"><g clip-path="url(#do)"><path d="M568.23,439.03h24.19v-24.83h-24.19v24.83Z" fill="#bc1e53" stroke="#fff" stroke-width="1.3"/></g></g><g id="dp"><g clip-path="url(#dq)"><path d="M658.96,439.03h24.19v-31.15h-24.19v31.15Z" fill="#bc1e53" stroke="#fff" stroke-width="1.3"/></g></g><g id="dr"><g clip-path="url(#ds)"><path d="M749.68,439.03h24.19v-45.88h-24.19v45.88Z" fill="#bc1e53" stroke="#fff" stroke-width="1.3"/></g></g><g id="dt"><g clip-path="url(#du)"><path d="M138.78,439.03h24.19v-2.95h-24.19v2.95Z" fill="#bc1e53" stroke="#fff" stroke-width="1.3"/></g></g><g id="dv"><g clip-path="url(#dw)"><path d="M229.51,439.03h24.19v-10.1h-24.19v10.1Z" fill="#bc1e53" stroke="#fff" stroke-width="1.3"/></g></g><g id="dx"><g clip-path="url(#dy)"><path d="M320.24,439.03h24.19v-14.31h-24.19v14.31Z" fill="#bc1e53" stroke="#fff" stroke-width="1.3"/></g></g><g id="dz"><g clip-path="url(#ea)"><path d="M410.97,439.03h24.19v-16.41h-24.19v16.41Z" fill="#bc1e53" stroke="#fff" stroke-width="1.3"/></g></g><g id="eb"><g clip-path="url(#ec)"><path d="M501.69,439.03h24.19v-16.84h-24.19v16.84Z" fill="#bc1e53" stroke="#fff" stroke-width="1.3"/></g></g><g id="ed"><g clip-path="url(#ee)"><path d="M592.42,439.03h24.19v-27.36h-24.19v27.36Z" fill="#bc1e53" stroke="#fff" stroke-width="1.3"/></g></g><g id="ef"><g clip-path="url(#eg)"><path d="M683.15,439.03h24.19v-34.09h-24.19v34.09Z" fill="#bc1e53" stroke="#fff" stroke-width="1.3"/></g></g><g id="eh"><g clip-path="url(#ei)"><path d="M773.88,439.03h24.19v-37.46h-24.19v37.46Z" fill="#bc1e53" stroke="#fff" stroke-width="1.3"/></g></g><g id="gf"><path d="M81.32,439.03V14.78" fill="none" stroke="#231f20" stroke-linecap="square" stroke-width="1.04"/></g><g id="gg"><path d="M807.15,439.03V14.78" fill="none" stroke="#231f20" stroke-linecap="square" stroke-width="1.04"/></g><g id="gh"><path d="M81.32,439.03H807.15" fill="none" stroke="#231f20" stroke-linecap="square" stroke-width="1.04"/></g><g id="gi"><path d="M81.32,14.78H807.15" fill="none" stroke="#231f20" stroke-linecap="square" stroke-width="1.04"/></g><g id="gj"><rect x="92.97" y="28.26" width="383.91" height="125.05" rx="11.34" ry="11.34" fill="#f1f1f2" isolation="isolate" stroke="#e6e7e8" stroke-width="1.66"/><g><g id="gk"><path d="M99.91,56.05h33.82v-11.84h-33.82v11.84Z" fill="#4f2d83" stroke="#fff" stroke-width="1.3"/></g><g id="gl"><g isolation="isolate"><path d="M153.32,52.85c0-.77-.28-1.42-.83-1.95s-1.53-.97-2.93-1.34c-1.73-.43-3.09-1.06-4.06-1.9s-1.46-1.89-1.46-3.15c0-1.34,.52-2.45,1.57-3.34s2.41-1.34,4.08-1.34c1.8,0,3.23,.51,4.29,1.53s1.58,2.21,1.55,3.57l-.04,.07h-2.2c0-.97-.34-1.77-1.01-2.4s-1.54-.95-2.6-.95-1.9,.26-2.48,.79-.86,1.2-.86,2.04c0,.74,.31,1.36,.94,1.86s1.65,.93,3.06,1.31c1.72,.45,3.03,1.1,3.93,1.97s1.35,1.94,1.35,3.21c0,1.38-.54,2.48-1.62,3.32s-2.49,1.25-4.24,1.25c-1.65,0-3.1-.46-4.37-1.38s-1.87-2.16-1.83-3.7l.02-.07h2.2c0,1.07,.41,1.9,1.22,2.48s1.73,.87,2.75,.87c1.09,0,1.96-.25,2.6-.74s.96-1.16,.96-2Z" fill="#262626"/><path d="M169.39,51.29c0,1.83-.44,3.3-1.31,4.42s-2.08,1.68-3.62,1.68c-.78,0-1.47-.13-2.06-.39s-1.09-.65-1.51-1.18v6.2h-2.31v-17.55h1.77l.36,1.64c.41-.61,.93-1.07,1.55-1.39s1.34-.48,2.16-.48c1.57,0,2.79,.62,3.66,1.87s1.31,2.89,1.31,4.94v.25Zm-2.31-.25c0-1.44-.28-2.62-.85-3.54s-1.4-1.39-2.5-1.39c-.66,0-1.23,.15-1.7,.45s-.85,.71-1.14,1.24v6.13c.29,.52,.67,.93,1.14,1.22s1.04,.44,1.72,.44c1.09,0,1.92-.4,2.48-1.2s.84-1.83,.84-3.1v-.25Z" fill="#262626"/><path d="M177.47,57.39c-1.82,0-3.24-.58-4.26-1.75s-1.53-2.7-1.53-4.59v-.52c0-1.82,.53-3.33,1.58-4.52s2.33-1.79,3.85-1.79c1.7,0,2.97,.53,3.81,1.58s1.27,2.46,1.27,4.21v1.22h-8.11l-.04,.06c0,1.27,.28,2.31,.84,3.1s1.42,1.19,2.58,1.19c.78,0,1.47-.11,2.06-.33s1.1-.53,1.52-.92l.9,1.5c-.45,.44-1.05,.81-1.79,1.11s-1.64,.45-2.68,.45Zm-.36-11.34c-.8,0-1.47,.31-2,.93s-.85,1.42-.97,2.38l.02,.06h5.72v-.19c0-.92-.23-1.68-.68-2.29s-1.15-.9-2.1-.9Z" fill="#262626"/><path d="M189.82,55.59c.71,0,1.33-.24,1.86-.71s.8-1.05,.8-1.74h2.09l.04,.07c.03,1.09-.44,2.06-1.41,2.91s-2.09,1.27-3.38,1.27c-1.78,0-3.16-.61-4.12-1.82s-1.45-2.72-1.45-4.52v-.49c0-1.79,.49-3.29,1.46-4.51s2.35-1.82,4.12-1.82c1.41,0,2.57,.44,3.47,1.31s1.34,1.95,1.31,3.22l-.02,.07h-2.1c0-.77-.25-1.43-.76-1.97s-1.14-.81-1.9-.81c-1.13,0-1.96,.44-2.48,1.32s-.78,1.94-.78,3.19v.49c0,1.27,.26,2.35,.77,3.22s1.34,1.31,2.49,1.31Z" fill="#262626"/><path d="M199.84,41.22h-2.31v-2.36h2.31v2.36Zm0,15.93h-2.31v-12.68h2.31v12.68Z" fill="#262626"/><path d="M208.65,57.39c-1.82,0-3.24-.58-4.26-1.75s-1.53-2.7-1.53-4.59v-.52c0-1.82,.53-3.33,1.58-4.52s2.33-1.79,3.85-1.79c1.7,0,2.97,.53,3.81,1.58s1.27,2.46,1.27,4.21v1.22h-8.11l-.04,.06c0,1.27,.28,2.31,.84,3.1s1.42,1.19,2.58,1.19c.78,0,1.47-.11,2.06-.33s1.1-.53,1.52-.92l.9,1.5c-.45,.44-1.05,.81-1.79,1.11s-1.64,.45-2.68,.45Zm-.36-11.34c-.8,0-1.47,.31-2,.93s-.85,1.42-.97,2.38l.02,.06h5.72v-.19c0-.92-.23-1.68-.68-2.29s-1.15-.9-2.1-.9Z" fill="#262626"/><path d="M223.33,53.74c0-.51-.19-.92-.58-1.24s-1.12-.6-2.2-.84c-1.49-.32-2.64-.77-3.44-1.35s-1.2-1.35-1.2-2.32c0-1.03,.44-1.91,1.32-2.65s2.02-1.1,3.42-1.1,2.6,.39,3.49,1.17,1.32,1.69,1.28,2.73l-.02,.07h-2.2c0-.55-.24-1.04-.72-1.49s-1.09-.67-1.82-.67c-.81,0-1.42,.18-1.82,.55s-.6,.8-.6,1.31,.17,.89,.52,1.16,1.06,.52,2.15,.75c1.55,.33,2.73,.79,3.54,1.39s1.21,1.39,1.21,2.36c0,1.12-.46,2.04-1.37,2.75s-2.1,1.07-3.57,1.07c-1.62,0-2.89-.41-3.82-1.23s-1.37-1.78-1.32-2.87l.02-.07h2.2c.04,.82,.34,1.42,.91,1.8s1.24,.57,2,.57c.82,0,1.46-.17,1.93-.52s.7-.79,.7-1.33Z" fill="#262626"/><path d="M239.51,55.59c.71,0,1.33-.24,1.86-.71s.8-1.05,.8-1.74h2.09l.04,.07c.03,1.09-.44,2.06-1.41,2.91s-2.09,1.27-3.38,1.27c-1.78,0-3.16-.61-4.12-1.82s-1.45-2.72-1.45-4.52v-.49c0-1.79,.49-3.29,1.46-4.51s2.35-1.82,4.12-1.82c1.41,0,2.57,.44,3.47,1.31s1.34,1.95,1.31,3.22l-.02,.07h-2.1c0-.77-.25-1.43-.76-1.97s-1.14-.81-1.9-.81c-1.13,0-1.96,.44-2.48,1.32s-.78,1.94-.78,3.19v.49c0,1.27,.26,2.35,.77,3.22s1.34,1.31,2.49,1.31Z" fill="#262626"/><path d="M249.53,57.15h-2.31v-18.28h2.31v18.28Z" fill="#262626"/><path d="M261.13,55.27c-.4,.68-.91,1.2-1.54,1.57s-1.35,.55-2.17,.55c-1.38,0-2.46-.44-3.23-1.32s-1.16-2.26-1.16-4.12v-7.48h2.31v7.5c0,1.35,.2,2.28,.6,2.79s1.02,.76,1.86,.76,1.5-.17,2.03-.5,.94-.8,1.21-1.41v-9.14h2.31v12.68h-2.07l-.15-1.88Z" fill="#262626"/><path d="M274.09,53.74c0-.51-.19-.92-.58-1.24s-1.12-.6-2.2-.84c-1.49-.32-2.64-.77-3.44-1.35s-1.2-1.35-1.2-2.32c0-1.03,.44-1.91,1.32-2.65s2.02-1.1,3.42-1.1,2.6,.39,3.49,1.17,1.32,1.69,1.28,2.73l-.02,.07h-2.2c0-.55-.24-1.04-.72-1.49s-1.09-.67-1.82-.67c-.81,0-1.42,.18-1.82,.55s-.6,.8-.6,1.31,.17,.89,.52,1.16,1.06,.52,2.15,.75c1.55,.33,2.73,.79,3.54,1.39s1.21,1.39,1.21,2.36c0,1.12-.46,2.04-1.37,2.75s-2.1,1.07-3.57,1.07c-1.62,0-2.89-.41-3.82-1.23s-1.37-1.78-1.32-2.87l.02-.07h2.2c.04,.82,.34,1.42,.91,1.8s1.24,.57,2,.57c.82,0,1.46-.17,1.93-.52s.7-.79,.7-1.33Z" fill="#262626"/><path d="M282.48,41.41v3.06h2.4v1.71h-2.4v7.7c0,.59,.12,1.01,.37,1.25s.57,.36,.98,.36c.13,0,.28-.02,.45-.05s.3-.07,.41-.11l.32,1.58c-.17,.14-.43,.26-.76,.35s-.67,.13-1,.13c-.94,0-1.68-.28-2.24-.85s-.83-1.46-.83-2.67v-7.7h-2.02v-1.71h2.02v-3.06h2.31Z" fill="#262626"/><path d="M292.61,57.39c-1.82,0-3.24-.58-4.26-1.75s-1.53-2.7-1.53-4.59v-.52c0-1.82,.53-3.33,1.58-4.52s2.33-1.79,3.85-1.79c1.7,0,2.97,.53,3.81,1.58s1.27,2.46,1.27,4.21v1.22h-8.11l-.04,.06c0,1.27,.28,2.31,.84,3.1s1.42,1.19,2.58,1.19c.78,0,1.47-.11,2.06-.33s1.1-.53,1.52-.92l.9,1.5c-.45,.44-1.05,.81-1.79,1.11s-1.64,.45-2.68,.45Zm-.36-11.34c-.8,0-1.47,.31-2,.93s-.85,1.42-.97,2.38l.02,.06h5.72v-.19c0-.92-.23-1.68-.68-2.29s-1.15-.9-2.1-.9Z" fill="#262626"/><path d="M305.92,46.51l-1.18-.07c-.61,0-1.12,.14-1.54,.43s-.74,.7-.97,1.22v9.06h-2.31v-12.68h2.06l.22,1.85c.36-.66,.8-1.17,1.33-1.54s1.13-.55,1.82-.55c.17,0,.34,.01,.49,.04s.29,.06,.39,.09l-.32,2.14Z" fill="#262626"/><path d="M315.7,53.74c0-.51-.19-.92-.58-1.24s-1.12-.6-2.2-.84c-1.49-.32-2.64-.77-3.44-1.35s-1.2-1.35-1.2-2.32c0-1.03,.44-1.91,1.32-2.65s2.02-1.1,3.42-1.1,2.6,.39,3.49,1.17,1.32,1.69,1.28,2.73l-.02,.07h-2.2c0-.55-.24-1.04-.72-1.49s-1.09-.67-1.82-.67c-.81,0-1.42,.18-1.82,.55s-.6,.8-.6,1.31,.17,.89,.52,1.16,1.06,.52,2.15,.75c1.55,.33,2.73,.79,3.54,1.39s1.21,1.39,1.21,2.36c0,1.12-.46,2.04-1.37,2.75s-2.1,1.07-3.57,1.07c-1.62,0-2.89-.41-3.82-1.23s-1.37-1.78-1.32-2.87l.02-.07h2.2c.04,.82,.34,1.42,.91,1.8s1.24,.57,2,.57c.82,0,1.46-.17,1.93-.52s.7-.79,.7-1.33Z" fill="#262626"/><path d="M328.9,44.47l.16,1.66c.41-.6,.94-1.07,1.58-1.4s1.38-.5,2.22-.5,1.57,.2,2.17,.59,1.06,.98,1.37,1.76c.41-.73,.94-1.3,1.59-1.72s1.42-.63,2.29-.63c1.29,0,2.31,.44,3.06,1.33s1.12,2.22,1.12,4v7.58h-2.31v-7.61c0-1.25-.21-2.13-.64-2.65s-1.07-.78-1.92-.78c-.79,0-1.43,.27-1.92,.82s-.78,1.24-.86,2.07v8.14h-2.32v-7.61c0-1.19-.22-2.06-.66-2.61s-1.08-.83-1.9-.83c-.7,0-1.28,.14-1.73,.43s-.8,.7-1.04,1.22v9.39h-2.31v-12.68h2.06Z" fill="#262626"/><path d="M353.07,57.39c-1.82,0-3.24-.58-4.26-1.75s-1.53-2.7-1.53-4.59v-.52c0-1.82,.53-3.33,1.58-4.52s2.33-1.79,3.85-1.79c1.7,0,2.97,.53,3.81,1.58s1.27,2.46,1.27,4.21v1.22h-8.11l-.04,.06c0,1.27,.28,2.31,.84,3.1s1.42,1.19,2.58,1.19c.78,0,1.47-.11,2.06-.33s1.1-.53,1.52-.92l.9,1.5c-.45,.44-1.05,.81-1.79,1.11s-1.64,.45-2.68,.45Zm-.36-11.34c-.8,0-1.47,.31-2,.93s-.85,1.42-.97,2.38l.02,.06h5.72v-.19c0-.92-.23-1.68-.68-2.29s-1.15-.9-2.1-.9Z" fill="#262626"/><path d="M366.38,46.51l-1.18-.07c-.61,0-1.12,.14-1.54,.43s-.74,.7-.97,1.22v9.06h-2.31v-12.68h2.06l.22,1.85c.36-.66,.8-1.17,1.33-1.54s1.13-.55,1.82-.55c.17,0,.34,.01,.49,.04s.29,.06,.39,.09l-.32,2.14Z" fill="#262626"/><path d="M368.15,51.04c0-2.04,.44-3.68,1.31-4.93s2.09-1.88,3.65-1.88c.8,0,1.51,.16,2.12,.49s1.12,.79,1.54,1.4l.28-1.65h1.84v12.75c0,1.62-.47,2.87-1.42,3.74s-2.31,1.31-4.09,1.31c-.61,0-1.27-.08-1.97-.25s-1.33-.4-1.87-.69l.35-1.79c.45,.23,.98,.42,1.61,.57s1.25,.22,1.86,.22c1.12,0,1.94-.26,2.46-.77s.77-1.29,.77-2.34v-1.44c-.41,.53-.91,.93-1.49,1.21s-1.25,.41-2,.41c-1.55,0-2.76-.56-3.63-1.68s-1.31-2.6-1.31-4.42v-.25Zm2.31,.25c0,1.27,.26,2.3,.79,3.07s1.33,1.16,2.43,1.16c.7,0,1.28-.16,1.75-.47s.86-.76,1.16-1.34v-5.84c-.3-.54-.68-.97-1.16-1.28s-1.05-.47-1.72-.47c-1.1,0-1.92,.46-2.44,1.37s-.79,2.1-.79,3.56v.25Z" fill="#262626"/><path d="M387.45,57.39c-1.82,0-3.24-.58-4.26-1.75s-1.53-2.7-1.53-4.59v-.52c0-1.82,.53-3.33,1.58-4.52s2.33-1.79,3.85-1.79c1.7,0,2.97,.53,3.81,1.58s1.27,2.46,1.27,4.21v1.22h-8.11l-.04,.06c0,1.27,.28,2.31,.84,3.1s1.42,1.19,2.58,1.19c.78,0,1.47-.11,2.06-.33s1.1-.53,1.52-.92l.9,1.5c-.45,.44-1.05,.81-1.79,1.11s-1.64,.45-2.68,.45Zm-.36-11.34c-.8,0-1.47,.31-2,.93s-.85,1.42-.97,2.38l.02,.06h5.72v-.19c0-.92-.23-1.68-.68-2.29s-1.15-.9-2.1-.9Z" fill="#262626"/><path d="M394.23,51.04c0-2.04,.44-3.68,1.31-4.93s2.09-1.88,3.66-1.88c.74,0,1.4,.14,1.97,.41s1.06,.67,1.47,1.2v-6.97h2.31v18.28h-1.77l-.35-1.61c-.41,.61-.93,1.07-1.54,1.38s-1.32,.47-2.12,.47c-1.55,0-2.76-.56-3.63-1.68s-1.31-2.6-1.31-4.42v-.25Zm2.31,.25c0,1.28,.26,2.31,.79,3.08s1.34,1.15,2.44,1.15c.69,0,1.27-.16,1.73-.47s.85-.75,1.15-1.31v-5.92c-.3-.52-.68-.94-1.15-1.25s-1.04-.46-1.71-.46c-1.11,0-1.93,.46-2.46,1.37s-.79,2.1-.79,3.56v.25Z" fill="#262626"/></g></g></g><g><g id="gm"><path d="M99.91,83.94h33.82v-11.84h-33.82v11.84Z" fill="#ec9d3d" stroke="#fff" stroke-width="1.3"/></g><g id="gn"><g isolation="isolate"><path d="M157.13,85.03h-2.31l-8.21-13.03-.07,.02v13.01h-2.31v-17.06h2.31l8.21,13.02,.07-.02v-13h2.31v17.06Z" fill="#262626"/><path d="M166.06,85.28c-1.82,0-3.24-.58-4.26-1.75s-1.53-2.7-1.53-4.59v-.52c0-1.82,.53-3.33,1.58-4.52s2.33-1.79,3.85-1.79c1.7,0,2.97,.53,3.81,1.58s1.27,2.46,1.27,4.21v1.22h-8.11l-.04,.06c0,1.27,.28,2.31,.84,3.1s1.42,1.19,2.58,1.19c.78,0,1.47-.11,2.06-.33s1.1-.53,1.52-.92l.9,1.5c-.45,.44-1.05,.81-1.79,1.11s-1.64,.45-2.68,.45Zm-.36-11.34c-.8,0-1.47,.31-2,.93s-.85,1.42-.97,2.38l.02,.06h5.72v-.19c0-.92-.23-1.68-.68-2.29s-1.15-.9-2.1-.9Z" fill="#262626"/><path d="M176.62,80.42l.29,1.63h.07l.3-1.63,2.53-8.06h1.85l2.54,8.06,.33,1.82h.07l.38-1.82,1.88-8.06h2.41l-3.68,12.68h-1.86l-2.51-7.72-.48-2.02h-.07l-.45,2.02-2.46,7.72h-1.86l-3.68-12.68h2.4l1.99,8.06Z" fill="#262626"/><path d="M204.87,81.62c0-.51-.19-.92-.58-1.24s-1.12-.6-2.2-.84c-1.49-.32-2.64-.77-3.44-1.35s-1.2-1.35-1.2-2.32c0-1.03,.44-1.91,1.32-2.65s2.02-1.1,3.42-1.1,2.6,.39,3.49,1.17,1.32,1.69,1.28,2.73l-.02,.07h-2.2c0-.55-.24-1.04-.72-1.49s-1.09-.67-1.82-.67c-.81,0-1.42,.18-1.82,.55s-.6,.8-.6,1.31,.17,.89,.52,1.16,1.06,.52,2.15,.75c1.55,.33,2.73,.79,3.54,1.39s1.21,1.39,1.21,2.36c0,1.12-.46,2.04-1.37,2.75s-2.1,1.07-3.57,1.07c-1.62,0-2.89-.41-3.82-1.23s-1.37-1.78-1.32-2.87l.02-.07h2.2c.04,.82,.34,1.42,.91,1.8s1.24,.57,2,.57c.82,0,1.46-.17,1.93-.52s.7-.79,.7-1.33Z" fill="#262626"/><path d="M220.86,79.17c0,1.83-.44,3.3-1.31,4.42s-2.08,1.68-3.62,1.68c-.78,0-1.47-.13-2.06-.39s-1.09-.65-1.51-1.18v6.2h-2.31v-17.55h1.77l.36,1.64c.41-.61,.93-1.07,1.55-1.39s1.34-.48,2.16-.48c1.57,0,2.79,.62,3.66,1.87s1.31,2.89,1.31,4.94v.25Zm-2.31-.25c0-1.44-.28-2.62-.85-3.54s-1.4-1.39-2.5-1.39c-.66,0-1.23,.15-1.7,.45s-.85,.71-1.14,1.24v6.13c.29,.52,.67,.93,1.14,1.22s1.04,.44,1.72,.44c1.09,0,1.92-.4,2.48-1.2s.84-1.83,.84-3.1v-.25Z" fill="#262626"/><path d="M228.94,85.28c-1.82,0-3.24-.58-4.26-1.75s-1.53-2.7-1.53-4.59v-.52c0-1.82,.53-3.33,1.58-4.52s2.33-1.79,3.85-1.79c1.7,0,2.97,.53,3.81,1.58s1.27,2.46,1.27,4.21v1.22h-8.11l-.04,.06c0,1.27,.28,2.31,.84,3.1s1.42,1.19,2.58,1.19c.78,0,1.47-.11,2.06-.33s1.1-.53,1.52-.92l.9,1.5c-.45,.44-1.05,.81-1.79,1.11s-1.64,.45-2.68,.45Zm-.36-11.34c-.8,0-1.47,.31-2,.93s-.85,1.42-.97,2.38l.02,.06h5.72v-.19c0-.92-.23-1.68-.68-2.29s-1.15-.9-2.1-.9Z" fill="#262626"/><path d="M241.29,83.48c.71,0,1.33-.24,1.86-.71s.8-1.05,.8-1.74h2.09l.04,.07c.03,1.09-.44,2.06-1.41,2.91s-2.09,1.27-3.38,1.27c-1.78,0-3.16-.61-4.12-1.82s-1.45-2.72-1.45-4.52v-.49c0-1.79,.49-3.29,1.46-4.51s2.35-1.82,4.12-1.82c1.41,0,2.57,.44,3.47,1.31s1.34,1.95,1.31,3.22l-.02,.07h-2.1c0-.77-.25-1.43-.76-1.97s-1.14-.81-1.9-.81c-1.13,0-1.96,.44-2.48,1.32s-.78,1.94-.78,3.19v.49c0,1.27,.26,2.35,.77,3.22s1.34,1.31,2.49,1.31Z" fill="#262626"/><path d="M251.31,69.11h-2.31v-2.36h2.31v2.36Zm0,15.93h-2.31v-12.68h2.31v12.68Z" fill="#262626"/><path d="M260.11,85.28c-1.82,0-3.24-.58-4.26-1.75s-1.53-2.7-1.53-4.59v-.52c0-1.82,.53-3.33,1.58-4.52s2.33-1.79,3.85-1.79c1.7,0,2.97,.53,3.81,1.58s1.27,2.46,1.27,4.21v1.22h-8.11l-.04,.06c0,1.27,.28,2.31,.84,3.1s1.42,1.19,2.58,1.19c.78,0,1.47-.11,2.06-.33s1.1-.53,1.52-.92l.9,1.5c-.45,.44-1.05,.81-1.79,1.11s-1.64,.45-2.68,.45Zm-.36-11.34c-.8,0-1.47,.31-2,.93s-.85,1.42-.97,2.38l.02,.06h5.72v-.19c0-.92-.23-1.68-.68-2.29s-1.15-.9-2.1-.9Z" fill="#262626"/><path d="M274.8,81.62c0-.51-.19-.92-.58-1.24s-1.12-.6-2.2-.84c-1.49-.32-2.64-.77-3.44-1.35s-1.2-1.35-1.2-2.32c0-1.03,.44-1.91,1.32-2.65s2.02-1.1,3.42-1.1,2.6,.39,3.49,1.17,1.32,1.69,1.28,2.73l-.02,.07h-2.2c0-.55-.24-1.04-.72-1.49s-1.09-.67-1.82-.67c-.81,0-1.42,.18-1.82,.55s-.6,.8-.6,1.31,.17,.89,.52,1.16,1.06,.52,2.15,.75c1.55,.33,2.73,.79,3.54,1.39s1.21,1.39,1.21,2.36c0,1.12-.46,2.04-1.37,2.75s-2.1,1.07-3.57,1.07c-1.62,0-2.89-.41-3.82-1.23s-1.37-1.78-1.32-2.87l.02-.07h2.2c.04,.82,.34,1.42,.91,1.8s1.24,.57,2,.57c.82,0,1.46-.17,1.93-.52s.7-.79,.7-1.33Z" fill="#262626"/><path d="M290.98,83.48c.71,0,1.33-.24,1.86-.71s.8-1.05,.8-1.74h2.09l.04,.07c.03,1.09-.44,2.06-1.41,2.91s-2.09,1.27-3.38,1.27c-1.78,0-3.16-.61-4.12-1.82s-1.45-2.72-1.45-4.52v-.49c0-1.79,.49-3.29,1.46-4.51s2.35-1.82,4.12-1.82c1.41,0,2.57,.44,3.47,1.31s1.34,1.95,1.31,3.22l-.02,.07h-2.1c0-.77-.25-1.43-.76-1.97s-1.14-.81-1.9-.81c-1.13,0-1.96,.44-2.48,1.32s-.78,1.94-.78,3.19v.49c0,1.27,.26,2.35,.77,3.22s1.34,1.31,2.49,1.31Z" fill="#262626"/><path d="M301,85.03h-2.31v-18.28h2.31v18.28Z" fill="#262626"/><path d="M312.6,83.16c-.4,.68-.91,1.2-1.54,1.57s-1.35,.55-2.17,.55c-1.38,0-2.46-.44-3.23-1.32s-1.16-2.26-1.16-4.12v-7.48h2.31v7.5c0,1.35,.2,2.28,.6,2.79s1.02,.76,1.86,.76,1.5-.17,2.03-.5,.94-.8,1.21-1.41v-9.14h2.31v12.68h-2.07l-.15-1.88Z" fill="#262626"/><path d="M325.56,81.62c0-.51-.19-.92-.58-1.24s-1.12-.6-2.2-.84c-1.49-.32-2.64-.77-3.44-1.35s-1.2-1.35-1.2-2.32c0-1.03,.44-1.91,1.32-2.65s2.02-1.1,3.42-1.1,2.6,.39,3.49,1.17,1.32,1.69,1.28,2.73l-.02,.07h-2.2c0-.55-.24-1.04-.72-1.49s-1.09-.67-1.82-.67c-.81,0-1.42,.18-1.82,.55s-.6,.8-.6,1.31,.17,.89,.52,1.16,1.06,.52,2.15,.75c1.55,.33,2.73,.79,3.54,1.39s1.21,1.39,1.21,2.36c0,1.12-.46,2.04-1.37,2.75s-2.1,1.07-3.57,1.07c-1.62,0-2.89-.41-3.82-1.23s-1.37-1.78-1.32-2.87l.02-.07h2.2c.04,.82,.34,1.42,.91,1.8s1.24,.57,2,.57c.82,0,1.46-.17,1.93-.52s.7-.79,.7-1.33Z" fill="#262626"/><path d="M333.95,69.3v3.06h2.4v1.71h-2.4v7.7c0,.59,.12,1.01,.37,1.25s.57,.36,.98,.36c.13,0,.28-.02,.45-.05s.3-.07,.41-.11l.32,1.58c-.17,.14-.43,.26-.76,.35s-.67,.13-1,.13c-.94,0-1.68-.28-2.24-.85s-.83-1.46-.83-2.67v-7.7h-2.02v-1.71h2.02v-3.06h2.31Z" fill="#262626"/><path d="M344.08,85.28c-1.82,0-3.24-.58-4.26-1.75s-1.53-2.7-1.53-4.59v-.52c0-1.82,.53-3.33,1.58-4.52s2.33-1.79,3.85-1.79c1.7,0,2.97,.53,3.81,1.58s1.27,2.46,1.27,4.21v1.22h-8.11l-.04,.06c0,1.27,.28,2.31,.84,3.1s1.42,1.19,2.58,1.19c.78,0,1.47-.11,2.06-.33s1.1-.53,1.52-.92l.9,1.5c-.45,.44-1.05,.81-1.79,1.11s-1.64,.45-2.68,.45Zm-.36-11.34c-.8,0-1.47,.31-2,.93s-.85,1.42-.97,2.38l.02,.06h5.72v-.19c0-.92-.23-1.68-.68-2.29s-1.15-.9-2.1-.9Z" fill="#262626"/><path d="M357.39,74.39l-1.18-.07c-.61,0-1.12,.14-1.54,.43s-.74,.7-.97,1.22v9.06h-2.31v-12.68h2.06l.22,1.85c.36-.66,.8-1.17,1.33-1.54s1.13-.55,1.82-.55c.17,0,.34,.01,.49,.04s.29,.06,.39,.09l-.32,2.14Z" fill="#262626"/><path d="M366.72,85.03v-10.97h-1.98v-1.71h1.98v-1.61c0-1.35,.35-2.4,1.06-3.13s1.69-1.11,2.96-1.11c.27,0,.53,.02,.8,.06s.57,.1,.9,.18l-.28,1.76c-.14-.03-.31-.06-.51-.08s-.41-.04-.63-.04c-.67,0-1.17,.2-1.5,.6s-.49,.99-.49,1.75v1.61h2.3v1.71h-2.3v10.97h-2.31Z" fill="#262626"/><path d="M373.12,78.58c0-1.88,.51-3.42,1.52-4.63s2.39-1.82,4.14-1.82,3.15,.61,4.17,1.82,1.53,2.76,1.53,4.64v.26c0,1.89-.51,3.44-1.52,4.64s-2.4,1.8-4.15,1.8-3.13-.6-4.15-1.81-1.53-2.75-1.53-4.63v-.26Zm2.31,.26c0,1.34,.28,2.45,.85,3.33s1.41,1.31,2.53,1.31,1.94-.44,2.51-1.31,.86-1.98,.86-3.33v-.26c0-1.33-.29-2.43-.86-3.32s-1.42-1.32-2.53-1.32-1.94,.44-2.5,1.32-.85,1.99-.85,3.32v.26Z" fill="#262626"/><path d="M393.3,74.39l-1.18-.07c-.61,0-1.12,.14-1.54,.43s-.74,.7-.97,1.22v9.06h-2.31v-12.68h2.06l.22,1.85c.36-.66,.8-1.17,1.33-1.54s1.13-.55,1.82-.55c.17,0,.34,.01,.49,.04s.29,.06,.39,.09l-.32,2.14Z" fill="#262626"/><path d="M397.76,72.35l.16,1.66c.41-.6,.94-1.07,1.58-1.4s1.38-.5,2.22-.5,1.57,.2,2.17,.59,1.06,.98,1.37,1.76c.41-.73,.94-1.3,1.59-1.72s1.42-.63,2.29-.63c1.29,0,2.31,.44,3.06,1.33s1.12,2.22,1.12,4v7.58h-2.31v-7.61c0-1.25-.21-2.13-.64-2.65s-1.07-.78-1.92-.78c-.79,0-1.43,.27-1.92,.82s-.78,1.24-.86,2.07v8.14h-2.32v-7.61c0-1.19-.22-2.06-.66-2.61s-1.08-.83-1.9-.83c-.7,0-1.28,.14-1.73,.43s-.8,.7-1.04,1.22v9.39h-2.31v-12.68h2.06Z" fill="#262626"/><path d="M421.93,85.28c-1.82,0-3.24-.58-4.26-1.75s-1.53-2.7-1.53-4.59v-.52c0-1.82,.53-3.33,1.58-4.52s2.33-1.79,3.85-1.79c1.7,0,2.97,.53,3.81,1.58s1.27,2.46,1.27,4.21v1.22h-8.11l-.04,.06c0,1.27,.28,2.31,.84,3.1s1.42,1.19,2.58,1.19c.78,0,1.47-.11,2.06-.33s1.1-.53,1.52-.92l.9,1.5c-.45,.44-1.05,.81-1.79,1.11s-1.64,.45-2.68,.45Zm-.36-11.34c-.8,0-1.47,.31-2,.93s-.85,1.42-.97,2.38l.02,.06h5.72v-.19c0-.92-.23-1.68-.68-2.29s-1.15-.9-2.1-.9Z" fill="#262626"/><path d="M428.71,78.93c0-2.04,.44-3.68,1.31-4.93s2.09-1.88,3.66-1.88c.74,0,1.4,.14,1.97,.41s1.06,.67,1.47,1.2v-6.97h2.31v18.28h-1.77l-.35-1.61c-.41,.61-.93,1.07-1.54,1.38s-1.32,.47-2.12,.47c-1.55,0-2.76-.56-3.63-1.68s-1.31-2.6-1.31-4.42v-.25Zm2.31,.25c0,1.28,.26,2.31,.79,3.08s1.34,1.15,2.44,1.15c.69,0,1.27-.16,1.73-.47s.85-.75,1.15-1.31v-5.92c-.3-.52-.68-.94-1.15-1.25s-1.04-.46-1.71-.46c-1.11,0-1.93,.46-2.46,1.37s-.79,2.1-.79,3.56v.25Z" fill="#262626"/></g></g></g><g><g id="go"><path d="M99.91,111.82h33.82v-11.84h-33.82v11.84Z" fill="#16ae7a" stroke="#fff" stroke-width="1.3"/></g><g id="gp"><g isolation="isolate"><path d="M156.5,110.62c-.41,.63-1.11,1.21-2.12,1.75s-2.31,.8-3.91,.8c-1.97,0-3.6-.65-4.89-1.96s-1.93-2.99-1.93-5.06v-3.52c0-2.07,.62-3.76,1.86-5.06s2.84-1.96,4.8-1.96,3.4,.51,4.5,1.52,1.64,2.3,1.61,3.86l-.02,.07h-2.21c0-1.04-.34-1.9-1.01-2.6s-1.62-1.04-2.86-1.04c-1.3,0-2.36,.49-3.15,1.46s-1.2,2.21-1.2,3.71v3.54c0,1.52,.42,2.76,1.27,3.74s1.92,1.47,3.23,1.47c1.01,0,1.81-.13,2.4-.39s1.03-.57,1.32-.93v-3.84h-3.87v-1.8h6.18v6.23Z" fill="#262626"/><path d="M165.41,113.17c-1.82,0-3.24-.58-4.26-1.75s-1.53-2.7-1.53-4.59v-.52c0-1.82,.53-3.33,1.58-4.52s2.33-1.79,3.85-1.79c1.7,0,2.97,.53,3.81,1.58s1.27,2.46,1.27,4.21v1.22h-8.11l-.04,.06c0,1.27,.28,2.31,.84,3.1s1.42,1.19,2.58,1.19c.78,0,1.47-.11,2.06-.33s1.1-.53,1.52-.92l.9,1.5c-.45,.44-1.05,.81-1.79,1.11s-1.64,.45-2.68,.45Zm-.36-11.34c-.8,0-1.47,.31-2,.93s-.85,1.42-.97,2.38l.02,.06h5.72v-.19c0-.92-.23-1.68-.68-2.29s-1.15-.9-2.1-.9Z" fill="#262626"/><path d="M174.79,100.24l.16,1.89c.42-.67,.95-1.19,1.59-1.56s1.36-.56,2.17-.56c1.37,0,2.43,.4,3.18,1.2s1.12,2.04,1.12,3.71v8h-2.31v-7.96c0-1.12-.22-1.91-.66-2.38s-1.12-.7-2.02-.7c-.71,0-1.31,.14-1.81,.43s-.89,.69-1.18,1.2v9.41h-2.31v-12.68h2.06Z" fill="#262626"/><path d="M185.83,106.46c0-1.88,.51-3.42,1.52-4.63s2.39-1.82,4.14-1.82,3.15,.61,4.17,1.82,1.53,2.76,1.53,4.64v.26c0,1.89-.51,3.44-1.52,4.64s-2.4,1.8-4.15,1.8-3.13-.6-4.15-1.81-1.53-2.75-1.53-4.63v-.26Zm2.31,.26c0,1.34,.28,2.45,.85,3.33s1.41,1.31,2.53,1.31,1.94-.44,2.51-1.31,.86-1.98,.86-3.33v-.26c0-1.33-.29-2.43-.86-3.32s-1.42-1.32-2.53-1.32-1.94,.44-2.5,1.32-.85,1.99-.85,3.32v.26Z" fill="#262626"/><path d="M202.07,100.24l.16,1.66c.41-.6,.94-1.07,1.58-1.4s1.38-.5,2.22-.5,1.57,.2,2.17,.59,1.06,.98,1.37,1.76c.41-.73,.94-1.3,1.59-1.72s1.42-.63,2.29-.63c1.29,0,2.31,.44,3.06,1.33s1.12,2.22,1.12,4v7.58h-2.31v-7.61c0-1.25-.21-2.13-.64-2.65s-1.07-.78-1.92-.78c-.79,0-1.43,.27-1.92,.82s-.78,1.24-.86,2.07v8.14h-2.32v-7.61c0-1.19-.22-2.06-.66-2.61s-1.08-.83-1.9-.83c-.7,0-1.28,.14-1.73,.43s-.8,.7-1.04,1.22v9.39h-2.31v-12.68h2.06Z" fill="#262626"/><path d="M226.23,113.17c-1.82,0-3.24-.58-4.26-1.75s-1.53-2.7-1.53-4.59v-.52c0-1.82,.53-3.33,1.58-4.52s2.33-1.79,3.85-1.79c1.7,0,2.97,.53,3.81,1.58s1.27,2.46,1.27,4.21v1.22h-8.11l-.04,.06c0,1.27,.28,2.31,.84,3.1s1.42,1.19,2.58,1.19c.78,0,1.47-.11,2.06-.33s1.1-.53,1.52-.92l.9,1.5c-.45,.44-1.05,.81-1.79,1.11s-1.64,.45-2.68,.45Zm-.36-11.34c-.8,0-1.47,.31-2,.93s-.85,1.42-.97,2.38l.02,.06h5.72v-.19c0-.92-.23-1.68-.68-2.29s-1.15-.9-2.1-.9Z" fill="#262626"/><path d="M244.55,111.36c.71,0,1.33-.24,1.86-.71s.8-1.05,.8-1.74h2.09l.04,.07c.03,1.09-.44,2.06-1.41,2.91s-2.09,1.27-3.38,1.27c-1.78,0-3.16-.61-4.12-1.82s-1.45-2.72-1.45-4.52v-.49c0-1.79,.49-3.29,1.46-4.51s2.35-1.82,4.12-1.82c1.41,0,2.57,.44,3.47,1.31s1.34,1.95,1.31,3.22l-.02,.07h-2.1c0-.77-.25-1.43-.76-1.97s-1.14-.81-1.9-.81c-1.13,0-1.96,.44-2.48,1.32s-.78,1.94-.78,3.19v.49c0,1.27,.26,2.35,.77,3.22s1.34,1.31,2.49,1.31Z" fill="#262626"/><path d="M254.38,101.94c.44-.61,.97-1.08,1.61-1.42s1.34-.51,2.12-.51c1.35,0,2.4,.41,3.16,1.22s1.13,2.06,1.13,3.75v7.95h-2.31v-7.97c0-1.05-.22-1.82-.67-2.32s-1.12-.75-2.01-.75c-.69,0-1.29,.13-1.79,.4s-.92,.65-1.23,1.13v9.5h-2.31v-18.28h2.31v7.3Z" fill="#262626"/><path d="M273.51,112.92c-.08-.38-.14-.72-.18-1.01s-.07-.59-.08-.88c-.43,.61-.99,1.12-1.68,1.53s-1.44,.62-2.23,.62c-1.32,0-2.33-.34-3.02-1.01s-1.04-1.61-1.04-2.79,.49-2.16,1.47-2.84,2.31-1.03,3.99-1.03h2.51v-1.25c0-.74-.23-1.33-.68-1.76s-1.09-.65-1.92-.65c-.75,0-1.36,.19-1.82,.56s-.69,.82-.69,1.35l-2.19,.02-.02-.07c-.05-.92,.38-1.77,1.29-2.53s2.1-1.15,3.56-1.15,2.59,.37,3.47,1.1,1.31,1.78,1.31,3.16v6.11c0,.45,.02,.89,.07,1.31s.13,.84,.26,1.24h-2.38Zm-3.83-1.69c.84,0,1.59-.21,2.26-.64s1.11-.92,1.31-1.48v-2.06h-2.59c-.93,0-1.67,.23-2.23,.7s-.84,1.02-.84,1.65c0,.56,.18,1.01,.53,1.34s.87,.49,1.56,.49Z" fill="#262626"/><path d="M280.97,100.24l.16,1.89c.42-.67,.95-1.19,1.59-1.56s1.36-.56,2.17-.56c1.37,0,2.43,.4,3.18,1.2s1.12,2.04,1.12,3.71v8h-2.31v-7.96c0-1.12-.22-1.91-.66-2.38s-1.12-.7-2.02-.7c-.71,0-1.31,.14-1.81,.43s-.89,.69-1.18,1.2v9.41h-2.31v-12.68h2.06Z" fill="#262626"/><path d="M292.14,106.81c0-2.04,.44-3.68,1.31-4.93s2.09-1.88,3.65-1.88c.8,0,1.51,.16,2.12,.49s1.12,.79,1.54,1.4l.28-1.65h1.84v12.75c0,1.62-.47,2.87-1.42,3.74s-2.31,1.31-4.09,1.31c-.61,0-1.27-.08-1.97-.25s-1.33-.4-1.87-.69l.35-1.79c.45,.23,.98,.42,1.61,.57s1.25,.22,1.86,.22c1.12,0,1.94-.26,2.46-.77s.77-1.29,.77-2.34v-1.44c-.41,.53-.91,.93-1.49,1.21s-1.25,.41-2,.41c-1.55,0-2.76-.56-3.63-1.68s-1.31-2.6-1.31-4.42v-.25Zm2.31,.25c0,1.27,.26,2.3,.79,3.07s1.33,1.16,2.43,1.16c.7,0,1.28-.16,1.75-.47s.86-.76,1.16-1.34v-5.84c-.3-.54-.68-.97-1.16-1.28s-1.05-.47-1.72-.47c-1.1,0-1.92,.46-2.44,1.37s-.79,2.1-.79,3.56v.25Z" fill="#262626"/><path d="M311.44,113.17c-1.82,0-3.24-.58-4.26-1.75s-1.53-2.7-1.53-4.59v-.52c0-1.82,.53-3.33,1.58-4.52s2.33-1.79,3.85-1.79c1.7,0,2.97,.53,3.81,1.58s1.27,2.46,1.27,4.21v1.22h-8.11l-.04,.06c0,1.27,.28,2.31,.84,3.1s1.42,1.19,2.58,1.19c.78,0,1.47-.11,2.06-.33s1.1-.53,1.52-.92l.9,1.5c-.45,.44-1.05,.81-1.79,1.11s-1.64,.45-2.68,.45Zm-.36-11.34c-.8,0-1.47,.31-2,.93s-.85,1.42-.97,2.38l.02,.06h5.72v-.19c0-.92-.23-1.68-.68-2.29s-1.15-.9-2.1-.9Z" fill="#262626"/><path d="M318.23,106.81c0-2.04,.44-3.68,1.31-4.93s2.09-1.88,3.66-1.88c.74,0,1.4,.14,1.97,.41s1.06,.67,1.47,1.2v-6.97h2.31v18.28h-1.77l-.35-1.61c-.41,.61-.93,1.07-1.54,1.38s-1.32,.47-2.12,.47c-1.55,0-2.76-.56-3.63-1.68s-1.31-2.6-1.31-4.42v-.25Zm2.31,.25c0,1.28,.26,2.31,.79,3.08s1.34,1.15,2.44,1.15c.69,0,1.27-.16,1.73-.47s.85-.75,1.15-1.31v-5.92c-.3-.52-.68-.94-1.15-1.25s-1.04-.46-1.71-.46c-1.11,0-1.93,.46-2.46,1.37s-.79,2.1-.79,3.56v.25Z" fill="#262626"/><path d="M345.73,109.51c0-.51-.19-.92-.58-1.24s-1.12-.6-2.2-.84c-1.49-.32-2.64-.77-3.44-1.35s-1.2-1.35-1.2-2.32c0-1.03,.44-1.91,1.32-2.65s2.02-1.1,3.42-1.1,2.6,.39,3.49,1.17,1.32,1.69,1.28,2.73l-.02,.07h-2.2c0-.55-.24-1.04-.72-1.49s-1.09-.67-1.82-.67c-.81,0-1.42,.18-1.82,.55s-.6,.8-.6,1.31,.17,.89,.52,1.16,1.06,.52,2.15,.75c1.55,.33,2.73,.79,3.54,1.39s1.21,1.39,1.21,2.36c0,1.12-.46,2.04-1.37,2.75s-2.1,1.07-3.57,1.07c-1.62,0-2.89-.41-3.82-1.23s-1.37-1.78-1.32-2.87l.02-.07h2.2c.04,.82,.34,1.42,.91,1.8s1.24,.57,2,.57c.82,0,1.46-.17,1.93-.52s.7-.79,.7-1.33Z" fill="#262626"/><path d="M361.71,107.06c0,1.83-.44,3.3-1.31,4.42s-2.08,1.68-3.62,1.68c-.78,0-1.47-.13-2.06-.39s-1.09-.65-1.51-1.18v6.2h-2.31v-17.55h1.77l.36,1.64c.41-.61,.93-1.07,1.55-1.39s1.34-.48,2.16-.48c1.57,0,2.79,.62,3.66,1.87s1.31,2.89,1.31,4.94v.25Zm-2.31-.25c0-1.44-.28-2.62-.85-3.54s-1.4-1.39-2.5-1.39c-.66,0-1.23,.15-1.7,.45s-.85,.71-1.14,1.24v6.13c.29,.52,.67,.93,1.14,1.22s1.04,.44,1.72,.44c1.09,0,1.92-.4,2.48-1.2s.84-1.83,.84-3.1v-.25Z" fill="#262626"/><path d="M369.8,113.17c-1.82,0-3.24-.58-4.26-1.75s-1.53-2.7-1.53-4.59v-.52c0-1.82,.53-3.33,1.58-4.52s2.33-1.79,3.85-1.79c1.7,0,2.97,.53,3.81,1.58s1.27,2.46,1.27,4.21v1.22h-8.11l-.04,.06c0,1.27,.28,2.31,.84,3.1s1.42,1.19,2.58,1.19c.78,0,1.47-.11,2.06-.33s1.1-.53,1.52-.92l.9,1.5c-.45,.44-1.05,.81-1.79,1.11s-1.64,.45-2.68,.45Zm-.36-11.34c-.8,0-1.47,.31-2,.93s-.85,1.42-.97,2.38l.02,.06h5.72v-.19c0-.92-.23-1.68-.68-2.29s-1.15-.9-2.1-.9Z" fill="#262626"/><path d="M382.15,111.36c.71,0,1.33-.24,1.86-.71s.8-1.05,.8-1.74h2.09l.04,.07c.03,1.09-.44,2.06-1.41,2.91s-2.09,1.27-3.38,1.27c-1.78,0-3.16-.61-4.12-1.82s-1.45-2.72-1.45-4.52v-.49c0-1.79,.49-3.29,1.46-4.51s2.35-1.82,4.12-1.82c1.41,0,2.57,.44,3.47,1.31s1.34,1.95,1.31,3.22l-.02,.07h-2.1c0-.77-.25-1.43-.76-1.97s-1.14-.81-1.9-.81c-1.13,0-1.96,.44-2.48,1.32s-.78,1.94-.78,3.19v.49c0,1.27,.26,2.35,.77,3.22s1.34,1.31,2.49,1.31Z" fill="#262626"/><path d="M392.17,96.99h-2.31v-2.36h2.31v2.36Zm0,15.93h-2.31v-12.68h2.31v12.68Z" fill="#262626"/><path d="M400.97,113.17c-1.82,0-3.24-.58-4.26-1.75s-1.53-2.7-1.53-4.59v-.52c0-1.82,.53-3.33,1.58-4.52s2.33-1.79,3.85-1.79c1.7,0,2.97,.53,3.81,1.58s1.27,2.46,1.27,4.21v1.22h-8.11l-.04,.06c0,1.27,.28,2.31,.84,3.1s1.42,1.19,2.58,1.19c.78,0,1.47-.11,2.06-.33s1.1-.53,1.52-.92l.9,1.5c-.45,.44-1.05,.81-1.79,1.11s-1.64,.45-2.68,.45Zm-.36-11.34c-.8,0-1.47,.31-2,.93s-.85,1.42-.97,2.38l.02,.06h5.72v-.19c0-.92-.23-1.68-.68-2.29s-1.15-.9-2.1-.9Z" fill="#262626"/><path d="M415.66,109.51c0-.51-.19-.92-.58-1.24s-1.12-.6-2.2-.84c-1.49-.32-2.64-.77-3.44-1.35-.8-.58-1.2-1.35-1.2-2.32,0-1.03,.44-1.91,1.32-2.65,.88-.73,2.02-1.1,3.42-1.1s2.6,.39,3.49,1.17,1.32,1.69,1.28,2.73l-.02,.07h-2.2c0-.55-.24-1.04-.72-1.49s-1.09-.67-1.82-.67c-.81,0-1.42,.18-1.82,.55s-.6,.8-.6,1.31,.17,.89,.52,1.16,1.06,.52,2.15,.75c1.55,.33,2.73,.79,3.54,1.39s1.21,1.39,1.21,2.36c0,1.12-.46,2.04-1.37,2.75s-2.1,1.07-3.57,1.07c-1.62,0-2.89-.41-3.82-1.23-.93-.82-1.37-1.78-1.32-2.87l.02-.07h2.2c.04,.82,.34,1.42,.91,1.8s1.24,.57,2,.57c.82,0,1.46-.17,1.93-.52s.7-.79,.7-1.33Z" fill="#262626"/></g></g></g><g><g id="gq"><path d="M99.91,139.71h33.82v-11.84h-33.82v11.84Z" fill="#bd1e52" stroke="#fff" stroke-width="1.3"/></g><g id="gr"><g isolation="isolate"><path d="M144.23,140.8v-17.06h5.57c1.78,0,3.18,.38,4.18,1.15s1.51,1.92,1.51,3.46c0,.73-.23,1.39-.68,1.97s-1.05,1.03-1.8,1.33c1.12,.16,2,.64,2.65,1.45s.98,1.77,.98,2.87c0,1.56-.51,2.76-1.52,3.58s-2.39,1.24-4.12,1.24h-6.76Zm2.31-9.81h3.74c.86,0,1.56-.24,2.1-.71s.81-1.13,.81-1.97c0-.92-.29-1.61-.87-2.07s-1.42-.69-2.51-.69h-3.26v5.44Zm0,1.8v6.2h4.45c1.05,0,1.87-.26,2.46-.78s.87-1.26,.87-2.21-.3-1.71-.89-2.29-1.39-.89-2.4-.93h-4.49Z" fill="#262626"/><path d="M166.96,140.8c-.08-.38-.14-.72-.18-1.01s-.07-.59-.08-.88c-.43,.61-.99,1.12-1.68,1.53s-1.44,.62-2.23,.62c-1.32,0-2.33-.34-3.02-1.01s-1.04-1.61-1.04-2.79,.49-2.16,1.47-2.84,2.31-1.03,3.99-1.03h2.51v-1.25c0-.74-.23-1.33-.68-1.76s-1.09-.65-1.92-.65c-.75,0-1.36,.19-1.82,.56s-.69,.82-.69,1.35l-2.19,.02-.02-.07c-.05-.92,.38-1.77,1.29-2.53s2.1-1.15,3.56-1.15,2.59,.37,3.47,1.1,1.31,1.78,1.31,3.16v6.11c0,.45,.02,.89,.07,1.31s.13,.84,.26,1.24h-2.38Zm-3.83-1.69c.84,0,1.59-.21,2.26-.64s1.11-.92,1.31-1.48v-2.06h-2.59c-.93,0-1.67,.23-2.23,.7s-.84,1.02-.84,1.65c0,.56,.18,1.01,.53,1.34s.87,.49,1.56,.49Z" fill="#262626"/><path d="M177.4,139.25c.71,0,1.33-.24,1.86-.71s.8-1.05,.8-1.74h2.09l.04,.07c.03,1.09-.44,2.06-1.41,2.91s-2.09,1.27-3.38,1.27c-1.78,0-3.16-.61-4.12-1.82s-1.45-2.72-1.45-4.52v-.49c0-1.79,.49-3.29,1.46-4.51s2.35-1.82,4.12-1.82c1.41,0,2.57,.44,3.47,1.31s1.34,1.95,1.31,3.22l-.02,.07h-2.1c0-.77-.25-1.43-.76-1.97s-1.14-.81-1.9-.81c-1.13,0-1.96,.44-2.48,1.32s-.78,1.94-.78,3.19v.49c0,1.27,.26,2.35,.77,3.22s1.34,1.31,2.49,1.31Z" fill="#262626"/><path d="M188.43,134.96h-1.18v5.85h-2.31v-18.28h2.31v10.59h1.16l3.81-4.99h2.77l-4.61,5.85,5,6.83h-2.73l-4.22-5.85Z" fill="#262626"/><path d="M196.59,134.7c0-2.04,.44-3.68,1.31-4.93s2.09-1.88,3.65-1.88c.8,0,1.51,.16,2.12,.49s1.12,.79,1.54,1.4l.28-1.65h1.84v12.75c0,1.62-.47,2.87-1.42,3.74s-2.31,1.31-4.09,1.31c-.61,0-1.27-.08-1.97-.25s-1.33-.4-1.87-.69l.35-1.79c.45,.23,.98,.42,1.61,.57s1.25,.22,1.86,.22c1.12,0,1.94-.26,2.46-.77s.77-1.29,.77-2.34v-1.44c-.41,.53-.91,.93-1.49,1.21s-1.25,.41-2,.41c-1.55,0-2.76-.56-3.63-1.68s-1.31-2.6-1.31-4.42v-.25Zm2.31,.25c0,1.27,.26,2.3,.79,3.07s1.33,1.16,2.43,1.16c.7,0,1.28-.16,1.75-.47s.86-.76,1.16-1.34v-5.84c-.3-.54-.68-.97-1.16-1.28s-1.05-.47-1.72-.47c-1.1,0-1.92,.46-2.44,1.37s-.79,2.1-.79,3.56v.25Z" fill="#262626"/><path d="M216.64,130.16l-1.18-.07c-.61,0-1.12,.14-1.54,.43s-.74,.7-.97,1.22v9.06h-2.31v-12.68h2.06l.22,1.85c.36-.66,.8-1.17,1.33-1.54s1.13-.55,1.82-.55c.17,0,.34,.01,.49,.04s.29,.06,.39,.09l-.32,2.14Z" fill="#262626"/><path d="M218.27,134.35c0-1.88,.51-3.42,1.52-4.63s2.39-1.82,4.14-1.82,3.15,.61,4.17,1.82,1.53,2.76,1.53,4.64v.26c0,1.89-.51,3.44-1.52,4.64s-2.4,1.8-4.15,1.8-3.13-.6-4.15-1.81-1.53-2.75-1.53-4.63v-.26Zm2.31,.26c0,1.34,.28,2.45,.85,3.33s1.41,1.31,2.53,1.31,1.94-.44,2.51-1.31,.86-1.98,.86-3.33v-.26c0-1.33-.29-2.43-.86-3.32s-1.42-1.32-2.53-1.32-1.94,.44-2.5,1.32-.85,1.99-.85,3.32v.26Z" fill="#262626"/><path d="M240.5,138.93c-.4,.68-.91,1.2-1.54,1.57s-1.35,.55-2.17,.55c-1.38,0-2.46-.44-3.23-1.32s-1.16-2.26-1.16-4.12v-7.48h2.31v7.5c0,1.35,.2,2.28,.6,2.79s1.02,.76,1.86,.76,1.5-.17,2.03-.5,.94-.8,1.21-1.41v-9.14h2.31v12.68h-2.07l-.15-1.88Z" fill="#262626"/><path d="M248.15,128.12l.16,1.89c.42-.67,.95-1.19,1.59-1.56s1.36-.56,2.17-.56c1.37,0,2.43,.4,3.18,1.2s1.12,2.04,1.12,3.71v8h-2.31v-7.96c0-1.12-.22-1.91-.66-2.38s-1.12-.7-2.02-.7c-.71,0-1.31,.14-1.81,.43s-.89,.69-1.18,1.2v9.41h-2.31v-12.68h2.06Z" fill="#262626"/><path d="M259.2,134.7c0-2.04,.44-3.68,1.31-4.93s2.09-1.88,3.66-1.88c.74,0,1.4,.14,1.97,.41s1.06,.67,1.47,1.2v-6.97h2.31v18.28h-1.77l-.35-1.61c-.41,.61-.93,1.07-1.54,1.38s-1.32,.47-2.12,.47c-1.55,0-2.76-.56-3.63-1.68s-1.31-2.6-1.31-4.42v-.25Zm2.31,.25c0,1.28,.26,2.31,.79,3.08s1.34,1.15,2.44,1.15c.69,0,1.27-.16,1.73-.47s.85-.75,1.15-1.31v-5.92c-.3-.52-.68-.94-1.15-1.25s-1.04-.46-1.71-.46c-1.11,0-1.93,.46-2.46,1.37s-.79,2.1-.79,3.56v.25Z" fill="#262626"/><path d="M279.2,133.88c0-3.08,.62-5.71,1.86-7.89s2.55-3.63,3.91-4.36h.07s.45,1.37,.45,1.37c-1.07,.84-2,2.18-2.79,4.02s-1.19,4.12-1.19,6.83v.15c0,2.71,.39,4.99,1.18,6.83s1.72,3.22,2.8,4.12l-.45,1.27h-.07c-1.37-.73-2.67-2.18-3.91-4.35s-1.86-4.81-1.86-7.89v-.11Z" fill="#262626"/><path d="M293.29,130.16l-1.18-.07c-.61,0-1.12,.14-1.54,.43s-.74,.7-.97,1.22v9.06h-2.31v-12.68h2.06l.22,1.85c.36-.66,.8-1.17,1.33-1.54s1.13-.55,1.82-.55c.17,0,.34,.01,.49,.04s.29,.06,.39,.09l-.32,2.14Z" fill="#262626"/><path d="M303.48,140.8c-.08-.38-.14-.72-.18-1.01s-.07-.59-.08-.88c-.43,.61-.99,1.12-1.68,1.53s-1.44,.62-2.23,.62c-1.32,0-2.33-.34-3.02-1.01s-1.04-1.61-1.04-2.79,.49-2.16,1.47-2.84,2.31-1.03,3.99-1.03h2.51v-1.25c0-.74-.23-1.33-.68-1.76s-1.09-.65-1.92-.65c-.75,0-1.36,.19-1.82,.56s-.69,.82-.69,1.35l-2.19,.02-.02-.07c-.05-.92,.38-1.77,1.29-2.53s2.1-1.15,3.56-1.15,2.59,.37,3.47,1.1,1.31,1.78,1.31,3.16v6.11c0,.45,.02,.89,.07,1.31s.13,.84,.26,1.24h-2.38Zm-3.83-1.69c.84,0,1.59-.21,2.26-.64s1.11-.92,1.31-1.48v-2.06h-2.59c-.93,0-1.67,.23-2.23,.7s-.84,1.02-.84,1.65c0,.56,.18,1.01,.53,1.34s.87,.49,1.56,.49Z" fill="#262626"/><path d="M310.95,128.12l.16,1.89c.42-.67,.95-1.19,1.59-1.56s1.36-.56,2.17-.56c1.37,0,2.43,.4,3.18,1.2s1.12,2.04,1.12,3.71v8h-2.31v-7.96c0-1.12-.22-1.91-.66-2.38s-1.12-.7-2.02-.7c-.71,0-1.31,.14-1.81,.43s-.89,.69-1.18,1.2v9.41h-2.31v-12.68h2.06Z" fill="#262626"/><path d="M322,134.7c0-2.04,.44-3.68,1.31-4.93s2.09-1.88,3.66-1.88c.74,0,1.4,.14,1.97,.41s1.06,.67,1.47,1.2v-6.97h2.31v18.28h-1.77l-.35-1.61c-.41,.61-.93,1.07-1.54,1.38s-1.32,.47-2.12,.47c-1.55,0-2.76-.56-3.63-1.68s-1.31-2.6-1.31-4.42v-.25Zm2.31,.25c0,1.28,.26,2.31,.79,3.08s1.34,1.15,2.44,1.15c.69,0,1.27-.16,1.73-.47s.85-.75,1.15-1.31v-5.92c-.3-.52-.68-.94-1.15-1.25s-1.04-.46-1.71-.46c-1.11,0-1.93,.46-2.46,1.37s-.79,2.1-.79,3.56v.25Z" fill="#262626"/><path d="M335.63,134.35c0-1.88,.51-3.42,1.52-4.63s2.39-1.82,4.14-1.82,3.15,.61,4.17,1.82,1.53,2.76,1.53,4.64v.26c0,1.89-.51,3.44-1.52,4.64s-2.4,1.8-4.15,1.8-3.13-.6-4.15-1.81-1.53-2.75-1.53-4.63v-.26Zm2.31,.26c0,1.34,.28,2.45,.85,3.33s1.41,1.31,2.53,1.31,1.94-.44,2.51-1.31,.86-1.98,.86-3.33v-.26c0-1.33-.29-2.43-.86-3.32s-1.42-1.32-2.53-1.32-1.94,.44-2.5,1.32-.85,1.99-.85,3.32v.26Z" fill="#262626"/><path d="M351.87,128.12l.16,1.66c.41-.6,.94-1.07,1.58-1.4s1.38-.5,2.22-.5,1.57,.2,2.17,.59,1.06,.98,1.37,1.76c.41-.73,.94-1.3,1.59-1.72s1.42-.63,2.29-.63c1.29,0,2.31,.44,3.06,1.33s1.12,2.22,1.12,4v7.58h-2.31v-7.61c0-1.25-.21-2.13-.64-2.65s-1.07-.78-1.92-.78c-.79,0-1.43,.27-1.92,.82s-.78,1.24-.86,2.07v8.14h-2.32v-7.61c0-1.19-.22-2.06-.66-2.61s-1.08-.83-1.9-.83c-.7,0-1.28,.14-1.73,.43s-.8,.7-1.04,1.22v9.39h-2.31v-12.68h2.06Z" fill="#262626"/><path d="M382.75,130.16l-1.18-.07c-.61,0-1.12,.14-1.54,.43s-.74,.7-.97,1.22v9.06h-2.31v-12.68h2.06l.22,1.85c.36-.66,.8-1.17,1.33-1.54s1.13-.55,1.82-.55c.17,0,.34,.01,.49,.04s.29,.06,.39,.09l-.32,2.14Z" fill="#262626"/><path d="M390.18,141.05c-1.82,0-3.24-.58-4.26-1.75s-1.53-2.7-1.53-4.59v-.52c0-1.82,.53-3.33,1.58-4.52s2.33-1.79,3.85-1.79c1.7,0,2.97,.53,3.81,1.58s1.27,2.46,1.27,4.21v1.22h-8.11l-.04,.06c0,1.27,.28,2.31,.84,3.1s1.42,1.19,2.58,1.19c.78,0,1.47-.11,2.06-.33s1.1-.53,1.52-.92l.9,1.5c-.45,.44-1.05,.81-1.79,1.11s-1.64,.45-2.68,.45Zm-.36-11.34c-.8,0-1.47,.31-2,.93s-.85,1.42-.97,2.38l.02,.06h5.72v-.19c0-.92-.23-1.68-.68-2.29s-1.15-.9-2.1-.9Z" fill="#262626"/><path d="M399.56,128.12l.16,1.66c.41-.6,.94-1.07,1.58-1.4s1.38-.5,2.22-.5,1.57,.2,2.17,.59,1.06,.98,1.37,1.76c.41-.73,.94-1.3,1.59-1.72s1.42-.63,2.29-.63c1.29,0,2.31,.44,3.06,1.33s1.12,2.22,1.12,4v7.58h-2.31v-7.61c0-1.25-.21-2.13-.64-2.65s-1.07-.78-1.92-.78c-.79,0-1.43,.27-1.92,.82s-.78,1.24-.86,2.07v8.14h-2.32v-7.61c0-1.19-.22-2.06-.66-2.61s-1.08-.83-1.9-.83c-.7,0-1.28,.14-1.73,.43s-.8,.7-1.04,1.22v9.39h-2.31v-12.68h2.06Z" fill="#262626"/><path d="M417.93,134.35c0-1.88,.51-3.42,1.52-4.63s2.39-1.82,4.14-1.82,3.15,.61,4.17,1.82,1.53,2.76,1.53,4.64v.26c0,1.89-.51,3.44-1.52,4.64s-2.4,1.8-4.15,1.8-3.13-.6-4.15-1.81-1.53-2.75-1.53-4.63v-.26Zm2.31,.26c0,1.34,.28,2.45,.85,3.33s1.41,1.31,2.53,1.31,1.94-.44,2.51-1.31,.86-1.98,.86-3.33v-.26c0-1.33-.29-2.43-.86-3.32s-1.42-1.32-2.53-1.32-1.94,.44-2.5,1.32-.85,1.99-.85,3.32v.26Z" fill="#262626"/><path d="M436.16,137.07l.2,.89h.07l.22-.89,2.92-8.94h2.36l-4.66,12.68h-1.75l-4.72-12.68h2.37l3,8.94Z" fill="#262626"/><path d="M451.62,140.8c-.08-.38-.14-.72-.18-1.01s-.07-.59-.08-.88c-.43,.61-.99,1.12-1.68,1.53s-1.44,.62-2.23,.62c-1.32,0-2.33-.34-3.02-1.01s-1.04-1.61-1.04-2.79,.49-2.16,1.47-2.84,2.31-1.03,3.99-1.03h2.51v-1.25c0-.74-.23-1.33-.68-1.76s-1.09-.65-1.92-.65c-.75,0-1.36,.19-1.82,.56s-.69,.82-.69,1.35l-2.19,.02-.02-.07c-.05-.92,.38-1.77,1.29-2.53s2.1-1.15,3.56-1.15,2.59,.37,3.47,1.1,1.31,1.78,1.31,3.16v6.11c0,.45,.02,.89,.07,1.31s.13,.84,.26,1.24h-2.38Zm-3.83-1.69c.84,0,1.59-.21,2.26-.64s1.11-.92,1.31-1.48v-2.06h-2.59c-.93,0-1.67,.23-2.23,.7s-.84,1.02-.84,1.65c0,.56,.18,1.01,.53,1.34s.87,.49,1.56,.49Z" fill="#262626"/><path d="M459.52,140.8h-2.31v-18.28h2.31v18.28Z" fill="#262626"/><path d="M467.76,133.98c0,3.09-.62,5.72-1.87,7.89s-2.55,3.63-3.91,4.35h-.07l-.45-1.27c1.05-.82,1.98-2.17,2.78-4.05s1.2-4.18,1.2-6.91v-.15c0-2.67-.41-4.95-1.24-6.84s-1.74-3.26-2.75-4.12l.45-1.27h.07c1.36,.73,2.66,2.18,3.91,4.36s1.87,4.81,1.87,7.89v.11Z" fill="#262626"/></g></g></g></g></g></svg>