<?xml version="1.0" encoding="UTF-8"?><svg id="a" xmlns="http://www.w3.org/2000/svg" xmlns:xlink="http://www.w3.org/1999/xlink" viewBox="0 0 677.14 429.23"><defs><clipPath id="f"><rect x="64.93" y="193.31" width="531.18" height="180.59" fill="none"/></clipPath><clipPath id="j"><rect x="64.93" y="193.31" width="531.18" height="180.59" fill="none"/></clipPath><clipPath id="n"><rect x="64.93" y="193.31" width="531.18" height="180.59" fill="none"/></clipPath><clipPath id="r"><rect x="64.93" y="193.31" width="531.18" height="180.59" fill="none"/></clipPath><clipPath id="v"><rect x="64.93" y="193.31" width="531.18" height="180.59" fill="none"/></clipPath><clipPath id="z"><rect x="64.93" y="193.31" width="531.18" height="180.59" fill="none"/></clipPath><clipPath id="ad"><rect x="64.93" y="193.31" width="531.18" height="180.59" fill="none"/></clipPath><clipPath id="ah"><rect x="64.93" y="193.31" width="531.18" height="180.59" fill="none"/></clipPath></defs><g id="b"><g id="c"><g id="d"><g id="e"><g clip-path="url(#f)"><path d="M92.36,366.81V193.18" fill="none" stroke="#d0d2d3" stroke-linecap="round" stroke-linejoin="round" stroke-width=".46"/></g></g><g id="g"><g isolation="isolate"><path d="M90.5,389.42h-2.32v-15.61l-3.71,.04v-1.86l6.04-.66v18.1Z" fill="#231f20"/></g></g></g><g id="h"><g id="i"><g clip-path="url(#j)"><path d="M133.21,366.81V193.18" fill="none" stroke="#d0d2d3" stroke-linecap="round" stroke-linejoin="round" stroke-width=".46"/></g></g><g id="k"><g isolation="isolate"><path d="M125.09,381.49l.98-9.91h8.54v2.14h-6.6l-.55,5.13c.37-.29,.77-.52,1.22-.71,.45-.18,.95-.28,1.52-.29,1.58-.02,2.81,.5,3.71,1.55s1.34,2.49,1.34,4.32-.46,3.23-1.38,4.31c-.92,1.09-2.26,1.63-4.01,1.63-1.45,0-2.65-.41-3.61-1.24s-1.42-2.04-1.38-3.64l.02-.07h2.09c0,.97,.27,1.73,.8,2.26s1.23,.8,2.08,.8c.98,0,1.73-.36,2.27-1.08,.54-.72,.81-1.7,.81-2.95,0-1.14-.27-2.05-.81-2.76-.54-.7-1.3-1.05-2.27-1.05-.91,0-1.56,.14-1.97,.43s-.71,.73-.9,1.32l-1.91-.21Z" fill="#231f20"/></g></g></g><g id="l"><g id="m"><g clip-path="url(#n)"><path d="M184.29,366.81V193.18" fill="none" stroke="#d0d2d3" stroke-linecap="round" stroke-linejoin="round" stroke-width=".46"/></g></g><g id="o"><g isolation="isolate"><path d="M179.26,389.42h-2.32v-15.61l-3.71,.04v-1.86l6.04-.66v18.1Z" fill="#231f20"/><path d="M196.64,383.12c0,2.02-.49,3.62-1.47,4.79-.98,1.18-2.3,1.77-3.96,1.77s-2.97-.59-3.96-1.77c-.99-1.18-1.48-2.77-1.48-4.79v-5.25c0-2,.49-3.59,1.47-4.78s2.29-1.78,3.94-1.78,2.98,.59,3.97,1.78,1.48,2.78,1.48,4.78v5.25Zm-2.31-5.75c0-1.28-.27-2.3-.82-3.04-.55-.74-1.32-1.12-2.32-1.12s-1.76,.37-2.3,1.12c-.54,.74-.81,1.76-.81,3.04v6.24c0,1.28,.28,2.3,.83,3.05,.55,.75,1.32,1.13,2.3,1.13s1.77-.37,2.31-1.12c.54-.75,.81-1.77,.81-3.06v-6.24Z" fill="#231f20"/></g></g></g><g id="p"><g id="q"><g clip-path="url(#r)"><path d="M235.36,366.81V193.18" fill="none" stroke="#d0d2d3" stroke-linecap="round" stroke-linejoin="round" stroke-width=".46"/></g></g><g id="s"><g isolation="isolate"><path d="M230.33,389.42h-2.32v-15.61l-3.71,.04v-1.86l6.04-.66v18.1Z" fill="#231f20"/><path d="M237.58,381.49l.98-9.91h8.54v2.14h-6.6l-.55,5.13c.37-.29,.77-.52,1.22-.71,.45-.18,.95-.28,1.52-.29,1.58-.02,2.81,.5,3.71,1.55s1.34,2.49,1.34,4.32-.46,3.23-1.38,4.31c-.92,1.09-2.26,1.63-4.01,1.63-1.45,0-2.65-.41-3.61-1.24s-1.42-2.04-1.38-3.64l.02-.07h2.09c0,.97,.27,1.73,.8,2.26s1.23,.8,2.08,.8c.98,0,1.73-.36,2.27-1.08,.54-.72,.81-1.7,.81-2.95,0-1.14-.27-2.05-.81-2.76-.54-.7-1.3-1.05-2.27-1.05-.91,0-1.56,.14-1.97,.43s-.71,.73-.9,1.32l-1.91-.21Z" fill="#231f20"/></g></g></g><g id="t"><g id="u"><g clip-path="url(#v)"><path d="M286.44,366.81V193.18" fill="none" stroke="#d0d2d3" stroke-linecap="round" stroke-linejoin="round" stroke-width=".46"/></g></g><g id="w"><g isolation="isolate"><path d="M285.44,389.42h-10.59v-1.65l5.36-6.68c.95-1.21,1.6-2.17,1.94-2.89s.51-1.44,.51-2.16c0-.83-.23-1.5-.69-2.03-.46-.53-1.1-.79-1.91-.79-1.01,0-1.78,.32-2.3,.97s-.79,1.45-.79,2.41h-2.23l-.02-.07c-.04-1.45,.43-2.69,1.39-3.7s2.29-1.51,3.95-1.51c1.52,0,2.72,.44,3.6,1.32,.88,.88,1.31,2.02,1.31,3.42,0,.94-.25,1.86-.74,2.76-.5,.9-1.25,2.03-2.27,3.38l-4.3,5.27,.02,.06h7.77v1.89Z" fill="#231f20"/><path d="M298.79,383.12c0,2.02-.49,3.62-1.47,4.79-.98,1.18-2.3,1.77-3.96,1.77s-2.97-.59-3.95-1.77c-.99-1.18-1.48-2.77-1.48-4.79v-5.25c0-2,.49-3.59,1.47-4.78s2.29-1.78,3.94-1.78,2.98,.59,3.97,1.78,1.48,2.78,1.48,4.78v5.25Zm-2.31-5.75c0-1.28-.27-2.3-.82-3.04-.55-.74-1.32-1.12-2.32-1.12s-1.76,.37-2.3,1.12c-.54,.74-.81,1.76-.81,3.04v6.24c0,1.28,.28,2.3,.83,3.05,.55,.75,1.32,1.13,2.3,1.13s1.77-.37,2.31-1.12c.54-.75,.81-1.77,.81-3.06v-6.24Z" fill="#231f20"/></g></g></g><g id="x"><g id="y"><g clip-path="url(#z)"><path d="M388.59,366.81V193.18" fill="none" stroke="#d0d2d3" stroke-linecap="round" stroke-linejoin="round" stroke-width=".46"/></g></g><g id="aa"><g isolation="isolate"><path d="M382.02,379.27c1.03,0,1.76-.27,2.19-.8s.64-1.29,.64-2.25c0-.9-.23-1.62-.7-2.18-.46-.55-1.15-.83-2.07-.83s-1.63,.29-2.21,.86-.87,1.3-.87,2.16h-2.2l-.04-.07c-.04-1.34,.45-2.48,1.45-3.43,1.01-.95,2.3-1.42,3.87-1.42s2.83,.42,3.73,1.26c.9,.84,1.35,2.07,1.35,3.7,0,.83-.21,1.59-.63,2.28-.42,.69-1,1.22-1.75,1.61,.86,.36,1.51,.91,1.96,1.64s.67,1.62,.67,2.65c0,1.63-.49,2.92-1.48,3.84-.99,.93-2.27,1.39-3.85,1.39-1.45,0-2.73-.45-3.84-1.34s-1.64-2.08-1.6-3.55l.02-.07h2.2c0,.87,.3,1.6,.9,2.19,.6,.59,1.37,.89,2.31,.89s1.68-.3,2.21-.91,.81-1.4,.81-2.38c0-1.12-.25-1.96-.74-2.51s-1.28-.83-2.34-.83h-1.9v-1.88h1.9Z" fill="#231f20"/><path d="M400.94,383.12c0,2.02-.49,3.62-1.47,4.79-.98,1.18-2.3,1.77-3.96,1.77s-2.97-.59-3.96-1.77c-.99-1.18-1.48-2.77-1.48-4.79v-5.25c0-2,.49-3.59,1.47-4.78s2.29-1.78,3.94-1.78,2.98,.59,3.97,1.78,1.48,2.78,1.48,4.78v5.25Zm-2.31-5.75c0-1.28-.27-2.3-.82-3.04-.55-.74-1.32-1.12-2.32-1.12s-1.76,.37-2.3,1.12c-.54,.74-.81,1.76-.81,3.04v6.24c0,1.28,.28,2.3,.83,3.05,.55,.75,1.32,1.13,2.3,1.13s1.77-.37,2.31-1.12c.54-.75,.81-1.77,.81-3.06v-6.24Z" fill="#231f20"/></g></g></g><g id="ab"><g id="ac"><g clip-path="url(#ad)"><path d="M490.74,366.81V193.18" fill="none" stroke="#d0d2d3" stroke-linecap="round" stroke-linejoin="round" stroke-width=".46"/></g></g><g id="ae"><g isolation="isolate"><path d="M487.85,383.42h2.36v1.89h-2.36v4.12h-2.3v-4.12h-7.32v-1.36l7.18-12.37h2.44v11.84Zm-7.15,0h4.85v-8.37h-.07s-.22,.6-.22,.6l-4.56,7.77Z" fill="#231f20"/><path d="M503.09,383.12c0,2.02-.49,3.62-1.47,4.79-.98,1.18-2.3,1.77-3.96,1.77s-2.97-.59-3.96-1.77c-.99-1.18-1.48-2.77-1.48-4.79v-5.25c0-2,.49-3.59,1.47-4.78s2.29-1.78,3.94-1.78,2.98,.59,3.97,1.78,1.48,2.78,1.48,4.78v5.25Zm-2.31-5.75c0-1.28-.27-2.3-.82-3.04-.55-.74-1.32-1.12-2.32-1.12s-1.76,.37-2.3,1.12c-.54,.74-.81,1.76-.81,3.04v6.24c0,1.28,.28,2.3,.83,3.05,.55,.75,1.32,1.13,2.3,1.13s1.77-.37,2.31-1.12c.54-.75,.81-1.77,.81-3.06v-6.24Z" fill="#231f20"/></g></g></g><g id="af"><g id="ag"><g clip-path="url(#ah)"><path d="M592.89,366.81V193.18" fill="none" stroke="#d0d2d3" stroke-linecap="round" stroke-linejoin="round" stroke-width=".46"/></g></g><g id="ai"><g isolation="isolate"><path d="M581.59,381.49l.98-9.91h8.54v2.14h-6.6l-.55,5.13c.37-.29,.77-.52,1.22-.71,.45-.18,.95-.28,1.52-.29,1.58-.02,2.81,.5,3.71,1.55s1.34,2.49,1.34,4.32-.46,3.23-1.38,4.31c-.92,1.09-2.26,1.63-4.01,1.63-1.45,0-2.65-.41-3.61-1.24s-1.42-2.04-1.38-3.64l.02-.07h2.09c0,.97,.27,1.73,.8,2.26s1.23,.8,2.08,.8c.98,0,1.73-.36,2.27-1.08,.54-.72,.81-1.7,.81-2.95,0-1.14-.27-2.05-.81-2.76-.54-.7-1.3-1.05-2.27-1.05-.91,0-1.56,.14-1.97,.43s-.71,.73-.9,1.32l-1.91-.21Z" fill="#231f20"/><path d="M605.23,383.12c0,2.02-.49,3.62-1.47,4.79-.98,1.18-2.3,1.77-3.96,1.77s-2.97-.59-3.96-1.77c-.99-1.18-1.48-2.77-1.48-4.79v-5.25c0-2,.49-3.59,1.47-4.78s2.29-1.78,3.94-1.78,2.98,.59,3.97,1.78,1.48,2.78,1.48,4.78v5.25Zm-2.31-5.75c0-1.28-.27-2.3-.82-3.04-.55-.74-1.32-1.12-2.32-1.12s-1.76,.37-2.3,1.12c-.54,.74-.81,1.76-.81,3.04v6.24c0,1.28,.28,2.3,.83,3.05,.55,.75,1.32,1.13,2.3,1.13s1.77-.37,2.31-1.12c.54-.75,.81-1.77,.81-3.06v-6.24Z" fill="#231f20"/></g></g></g><g id="aj"><g isolation="isolate"><path d="M220.03,408.02c0-1.05,.33-1.93,.98-2.63,.65-.7,1.56-1.05,2.72-1.05s2.09,.35,2.74,1.05,.97,1.58,.97,2.64v.94c0,1.05-.32,1.93-.97,2.62-.65,.7-1.55,1.04-2.72,1.04s-2.09-.35-2.74-1.04c-.66-.69-.98-1.57-.98-2.62v-.94Zm2.27,.94c0,.47,.12,.87,.38,1.19,.25,.32,.61,.48,1.08,.48s.8-.16,1.05-.48c.25-.32,.37-.72,.37-1.19v-.94c0-.47-.12-.88-.38-1.21s-.61-.5-1.07-.5-.81,.17-1.06,.5-.37,.73-.37,1.21v.94Zm2.02,12.13l-1.66-.92,8.33-13.95,1.66,.92-8.33,13.95Zm3.87-3.04c0-1.05,.33-1.92,.98-2.62,.66-.7,1.57-1.05,2.73-1.05s2.08,.35,2.74,1.05c.65,.7,.98,1.57,.98,2.63v.94c0,1.06-.32,1.94-.97,2.63s-1.55,1.04-2.72,1.04-2.09-.35-2.75-1.05-.99-1.58-.99-2.63v-.94Zm2.27,.94c0,.47,.13,.86,.4,1.2s.62,.5,1.06,.5c.51,0,.87-.15,1.09-.46,.22-.31,.33-.72,.33-1.23v-.94c0-.47-.12-.86-.38-1.2s-.61-.5-1.07-.5-.83,.17-1.07,.5-.37,.73-.37,1.2v.94Z" fill="#231f20"/><path d="M243.41,415.68c0-1.98,.53-3.6,1.58-4.86s2.52-1.89,4.38-1.89,3.34,.63,4.41,1.89c1.06,1.26,1.59,2.88,1.59,4.87v.26c0,1.99-.53,3.62-1.59,4.87-1.06,1.25-2.52,1.88-4.39,1.88s-3.34-.63-4.4-1.88c-1.06-1.25-1.59-2.88-1.59-4.87v-.26Zm3.41,.26c0,1.21,.2,2.18,.61,2.91,.41,.73,1.06,1.1,1.97,1.1s1.53-.37,1.94-1.1,.62-1.7,.62-2.9v-.26c0-1.18-.21-2.14-.62-2.88s-1.07-1.12-1.96-1.12-1.53,.37-1.94,1.12c-.41,.75-.62,1.71-.62,2.87v.26Z" fill="#231f20"/><path d="M258.38,422.43v-10.75h-1.89v-2.51h1.89v-1.47c0-1.49,.41-2.63,1.23-3.44s1.97-1.21,3.46-1.21c.29,0,.58,.02,.88,.07s.63,.11,.99,.19l-.29,2.66c-.19-.03-.37-.06-.54-.09s-.38-.04-.62-.04c-.55,0-.97,.16-1.26,.48-.29,.32-.43,.78-.43,1.37v1.47h2.44v2.51h-2.44v10.75h-3.42Z" fill="#231f20"/><path d="M271.32,415.91c0-2.09,.43-3.78,1.3-5.06,.87-1.28,2.09-1.92,3.66-1.92,.71,0,1.34,.17,1.88,.5s1,.81,1.38,1.43l.27-1.69h2.94v13.2c0,1.72-.54,3.06-1.62,4-1.08,.94-2.58,1.42-4.51,1.42-.64,0-1.32-.09-2.04-.28s-1.38-.44-1.99-.75l.57-2.67c.52,.26,1.06,.46,1.62,.59s1.16,.2,1.81,.2c.94,0,1.63-.2,2.07-.61,.44-.41,.66-1.05,.66-1.91v-1.2c-.38,.5-.82,.88-1.32,1.14s-1.09,.39-1.75,.39c-1.55,0-2.77-.6-3.63-1.79-.87-1.19-1.3-2.77-1.3-4.73v-.26Zm3.42,.26c0,1.16,.19,2.07,.56,2.74s.98,1,1.82,1c.52,0,.97-.1,1.33-.3s.65-.49,.87-.88v-5.75c-.22-.41-.51-.72-.87-.94s-.8-.33-1.31-.33c-.84,0-1.45,.39-1.83,1.16s-.57,1.79-.57,3.04v.26Z" fill="#231f20"/><path d="M290.87,422.69c-1.89,0-3.37-.61-4.43-1.82-1.06-1.21-1.59-2.78-1.59-4.69v-.49c0-1.99,.52-3.61,1.55-4.88s2.45-1.9,4.25-1.89c1.7,0,3.01,.55,3.92,1.64,.91,1.09,1.37,2.56,1.37,4.41v1.85h-7.56l-.04,.07c.05,.91,.32,1.64,.79,2.21,.47,.56,1.17,.85,2.1,.85,.77,0,1.42-.08,1.95-.25,.54-.16,1.09-.41,1.66-.75l.93,2.21c-.51,.43-1.2,.8-2.06,1.09s-1.81,.44-2.84,.44Zm-.22-11.01c-.69,0-1.22,.25-1.59,.74s-.6,1.15-.67,1.97l.02,.06h4.17v-.27c0-.78-.15-1.39-.46-1.83s-.8-.67-1.48-.67Z" fill="#231f20"/><path d="M301.05,409.17l.15,1.9c.42-.68,.94-1.21,1.56-1.58,.62-.38,1.31-.56,2.07-.56,1.28,0,2.28,.43,3,1.29,.72,.86,1.08,2.22,1.08,4.09v8.13h-3.43v-8.11c0-.95-.16-1.62-.47-2.02s-.79-.59-1.42-.59c-.51,0-.96,.1-1.34,.3-.39,.2-.71,.48-.96,.83v9.6h-3.42v-13.26h3.19Z" fill="#231f20"/><path d="M310.95,415.68c0-1.98,.53-3.6,1.58-4.86s2.52-1.89,4.38-1.89,3.34,.63,4.41,1.89c1.06,1.26,1.59,2.88,1.59,4.87v.26c0,1.99-.53,3.62-1.59,4.87-1.06,1.25-2.52,1.88-4.39,1.88s-3.34-.63-4.4-1.88c-1.06-1.25-1.59-2.88-1.59-4.87v-.26Zm3.41,.26c0,1.21,.2,2.18,.61,2.91,.41,.73,1.06,1.1,1.97,1.1s1.53-.37,1.94-1.1,.62-1.7,.62-2.9v-.26c0-1.18-.21-2.14-.62-2.88s-1.07-1.12-1.96-1.12-1.53,.37-1.94,1.12c-.41,.75-.62,1.71-.62,2.87v.26Z" fill="#231f20"/><path d="M328.2,409.17l.14,1.75c.41-.64,.92-1.13,1.53-1.48,.61-.35,1.32-.52,2.13-.52s1.51,.19,2.09,.56c.58,.38,1.02,.94,1.31,1.7,.39-.71,.9-1.27,1.52-1.67s1.36-.6,2.2-.6c1.25,0,2.24,.46,2.96,1.39,.72,.93,1.08,2.34,1.08,4.25v7.87h-3.42v-7.88c0-1.06-.16-1.8-.47-2.22s-.78-.62-1.39-.62c-.48,0-.9,.11-1.26,.34s-.64,.54-.85,.94c0,.16,0,.29,.01,.4s.01,.22,.01,.34v8.71h-3.41v-7.88c0-1.04-.16-1.77-.47-2.2s-.78-.64-1.41-.64c-.46,0-.87,.09-1.21,.28-.35,.18-.63,.44-.86,.78v9.67h-3.41v-13.26h3.18Z" fill="#231f20"/><path d="M351.28,422.69c-1.89,0-3.37-.61-4.43-1.82-1.06-1.21-1.59-2.78-1.59-4.69v-.49c0-1.99,.52-3.61,1.55-4.88s2.45-1.9,4.25-1.89c1.7,0,3.01,.55,3.92,1.64,.91,1.09,1.37,2.56,1.37,4.41v1.85h-7.56l-.04,.07c.05,.91,.32,1.64,.79,2.21,.47,.56,1.17,.85,2.1,.85,.77,0,1.42-.08,1.95-.25,.54-.16,1.09-.41,1.66-.75l.93,2.21c-.51,.43-1.2,.8-2.06,1.09-.87,.29-1.81,.44-2.84,.44Zm-.22-11.01c-.69,0-1.22,.25-1.59,.74s-.6,1.15-.67,1.97l.02,.06h4.17v-.27c0-.78-.15-1.39-.46-1.83s-.8-.67-1.48-.67Z" fill="#231f20"/><path d="M370.98,412.25l-1.25-.04c-.51,0-.93,.11-1.25,.33s-.58,.53-.75,.93v8.96h-3.41v-13.26h3.18l.15,1.96c.3-.69,.68-1.24,1.15-1.62,.47-.39,1.02-.58,1.63-.58,.17,0,.33,.01,.47,.04s.29,.06,.44,.1l-.36,3.17Z" fill="#231f20"/><path d="M378.04,422.69c-1.89,0-3.37-.61-4.43-1.82-1.06-1.21-1.59-2.78-1.59-4.69v-.49c0-1.99,.52-3.61,1.55-4.88s2.45-1.9,4.25-1.89c1.7,0,3.01,.55,3.92,1.64,.91,1.09,1.37,2.56,1.37,4.41v1.85h-7.56l-.04,.07c.05,.91,.32,1.64,.79,2.21,.47,.56,1.17,.85,2.1,.85,.77,0,1.42-.08,1.95-.25,.54-.16,1.09-.41,1.66-.75l.93,2.21c-.51,.43-1.2,.8-2.06,1.09s-1.81,.44-2.84,.44Zm-.22-11.01c-.69,0-1.22,.25-1.59,.74s-.6,1.15-.67,1.97l.02,.06h4.17v-.27c0-.78-.15-1.39-.46-1.83s-.8-.67-1.48-.67Z" fill="#231f20"/><path d="M388.27,409.17l.14,1.75c.41-.64,.92-1.13,1.53-1.48,.61-.35,1.32-.52,2.13-.52s1.51,.19,2.09,.56c.58,.38,1.02,.94,1.31,1.7,.39-.71,.9-1.27,1.52-1.67s1.36-.6,2.2-.6c1.25,0,2.24,.46,2.96,1.39,.72,.93,1.08,2.34,1.08,4.25v7.87h-3.42v-7.88c0-1.06-.16-1.8-.47-2.22s-.78-.62-1.39-.62c-.48,0-.9,.11-1.26,.34s-.64,.54-.85,.94c0,.16,0,.29,.01,.4s.01,.22,.01,.34v8.71h-3.41v-7.88c0-1.04-.16-1.77-.47-2.2s-.78-.64-1.41-.64c-.46,0-.87,.09-1.21,.28-.35,.18-.63,.44-.86,.78v9.67h-3.41v-13.26h3.18Z" fill="#231f20"/><path d="M405.33,415.68c0-1.98,.53-3.6,1.58-4.86s2.52-1.89,4.38-1.89,3.34,.63,4.41,1.89c1.06,1.26,1.59,2.88,1.59,4.87v.26c0,1.99-.53,3.62-1.59,4.87-1.06,1.25-2.52,1.88-4.39,1.88s-3.34-.63-4.4-1.88c-1.06-1.25-1.59-2.88-1.59-4.87v-.26Zm3.41,.26c0,1.21,.2,2.18,.61,2.91,.41,.73,1.06,1.1,1.97,1.1s1.53-.37,1.94-1.1,.62-1.7,.62-2.9v-.26c0-1.18-.21-2.14-.62-2.88s-1.07-1.12-1.96-1.12-1.53,.37-1.94,1.12c-.41,.75-.62,1.71-.62,2.87v.26Z" fill="#231f20"/><path d="M423.81,417.49l.22,1.23h.07l.23-1.23,2.09-8.32h3.57l-4.31,13.26h-3.27l-4.31-13.26h3.57l2.13,8.32Z" fill="#231f20"/><path d="M436.83,422.69c-1.89,0-3.37-.61-4.43-1.82-1.06-1.21-1.59-2.78-1.59-4.69v-.49c0-1.99,.52-3.61,1.55-4.88s2.45-1.9,4.25-1.89c1.7,0,3.01,.55,3.92,1.64,.91,1.09,1.37,2.56,1.37,4.41v1.85h-7.56l-.04,.07c.05,.91,.32,1.64,.79,2.21,.47,.56,1.17,.85,2.1,.85,.77,0,1.42-.08,1.95-.25,.54-.16,1.09-.41,1.66-.75l.93,2.21c-.51,.43-1.2,.8-2.06,1.09s-1.81,.44-2.84,.44Zm-.22-11.01c-.69,0-1.22,.25-1.59,.74s-.6,1.15-.67,1.97l.02,.06h4.17v-.27c0-.78-.15-1.39-.46-1.83s-.8-.67-1.48-.67Z" fill="#231f20"/><path d="M443.36,415.91c0-2.09,.43-3.78,1.29-5.06,.86-1.28,2.08-1.92,3.65-1.92,.63,0,1.2,.14,1.71,.43,.51,.29,.95,.7,1.34,1.23v-7.27h3.43v19.12h-2.92l-.29-1.63c-.4,.61-.87,1.08-1.42,1.4-.55,.32-1.17,.48-1.88,.48-1.55,0-2.76-.6-3.63-1.79-.86-1.19-1.29-2.77-1.29-4.73v-.26Zm3.41,.26c0,1.16,.19,2.07,.56,2.74s.98,1,1.83,1c.49,0,.92-.1,1.29-.31,.37-.21,.67-.51,.9-.91v-5.65c-.23-.42-.53-.74-.9-.97-.36-.23-.79-.35-1.27-.35-.84,0-1.45,.39-1.83,1.16s-.58,1.79-.58,3.04v.26Z" fill="#231f20"/></g></g></g><g id="ak"><g id="al"><g id="am"><g isolation="isolate"><path d="M45.43,371.85c1.11,0,2.01-.38,2.69-1.15s1.03-1.85,1.03-3.26v-1.45c-.38,.55-.84,.97-1.4,1.26s-1.17,.43-1.83,.43c-1.64,0-2.93-.51-3.86-1.52s-1.4-2.42-1.4-4.21,.5-3.12,1.49-4.21,2.22-1.63,3.68-1.63c1.7,0,3.07,.54,4.1,1.61s1.55,2.58,1.55,4.54v5.18c0,1.96-.56,3.49-1.69,4.59s-2.57,1.65-4.35,1.65c-.6,0-1.22-.06-1.85-.19s-1.22-.31-1.76-.55l.35-1.76c.52,.25,1.02,.43,1.52,.53s1.08,.16,1.74,.16Zm.48-5.98c.8,0,1.48-.18,2.03-.55s.95-.84,1.2-1.41v-2.02c0-1.27-.29-2.26-.86-2.95s-1.37-1.04-2.4-1.04c-.84,0-1.53,.37-2.09,1.12s-.84,1.72-.84,2.91,.26,2.12,.77,2.84,1.24,1.08,2.18,1.08Z" fill="#231f20"/><path d="M63.53,367.67h2.36v1.8h-2.36v3.94h-2.3v-3.94h-7.32v-1.3l7.18-11.82h2.44v11.32Zm-7.15,0h4.85v-8h-.07s-.22,.57-.22,.57l-4.56,7.43Z" fill="#231f20"/></g></g></g><g id="an"><g id="ao"><g isolation="isolate"><path d="M45.43,285.61c1.11,0,2.01-.38,2.69-1.15s1.03-1.85,1.03-3.26v-1.45c-.38,.55-.84,.97-1.4,1.26s-1.17,.43-1.83,.43c-1.64,0-2.93-.51-3.86-1.52s-1.4-2.42-1.4-4.21,.5-3.12,1.49-4.21,2.22-1.63,3.68-1.63c1.7,0,3.07,.54,4.1,1.61s1.55,2.58,1.55,4.54v5.18c0,1.96-.56,3.49-1.69,4.59s-2.57,1.65-4.35,1.65c-.6,0-1.22-.06-1.85-.19s-1.22-.31-1.76-.55l.35-1.76c.52,.25,1.02,.43,1.52,.53s1.08,.16,1.74,.16Zm.48-5.98c.8,0,1.48-.18,2.03-.55s.95-.84,1.2-1.41v-2.02c0-1.27-.29-2.26-.86-2.95s-1.37-1.04-2.4-1.04c-.84,0-1.53,.37-2.09,1.12s-.84,1.72-.84,2.91,.26,2.12,.77,2.84,1.24,1.08,2.18,1.08Z" fill="#231f20"/><path d="M55.12,279.59l.98-9.48h8.54v2.05h-6.6l-.55,4.91c.37-.27,.77-.5,1.22-.67s.95-.27,1.52-.28c1.58-.02,2.81,.48,3.71,1.48s1.34,2.38,1.34,4.13-.46,3.09-1.38,4.12-2.26,1.56-4.01,1.56c-1.45,0-2.65-.39-3.61-1.18s-1.42-1.95-1.38-3.48l.02-.07h2.09c0,.93,.27,1.65,.8,2.16s1.23,.77,2.08,.77c.98,0,1.73-.34,2.27-1.03s.81-1.63,.81-2.82c0-1.09-.27-1.96-.81-2.64s-1.3-1.01-2.27-1.01c-.91,0-1.56,.14-1.97,.41s-.71,.7-.9,1.27l-1.91-.2Z" fill="#231f20"/></g></g></g><g id="ap"><g id="aq"><g isolation="isolate"><path d="M45.43,199.37c1.11,0,2.01-.38,2.69-1.15s1.03-1.85,1.03-3.26v-1.45c-.38,.55-.84,.97-1.4,1.26s-1.17,.43-1.83,.43c-1.64,0-2.93-.51-3.86-1.52s-1.4-2.42-1.4-4.21,.5-3.12,1.49-4.21,2.22-1.63,3.68-1.63c1.7,0,3.07,.54,4.1,1.61s1.55,2.58,1.55,4.54v5.18c0,1.96-.56,3.49-1.69,4.59s-2.57,1.65-4.35,1.65c-.6,0-1.22-.06-1.85-.19s-1.22-.31-1.76-.55l.35-1.76c.52,.25,1.02,.43,1.52,.53s1.08,.16,1.74,.16Zm.48-5.98c.8,0,1.48-.18,2.03-.55s.95-.84,1.2-1.41v-2.02c0-1.27-.29-2.26-.86-2.95s-1.37-1.04-2.4-1.04c-.84,0-1.53,.37-2.09,1.12s-.84,1.72-.84,2.91,.26,2.12,.77,2.84,1.24,1.08,2.18,1.08Z" fill="#231f20"/><path d="M60.58,183.62c.67,0,1.34,.07,1.99,.2s1.2,.3,1.63,.5l-.49,1.77c-.45-.2-.91-.35-1.41-.47s-1.07-.18-1.72-.18c-1.07,0-1.94,.46-2.61,1.37s-1,2.07-1,3.47v1.32c.48-.48,1.04-.85,1.69-1.12s1.35-.41,2.1-.41c1.47,0,2.63,.49,3.49,1.48s1.28,2.28,1.28,3.88c0,1.75-.48,3.15-1.44,4.19s-2.25,1.56-3.87,1.56-2.9-.6-3.96-1.8-1.59-2.84-1.59-4.92v-3.93c0-2,.57-3.65,1.71-4.96s2.54-1.96,4.2-1.96Zm-.55,8.17c-.73,0-1.35,.15-1.87,.46s-.92,.72-1.19,1.25v1.18c0,1.45,.31,2.59,.94,3.43s1.4,1.26,2.31,1.26c.96,0,1.7-.37,2.22-1.1s.78-1.68,.78-2.85c0-1.11-.28-1.99-.84-2.65s-1.35-.98-2.36-.98Z" fill="#231f20"/></g></g></g><g id="ar"><g isolation="isolate"><path d="M16.85,301.21v5.53l3.68,1.15v3.57l-17.06-5.75v-3.5l17.06-5.73v3.57l-3.68,1.16Zm-2.68,4.69v-3.86l-6.01,1.89v.07l6.01,1.9Z" fill="#231f20"/><path d="M20.53,281.04v3.42l-11.51,6.88v.07h11.51v3.42H3.47v-3.42l11.5-6.88v-.07H3.47v-3.42H20.53Z" fill="#231f20"/><path d="M20.53,274.25v3.42H3.47v-3.42H20.53Z" fill="#231f20"/><path d="M6.75,265.34c-1.01,0-1.85-.33-2.52-.98s-1.01-1.56-1.01-2.72,.33-2.09,1-2.74,1.51-.97,2.53-.97h.9c1.01,0,1.84,.32,2.51,.97s1,1.55,1,2.72-.33,2.09-1,2.74-1.5,.98-2.51,.98h-.9Zm12.5-4.29l-.88,1.66-13.34-8.33,.88-1.66,13.34,8.33Zm-11.6,2.02c.45,0,.83-.12,1.14-.38s.46-.61,.46-1.08-.15-.8-.46-1.05-.69-.37-1.14-.37h-.9c-.45,0-.84,.12-1.15,.38s-.47,.61-.47,1.07,.16,.81,.47,1.06,.7,.37,1.15,.37h.9Zm8.7-5.88c-1,0-1.84-.33-2.51-.98s-1.01-1.57-1.01-2.73,.33-2.08,1-2.74,1.51-.98,2.51-.98h.9c1.02,0,1.86,.32,2.52,.97s1,1.55,1,2.72-.33,2.09-1,2.75-1.51,.99-2.51,.99h-.9Zm.9-2.27c.45,0,.83-.13,1.14-.4s.47-.62,.47-1.06c0-.51-.15-.87-.44-1.09s-.69-.33-1.18-.33h-.9c-.45,0-.83,.12-1.14,.38s-.47,.61-.47,1.07,.16,.83,.47,1.07,.7,.37,1.14,.37h.9Z" fill="#231f20"/></g></g></g><g id="as"><path d="M82.14,334.45h10.21l40.86-2.1,51.07,.21,51.07-2.09,51.07-1.29,102.15,3.18,102.15,2.15,102.15,4.98" fill="none" stroke="rgba(128,128,128,.1)" stroke-linecap="round" stroke-linejoin="round" stroke-width="1.5"/><g><path id="at" d="M82.14,337.3c.76,0,1.48-.3,2.02-.84,.54-.54,.84-1.26,.84-2.02s-.3-1.48-.84-2.02c-.54-.54-1.26-.84-2.02-.84s-1.48,.3-2.02,.84c-.54,.54-.84,1.26-.84,2.02s.3,1.48,.84,2.02c.54,.54,1.26,.84,2.02,.84Z" fill="rgba(128,128,128,.1)" stroke="rgba(128,128,128,.1)" stroke-linejoin="round"/><path id="au" d="M92.36,337.3c.76,0,1.48-.3,2.02-.84,.54-.54,.84-1.26,.84-2.02s-.3-1.48-.84-2.02c-.54-.54-1.26-.84-2.02-.84s-1.48,.3-2.02,.84c-.54,.54-.84,1.26-.84,2.02s.3,1.48,.84,2.02c.54,.54,1.26,.84,2.02,.84Z" fill="rgba(128,128,128,.1)" stroke="rgba(128,128,128,.1)" stroke-linejoin="round"/><path id="av" d="M133.21,335.21c.76,0,1.48-.3,2.02-.84,.54-.54,.84-1.26,.84-2.02s-.3-1.48-.84-2.02c-.54-.54-1.26-.84-2.02-.84s-1.48,.3-2.02,.84c-.54,.54-.84,1.26-.84,2.02s.3,1.48,.84,2.02c.54,.54,1.26,.84,2.02,.84Z" fill="rgba(128,128,128,.1)" stroke="rgba(128,128,128,.1)" stroke-linejoin="round"/><path id="aw" d="M184.29,335.41c.76,0,1.48-.3,2.02-.84,.54-.54,.84-1.26,.84-2.02s-.3-1.48-.84-2.02c-.54-.54-1.26-.84-2.02-.84s-1.48,.3-2.02,.84c-.54,.54-.84,1.26-.84,2.02s.3,1.48,.84,2.02c.54,.54,1.26,.84,2.02,.84Z" fill="rgba(128,128,128,.1)" stroke="rgba(128,128,128,.1)" stroke-linejoin="round"/><path id="ax" d="M235.36,333.33c.76,0,1.48-.3,2.02-.84,.54-.54,.84-1.26,.84-2.02s-.3-1.48-.84-2.02c-.54-.54-1.26-.84-2.02-.84s-1.48,.3-2.02,.84c-.54,.54-.84,1.26-.84,2.02s.3,1.48,.84,2.02c.54,.54,1.26,.84,2.02,.84Z" fill="rgba(128,128,128,.1)" stroke="rgba(128,128,128,.1)" stroke-linejoin="round"/><path id="ay" d="M286.44,332.03c.76,0,1.48-.3,2.02-.84,.54-.54,.84-1.26,.84-2.02s-.3-1.48-.84-2.02c-.54-.54-1.26-.84-2.02-.84s-1.48,.3-2.02,.84c-.54,.54-.84,1.26-.84,2.02s.3,1.48,.84,2.02c.54,.54,1.26,.84,2.02,.84Z" fill="rgba(128,128,128,.1)" stroke="rgba(128,128,128,.1)" stroke-linejoin="round"/><path id="az" d="M388.59,335.21c.76,0,1.48-.3,2.02-.84,.54-.54,.84-1.26,.84-2.02s-.3-1.48-.84-2.02c-.54-.54-1.26-.84-2.02-.84s-1.48,.3-2.02,.84c-.54,.54-.84,1.26-.84,2.02s.3,1.48,.84,2.02c.54,.54,1.26,.84,2.02,.84Z" fill="rgba(128,128,128,.1)" stroke="rgba(128,128,128,.1)" stroke-linejoin="round"/><path id="ba" d="M490.74,337.36c.76,0,1.48-.3,2.02-.84,.54-.54,.84-1.26,.84-2.02s-.3-1.48-.84-2.02c-.54-.54-1.26-.84-2.02-.84s-1.48,.3-2.02,.84c-.54,.54-.84,1.26-.84,2.02s.3,1.48,.84,2.02c.54,.54,1.26,.84,2.02,.84Z" fill="rgba(128,128,128,.1)" stroke="rgba(128,128,128,.1)" stroke-linejoin="round"/><path id="bb" d="M592.89,342.35c.76,0,1.48-.3,2.02-.84,.54-.54,.84-1.26,.84-2.02s-.3-1.48-.84-2.02c-.54-.54-1.26-.84-2.02-.84s-1.48,.3-2.02,.84c-.54,.54-.84,1.26-.84,2.02s.3,1.48,.84,2.02c.54,.54,1.26,.84,2.02,.84Z" fill="rgba(128,128,128,.1)" stroke="rgba(128,128,128,.1)" stroke-linejoin="round"/></g></g><g id="bc"><path d="M82.14,281.58h10.21l40.86-.56,51.07-2.9,51.07-.99,51.07,1.08,102.15-1.75,102.15,1.85,102.15-2.34" fill="none" stroke="rgba(128,128,128,.1)" stroke-linecap="round" stroke-linejoin="round" stroke-width="1.5"/><g><path id="bd" d="M82.14,284.43c.76,0,1.48-.3,2.02-.84,.54-.54,.84-1.26,.84-2.02s-.3-1.48-.84-2.02c-.54-.54-1.26-.84-2.02-.84s-1.48,.3-2.02,.84c-.54,.54-.84,1.26-.84,2.02s.3,1.48,.84,2.02c.54,.54,1.26,.84,2.02,.84Z" fill="rgba(128,128,128,.1)" stroke="rgba(128,128,128,.1)" stroke-linejoin="round"/><path id="be" d="M92.36,284.43c.76,0,1.48-.3,2.02-.84,.54-.54,.84-1.26,.84-2.02s-.3-1.48-.84-2.02c-.54-.54-1.26-.84-2.02-.84s-1.48,.3-2.02,.84c-.54,.54-.84,1.26-.84,2.02s.3,1.48,.84,2.02c.54,.54,1.26,.84,2.02,.84Z" fill="rgba(128,128,128,.1)" stroke="rgba(128,128,128,.1)" stroke-linejoin="round"/><path id="bf" d="M133.21,283.87c.76,0,1.48-.3,2.02-.84,.54-.54,.84-1.26,.84-2.02s-.3-1.48-.84-2.02c-.54-.54-1.26-.84-2.02-.84s-1.48,.3-2.02,.84c-.54,.54-.84,1.26-.84,2.02s.3,1.48,.84,2.02c.54,.54,1.26,.84,2.02,.84Z" fill="rgba(128,128,128,.1)" stroke="rgba(128,128,128,.1)" stroke-linejoin="round"/><path id="bg" d="M184.29,280.98c.76,0,1.48-.3,2.02-.84,.54-.54,.84-1.26,.84-2.02s-.3-1.48-.84-2.02c-.54-.54-1.26-.84-2.02-.84s-1.48,.3-2.02,.84c-.54,.54-.84,1.26-.84,2.02s.3,1.48,.84,2.02c.54,.54,1.26,.84,2.02,.84Z" fill="rgba(128,128,128,.1)" stroke="rgba(128,128,128,.1)" stroke-linejoin="round"/><path id="bh" d="M235.36,279.98c.76,0,1.48-.3,2.02-.84,.54-.54,.84-1.26,.84-2.02s-.3-1.48-.84-2.02c-.54-.54-1.26-.84-2.02-.84s-1.48,.3-2.02,.84c-.54,.54-.84,1.26-.84,2.02s.3,1.48,.84,2.02c.54,.54,1.26,.84,2.02,.84Z" fill="rgba(128,128,128,.1)" stroke="rgba(128,128,128,.1)" stroke-linejoin="round"/><path id="bi" d="M286.44,281.06c.76,0,1.48-.3,2.02-.84,.54-.54,.84-1.26,.84-2.02s-.3-1.48-.84-2.02c-.54-.54-1.26-.84-2.02-.84s-1.48,.3-2.02,.84c-.54,.54-.84,1.26-.84,2.02s.3,1.48,.84,2.02c.54,.54,1.26,.84,2.02,.84Z" fill="rgba(128,128,128,.1)" stroke="rgba(128,128,128,.1)" stroke-linejoin="round"/><path id="bj" d="M388.59,279.31c.76,0,1.48-.3,2.02-.84,.54-.54,.84-1.26,.84-2.02s-.3-1.48-.84-2.02c-.54-.54-1.26-.84-2.02-.84s-1.48,.3-2.02,.84c-.54,.54-.84,1.26-.84,2.02s.3,1.48,.84,2.02c.54,.54,1.26,.84,2.02,.84Z" fill="rgba(128,128,128,.1)" stroke="rgba(128,128,128,.1)" stroke-linejoin="round"/><path id="bk" d="M490.74,281.16c.76,0,1.48-.3,2.02-.84,.54-.54,.84-1.26,.84-2.02s-.3-1.48-.84-2.02c-.54-.54-1.26-.84-2.02-.84s-1.48,.3-2.02,.84c-.54,.54-.84,1.26-.84,2.02s.3,1.48,.84,2.02c.54,.54,1.26,.84,2.02,.84Z" fill="rgba(128,128,128,.1)" stroke="rgba(128,128,128,.1)" stroke-linejoin="round"/><path id="bl" d="M592.89,278.82c.76,0,1.48-.3,2.02-.84,.54-.54,.84-1.26,.84-2.02s-.3-1.48-.84-2.02c-.54-.54-1.26-.84-2.02-.84s-1.48,.3-2.02,.84c-.54,.54-.84,1.26-.84,2.02s.3,1.48,.84,2.02c.54,.54,1.26,.84,2.02,.84Z" fill="rgba(128,128,128,.1)" stroke="rgba(128,128,128,.1)" stroke-linejoin="round"/></g></g><g id="bm"><path d="M82.14,357.58h10.21l40.86,.91,51.07-6.08,51.07,3.25,51.07-5.28,102.15,2.61,102.15,3.03,102.15-8.63" fill="none" stroke="rgba(128,128,128,.1)" stroke-linecap="round" stroke-linejoin="round" stroke-width="1.5"/><g><path id="bn" d="M82.14,360.43c.76,0,1.48-.3,2.02-.84,.54-.54,.84-1.26,.84-2.02s-.3-1.48-.84-2.02c-.54-.54-1.26-.84-2.02-.84s-1.48,.3-2.02,.84c-.54,.54-.84,1.26-.84,2.02s.3,1.48,.84,2.02c.54,.54,1.26,.84,2.02,.84Z" fill="rgba(128,128,128,.1)" stroke="rgba(128,128,128,.1)" stroke-linejoin="round"/><path id="bo" d="M92.36,360.43c.76,0,1.48-.3,2.02-.84,.54-.54,.84-1.26,.84-2.02s-.3-1.48-.84-2.02c-.54-.54-1.26-.84-2.02-.84s-1.48,.3-2.02,.84c-.54,.54-.84,1.26-.84,2.02s.3,1.48,.84,2.02c.54,.54,1.26,.84,2.02,.84Z" fill="rgba(128,128,128,.1)" stroke="rgba(128,128,128,.1)" stroke-linejoin="round"/><path id="bp" d="M133.21,361.34c.76,0,1.48-.3,2.02-.84,.54-.54,.84-1.26,.84-2.02s-.3-1.48-.84-2.02c-.54-.54-1.26-.84-2.02-.84s-1.48,.3-2.02,.84c-.54,.54-.84,1.26-.84,2.02s.3,1.48,.84,2.02c.54,.54,1.26,.84,2.02,.84Z" fill="rgba(128,128,128,.1)" stroke="rgba(128,128,128,.1)" stroke-linejoin="round"/><path id="bq" d="M184.29,355.26c.76,0,1.48-.3,2.02-.84,.54-.54,.84-1.26,.84-2.02s-.3-1.48-.84-2.02c-.54-.54-1.26-.84-2.02-.84s-1.48,.3-2.02,.84c-.54,.54-.84,1.26-.84,2.02s.3,1.48,.84,2.02c.54,.54,1.26,.84,2.02,.84Z" fill="rgba(128,128,128,.1)" stroke="rgba(128,128,128,.1)" stroke-linejoin="round"/><path id="br" d="M235.36,358.51c.76,0,1.48-.3,2.02-.84,.54-.54,.84-1.26,.84-2.02s-.3-1.48-.84-2.02c-.54-.54-1.26-.84-2.02-.84s-1.48,.3-2.02,.84c-.54,.54-.84,1.26-.84,2.02s.3,1.48,.84,2.02c.54,.54,1.26,.84,2.02,.84Z" fill="rgba(128,128,128,.1)" stroke="rgba(128,128,128,.1)" stroke-linejoin="round"/><path id="bs" d="M286.44,353.23c.76,0,1.48-.3,2.02-.84,.54-.54,.84-1.26,.84-2.02s-.3-1.48-.84-2.02c-.54-.54-1.26-.84-2.02-.84s-1.48,.3-2.02,.84c-.54,.54-.84,1.26-.84,2.02s.3,1.48,.84,2.02c.54,.54,1.26,.84,2.02,.84Z" fill="rgba(128,128,128,.1)" stroke="rgba(128,128,128,.1)" stroke-linejoin="round"/><path id="bt" d="M388.59,355.84c.76,0,1.48-.3,2.02-.84,.54-.54,.84-1.26,.84-2.02s-.3-1.48-.84-2.02c-.54-.54-1.26-.84-2.02-.84s-1.48,.3-2.02,.84c-.54,.54-.84,1.26-.84,2.02s.3,1.48,.84,2.02c.54,.54,1.26,.84,2.02,.84Z" fill="rgba(128,128,128,.1)" stroke="rgba(128,128,128,.1)" stroke-linejoin="round"/><path id="bu" d="M490.74,358.87c.76,0,1.48-.3,2.02-.84,.54-.54,.84-1.26,.84-2.02s-.3-1.48-.84-2.02c-.54-.54-1.26-.84-2.02-.84s-1.48,.3-2.02,.84c-.54,.54-.84,1.26-.84,2.02s.3,1.48,.84,2.02c.54,.54,1.26,.84,2.02,.84Z" fill="rgba(128,128,128,.1)" stroke="rgba(128,128,128,.1)" stroke-linejoin="round"/><path id="bv" d="M592.89,350.24c.76,0,1.48-.3,2.02-.84,.54-.54,.84-1.26,.84-2.02s-.3-1.48-.84-2.02c-.54-.54-1.26-.84-2.02-.84s-1.48,.3-2.02,.84c-.54,.54-.84,1.26-.84,2.02s.3,1.48,.84,2.02c.54,.54,1.26,.84,2.02,.84Z" fill="rgba(128,128,128,.1)" stroke="rgba(128,128,128,.1)" stroke-linejoin="round"/></g></g><g id="bw"><path d="M82.14,283.92h10.21l40.86,.38,51.07-.7,51.07-1.47,51.07-1.39,102.15-1.34,102.15-.72,102.15-3.35" fill="none" stroke="rgba(128,128,128,.1)" stroke-linecap="round" stroke-linejoin="round" stroke-width="1.5"/><g><path id="bx" d="M82.14,286.77c.76,0,1.48-.3,2.02-.84,.54-.54,.84-1.26,.84-2.02s-.3-1.48-.84-2.02c-.54-.54-1.26-.84-2.02-.84s-1.48,.3-2.02,.84c-.54,.54-.84,1.26-.84,2.02s.3,1.48,.84,2.02c.54,.54,1.26,.84,2.02,.84Z" fill="rgba(128,128,128,.1)" stroke="rgba(128,128,128,.1)" stroke-linejoin="round"/><path id="by" d="M92.36,286.77c.76,0,1.48-.3,2.02-.84,.54-.54,.84-1.26,.84-2.02s-.3-1.48-.84-2.02c-.54-.54-1.26-.84-2.02-.84s-1.48,.3-2.02,.84c-.54,.54-.84,1.26-.84,2.02s.3,1.48,.84,2.02c.54,.54,1.26,.84,2.02,.84Z" fill="rgba(128,128,128,.1)" stroke="rgba(128,128,128,.1)" stroke-linejoin="round"/><path id="bz" d="M133.21,287.15c.76,0,1.48-.3,2.02-.84,.54-.54,.84-1.26,.84-2.02s-.3-1.48-.84-2.02c-.54-.54-1.26-.84-2.02-.84s-1.48,.3-2.02,.84c-.54,.54-.84,1.26-.84,2.02s.3,1.48,.84,2.02c.54,.54,1.26,.84,2.02,.84Z" fill="rgba(128,128,128,.1)" stroke="rgba(128,128,128,.1)" stroke-linejoin="round"/><path id="ca" d="M184.29,286.45c.76,0,1.48-.3,2.02-.84,.54-.54,.84-1.26,.84-2.02s-.3-1.48-.84-2.02c-.54-.54-1.26-.84-2.02-.84s-1.48,.3-2.02,.84c-.54,.54-.84,1.26-.84,2.02s.3,1.48,.84,2.02c.54,.54,1.26,.84,2.02,.84Z" fill="rgba(128,128,128,.1)" stroke="rgba(128,128,128,.1)" stroke-linejoin="round"/><path id="cb" d="M235.36,284.98c.76,0,1.48-.3,2.02-.84,.54-.54,.84-1.26,.84-2.02s-.3-1.48-.84-2.02c-.54-.54-1.26-.84-2.02-.84s-1.48,.3-2.02,.84c-.54,.54-.84,1.26-.84,2.02s.3,1.48,.84,2.02c.54,.54,1.26,.84,2.02,.84Z" fill="rgba(128,128,128,.1)" stroke="rgba(128,128,128,.1)" stroke-linejoin="round"/><path id="cc" d="M286.44,283.59c.76,0,1.48-.3,2.02-.84,.54-.54,.84-1.26,.84-2.02s-.3-1.48-.84-2.02c-.54-.54-1.26-.84-2.02-.84s-1.48,.3-2.02,.84c-.54,.54-.84,1.26-.84,2.02s.3,1.48,.84,2.02c.54,.54,1.26,.84,2.02,.84Z" fill="rgba(128,128,128,.1)" stroke="rgba(128,128,128,.1)" stroke-linejoin="round"/><path id="cd" d="M388.59,282.25c.76,0,1.48-.3,2.02-.84,.54-.54,.84-1.26,.84-2.02s-.3-1.48-.84-2.02c-.54-.54-1.26-.84-2.02-.84s-1.48,.3-2.02,.84c-.54,.54-.84,1.26-.84,2.02s.3,1.48,.84,2.02c.54,.54,1.26,.84,2.02,.84Z" fill="rgba(128,128,128,.1)" stroke="rgba(128,128,128,.1)" stroke-linejoin="round"/><path id="ce" d="M490.74,281.53c.76,0,1.48-.3,2.02-.84,.54-.54,.84-1.26,.84-2.02s-.3-1.48-.84-2.02c-.54-.54-1.26-.84-2.02-.84s-1.48,.3-2.02,.84c-.54,.54-.84,1.26-.84,2.02s.3,1.48,.84,2.02c.54,.54,1.26,.84,2.02,.84Z" fill="rgba(128,128,128,.1)" stroke="rgba(128,128,128,.1)" stroke-linejoin="round"/><path id="cf" d="M592.89,278.18c.76,0,1.48-.3,2.02-.84,.54-.54,.84-1.26,.84-2.02s-.3-1.48-.84-2.02c-.54-.54-1.26-.84-2.02-.84s-1.48,.3-2.02,.84c-.54,.54-.84,1.26-.84,2.02s.3,1.48,.84,2.02c.54,.54,1.26,.84,2.02,.84Z" fill="rgba(128,128,128,.1)" stroke="rgba(128,128,128,.1)" stroke-linejoin="round"/></g></g><g id="cg"><path d="M82.14,280.71h10.21l40.86,1.24,51.07-2.04,51.07,.61,51.07-1.32,102.15,1.08,102.15,4.07,102.15-.97" fill="none" stroke="rgba(128,128,128,.1)" stroke-linecap="round" stroke-linejoin="round" stroke-width="1.5"/><g><path id="ch" d="M82.14,283.56c.76,0,1.48-.3,2.02-.84,.54-.54,.84-1.26,.84-2.02s-.3-1.48-.84-2.02c-.54-.54-1.26-.84-2.02-.84s-1.48,.3-2.02,.84c-.54,.54-.84,1.26-.84,2.02s.3,1.48,.84,2.02c.54,.54,1.26,.84,2.02,.84Z" fill="rgba(128,128,128,.1)" stroke="rgba(128,128,128,.1)" stroke-linejoin="round"/><path id="ci" d="M92.36,283.56c.76,0,1.48-.3,2.02-.84,.54-.54,.84-1.26,.84-2.02s-.3-1.48-.84-2.02c-.54-.54-1.26-.84-2.02-.84s-1.48,.3-2.02,.84c-.54,.54-.84,1.26-.84,2.02s.3,1.48,.84,2.02c.54,.54,1.26,.84,2.02,.84Z" fill="rgba(128,128,128,.1)" stroke="rgba(128,128,128,.1)" stroke-linejoin="round"/><path id="cj" d="M133.21,284.8c.76,0,1.48-.3,2.02-.84,.54-.54,.84-1.26,.84-2.02s-.3-1.48-.84-2.02c-.54-.54-1.26-.84-2.02-.84s-1.48,.3-2.02,.84c-.54,.54-.84,1.26-.84,2.02s.3,1.48,.84,2.02c.54,.54,1.26,.84,2.02,.84Z" fill="rgba(128,128,128,.1)" stroke="rgba(128,128,128,.1)" stroke-linejoin="round"/><path id="ck" d="M184.29,282.76c.76,0,1.48-.3,2.02-.84,.54-.54,.84-1.26,.84-2.02s-.3-1.48-.84-2.02c-.54-.54-1.26-.84-2.02-.84s-1.48,.3-2.02,.84c-.54,.54-.84,1.26-.84,2.02s.3,1.48,.84,2.02c.54,.54,1.26,.84,2.02,.84Z" fill="rgba(128,128,128,.1)" stroke="rgba(128,128,128,.1)" stroke-linejoin="round"/><path id="cl" d="M235.36,283.37c.76,0,1.48-.3,2.02-.84,.54-.54,.84-1.26,.84-2.02s-.3-1.48-.84-2.02c-.54-.54-1.26-.84-2.02-.84s-1.48,.3-2.02,.84c-.54,.54-.84,1.26-.84,2.02s.3,1.48,.84,2.02c.54,.54,1.26,.84,2.02,.84Z" fill="rgba(128,128,128,.1)" stroke="rgba(128,128,128,.1)" stroke-linejoin="round"/><path id="cm" d="M286.44,282.05c.76,0,1.48-.3,2.02-.84,.54-.54,.84-1.26,.84-2.02s-.3-1.48-.84-2.02c-.54-.54-1.26-.84-2.02-.84s-1.48,.3-2.02,.84c-.54,.54-.84,1.26-.84,2.02s.3,1.48,.84,2.02c.54,.54,1.26,.84,2.02,.84Z" fill="rgba(128,128,128,.1)" stroke="rgba(128,128,128,.1)" stroke-linejoin="round"/><path id="cn" d="M388.59,283.13c.76,0,1.48-.3,2.02-.84,.54-.54,.84-1.26,.84-2.02s-.3-1.48-.84-2.02c-.54-.54-1.26-.84-2.02-.84s-1.48,.3-2.02,.84c-.54,.54-.84,1.26-.84,2.02s.3,1.48,.84,2.02c.54,.54,1.26,.84,2.02,.84Z" fill="rgba(128,128,128,.1)" stroke="rgba(128,128,128,.1)" stroke-linejoin="round"/><path id="co" d="M490.74,287.2c.76,0,1.48-.3,2.02-.84,.54-.54,.84-1.26,.84-2.02s-.3-1.48-.84-2.02c-.54-.54-1.26-.84-2.02-.84s-1.48,.3-2.02,.84c-.54,.54-.84,1.26-.84,2.02s.3,1.48,.84,2.02c.54,.54,1.26,.84,2.02,.84Z" fill="rgba(128,128,128,.1)" stroke="rgba(128,128,128,.1)" stroke-linejoin="round"/><path id="cp" d="M592.89,286.24c.76,0,1.48-.3,2.02-.84,.54-.54,.84-1.26,.84-2.02s-.3-1.48-.84-2.02c-.54-.54-1.26-.84-2.02-.84s-1.48,.3-2.02,.84c-.54,.54-.84,1.26-.84,2.02s.3,1.48,.84,2.02c.54,.54,1.26,.84,2.02,.84Z" fill="rgba(128,128,128,.1)" stroke="rgba(128,128,128,.1)" stroke-linejoin="round"/></g></g><g id="cq"><path d="M69.99,272.73H602.95" fill="none" stroke="rgba(236,28,36,.4)" stroke-dasharray="0 0 4.89 2.11" stroke-linejoin="round" stroke-width="1.32"/></g><g id="cr"><path d="M82.14,246.02h10.21l40.86,.66,51.07,1.48,51.07,2.17,51.07-2.76,102.15-4.91,102.15,3.16,102.15,.5" fill="none" stroke="#3c79bc" stroke-linecap="round" stroke-linejoin="round" stroke-width="1.5"/><g><path id="cs" d="M82.14,248.88c.76,0,1.48-.3,2.02-.84,.54-.54,.84-1.26,.84-2.02s-.3-1.48-.84-2.02c-.54-.54-1.26-.84-2.02-.84s-1.48,.3-2.02,.84c-.54,.54-.84,1.26-.84,2.02s.3,1.48,.84,2.02c.54,.54,1.26,.84,2.02,.84Z" fill="#3c79bc" stroke="#3c79bc" stroke-linejoin="round"/><path id="ct" d="M92.36,248.88c.76,0,1.48-.3,2.02-.84,.54-.54,.84-1.26,.84-2.02s-.3-1.48-.84-2.02c-.54-.54-1.26-.84-2.02-.84s-1.48,.3-2.02,.84c-.54,.54-.84,1.26-.84,2.02s.3,1.48,.84,2.02c.54,.54,1.26,.84,2.02,.84Z" fill="#3c79bc" stroke="#3c79bc" stroke-linejoin="round"/><path id="cu" d="M133.21,249.53c.76,0,1.48-.3,2.02-.84,.54-.54,.84-1.26,.84-2.02s-.3-1.48-.84-2.02c-.54-.54-1.26-.84-2.02-.84s-1.48,.3-2.02,.84c-.54,.54-.84,1.26-.84,2.02s.3,1.48,.84,2.02c.54,.54,1.26,.84,2.02,.84Z" fill="#3c79bc" stroke="#3c79bc" stroke-linejoin="round"/><path id="cv" d="M184.29,251.01c.76,0,1.48-.3,2.02-.84,.54-.54,.84-1.26,.84-2.02s-.3-1.48-.84-2.02c-.54-.54-1.26-.84-2.02-.84s-1.48,.3-2.02,.84c-.54,.54-.84,1.26-.84,2.02s.3,1.48,.84,2.02c.54,.54,1.26,.84,2.02,.84Z" fill="#3c79bc" stroke="#3c79bc" stroke-linejoin="round"/><path id="cw" d="M235.36,253.19c.76,0,1.48-.3,2.02-.84,.54-.54,.84-1.26,.84-2.02s-.3-1.48-.84-2.02c-.54-.54-1.26-.84-2.02-.84s-1.48,.3-2.02,.84c-.54,.54-.84,1.26-.84,2.02s.3,1.48,.84,2.02c.54,.54,1.26,.84,2.02,.84Z" fill="#3c79bc" stroke="#3c79bc" stroke-linejoin="round"/><path id="cx" d="M286.44,250.43c.76,0,1.48-.3,2.02-.84,.54-.54,.84-1.26,.84-2.02s-.3-1.48-.84-2.02c-.54-.54-1.26-.84-2.02-.84s-1.48,.3-2.02,.84c-.54,.54-.84,1.26-.84,2.02s.3,1.48,.84,2.02c.54,.54,1.26,.84,2.02,.84Z" fill="#3c79bc" stroke="#3c79bc" stroke-linejoin="round"/><path id="cy" d="M388.59,245.52c.76,0,1.48-.3,2.02-.84,.54-.54,.84-1.26,.84-2.02s-.3-1.48-.84-2.02c-.54-.54-1.26-.84-2.02-.84s-1.48,.3-2.02,.84c-.54,.54-.84,1.26-.84,2.02s.3,1.48,.84,2.02c.54,.54,1.26,.84,2.02,.84Z" fill="#3c79bc" stroke="#3c79bc" stroke-linejoin="round"/><path id="cz" d="M490.74,248.68c.76,0,1.48-.3,2.02-.84,.54-.54,.84-1.26,.84-2.02s-.3-1.48-.84-2.02c-.54-.54-1.26-.84-2.02-.84s-1.48,.3-2.02,.84c-.54,.54-.84,1.26-.84,2.02s.3,1.48,.84,2.02c.54,.54,1.26,.84,2.02,.84Z" fill="#3c79bc" stroke="#3c79bc" stroke-linejoin="round"/><path id="da" d="M592.89,249.18c.76,0,1.48-.3,2.02-.84,.54-.54,.84-1.26,.84-2.02s-.3-1.48-.84-2.02c-.54-.54-1.26-.84-2.02-.84s-1.48,.3-2.02,.84c-.54,.54-.84,1.26-.84,2.02s.3,1.48,.84,2.02c.54,.54,1.26,.84,2.02,.84Z" fill="#3c79bc" stroke="#3c79bc" stroke-linejoin="round"/></g></g><g id="db"><path d="M82.14,263.42h10.21l40.86,1.03,51.07-.38,51.07,.02,51.07-.85,102.15,2.65,102.15-6.9,102.15,3.4" fill="none" stroke="#ec9d3d" stroke-linecap="round" stroke-linejoin="round" stroke-width="1.5"/><g><path id="dc" d="M82.14,267.46l4.04-4.04-4.04-4.04-4.04,4.04,4.04,4.04Z" fill="#ec9d3d" stroke="#ec9d3d"/><path id="dd" d="M92.36,267.46l4.04-4.04-4.04-4.04-4.04,4.04,4.04,4.04Z" fill="#ec9d3d" stroke="#ec9d3d"/><path id="de" d="M133.21,268.5l4.04-4.04-4.04-4.04-4.04,4.04,4.04,4.04Z" fill="#ec9d3d" stroke="#ec9d3d"/><path id="df" d="M184.29,268.12l4.04-4.04-4.04-4.04-4.04,4.04,4.04,4.04Z" fill="#ec9d3d" stroke="#ec9d3d"/><path id="dg" d="M235.36,268.14l4.04-4.04-4.04-4.04-4.04,4.04,4.04,4.04Z" fill="#ec9d3d" stroke="#ec9d3d"/><path id="dh" d="M286.44,267.28l4.04-4.04-4.04-4.04-4.04,4.04,4.04,4.04Z" fill="#ec9d3d" stroke="#ec9d3d"/><path id="di" d="M388.59,269.93l4.04-4.04-4.04-4.04-4.04,4.04,4.04,4.04Z" fill="#ec9d3d" stroke="#ec9d3d"/><path id="dj" d="M490.74,263.03l4.04-4.04-4.04-4.04-4.04,4.04,4.04,4.04Z" fill="#ec9d3d" stroke="#ec9d3d"/><path id="dk" d="M592.89,266.43l4.04-4.04-4.04-4.04-4.04,4.04,4.04,4.04Z" fill="#ec9d3d" stroke="#ec9d3d"/></g></g><g id="dl"><path d="M82.14,271.2h10.21l40.86,.76,51.07-2.29,51.07,.12,51.07,.49,102.15,6.21,102.15-6.02,102.15-1.76" fill="none" stroke="#16ae7a" stroke-linecap="round" stroke-linejoin="round" stroke-width="1.5"/><g><path id="dm" d="M82.14,275.24l4.04-4.04-4.04-4.04-4.04,4.04,4.04,4.04Z" fill="#16ae7a" stroke="#16ae7a"/><path id="dn" d="M92.36,275.24l4.04-4.04-4.04-4.04-4.04,4.04,4.04,4.04Z" fill="#16ae7a" stroke="#16ae7a"/><path id="do" d="M133.21,276l4.04-4.04-4.04-4.04-4.04,4.04,4.04,4.04Z" fill="#16ae7a" stroke="#16ae7a"/><path id="dp" d="M184.29,273.72l4.04-4.04-4.04-4.04-4.04,4.04,4.04,4.04Z" fill="#16ae7a" stroke="#16ae7a"/><path id="dq" d="M235.36,273.84l4.04-4.04-4.04-4.04-4.04,4.04,4.04,4.04Z" fill="#16ae7a" stroke="#16ae7a"/><path id="dr" d="M286.44,274.33l4.04-4.04-4.04-4.04-4.04,4.04,4.04,4.04Z" fill="#16ae7a" stroke="#16ae7a"/><path id="ds" d="M388.59,280.54l4.04-4.04-4.04-4.04-4.04,4.04,4.04,4.04Z" fill="#16ae7a" stroke="#16ae7a"/><path id="dt" d="M490.74,274.52l4.04-4.04-4.04-4.04-4.04,4.04,4.04,4.04Z" fill="#16ae7a" stroke="#16ae7a"/><path id="du" d="M592.89,272.76l4.04-4.04-4.04-4.04-4.04,4.04,4.04,4.04Z" fill="#16ae7a" stroke="#16ae7a"/></g></g><g id="dv"><path d="M82.14,260.64h10.21l40.86-.7h51.07s51.07-2.35,51.07-2.35l51.07-3.76,102.15,1.59,102.15-2.69,102.15-2.05" fill="none" stroke="#bc1e53" stroke-linecap="round" stroke-linejoin="round" stroke-width="1.5"/><g><path id="dw" d="M82.14,264.68l4.04-4.04-4.04-4.04-4.04,4.04,4.04,4.04Z" fill="#bc1e53" stroke="#bc1e53"/><path id="dx" d="M92.36,264.68l4.04-4.04-4.04-4.04-4.04,4.04,4.04,4.04Z" fill="#bc1e53" stroke="#bc1e53"/><path id="dy" d="M133.21,263.98l4.04-4.04-4.04-4.04-4.04,4.04,4.04,4.04Z" fill="#bc1e53" stroke="#bc1e53"/><path id="dz" d="M184.29,263.97l4.04-4.04-4.04-4.04-4.04,4.04,4.04,4.04Z" fill="#bc1e53" stroke="#bc1e53"/><path id="ea" d="M235.36,261.63l4.04-4.04-4.04-4.04-4.04,4.04,4.04,4.04Z" fill="#bc1e53" stroke="#bc1e53"/><path id="eb" d="M286.44,257.87l4.04-4.04-4.04-4.04-4.04,4.04,4.04,4.04Z" fill="#bc1e53" stroke="#bc1e53"/><path id="ec" d="M388.59,259.46l4.04-4.04-4.04-4.04-4.04,4.04,4.04,4.04Z" fill="#bc1e53" stroke="#bc1e53"/><path id="ed" d="M490.74,256.77l4.04-4.04-4.04-4.04-4.04,4.04,4.04,4.04Z" fill="#bc1e53" stroke="#bc1e53"/><path id="ee" d="M592.89,254.72l4.04-4.04-4.04-4.04-4.04,4.04,4.04,4.04Z" fill="#bc1e53" stroke="#bc1e53"/></g></g><g id="ef"><path d="M82.14,247.93h10.21l40.86-1.13,51.07,.35,51.07-1.41,51.07,.98,102.15,1.53,102.15-2.09,102.15,.03" fill="none" stroke="#4f2d83" stroke-linecap="round" stroke-linejoin="round" stroke-width="1.5"/><g><path id="eg" d="M82.14,251.96l4.04-4.04-4.04-4.04-4.04,4.04,4.04,4.04Z" fill="#4f2d83" stroke="#4f2d83"/><path id="eh" d="M92.36,251.96l4.04-4.04-4.04-4.04-4.04,4.04,4.04,4.04Z" fill="#4f2d83" stroke="#4f2d83"/><path id="ei" d="M133.21,250.83l4.04-4.04-4.04-4.04-4.04,4.04,4.04,4.04Z" fill="#4f2d83" stroke="#4f2d83"/><path id="ej" d="M184.29,251.19l4.04-4.04-4.04-4.04-4.04,4.04,4.04,4.04Z" fill="#4f2d83" stroke="#4f2d83"/><path id="ek" d="M235.36,249.78l4.04-4.04-4.04-4.04-4.04,4.04,4.04,4.04Z" fill="#4f2d83" stroke="#4f2d83"/><path id="el" d="M286.44,250.77l4.04-4.04-4.04-4.04-4.04,4.04,4.04,4.04Z" fill="#4f2d83" stroke="#4f2d83"/><path id="em" d="M388.59,252.29l4.04-4.04-4.04-4.04-4.04,4.04,4.04,4.04Z" fill="#4f2d83" stroke="#4f2d83"/><path id="en" d="M490.74,250.2l4.04-4.04-4.04-4.04-4.04,4.04,4.04,4.04Z" fill="#4f2d83" stroke="#4f2d83"/><path id="eo" d="M592.89,250.23l4.04-4.04-4.04-4.04-4.04,4.04,4.04,4.04Z" fill="#4f2d83" stroke="#4f2d83"/></g></g><g id="ep"><rect x="11.73" y=".49" width="664.92" height="88.61" rx="11.34" ry="11.34" fill="#f1f1f2" isolation="isolate" stroke="#e6e7e8" stroke-width=".98"/><g><g><g id="eq"><path d="M29.38,16.91h22.85" fill="none" stroke="#3c79bc" stroke-linecap="round" stroke-linejoin="round" stroke-width="1.5"/><path id="er" d="M40.8,19.77c.76,0,1.48-.3,2.02-.84,.54-.54,.84-1.26,.84-2.02s-.3-1.48-.84-2.02c-.54-.54-1.26-.84-2.02-.84s-1.48,.3-2.02,.84c-.54,.54-.84,1.26-.84,2.02s.3,1.48,.84,2.02c.54,.54,1.26,.84,2.02,.84Z" fill="#3c79bc" stroke="#3c79bc" stroke-linejoin="round"/></g><g id="es"><g isolation="isolate"><path d="M80.35,23.92h-2.31l1.12-7.54h-8.29l-1.12,7.54h-2.31l2.55-17.06h2.31l-1.16,7.71h8.29l1.16-7.71h2.31l-2.55,17.06Z" fill="#231f20"/><path d="M89.24,24.17c-1.75,0-3.06-.59-3.94-1.77s-1.18-2.7-.9-4.57l.08-.52c.27-1.89,1.02-3.41,2.23-4.57s2.59-1.73,4.13-1.73c1.63,0,2.81,.54,3.53,1.61s.95,2.46,.69,4.18l-.18,1.22h-8.2c-.18,1.34-.05,2.4,.4,3.18s1.25,1.17,2.43,1.17c.75,0,1.45-.11,2.09-.34s1.2-.53,1.67-.91l.68,1.5c-.52,.44-1.17,.81-1.96,1.11s-1.71,.45-2.75,.45Zm1.34-11.34c-.77,0-1.47,.31-2.1,.94s-1.08,1.41-1.35,2.37l.02,.07h5.71l.02-.19c.14-.95,.03-1.71-.33-2.3s-1.02-.88-1.97-.88Z" fill="#231f20"/><path d="M99.08,23.92h-2.31l2.74-18.28h2.31l-2.74,18.28Z" fill="#231f20"/><path d="M105.13,23.92h-2.31l1.9-12.68h2.31l-1.9,12.68Zm2.39-15.93h-2.31l.35-2.36h2.31l-.35,2.36Z" fill="#231f20"/><path d="M113.95,22.37c.68,0,1.33-.24,1.94-.71s.97-1.05,1.08-1.73h2.09l.02,.07c-.14,1.14-.75,2.12-1.83,2.95s-2.27,1.24-3.57,1.24c-1.7,0-2.97-.61-3.79-1.83s-1.1-2.72-.84-4.51l.07-.49c.28-1.85,.99-3.37,2.13-4.55s2.61-1.78,4.39-1.78c1.37,0,2.45,.44,3.25,1.32s1.08,1.96,.86,3.22l-.02,.06h-2.11c.12-.8-.03-1.47-.45-2s-1.01-.79-1.79-.79c-1.09,0-1.97,.45-2.65,1.34s-1.11,1.95-1.29,3.17l-.07,.49c-.2,1.31-.11,2.4,.27,3.25s1.15,1.28,2.31,1.28Z" fill="#231f20"/><path d="M121.67,17.47c.29-1.95,1.03-3.51,2.21-4.69s2.65-1.77,4.41-1.77,2.97,.61,3.84,1.83,1.17,2.76,.9,4.62l-.05,.26c-.3,1.96-1.04,3.53-2.21,4.69s-2.65,1.75-4.42,1.75-2.97-.61-3.84-1.83-1.17-2.76-.88-4.62l.05-.26Zm2.26,.26c-.21,1.39-.1,2.51,.34,3.36s1.22,1.28,2.34,1.28c1.05,0,1.94-.44,2.67-1.33s1.19-1.99,1.39-3.31l.05-.26c.2-1.38,.08-2.49-.36-3.35s-1.22-1.29-2.34-1.29-1.96,.45-2.68,1.34-1.18,1.99-1.37,3.3l-.05,.26Z" fill="#231f20"/><path d="M146.59,18.06c-.29,1.9-.95,3.39-1.98,4.48s-2.32,1.63-3.88,1.63c-.82,0-1.52-.17-2.09-.52s-1.02-.85-1.34-1.51l-.66,1.78h-1.77l2.74-18.28h2.31l-1.07,7.1c.49-.56,1.05-.99,1.69-1.29s1.34-.45,2.12-.45c1.5,0,2.61,.63,3.32,1.89s.92,2.9,.63,4.92l-.04,.25Zm-2.27-.25c.23-1.51,.14-2.71-.26-3.6s-1.15-1.34-2.25-1.34c-.69,0-1.31,.18-1.86,.53s-1.02,.83-1.4,1.44l-.82,5.46c.2,.62,.52,1.11,.95,1.46s1.01,.52,1.75,.52c1.05,0,1.9-.39,2.57-1.18s1.1-1.8,1.28-3.05l.04-.25Z" fill="#231f20"/><path d="M156.31,23.92c-.02-.44-.02-.79-.02-1.06s.02-.54,.05-.83c-.52,.6-1.16,1.11-1.92,1.52s-1.53,.62-2.31,.62c-1.27,0-2.22-.34-2.83-1.03s-.83-1.61-.65-2.78c.18-1.25,.8-2.21,1.88-2.87s2.46-1,4.16-1h2.51l.19-1.25c.12-.77-.02-1.37-.4-1.79s-1-.63-1.83-.63c-.71,0-1.34,.19-1.88,.56s-.84,.82-.91,1.35l-2.2,.02v-.07c.08-.96,.64-1.81,1.66-2.56s2.27-1.12,3.73-1.12c1.38,0,2.47,.37,3.26,1.11s1.09,1.79,.89,3.15l-.91,6.11c-.08,.48-.12,.92-.13,1.33s.01,.82,.08,1.22h-2.38Zm-3.57-1.69c.8,0,1.57-.22,2.32-.66s1.27-.93,1.56-1.48l.32-2.05h-2.59c-.9,0-1.67,.24-2.32,.71s-1.02,1.02-1.1,1.64c-.09,.59,0,1.04,.31,1.35s.8,.47,1.51,.47Z" fill="#231f20"/><path d="M166.99,22.37c.68,0,1.33-.24,1.94-.71s.97-1.05,1.08-1.73h2.09l.02,.07c-.14,1.14-.75,2.12-1.83,2.95s-2.27,1.24-3.57,1.24c-1.7,0-2.97-.61-3.79-1.83s-1.1-2.72-.84-4.51l.07-.49c.28-1.85,.99-3.37,2.13-4.55s2.61-1.78,4.39-1.78c1.37,0,2.45,.44,3.25,1.32s1.08,1.96,.86,3.22l-.02,.06h-2.11c.12-.8-.03-1.47-.45-2s-1.01-.79-1.79-.79c-1.09,0-1.97,.45-2.65,1.34s-1.11,1.95-1.29,3.17l-.07,.49c-.2,1.31-.11,2.4,.27,3.25s1.15,1.28,2.31,1.28Z" fill="#231f20"/><path d="M179.84,8.19l-.46,3.06h2.4l-.26,1.71h-2.4l-1.15,7.7c-.09,.62-.04,1.04,.17,1.27s.52,.35,.93,.35c.12,0,.28-.02,.45-.05s.32-.07,.43-.11l.08,1.58c-.2,.14-.47,.26-.81,.35s-.69,.13-1.01,.13c-.91,0-1.6-.29-2.09-.86s-.64-1.46-.45-2.66l1.15-7.7h-2.02l.26-1.71h2.02l.46-3.06h2.31Z" fill="#231f20"/><path d="M187.58,24.17c-1.75,0-3.06-.59-3.94-1.77s-1.18-2.7-.9-4.57l.08-.52c.27-1.89,1.02-3.41,2.23-4.57s2.59-1.73,4.13-1.73c1.63,0,2.81,.54,3.53,1.61s.95,2.46,.69,4.18l-.18,1.22h-8.2c-.18,1.34-.05,2.4,.4,3.18s1.25,1.17,2.43,1.17c.75,0,1.45-.11,2.09-.34s1.2-.53,1.67-.91l.68,1.5c-.52,.44-1.17,.81-1.96,1.11s-1.71,.45-2.75,.45Zm1.34-11.34c-.77,0-1.47,.31-2.1,.94s-1.08,1.41-1.35,2.37l.02,.07h5.71l.02-.19c.14-.95,.03-1.71-.33-2.3s-1.02-.88-1.97-.88Z" fill="#231f20"/><path d="M202.52,13.28l-1.17-.07c-.6,0-1.13,.15-1.59,.45s-.85,.72-1.17,1.27l-1.35,8.99h-2.31l1.9-12.68h2.06l-.05,1.79c.45-.64,.97-1.14,1.55-1.49s1.21-.53,1.91-.53c.16,0,.33,.01,.49,.04s.29,.06,.38,.09l-.64,2.14Z" fill="#231f20"/><path d="M220.98,18.06c-.29,1.9-.95,3.39-1.97,4.48s-2.32,1.63-3.87,1.63c-.76,0-1.41-.14-1.97-.42s-1-.69-1.35-1.22l-.94,6.27h-2.31l2.62-17.55h1.77l.12,1.64c.51-.61,1.09-1.07,1.76-1.39s1.41-.48,2.23-.48c1.51,0,2.62,.63,3.33,1.89s.92,2.9,.62,4.92l-.04,.25Zm-2.27-.25c.23-1.49,.12-2.69-.3-3.59s-1.2-1.35-2.31-1.35c-.64,0-1.22,.15-1.74,.46s-.97,.73-1.35,1.26l-.91,6.09c.22,.52,.54,.93,.96,1.22s.97,.44,1.65,.44c1.05,0,1.92-.4,2.63-1.21s1.15-1.84,1.34-3.09l.04-.25Z" fill="#231f20"/><path d="M227.39,19.22l.18,1.59h.07s4.55-9.57,4.55-9.57h2.57l-7.52,14.62c-.45,.85-1.03,1.59-1.72,2.23s-1.54,.95-2.56,.95c-.18,0-.41-.02-.69-.06s-.5-.08-.66-.12l.5-1.82s.12,0,.43,.02,.51,.04,.59,.04c.47,0,.9-.23,1.31-.69s.74-.93,1-1.42l.76-1.32-2.86-12.42h2.58l1.48,7.98Z" fill="#231f20"/><path d="M237.37,23.92h-2.31l2.74-18.28h2.31l-2.74,18.28Z" fill="#231f20"/><path d="M241.36,17.47c.29-1.95,1.03-3.51,2.21-4.69s2.65-1.77,4.41-1.77,2.97,.61,3.84,1.83,1.17,2.76,.9,4.62l-.05,.26c-.3,1.96-1.04,3.53-2.21,4.69s-2.65,1.75-4.42,1.75-2.97-.61-3.84-1.83-1.17-2.76-.88-4.62l.05-.26Zm2.26,.26c-.21,1.39-.1,2.51,.34,3.36s1.22,1.28,2.34,1.28c1.05,0,1.94-.44,2.67-1.33s1.19-1.99,1.39-3.31l.05-.26c.2-1.38,.08-2.49-.36-3.35s-1.22-1.29-2.34-1.29-1.96,.45-2.68,1.34-1.18,1.99-1.37,3.3l-.05,.26Z" fill="#231f20"/><path d="M262.16,13.28l-1.17-.07c-.6,0-1.13,.15-1.59,.45s-.85,.72-1.17,1.27l-1.35,8.99h-2.31l1.9-12.68h2.06l-.05,1.79c.45-.64,.97-1.14,1.55-1.49s1.21-.53,1.91-.53c.16,0,.33,.01,.49,.04s.29,.06,.38,.09l-.64,2.14Z" fill="#231f20"/><path d="M265.46,23.92h-2.31l1.9-12.68h2.31l-1.9,12.68Zm2.39-15.93h-2.31l.35-2.36h2.31l-.35,2.36Z" fill="#231f20"/><path d="M277.93,25.73h-10.82l.27-1.8h10.82l-.27,1.8Z" fill="#231f20"/><path d="M293.22,18.46l.02,.07c-.22,1.66-.98,3.02-2.29,4.07s-2.91,1.57-4.83,1.57-3.3-.69-4.35-2.07-1.42-3.11-1.1-5.19l.46-3.04c.32-2.18,1.18-3.94,2.59-5.27s3.09-2,5.04-2,3.3,.52,4.32,1.55,1.39,2.39,1.11,4.07l-.04,.07h-2.21c.18-1.24-.03-2.2-.62-2.87s-1.54-1.01-2.84-1.01-2.33,.53-3.28,1.58-1.54,2.33-1.76,3.85l-.46,3.06c-.25,1.62-.07,2.93,.54,3.94s1.57,1.51,2.87,1.51c1.23,0,2.27-.35,3.09-1.05s1.34-1.65,1.52-2.85h2.2Z" fill="#231f20"/><path d="M297.99,23.92h-2.32l2.55-17.06h2.32l-2.55,17.06Z" fill="#231f20"/></g></g></g><g><g id="et"><path d="M29.38,44.8h22.85" fill="none" stroke="#ec9d3d" stroke-linecap="round" stroke-linejoin="round" stroke-width="1.5"/><path id="eu" d="M40.8,48.84l4.04-4.04-4.04-4.04-4.04,4.04,4.04,4.04Z" fill="#ec9d3d" stroke="#ec9d3d"/></g><g id="ev"><g isolation="isolate"><path d="M80.35,51.81h-2.31l1.12-7.54h-8.29l-1.12,7.54h-2.31l2.55-17.06h2.31l-1.16,7.71h8.29l1.16-7.71h2.31l-2.55,17.06Z" fill="#231f20"/><path d="M89.24,52.06c-1.75,0-3.06-.59-3.94-1.77s-1.18-2.7-.9-4.57l.08-.52c.27-1.89,1.02-3.41,2.23-4.57s2.59-1.73,4.13-1.73c1.63,0,2.81,.54,3.53,1.61s.95,2.46,.69,4.18l-.18,1.22h-8.2c-.18,1.34-.05,2.4,.4,3.18s1.25,1.17,2.43,1.17c.75,0,1.45-.11,2.09-.34s1.2-.53,1.67-.91l.68,1.5c-.52,.44-1.17,.81-1.96,1.11s-1.71,.45-2.75,.45Zm1.34-11.34c-.77,0-1.47,.31-2.1,.94s-1.08,1.41-1.35,2.37l.02,.07h5.71l.02-.19c.14-.95,.03-1.71-.33-2.3s-1.02-.88-1.97-.88Z" fill="#231f20"/><path d="M99.08,51.81h-2.31l2.74-18.28h2.31l-2.74,18.28Z" fill="#231f20"/><path d="M105.13,51.81h-2.31l1.9-12.68h2.31l-1.9,12.68Zm2.39-15.93h-2.31l.35-2.36h2.31l-.35,2.36Z" fill="#231f20"/><path d="M113.95,50.25c.68,0,1.33-.24,1.94-.71s.97-1.05,1.08-1.73h2.09l.02,.07c-.14,1.14-.75,2.12-1.83,2.95s-2.27,1.24-3.57,1.24c-1.7,0-2.97-.61-3.79-1.83s-1.1-2.72-.84-4.51l.07-.49c.28-1.85,.99-3.37,2.13-4.55s2.61-1.78,4.39-1.78c1.37,0,2.45,.44,3.25,1.32s1.08,1.96,.86,3.22l-.02,.06h-2.11c.12-.8-.03-1.47-.45-2s-1.01-.79-1.79-.79c-1.09,0-1.97,.45-2.65,1.34s-1.11,1.95-1.29,3.17l-.07,.49c-.2,1.31-.11,2.4,.27,3.25s1.15,1.28,2.31,1.28Z" fill="#231f20"/><path d="M121.67,45.35c.29-1.95,1.03-3.51,2.21-4.69s2.65-1.77,4.41-1.77,2.97,.61,3.84,1.83,1.17,2.76,.9,4.62l-.05,.26c-.3,1.96-1.04,3.53-2.21,4.69s-2.65,1.75-4.42,1.75-2.97-.61-3.84-1.83-1.17-2.76-.88-4.62l.05-.26Zm2.26,.26c-.21,1.39-.1,2.51,.34,3.36s1.22,1.28,2.34,1.28c1.05,0,1.94-.44,2.67-1.33s1.19-1.99,1.39-3.31l.05-.26c.2-1.38,.08-2.49-.36-3.35s-1.22-1.29-2.34-1.29-1.96,.45-2.68,1.34-1.18,1.99-1.37,3.3l-.05,.26Z" fill="#231f20"/><path d="M146.59,45.95c-.29,1.9-.95,3.39-1.98,4.48s-2.32,1.63-3.88,1.63c-.82,0-1.52-.17-2.09-.52s-1.02-.85-1.34-1.51l-.66,1.78h-1.77l2.74-18.28h2.31l-1.07,7.1c.49-.56,1.05-.99,1.69-1.29s1.34-.45,2.12-.45c1.5,0,2.61,.63,3.32,1.89s.92,2.9,.63,4.92l-.04,.25Zm-2.27-.25c.23-1.51,.14-2.71-.26-3.6s-1.15-1.34-2.25-1.34c-.69,0-1.31,.18-1.86,.53s-1.02,.83-1.4,1.44l-.82,5.46c.2,.62,.52,1.11,.95,1.46s1.01,.52,1.75,.52c1.05,0,1.9-.39,2.57-1.18s1.1-1.8,1.28-3.05l.04-.25Z" fill="#231f20"/><path d="M156.31,51.81c-.02-.44-.02-.79-.02-1.06s.02-.54,.05-.83c-.52,.6-1.16,1.11-1.92,1.52s-1.53,.62-2.31,.62c-1.27,0-2.22-.34-2.83-1.03s-.83-1.61-.65-2.78c.18-1.25,.8-2.21,1.88-2.87s2.46-1,4.16-1h2.51l.19-1.25c.12-.77-.02-1.37-.4-1.79s-1-.63-1.83-.63c-.71,0-1.34,.19-1.88,.56s-.84,.82-.91,1.35l-2.2,.02v-.07c.08-.96,.64-1.81,1.66-2.56s2.27-1.12,3.73-1.12c1.38,0,2.47,.37,3.26,1.11s1.09,1.79,.89,3.15l-.91,6.11c-.08,.48-.12,.92-.13,1.33s.01,.82,.08,1.22h-2.38Zm-3.57-1.69c.8,0,1.57-.22,2.32-.66s1.27-.93,1.56-1.48l.32-2.05h-2.59c-.9,0-1.67,.24-2.32,.71s-1.02,1.02-1.1,1.64c-.09,.59,0,1.04,.31,1.35s.8,.47,1.51,.47Z" fill="#231f20"/><path d="M166.99,50.25c.68,0,1.33-.24,1.94-.71s.97-1.05,1.08-1.73h2.09l.02,.07c-.14,1.14-.75,2.12-1.83,2.95s-2.27,1.24-3.57,1.24c-1.7,0-2.97-.61-3.79-1.83s-1.1-2.72-.84-4.51l.07-.49c.28-1.85,.99-3.37,2.13-4.55s2.61-1.78,4.39-1.78c1.37,0,2.45,.44,3.25,1.32s1.08,1.96,.86,3.22l-.02,.06h-2.11c.12-.8-.03-1.47-.45-2s-1.01-.79-1.79-.79c-1.09,0-1.97,.45-2.65,1.34s-1.11,1.95-1.29,3.17l-.07,.49c-.2,1.31-.11,2.4,.27,3.25s1.15,1.28,2.31,1.28Z" fill="#231f20"/><path d="M179.85,36.07l-.46,3.06h2.4l-.26,1.71h-2.4l-1.15,7.7c-.09,.62-.04,1.04,.17,1.27s.52,.35,.93,.35c.12,0,.28-.02,.45-.05s.32-.07,.43-.11l.08,1.58c-.2,.14-.47,.26-.81,.35s-.69,.13-1.01,.13c-.91,0-1.6-.29-2.09-.86s-.64-1.46-.45-2.66l1.15-7.7h-2.02l.26-1.71h2.02l.46-3.06h2.31Z" fill="#231f20"/><path d="M187.58,52.06c-1.75,0-3.06-.59-3.94-1.77s-1.18-2.7-.9-4.57l.08-.52c.27-1.89,1.02-3.41,2.23-4.57s2.59-1.73,4.13-1.73c1.63,0,2.81,.54,3.53,1.61s.95,2.46,.69,4.18l-.18,1.22h-8.2c-.18,1.34-.05,2.4,.4,3.18s1.25,1.17,2.43,1.17c.75,0,1.45-.11,2.09-.34s1.2-.53,1.67-.91l.68,1.5c-.52,.44-1.17,.81-1.96,1.11s-1.71,.45-2.75,.45Zm1.34-11.34c-.77,0-1.47,.31-2.1,.94s-1.08,1.41-1.35,2.37l.02,.07h5.71l.02-.19c.14-.95,.03-1.71-.33-2.3s-1.02-.88-1.97-.88Z" fill="#231f20"/><path d="M202.52,41.17l-1.17-.07c-.6,0-1.13,.15-1.59,.45s-.85,.72-1.17,1.27l-1.35,8.99h-2.31l1.9-12.68h2.06l-.05,1.79c.45-.64,.97-1.14,1.55-1.49s1.21-.53,1.91-.53c.16,0,.33,.01,.49,.04s.29,.06,.38,.09l-.64,2.14Z" fill="#231f20"/><path d="M220.98,45.95c-.29,1.9-.95,3.39-1.97,4.48s-2.32,1.63-3.87,1.63c-.76,0-1.41-.14-1.97-.42s-1-.69-1.35-1.22l-.94,6.27h-2.31l2.62-17.55h1.77l.12,1.64c.51-.61,1.09-1.07,1.76-1.39s1.41-.48,2.23-.48c1.51,0,2.62,.63,3.33,1.89s.92,2.9,.62,4.92l-.04,.25Zm-2.27-.25c.23-1.49,.12-2.69-.3-3.59s-1.2-1.35-2.31-1.35c-.64,0-1.22,.15-1.74,.46s-.97,.73-1.35,1.26l-.91,6.09c.22,.52,.54,.93,.96,1.22s.97,.44,1.65,.44c1.05,0,1.92-.4,2.63-1.21s1.15-1.84,1.34-3.09l.04-.25Z" fill="#231f20"/><path d="M227.39,47.11l.18,1.59h.07s4.55-9.57,4.55-9.57h2.57l-7.52,14.62c-.45,.85-1.03,1.59-1.72,2.23s-1.54,.95-2.56,.95c-.18,0-.41-.02-.69-.06s-.5-.08-.66-.12l.5-1.82s.12,0,.43,.02,.51,.04,.59,.04c.47,0,.9-.23,1.31-.69s.74-.93,1-1.42l.76-1.32-2.86-12.42h2.58l1.48,7.98Z" fill="#231f20"/><path d="M237.37,51.81h-2.31l2.74-18.28h2.31l-2.74,18.28Z" fill="#231f20"/><path d="M241.36,45.35c.29-1.95,1.03-3.51,2.21-4.69s2.65-1.77,4.41-1.77,2.97,.61,3.84,1.83,1.17,2.76,.9,4.62l-.05,.26c-.3,1.96-1.04,3.53-2.21,4.69s-2.65,1.75-4.42,1.75-2.97-.61-3.84-1.83-1.17-2.76-.88-4.62l.05-.26Zm2.26,.26c-.21,1.39-.1,2.51,.34,3.36s1.22,1.28,2.34,1.28c1.05,0,1.94-.44,2.67-1.33s1.19-1.99,1.39-3.31l.05-.26c.2-1.38,.08-2.49-.36-3.35s-1.22-1.29-2.34-1.29-1.96,.45-2.68,1.34-1.18,1.99-1.37,3.3l-.05,.26Z" fill="#231f20"/><path d="M262.16,41.17l-1.17-.07c-.6,0-1.13,.15-1.59,.45s-.85,.72-1.17,1.27l-1.35,8.99h-2.31l1.9-12.68h2.06l-.05,1.79c.45-.64,.97-1.14,1.55-1.49s1.21-.53,1.91-.53c.16,0,.33,.01,.49,.04s.29,.06,.38,.09l-.64,2.14Z" fill="#231f20"/><path d="M265.46,51.81h-2.31l1.9-12.68h2.31l-1.9,12.68Zm2.39-15.93h-2.31l.35-2.36h2.31l-.35,2.36Z" fill="#231f20"/><path d="M277.93,53.61h-10.82l.27-1.8h10.82l-.27,1.8Z" fill="#231f20"/><path d="M293.22,46.35l.02,.07c-.22,1.66-.98,3.02-2.29,4.07s-2.91,1.57-4.83,1.57-3.3-.69-4.35-2.07-1.42-3.11-1.1-5.19l.46-3.04c.32-2.18,1.18-3.94,2.59-5.27s3.09-2,5.04-2,3.3,.52,4.32,1.55,1.39,2.39,1.11,4.07l-.04,.07h-2.21c.18-1.24-.03-2.2-.62-2.87s-1.54-1.01-2.84-1.01-2.33,.53-3.28,1.58-1.54,2.33-1.76,3.85l-.46,3.06c-.25,1.62-.07,2.93,.54,3.94s1.57,1.51,2.87,1.51c1.23,0,2.27-.35,3.09-1.05s1.34-1.65,1.52-2.85h2.2Z" fill="#231f20"/><path d="M304.9,34.75h2.31l-1.82,12.12c-.25,1.65-.92,2.93-2.01,3.83s-2.41,1.36-3.97,1.36-2.68-.42-3.51-1.26-1.11-2.05-.84-3.63l.02-.06h2.23c-.16,1.1-.04,1.9,.37,2.4s1.08,.74,2,.74c.82,0,1.55-.31,2.2-.93s1.04-1.44,1.2-2.46l1.82-12.12Z" fill="#231f20"/></g></g></g><g><g id="ew"><path d="M29.38,72.68h22.85" fill="none" stroke="#16ae7a" stroke-linecap="round" stroke-linejoin="round" stroke-width="1.5"/><path id="ex" d="M40.8,76.72l4.04-4.04-4.04-4.04-4.04,4.04,4.04,4.04Z" fill="#16ae7a" stroke="#16ae7a"/></g><g id="ey"><g isolation="isolate"><path d="M80.35,79.69h-2.31l1.12-7.54h-8.29l-1.12,7.54h-2.31l2.55-17.06h2.31l-1.16,7.71h8.29l1.16-7.71h2.31l-2.55,17.06Z" fill="#231f20"/><path d="M89.24,79.94c-1.75,0-3.06-.59-3.94-1.77s-1.18-2.7-.9-4.57l.08-.52c.27-1.89,1.02-3.41,2.23-4.57s2.59-1.73,4.13-1.73c1.63,0,2.81,.54,3.53,1.61s.95,2.46,.69,4.18l-.18,1.22h-8.2c-.18,1.34-.05,2.4,.4,3.18s1.25,1.17,2.43,1.17c.75,0,1.45-.11,2.09-.34s1.2-.53,1.67-.91l.68,1.5c-.52,.44-1.17,.81-1.96,1.11s-1.71,.45-2.75,.45Zm1.34-11.34c-.77,0-1.47,.31-2.1,.94s-1.08,1.41-1.35,2.37l.02,.07h5.71l.02-.19c.14-.95,.03-1.71-.33-2.3s-1.02-.88-1.97-.88Z" fill="#231f20"/><path d="M99.08,79.69h-2.31l2.74-18.28h2.31l-2.74,18.28Z" fill="#231f20"/><path d="M105.13,79.69h-2.31l1.9-12.68h2.31l-1.9,12.68Zm2.39-15.93h-2.31l.35-2.36h2.31l-.35,2.36Z" fill="#231f20"/><path d="M113.95,78.14c.68,0,1.33-.24,1.94-.71s.97-1.05,1.08-1.73h2.09l.02,.07c-.14,1.14-.75,2.12-1.83,2.95s-2.27,1.24-3.57,1.24c-1.7,0-2.97-.61-3.79-1.83s-1.1-2.72-.84-4.51l.07-.49c.28-1.85,.99-3.37,2.13-4.55s2.61-1.78,4.39-1.78c1.37,0,2.45,.44,3.25,1.32s1.08,1.96,.86,3.22l-.02,.06h-2.11c.12-.8-.03-1.47-.45-2s-1.01-.79-1.79-.79c-1.09,0-1.97,.45-2.65,1.34s-1.11,1.95-1.29,3.17l-.07,.49c-.2,1.31-.11,2.4,.27,3.25s1.15,1.28,2.31,1.28Z" fill="#231f20"/><path d="M121.67,73.24c.29-1.95,1.03-3.51,2.21-4.69s2.65-1.77,4.41-1.77,2.97,.61,3.84,1.83,1.17,2.76,.9,4.62l-.05,.26c-.3,1.96-1.04,3.53-2.21,4.69s-2.65,1.75-4.42,1.75-2.97-.61-3.84-1.83-1.17-2.76-.88-4.62l.05-.26Zm2.26,.26c-.21,1.39-.1,2.51,.34,3.36s1.22,1.28,2.34,1.28c1.05,0,1.94-.44,2.67-1.33s1.19-1.99,1.39-3.31l.05-.26c.2-1.38,.08-2.49-.36-3.35s-1.22-1.29-2.34-1.29-1.96,.45-2.68,1.34-1.18,1.99-1.37,3.3l-.05,.26Z" fill="#231f20"/><path d="M146.59,73.84c-.29,1.9-.95,3.39-1.98,4.48s-2.32,1.63-3.88,1.63c-.82,0-1.52-.17-2.09-.52s-1.02-.85-1.34-1.51l-.66,1.78h-1.77l2.74-18.28h2.31l-1.07,7.1c.49-.56,1.05-.99,1.69-1.29s1.34-.45,2.12-.45c1.5,0,2.61,.63,3.32,1.89s.92,2.9,.63,4.92l-.04,.25Zm-2.27-.25c.23-1.51,.14-2.71-.26-3.6s-1.15-1.34-2.25-1.34c-.69,0-1.31,.18-1.86,.53s-1.02,.83-1.4,1.44l-.82,5.46c.2,.62,.52,1.11,.95,1.46s1.01,.52,1.75,.52c1.05,0,1.9-.39,2.57-1.18s1.1-1.8,1.28-3.05l.04-.25Z" fill="#231f20"/><path d="M156.31,79.69c-.02-.44-.02-.79-.02-1.06s.02-.54,.05-.83c-.52,.6-1.16,1.11-1.92,1.52s-1.53,.62-2.31,.62c-1.27,0-2.22-.34-2.83-1.03s-.83-1.61-.65-2.78c.18-1.25,.8-2.21,1.88-2.87s2.46-1,4.16-1h2.51l.19-1.25c.12-.77-.02-1.37-.4-1.79s-1-.63-1.83-.63c-.71,0-1.34,.19-1.88,.56s-.84,.82-.91,1.35l-2.2,.02v-.07c.08-.96,.64-1.81,1.66-2.56s2.27-1.12,3.73-1.12c1.38,0,2.47,.37,3.26,1.11s1.09,1.79,.89,3.15l-.91,6.11c-.08,.48-.12,.92-.13,1.33s.01,.82,.08,1.22h-2.38Zm-3.57-1.69c.8,0,1.57-.22,2.32-.66s1.27-.93,1.56-1.48l.32-2.05h-2.59c-.9,0-1.67,.24-2.32,.71s-1.02,1.02-1.1,1.64c-.09,.59,0,1.04,.31,1.35s.8,.47,1.51,.47Z" fill="#231f20"/><path d="M166.99,78.14c.68,0,1.33-.24,1.94-.71s.97-1.05,1.08-1.73h2.09l.02,.07c-.14,1.14-.75,2.12-1.83,2.95s-2.27,1.24-3.57,1.24c-1.7,0-2.97-.61-3.79-1.83s-1.1-2.72-.84-4.51l.07-.49c.28-1.85,.99-3.37,2.13-4.55s2.61-1.78,4.39-1.78c1.37,0,2.45,.44,3.25,1.32s1.08,1.96,.86,3.22l-.02,.06h-2.11c.12-.8-.03-1.47-.45-2s-1.01-.79-1.79-.79c-1.09,0-1.97,.45-2.65,1.34s-1.11,1.95-1.29,3.17l-.07,.49c-.2,1.31-.11,2.4,.27,3.25s1.15,1.28,2.31,1.28Z" fill="#231f20"/><path d="M179.84,63.96l-.46,3.06h2.4l-.26,1.71h-2.4l-1.15,7.7c-.09,.62-.04,1.04,.17,1.27s.52,.35,.93,.35c.12,0,.28-.02,.45-.05s.32-.07,.43-.11l.08,1.58c-.2,.14-.47,.26-.81,.35s-.69,.13-1.01,.13c-.91,0-1.6-.29-2.09-.86s-.64-1.46-.45-2.66l1.15-7.7h-2.02l.26-1.71h2.02l.46-3.06h2.31Z" fill="#231f20"/><path d="M187.58,79.94c-1.75,0-3.06-.59-3.94-1.77s-1.18-2.7-.9-4.57l.08-.52c.27-1.89,1.02-3.41,2.23-4.57s2.59-1.73,4.13-1.73c1.63,0,2.81,.54,3.53,1.61s.95,2.46,.69,4.18l-.18,1.22h-8.2c-.18,1.34-.05,2.4,.4,3.18s1.25,1.17,2.43,1.17c.75,0,1.45-.11,2.09-.34s1.2-.53,1.67-.91l.68,1.5c-.52,.44-1.17,.81-1.96,1.11s-1.71,.45-2.75,.45Zm1.34-11.34c-.77,0-1.47,.31-2.1,.94s-1.08,1.41-1.35,2.37l.02,.07h5.71l.02-.19c.14-.95,.03-1.71-.33-2.3s-1.02-.88-1.97-.88Z" fill="#231f20"/><path d="M202.52,69.05l-1.17-.07c-.6,0-1.13,.15-1.59,.45s-.85,.72-1.17,1.27l-1.35,8.99h-2.31l1.9-12.68h2.06l-.05,1.79c.45-.64,.97-1.14,1.55-1.49s1.21-.53,1.91-.53c.16,0,.33,.01,.49,.04s.29,.06,.38,.09l-.64,2.14Z" fill="#231f20"/><path d="M220.98,73.84c-.29,1.9-.95,3.39-1.97,4.48s-2.32,1.63-3.87,1.63c-.76,0-1.41-.14-1.97-.42s-1-.69-1.35-1.22l-.94,6.27h-2.31l2.62-17.55h1.77l.12,1.64c.51-.61,1.09-1.07,1.76-1.39s1.41-.48,2.23-.48c1.51,0,2.62,.63,3.33,1.89s.92,2.9,.62,4.92l-.04,.25Zm-2.27-.25c.23-1.49,.12-2.69-.3-3.59s-1.2-1.35-2.31-1.35c-.64,0-1.22,.15-1.74,.46s-.97,.73-1.35,1.26l-.91,6.09c.22,.52,.54,.93,.96,1.22s.97,.44,1.65,.44c1.05,0,1.92-.4,2.63-1.21s1.15-1.84,1.34-3.09l.04-.25Z" fill="#231f20"/><path d="M227.39,75l.18,1.59h.07s4.55-9.57,4.55-9.57h2.57l-7.52,14.62c-.45,.85-1.03,1.59-1.72,2.23s-1.54,.95-2.56,.95c-.18,0-.41-.02-.69-.06s-.5-.08-.66-.12l.5-1.82s.12,0,.43,.02,.51,.04,.59,.04c.47,0,.9-.23,1.31-.69s.74-.93,1-1.42l.76-1.32-2.86-12.42h2.58l1.48,7.98Z" fill="#231f20"/><path d="M237.37,79.69h-2.31l2.74-18.28h2.31l-2.74,18.28Z" fill="#231f20"/><path d="M241.36,73.24c.29-1.95,1.03-3.51,2.21-4.69s2.65-1.77,4.41-1.77,2.97,.61,3.84,1.83,1.17,2.76,.9,4.62l-.05,.26c-.3,1.96-1.04,3.53-2.21,4.69s-2.65,1.75-4.42,1.75-2.97-.61-3.84-1.83-1.17-2.76-.88-4.62l.05-.26Zm2.26,.26c-.21,1.39-.1,2.51,.34,3.36s1.22,1.28,2.34,1.28c1.05,0,1.94-.44,2.67-1.33s1.19-1.99,1.39-3.31l.05-.26c.2-1.38,.08-2.49-.36-3.35s-1.22-1.29-2.34-1.29-1.96,.45-2.68,1.34-1.18,1.99-1.37,3.3l-.05,.26Z" fill="#231f20"/><path d="M262.16,69.05l-1.17-.07c-.6,0-1.13,.15-1.59,.45s-.85,.72-1.17,1.27l-1.35,8.99h-2.31l1.9-12.68h2.06l-.05,1.79c.45-.64,.97-1.14,1.55-1.49s1.21-.53,1.91-.53c.16,0,.33,.01,.49,.04s.29,.06,.38,.09l-.64,2.14Z" fill="#231f20"/><path d="M265.46,79.69h-2.31l1.9-12.68h2.31l-1.9,12.68Zm2.39-15.93h-2.31l.35-2.36h2.31l-.35,2.36Z" fill="#231f20"/><path d="M277.93,81.5h-10.82l.27-1.8h10.82l-.27,1.8Z" fill="#231f20"/><path d="M293.22,74.23l.02,.07c-.22,1.66-.98,3.02-2.29,4.07s-2.91,1.57-4.83,1.57-3.3-.69-4.35-2.07-1.42-3.11-1.1-5.19l.46-3.04c.32-2.18,1.18-3.94,2.59-5.27s3.09-2,5.04-2,3.3,.52,4.32,1.55,1.39,2.39,1.11,4.07l-.04,.07h-2.21c.18-1.24-.03-2.2-.62-2.87s-1.54-1.01-2.84-1.01-2.33,.53-3.28,1.58-1.54,2.33-1.76,3.85l-.46,3.06c-.25,1.62-.07,2.93,.54,3.94s1.57,1.51,2.87,1.51c1.23,0,2.27-.35,3.09-1.05s1.34-1.65,1.52-2.85h2.2Z" fill="#231f20"/><path d="M308.05,77.4c-.5,.63-1.29,1.21-2.38,1.75s-2.43,.8-4.02,.8c-1.9,0-3.41-.66-4.54-1.97s-1.54-3-1.22-5.04l.53-3.52c.32-2.15,1.19-3.86,2.61-5.12s3.12-1.9,5.11-1.9c1.82,0,3.22,.51,4.21,1.54s1.35,2.3,1.08,3.84l-.04,.07h-2.21c.16-1.07-.05-1.94-.62-2.62s-1.47-1.01-2.71-1.01-2.36,.49-3.33,1.48-1.57,2.22-1.79,3.7l-.53,3.54c-.24,1.57-.02,2.83,.68,3.79s1.71,1.43,3.04,1.43c.96,0,1.77-.13,2.43-.4s1.15-.58,1.48-.92l.57-3.84h-3.87l.27-1.8h6.18l-.94,6.23Z" fill="#231f20"/></g></g></g><g><g id="ez"><path d="M377.7,16.91h22.85" fill="none" stroke="#bc1e53" stroke-linecap="round" stroke-linejoin="round" stroke-width="1.5"/><path id="fa" d="M389.12,20.95l4.04-4.04-4.04-4.04-4.04,4.04,4.04,4.04Z" fill="#bc1e53" stroke="#bc1e53"/></g><g id="fb"><g isolation="isolate"><path d="M428.67,23.92h-2.31l1.12-7.54h-8.29l-1.12,7.54h-2.31l2.55-17.06h2.31l-1.16,7.71h8.29l1.16-7.71h2.31l-2.55,17.06Z" fill="#231f20"/><path d="M437.56,24.17c-1.75,0-3.06-.59-3.94-1.77s-1.18-2.7-.9-4.57l.08-.52c.27-1.89,1.02-3.41,2.23-4.57s2.59-1.73,4.13-1.73c1.63,0,2.81,.54,3.53,1.61s.95,2.46,.69,4.18l-.18,1.22h-8.2c-.18,1.34-.05,2.4,.4,3.18s1.25,1.17,2.43,1.17c.75,0,1.45-.11,2.09-.34s1.2-.53,1.67-.91l.68,1.5c-.52,.44-1.17,.81-1.96,1.11s-1.71,.45-2.75,.45Zm1.34-11.34c-.77,0-1.47,.31-2.1,.94s-1.08,1.41-1.35,2.37l.02,.07h5.71l.02-.19c.14-.95,.03-1.71-.33-2.3s-1.02-.88-1.97-.88Z" fill="#231f20"/><path d="M447.4,23.92h-2.31l2.74-18.28h2.31l-2.74,18.28Z" fill="#231f20"/><path d="M453.45,23.92h-2.31l1.9-12.68h2.31l-1.9,12.68Zm2.39-15.93h-2.31l.35-2.36h2.31l-.35,2.36Z" fill="#231f20"/><path d="M462.27,22.37c.68,0,1.33-.24,1.94-.71s.97-1.05,1.08-1.73h2.09l.02,.07c-.14,1.14-.75,2.12-1.83,2.95s-2.27,1.24-3.57,1.24c-1.7,0-2.97-.61-3.79-1.83s-1.1-2.72-.84-4.51l.07-.49c.28-1.85,.99-3.37,2.13-4.55s2.61-1.78,4.39-1.78c1.37,0,2.45,.44,3.25,1.32s1.08,1.96,.86,3.22l-.02,.06h-2.11c.12-.8-.03-1.47-.45-2s-1.01-.79-1.79-.79c-1.09,0-1.97,.45-2.65,1.34s-1.11,1.95-1.29,3.17l-.07,.49c-.2,1.31-.11,2.4,.27,3.25s1.15,1.28,2.31,1.28Z" fill="#231f20"/><path d="M469.99,17.47c.29-1.95,1.03-3.51,2.21-4.69s2.65-1.77,4.41-1.77,2.97,.61,3.84,1.83,1.17,2.76,.9,4.62l-.05,.26c-.3,1.96-1.04,3.53-2.21,4.69s-2.65,1.75-4.42,1.75-2.97-.61-3.84-1.83-1.17-2.76-.88-4.62l.05-.26Zm2.26,.26c-.21,1.39-.1,2.51,.34,3.36s1.22,1.28,2.34,1.28c1.05,0,1.94-.44,2.67-1.33s1.19-1.99,1.39-3.31l.05-.26c.2-1.38,.08-2.49-.36-3.35s-1.22-1.29-2.34-1.29-1.96,.45-2.68,1.34-1.18,1.99-1.37,3.3l-.05,.26Z" fill="#231f20"/><path d="M494.91,18.06c-.29,1.9-.95,3.39-1.98,4.48s-2.32,1.63-3.88,1.63c-.82,0-1.52-.17-2.09-.52s-1.02-.85-1.34-1.51l-.66,1.78h-1.77l2.74-18.28h2.31l-1.07,7.1c.49-.56,1.05-.99,1.69-1.29s1.34-.45,2.12-.45c1.5,0,2.61,.63,3.32,1.89s.92,2.9,.63,4.92l-.04,.25Zm-2.27-.25c.23-1.51,.14-2.71-.26-3.6s-1.15-1.34-2.25-1.34c-.69,0-1.31,.18-1.86,.53s-1.02,.83-1.4,1.44l-.82,5.46c.2,.62,.52,1.11,.95,1.46s1.01,.52,1.75,.52c1.05,0,1.9-.39,2.57-1.18s1.1-1.8,1.28-3.05l.04-.25Z" fill="#231f20"/><path d="M504.63,23.92c-.02-.44-.02-.79-.02-1.06s.02-.54,.05-.83c-.52,.6-1.16,1.11-1.92,1.52s-1.53,.62-2.31,.62c-1.27,0-2.22-.34-2.83-1.03s-.83-1.61-.65-2.78c.18-1.25,.8-2.21,1.88-2.87s2.46-1,4.16-1h2.51l.19-1.25c.12-.77-.02-1.37-.4-1.79s-1-.63-1.83-.63c-.71,0-1.34,.19-1.88,.56s-.84,.82-.91,1.35l-2.2,.02v-.07c.08-.96,.64-1.81,1.66-2.56s2.27-1.12,3.73-1.12c1.38,0,2.47,.37,3.26,1.11s1.09,1.79,.89,3.15l-.91,6.11c-.08,.48-.12,.92-.13,1.33s.01,.82,.08,1.22h-2.38Zm-3.57-1.69c.8,0,1.57-.22,2.32-.66s1.27-.93,1.56-1.48l.32-2.05h-2.59c-.9,0-1.67,.24-2.32,.71s-1.02,1.02-1.1,1.64c-.09,.59,0,1.04,.31,1.35s.8,.47,1.51,.47Z" fill="#231f20"/><path d="M515.31,22.37c.68,0,1.33-.24,1.94-.71s.97-1.05,1.08-1.73h2.09l.02,.07c-.14,1.14-.75,2.12-1.83,2.95s-2.27,1.24-3.57,1.24c-1.7,0-2.97-.61-3.79-1.83s-1.1-2.72-.84-4.51l.07-.49c.28-1.85,.99-3.37,2.13-4.55s2.61-1.78,4.39-1.78c1.37,0,2.45,.44,3.25,1.32s1.08,1.96,.86,3.22l-.02,.06h-2.11c.12-.8-.03-1.47-.45-2s-1.01-.79-1.79-.79c-1.09,0-1.97,.45-2.65,1.34s-1.11,1.95-1.29,3.17l-.07,.49c-.2,1.31-.11,2.4,.27,3.25s1.15,1.28,2.31,1.28Z" fill="#231f20"/><path d="M528.16,8.19l-.46,3.06h2.4l-.26,1.71h-2.4l-1.15,7.7c-.09,.62-.04,1.04,.17,1.27s.52,.35,.93,.35c.12,0,.28-.02,.45-.05s.32-.07,.43-.11l.08,1.58c-.2,.14-.47,.26-.81,.35s-.69,.13-1.01,.13c-.91,0-1.6-.29-2.09-.86s-.64-1.46-.45-2.66l1.15-7.7h-2.02l.26-1.71h2.02l.46-3.06h2.31Z" fill="#231f20"/><path d="M535.9,24.17c-1.75,0-3.06-.59-3.94-1.77s-1.18-2.7-.9-4.57l.08-.52c.27-1.89,1.02-3.41,2.23-4.57s2.59-1.73,4.13-1.73c1.63,0,2.81,.54,3.53,1.61s.95,2.46,.69,4.18l-.18,1.22h-8.2c-.18,1.34-.05,2.4,.4,3.18s1.25,1.17,2.43,1.17c.75,0,1.45-.11,2.09-.34s1.2-.53,1.67-.91l.68,1.5c-.52,.44-1.17,.81-1.96,1.11s-1.71,.45-2.75,.45Zm1.34-11.34c-.77,0-1.47,.31-2.1,.94s-1.08,1.41-1.35,2.37l.02,.07h5.71l.02-.19c.14-.95,.03-1.71-.33-2.3s-1.02-.88-1.97-.88Z" fill="#231f20"/><path d="M550.84,13.28l-1.17-.07c-.6,0-1.13,.15-1.59,.45s-.85,.72-1.17,1.27l-1.35,8.99h-2.31l1.9-12.68h2.06l-.05,1.79c.45-.64,.97-1.14,1.55-1.49s1.21-.53,1.91-.53c.16,0,.33,.01,.49,.04s.29,.06,.38,.09l-.64,2.14Z" fill="#231f20"/><path d="M569.3,18.06c-.29,1.9-.95,3.39-1.97,4.48s-2.32,1.63-3.87,1.63c-.76,0-1.41-.14-1.97-.42s-1-.69-1.35-1.22l-.94,6.27h-2.31l2.62-17.55h1.77l.12,1.64c.51-.61,1.09-1.07,1.76-1.39s1.41-.48,2.23-.48c1.51,0,2.62,.63,3.33,1.89s.92,2.9,.62,4.92l-.04,.25Zm-2.27-.25c.23-1.49,.12-2.69-.3-3.59s-1.2-1.35-2.31-1.35c-.64,0-1.22,.15-1.74,.46s-.97,.73-1.35,1.26l-.91,6.09c.22,.52,.54,.93,.96,1.22s.97,.44,1.65,.44c1.05,0,1.92-.4,2.63-1.21s1.15-1.84,1.34-3.09l.04-.25Z" fill="#231f20"/><path d="M575.71,19.22l.18,1.59h.07s4.55-9.57,4.55-9.57h2.57l-7.52,14.62c-.45,.85-1.03,1.59-1.72,2.23s-1.54,.95-2.56,.95c-.18,0-.41-.02-.69-.06s-.5-.08-.66-.12l.5-1.82s.12,0,.43,.02,.51,.04,.59,.04c.47,0,.9-.23,1.31-.69s.74-.93,1-1.42l.76-1.32-2.86-12.42h2.58l1.48,7.98Z" fill="#231f20"/><path d="M585.69,23.92h-2.31l2.74-18.28h2.31l-2.74,18.28Z" fill="#231f20"/><path d="M589.68,17.47c.29-1.95,1.03-3.51,2.21-4.69s2.65-1.77,4.41-1.77,2.97,.61,3.84,1.83,1.17,2.76,.9,4.62l-.05,.26c-.3,1.96-1.04,3.53-2.21,4.69s-2.65,1.75-4.42,1.75-2.97-.61-3.84-1.83-1.17-2.76-.88-4.62l.05-.26Zm2.26,.26c-.21,1.39-.1,2.51,.34,3.36s1.22,1.28,2.34,1.28c1.05,0,1.94-.44,2.67-1.33s1.19-1.99,1.39-3.31l.05-.26c.2-1.38,.08-2.49-.36-3.35s-1.22-1.29-2.34-1.29-1.96,.45-2.68,1.34-1.18,1.99-1.37,3.3l-.05,.26Z" fill="#231f20"/><path d="M610.48,13.28l-1.17-.07c-.6,0-1.13,.15-1.59,.45s-.85,.72-1.17,1.27l-1.35,8.99h-2.31l1.9-12.68h2.06l-.05,1.79c.45-.64,.97-1.14,1.55-1.49s1.21-.53,1.91-.53c.16,0,.33,.01,.49,.04s.29,.06,.38,.09l-.64,2.14Z" fill="#231f20"/><path d="M613.78,23.92h-2.31l1.9-12.68h2.31l-1.9,12.68Zm2.39-15.93h-2.31l.35-2.36h2.31l-.35,2.36Z" fill="#231f20"/><path d="M626.25,25.73h-10.82l.27-1.8h10.82l-.27,1.8Z" fill="#231f20"/><path d="M628.56,23.92l2.55-17.06h5.57c1.71,0,3.03,.39,3.96,1.17s1.28,1.93,1.05,3.45c-.12,.76-.44,1.43-.97,2s-1.2,1.02-1.99,1.31c1.09,.16,1.89,.65,2.42,1.46s.71,1.76,.56,2.85c-.25,1.62-.93,2.83-2.05,3.63s-2.56,1.19-4.32,1.19h-6.76Zm3.5-8l-.93,6.2h4.45c1.02,0,1.86-.26,2.54-.79s1.09-1.26,1.23-2.2c.14-.98-.04-1.75-.54-2.31s-1.26-.87-2.27-.9h-4.49Zm.27-1.8h3.75c.83,0,1.55-.24,2.18-.71s1-1.13,1.12-1.97c.14-.95-.04-1.65-.55-2.09s-1.32-.66-2.43-.66h-3.26l-.82,5.44Z" fill="#231f20"/><path d="M658.96,6.86l-1.7,11.33c-.29,1.95-1.11,3.43-2.47,4.45s-3.01,1.53-4.96,1.53c-1.79,0-3.21-.53-4.27-1.6s-1.44-2.53-1.16-4.38l1.7-11.33h2.31l-1.7,11.33c-.2,1.36,.01,2.39,.64,3.11s1.55,1.07,2.74,1.07,2.26-.37,3.18-1.11,1.47-1.76,1.67-3.06l1.7-11.33h2.31Z" fill="#231f20"/></g></g></g><g><g id="fc"><path d="M377.7,44.51h22.85" fill="none" stroke="#4f2d83" stroke-linecap="round" stroke-linejoin="round" stroke-width="1.5"/><path id="fd" d="M389.12,48.55l4.04-4.04-4.04-4.04-4.04,4.04,4.04,4.04Z" fill="#4f2d83" stroke="#4f2d83"/></g><g id="fe"><g isolation="isolate"><path d="M428.67,51.53h-2.31l1.12-7.54h-8.29l-1.12,7.54h-2.31l2.55-17.06h2.31l-1.16,7.71h8.29l1.16-7.71h2.31l-2.55,17.06Z" fill="#231f20"/><path d="M437.56,51.77c-1.75,0-3.06-.59-3.94-1.77s-1.18-2.7-.9-4.57l.08-.52c.27-1.89,1.02-3.41,2.23-4.57s2.59-1.73,4.13-1.73c1.63,0,2.81,.54,3.53,1.61s.95,2.46,.69,4.18l-.18,1.22h-8.2c-.18,1.34-.05,2.4,.4,3.18s1.25,1.17,2.43,1.17c.75,0,1.45-.11,2.09-.34s1.2-.53,1.67-.91l.68,1.5c-.52,.44-1.17,.81-1.96,1.11s-1.71,.45-2.75,.45Zm1.34-11.34c-.77,0-1.47,.31-2.1,.94s-1.08,1.41-1.35,2.37l.02,.07h5.71l.02-.19c.14-.95,.03-1.71-.33-2.3s-1.02-.88-1.97-.88Z" fill="#231f20"/><path d="M447.4,51.53h-2.31l2.74-18.28h2.31l-2.74,18.28Z" fill="#231f20"/><path d="M453.45,51.53h-2.31l1.9-12.68h2.31l-1.9,12.68Zm2.39-15.93h-2.31l.35-2.36h2.31l-.35,2.36Z" fill="#231f20"/><path d="M462.27,49.97c.68,0,1.33-.24,1.94-.71s.97-1.05,1.08-1.73h2.09l.02,.07c-.14,1.14-.75,2.12-1.83,2.95s-2.27,1.24-3.57,1.24c-1.7,0-2.97-.61-3.79-1.83s-1.1-2.72-.84-4.51l.07-.49c.28-1.85,.99-3.37,2.13-4.55s2.61-1.78,4.39-1.78c1.37,0,2.45,.44,3.25,1.32s1.08,1.96,.86,3.22l-.02,.06h-2.11c.12-.8-.03-1.47-.45-2s-1.01-.79-1.79-.79c-1.09,0-1.97,.45-2.65,1.34s-1.11,1.95-1.29,3.17l-.07,.49c-.2,1.31-.11,2.4,.27,3.25s1.15,1.28,2.31,1.28Z" fill="#231f20"/><path d="M469.99,45.07c.29-1.95,1.03-3.51,2.21-4.69s2.65-1.77,4.41-1.77,2.97,.61,3.84,1.83,1.17,2.76,.9,4.62l-.05,.26c-.3,1.96-1.04,3.53-2.21,4.69s-2.65,1.75-4.42,1.75-2.97-.61-3.84-1.83-1.17-2.76-.88-4.62l.05-.26Zm2.26,.26c-.21,1.39-.1,2.51,.34,3.36s1.22,1.28,2.34,1.28c1.05,0,1.94-.44,2.67-1.33s1.19-1.99,1.39-3.31l.05-.26c.2-1.38,.08-2.49-.36-3.35s-1.22-1.29-2.34-1.29-1.96,.45-2.68,1.34-1.18,1.99-1.37,3.3l-.05,.26Z" fill="#231f20"/><path d="M494.91,45.67c-.29,1.9-.95,3.39-1.98,4.48s-2.32,1.63-3.88,1.63c-.82,0-1.52-.17-2.09-.52s-1.02-.85-1.34-1.51l-.66,1.78h-1.77l2.74-18.28h2.31l-1.07,7.1c.49-.56,1.05-.99,1.69-1.29s1.34-.45,2.12-.45c1.5,0,2.61,.63,3.32,1.89s.92,2.9,.63,4.92l-.04,.25Zm-2.27-.25c.23-1.51,.14-2.71-.26-3.6s-1.15-1.34-2.25-1.34c-.69,0-1.31,.18-1.86,.53s-1.02,.83-1.4,1.44l-.82,5.46c.2,.62,.52,1.11,.95,1.46s1.01,.52,1.75,.52c1.05,0,1.9-.39,2.57-1.18s1.1-1.8,1.28-3.05l.04-.25Z" fill="#231f20"/><path d="M504.63,51.53c-.02-.44-.02-.79-.02-1.06s.02-.54,.05-.83c-.52,.6-1.16,1.11-1.92,1.52s-1.53,.62-2.31,.62c-1.27,0-2.22-.34-2.83-1.03s-.83-1.61-.65-2.78c.18-1.25,.8-2.21,1.88-2.87s2.46-1,4.16-1h2.51l.19-1.25c.12-.77-.02-1.37-.4-1.79s-1-.63-1.83-.63c-.71,0-1.34,.19-1.88,.56s-.84,.82-.91,1.35l-2.2,.02v-.07c.08-.96,.64-1.81,1.66-2.56s2.27-1.12,3.73-1.12c1.38,0,2.47,.37,3.26,1.11s1.09,1.79,.89,3.15l-.91,6.11c-.08,.48-.12,.92-.13,1.33s.01,.82,.08,1.22h-2.38Zm-3.57-1.69c.8,0,1.57-.22,2.32-.66s1.27-.93,1.56-1.48l.32-2.05h-2.59c-.9,0-1.67,.24-2.32,.71s-1.02,1.02-1.1,1.64c-.09,.59,0,1.04,.31,1.35s.8,.47,1.51,.47Z" fill="#231f20"/><path d="M515.31,49.97c.68,0,1.33-.24,1.94-.71s.97-1.05,1.08-1.73h2.09l.02,.07c-.14,1.14-.75,2.12-1.83,2.95s-2.27,1.24-3.57,1.24c-1.7,0-2.97-.61-3.79-1.83s-1.1-2.72-.84-4.51l.07-.49c.28-1.85,.99-3.37,2.13-4.55s2.61-1.78,4.39-1.78c1.37,0,2.45,.44,3.25,1.32s1.08,1.96,.86,3.22l-.02,.06h-2.11c.12-.8-.03-1.47-.45-2s-1.01-.79-1.79-.79c-1.09,0-1.97,.45-2.65,1.34s-1.11,1.95-1.29,3.17l-.07,.49c-.2,1.31-.11,2.4,.27,3.25s1.15,1.28,2.31,1.28Z" fill="#231f20"/><path d="M528.16,35.79l-.46,3.06h2.4l-.26,1.71h-2.4l-1.15,7.7c-.09,.62-.04,1.04,.17,1.27s.52,.35,.93,.35c.12,0,.28-.02,.45-.05s.32-.07,.43-.11l.08,1.58c-.2,.14-.47,.26-.81,.35s-.69,.13-1.01,.13c-.91,0-1.6-.29-2.09-.86s-.64-1.46-.45-2.66l1.15-7.7h-2.02l.26-1.71h2.02l.46-3.06h2.31Z" fill="#231f20"/><path d="M535.9,51.77c-1.75,0-3.06-.59-3.94-1.77s-1.18-2.7-.9-4.57l.08-.52c.27-1.89,1.02-3.41,2.23-4.57s2.59-1.73,4.13-1.73c1.63,0,2.81,.54,3.53,1.61s.95,2.46,.69,4.18l-.18,1.22h-8.2c-.18,1.34-.05,2.4,.4,3.18s1.25,1.17,2.43,1.17c.75,0,1.45-.11,2.09-.34s1.2-.53,1.67-.91l.68,1.5c-.52,.44-1.17,.81-1.96,1.11s-1.71,.45-2.75,.45Zm1.34-11.34c-.77,0-1.47,.31-2.1,.94s-1.08,1.41-1.35,2.37l.02,.07h5.71l.02-.19c.14-.95,.03-1.71-.33-2.3s-1.02-.88-1.97-.88Z" fill="#231f20"/><path d="M550.84,40.88l-1.17-.07c-.6,0-1.13,.15-1.59,.45s-.85,.72-1.17,1.27l-1.35,8.99h-2.31l1.9-12.68h2.06l-.05,1.79c.45-.64,.97-1.14,1.55-1.49s1.21-.53,1.91-.53c.16,0,.33,.01,.49,.04s.29,.06,.38,.09l-.64,2.14Z" fill="#231f20"/><path d="M569.3,45.67c-.29,1.9-.95,3.39-1.97,4.48s-2.32,1.63-3.87,1.63c-.76,0-1.41-.14-1.97-.42s-1-.69-1.35-1.22l-.94,6.27h-2.31l2.62-17.55h1.77l.12,1.64c.51-.61,1.09-1.07,1.76-1.39s1.41-.48,2.23-.48c1.51,0,2.62,.63,3.33,1.89s.92,2.9,.62,4.92l-.04,.25Zm-2.27-.25c.23-1.49,.12-2.69-.3-3.59s-1.2-1.35-2.31-1.35c-.64,0-1.22,.15-1.74,.46s-.97,.73-1.35,1.26l-.91,6.09c.22,.52,.54,.93,.96,1.22s.97,.44,1.65,.44c1.05,0,1.92-.4,2.63-1.21s1.15-1.84,1.34-3.09l.04-.25Z" fill="#231f20"/><path d="M575.71,46.83l.18,1.59h.07s4.55-9.57,4.55-9.57h2.57l-7.52,14.62c-.45,.85-1.03,1.59-1.72,2.23s-1.54,.95-2.56,.95c-.18,0-.41-.02-.69-.06s-.5-.08-.66-.12l.5-1.82s.12,0,.43,.02,.51,.04,.59,.04c.47,0,.9-.23,1.31-.69s.74-.93,1-1.42l.76-1.32-2.86-12.42h2.58l1.48,7.98Z" fill="#231f20"/><path d="M585.69,51.53h-2.31l2.74-18.28h2.31l-2.74,18.28Z" fill="#231f20"/><path d="M589.68,45.07c.29-1.95,1.03-3.51,2.21-4.69s2.65-1.77,4.41-1.77,2.97,.61,3.84,1.83,1.17,2.76,.9,4.62l-.05,.26c-.3,1.96-1.04,3.53-2.21,4.69s-2.65,1.75-4.42,1.75-2.97-.61-3.84-1.83-1.17-2.76-.88-4.62l.05-.26Zm2.26,.26c-.21,1.39-.1,2.51,.34,3.36s1.22,1.28,2.34,1.28c1.05,0,1.94-.44,2.67-1.33s1.19-1.99,1.39-3.31l.05-.26c.2-1.38,.08-2.49-.36-3.35s-1.22-1.29-2.34-1.29-1.96,.45-2.68,1.34-1.18,1.99-1.37,3.3l-.05,.26Z" fill="#231f20"/><path d="M610.48,40.88l-1.17-.07c-.6,0-1.13,.15-1.59,.45s-.85,.72-1.17,1.27l-1.35,8.99h-2.31l1.9-12.68h2.06l-.05,1.79c.45-.64,.97-1.14,1.55-1.49s1.21-.53,1.91-.53c.16,0,.33,.01,.49,.04s.29,.06,.38,.09l-.64,2.14Z" fill="#231f20"/><path d="M613.78,51.53h-2.31l1.9-12.68h2.31l-1.9,12.68Zm2.39-15.93h-2.31l.35-2.36h2.31l-.35,2.36Z" fill="#231f20"/></g></g></g><g><g id="ff"><path d="M377.7,72.11h22.85" fill="none" stroke="rgba(236,28,36,.4)" stroke-dasharray="0 0 5.55 2.4" stroke-linejoin="round" stroke-width="1.5"/></g><g id="fg"><g isolation="isolate"><path d="M425.52,74.73h-6.42l-1.52,4.39h-2.36l6.15-17.06h1.98l6.02,17.06h-2.36l-1.5-4.39Zm-5.75-1.93h5.1l-2.48-7.32h-.07l-2.54,7.32Z" fill="#231f20"/><path d="M444.79,79.13h-2.31l-8.21-13.03-.07,.02v13.01h-2.31v-17.06h2.31l8.21,13.02,.07-.02v-13h2.31v17.06Z" fill="#231f20"/><path d="M451.34,79.13h-2.32v-17.06h2.32v17.06Z" fill="#231f20"/><path d="M463.84,71.73v7.39h-2.31v-17.05h5.84c1.87,0,3.29,.41,4.28,1.24s1.48,2.03,1.48,3.61c0,.88-.23,1.64-.69,2.29s-1.12,1.16-2,1.55c.94,.3,1.61,.8,2.02,1.48s.62,1.53,.62,2.54v1.61c0,.53,.06,1.01,.18,1.43s.32,.77,.61,1.03v.28h-2.38c-.3-.27-.5-.66-.59-1.17s-.13-1.05-.13-1.59v-1.56c0-.92-.27-1.66-.81-2.23s-1.26-.84-2.17-.84h-3.95Zm0-1.82h3.29c1.3,0,2.24-.25,2.82-.74s.86-1.25,.86-2.27c0-.96-.28-1.71-.84-2.23s-1.43-.79-2.61-.79h-3.53v6.04Z" fill="#231f20"/><path d="M484.28,79.13c-.08-.38-.14-.72-.18-1.01s-.07-.59-.08-.88c-.43,.61-.99,1.12-1.68,1.53s-1.44,.62-2.23,.62c-1.32,0-2.33-.34-3.02-1.01s-1.04-1.61-1.04-2.79,.49-2.16,1.47-2.84,2.31-1.03,3.99-1.03h2.51v-1.25c0-.74-.23-1.33-.68-1.76s-1.09-.65-1.92-.65c-.75,0-1.36,.19-1.82,.56s-.69,.82-.69,1.35l-2.19,.02-.02-.07c-.05-.92,.38-1.77,1.29-2.53s2.1-1.15,3.56-1.15,2.59,.37,3.47,1.1,1.31,1.78,1.31,3.16v6.11c0,.45,.02,.89,.07,1.31s.13,.84,.26,1.24h-2.38Zm-3.83-1.69c.84,0,1.59-.21,2.26-.64s1.11-.92,1.31-1.48v-2.06h-2.59c-.93,0-1.67,.23-2.23,.7s-.84,1.02-.84,1.65c0,.56,.18,1.01,.53,1.34s.87,.49,1.56,.49Z" fill="#231f20"/><path d="M489.15,73.02c0-2.04,.44-3.68,1.31-4.93s2.09-1.88,3.66-1.88c.74,0,1.4,.14,1.97,.41s1.06,.67,1.47,1.2v-6.97h2.31v18.28h-1.77l-.35-1.61c-.41,.61-.93,1.07-1.54,1.38s-1.32,.47-2.12,.47c-1.55,0-2.76-.56-3.63-1.68s-1.31-2.6-1.31-4.42v-.25Zm2.31,.25c0,1.28,.26,2.31,.79,3.08s1.34,1.15,2.44,1.15c.69,0,1.27-.16,1.73-.47s.85-.75,1.15-1.31v-5.92c-.3-.52-.68-.94-1.15-1.25s-1.04-.46-1.71-.46c-1.11,0-1.93,.46-2.46,1.37s-.79,2.1-.79,3.56v.25Z" fill="#231f20"/><path d="M505.82,63.2h-2.31v-2.36h2.31v2.36Zm0,15.93h-2.31v-12.68h2.31v12.68Z" fill="#231f20"/><path d="M517.42,77.25c-.4,.68-.91,1.2-1.54,1.57s-1.35,.55-2.17,.55c-1.38,0-2.46-.44-3.23-1.32s-1.16-2.26-1.16-4.12v-7.48h2.31v7.5c0,1.35,.2,2.28,.6,2.79s1.02,.76,1.86,.76,1.5-.17,2.03-.5,.94-.8,1.21-1.41v-9.14h2.31v12.68h-2.07l-.15-1.88Z" fill="#231f20"/><path d="M530.38,75.72c0-.51-.19-.92-.58-1.24s-1.12-.6-2.2-.84c-1.49-.32-2.64-.77-3.44-1.35s-1.2-1.35-1.2-2.32c0-1.03,.44-1.91,1.32-2.65s2.02-1.1,3.42-1.1,2.6,.39,3.49,1.17,1.32,1.69,1.28,2.73l-.02,.07h-2.2c0-.55-.24-1.04-.72-1.49s-1.09-.67-1.82-.67c-.81,0-1.42,.18-1.82,.55s-.6,.8-.6,1.31,.17,.89,.52,1.16,1.06,.52,2.15,.75c1.55,.33,2.73,.79,3.54,1.39s1.21,1.39,1.21,2.36c0,1.12-.46,2.04-1.37,2.75s-2.1,1.07-3.57,1.07c-1.62,0-2.89-.41-3.82-1.23s-1.37-1.78-1.32-2.87l.02-.07h2.2c.04,.82,.34,1.42,.91,1.8s1.24,.57,2,.57c.82,0,1.46-.17,1.93-.52s.7-.79,.7-1.33Z" fill="#231f20"/><path d="M538.08,68.86h-2.31v-2.37h2.31v2.37Zm0,10.27h-2.31v-2.37h2.31v2.37Z" fill="#231f20"/><path d="M551.78,77.57c1.11,0,2.01-.38,2.69-1.15s1.03-1.85,1.03-3.26v-1.45c-.38,.55-.84,.97-1.4,1.26s-1.17,.43-1.83,.43c-1.64,0-2.93-.51-3.86-1.52s-1.4-2.42-1.4-4.21,.5-3.12,1.49-4.21,2.22-1.63,3.68-1.63c1.7,0,3.07,.54,4.1,1.61s1.55,2.58,1.55,4.54v5.18c0,1.96-.56,3.49-1.69,4.59s-2.57,1.65-4.35,1.65c-.6,0-1.22-.06-1.85-.19s-1.22-.31-1.76-.55l.35-1.76c.52,.25,1.02,.43,1.52,.53s1.08,.16,1.74,.16Zm.48-5.98c.8,0,1.48-.18,2.03-.55s.95-.84,1.2-1.41v-2.02c0-1.27-.29-2.26-.86-2.95s-1.37-1.04-2.4-1.04c-.84,0-1.53,.37-2.09,1.12s-.84,1.72-.84,2.91,.26,2.12,.77,2.84,1.24,1.08,2.18,1.08Z" fill="#231f20"/><path d="M561.47,71.55l.98-9.48h8.54v2.05h-6.6l-.55,4.91c.37-.27,.77-.5,1.22-.67s.95-.27,1.52-.28c1.58-.02,2.81,.48,3.71,1.48s1.34,2.38,1.34,4.13-.46,3.09-1.38,4.12-2.26,1.56-4.01,1.56c-1.45,0-2.65-.39-3.61-1.18s-1.42-1.95-1.38-3.48l.02-.07h2.09c0,.93,.27,1.65,.8,2.16s1.23,.77,2.08,.77c.98,0,1.73-.34,2.27-1.03s.81-1.63,.81-2.82c0-1.09-.27-1.96-.81-2.64s-1.3-1.01-2.27-1.01c-.91,0-1.56,.14-1.97,.41s-.71,.7-.9,1.27l-1.91-.2Z" fill="#231f20"/><path d="M577.13,79.13h-2.31v-2.37h2.31v2.37Z" fill="#231f20"/><path d="M587.67,79.13h-2.32v-14.93l-3.71,.04v-1.78l6.04-.63v17.31Z" fill="#231f20"/><path d="M605.05,73.1c0,1.93-.49,3.46-1.47,4.58s-2.3,1.69-3.96,1.69-2.97-.56-3.96-1.69-1.48-2.65-1.48-4.58v-5.02c0-1.91,.49-3.44,1.47-4.57s2.29-1.7,3.94-1.7,2.98,.57,3.97,1.7,1.48,2.66,1.48,4.57v5.02Zm-2.31-5.5c0-1.23-.27-2.2-.82-2.91s-1.32-1.07-2.32-1.07-1.76,.36-2.3,1.07-.81,1.68-.81,2.91v5.96c0,1.23,.28,2.2,.83,2.92s1.32,1.08,2.3,1.08,1.77-.36,2.31-1.07,.81-1.69,.81-2.92v-5.96Z" fill="#231f20"/><path d="M607.59,65.35c0-.99,.32-1.83,.96-2.51s1.5-1.02,2.57-1.02,1.93,.34,2.57,1.01,.96,1.51,.96,2.51v.9c0,.99-.32,1.82-.96,2.5s-1.49,1.01-2.55,1.01-1.94-.34-2.58-1.01-.97-1.5-.97-2.5v-.9Zm1.71,.9c0,.58,.16,1.07,.47,1.47s.77,.6,1.37,.6,1.01-.2,1.32-.6,.47-.89,.47-1.48v-.9c0-.58-.16-1.07-.47-1.48s-.76-.62-1.34-.62-1.04,.21-1.35,.62-.47,.9-.47,1.48v.9Zm2.44,11.59l-1.28-.79,8.33-13.34,1.28,.79-8.33,13.34Zm4.11-2.89c0-.99,.32-1.83,.96-2.5s1.5-1.01,2.57-1.01,1.92,.34,2.56,1.01,.97,1.51,.97,2.5v.91c0,1-.32,1.84-.96,2.51s-1.49,1.01-2.54,1.01-1.94-.34-2.58-1.01-.97-1.51-.97-2.51v-.91Zm1.71,.91c0,.59,.16,1.08,.47,1.48s.77,.6,1.37,.6,1.01-.2,1.32-.6,.47-.9,.47-1.48v-.91c0-.58-.16-1.07-.48-1.48s-.77-.61-1.34-.61-1.03,.2-1.34,.61-.47,.9-.47,1.48v.91Z" fill="#231f20"/></g></g></g></g></g><g><path d="M105.83,147.48c-8.15,0-14.78,6.63-14.78,14.78s6.63,14.78,14.78,14.78,14.78-6.63,14.78-14.78-6.63-14.78-14.78-14.78Zm8.48,12.28l-9.28,9.28c-.39,.39-.92,.61-1.48,.61s-1.08-.22-1.48-.61l-4.73-4.73c-.39-.39-.61-.92-.61-1.48s.22-1.08,.61-1.48c.39-.39,.92-.61,1.48-.61s1.08,.22,1.48,.61l3.25,3.25,7.81-7.8c.39-.39,.92-.61,1.48-.61s1.08,.22,1.48,.61c.81,.81,.81,2.14,0,2.96Z" fill="#16ae7a"/><path d="M440.16,147.48c-8.15,0-14.78,6.63-14.78,14.78s6.63,14.78,14.78,14.78,14.78-6.63,14.78-14.78-6.63-14.78-14.78-14.78Zm8.48,12.28l-9.28,9.28c-.39,.39-.92,.61-1.48,.61s-1.08-.22-1.48-.61l-4.73-4.73c-.39-.39-.61-.92-.61-1.48s.22-1.08,.61-1.48c.39-.39,.92-.61,1.48-.61s1.08,.22,1.48,.61l3.25,3.25,7.8-7.8c.39-.39,.92-.61,1.48-.61s1.08,.22,1.48,.61c.81,.81,.81,2.14,0,2.96Z" fill="#16ae7a"/><path d="M225.04,177.04h20.32c2.54,0,4.62-2.08,4.62-4.62v-20.32c0-2.54-2.08-4.62-4.62-4.62h-20.32c-2.54,0-4.62,2.08-4.62,4.62v20.32c0,2.54,2.08,4.62,4.62,4.62Zm2.91-18.97l3.05-3.05,4.19,4.19,4.19-4.19,3.05,3.05-4.19,4.19,4.19,4.19-3.05,3.05-4.19-4.19-4.19,4.19-3.05-3.05,4.19-4.19-4.19-4.19Z" fill="#bc1e53"/><path d="M568.4,177.04h20.32c2.54,0,4.62-2.08,4.62-4.62v-20.32c0-2.54-2.08-4.62-4.62-4.62h-20.32c-2.54,0-4.62,2.08-4.62,4.62v20.32c0,2.54,2.08,4.62,4.62,4.62Zm2.91-18.97l3.05-3.05,4.19,4.19,4.19-4.19,3.05,3.05-4.19,4.19,4.19,4.19-3.05,3.05-4.19-4.19-4.19,4.19-3.05-3.05,4.19-4.19-4.19-4.19Z" fill="#bc1e53"/><g><line x1="102.88" y1="175.84" x2="94.11" y2="222.18" fill="none" stroke="#16ae7a" stroke-miterlimit="10" stroke-width="3"/><polygon points="87.17 218.64 92.11 232.76 101.86 221.42 87.17 218.64" fill="#16ae7a"/></g><g><line x1="107.83" y1="173.29" x2="127.19" y2="224.2" fill="none" stroke="#16ae7a" stroke-miterlimit="10" stroke-width="3"/><polygon points="119.42 224.81 131.02 234.26 133.41 219.5 119.42 224.81" fill="#16ae7a"/></g><g><line x1="439.22" y1="173.14" x2="396.53" y2="224.32" fill="none" stroke="#16ae7a" stroke-miterlimit="10" stroke-width="3"/><polygon points="392.19 217.85 389.64 232.59 403.68 227.43 392.19 217.85" fill="#16ae7a"/></g><g><line x1="439.22" y1="173.14" x2="479.17" y2="226.12" fill="none" stroke="#16ae7a" stroke-miterlimit="10" stroke-width="3"/><polygon points="471.88 228.87 485.65 234.71 483.82 219.87 471.88 228.87" fill="#16ae7a"/></g><g><line x1="234.16" y1="175.64" x2="193.89" y2="225.19" fill="none" stroke="#bc1e53" stroke-miterlimit="10" stroke-width="3"/><polygon points="189.46 218.78 187.1 233.54 201.07 228.21 189.46 218.78" fill="#bc1e53"/></g><g><line x1="579.96" y1="175.32" x2="590.23" y2="227.4" fill="none" stroke="#bc1e53" stroke-miterlimit="10" stroke-width="3"/><polygon points="582.47 226.7 592.31 237.96 597.15 223.81 582.47 226.7" fill="#bc1e53"/></g><g><line x1="235.04" y1="173.78" x2="280.02" y2="228.99" fill="none" stroke="#bc1e53" stroke-miterlimit="10" stroke-width="3"/><polygon points="272.84 232.01 286.82 237.33 284.44 222.57 272.84 232.01" fill="#bc1e53"/></g><g><line x1="235.7" y1="176.27" x2="235.7" y2="227.2" fill="none" stroke="#bc1e53" stroke-miterlimit="10" stroke-width="3"/><polygon points="228.22 225.01 235.7 237.96 243.18 225.01 228.22 225.01" fill="#bc1e53"/></g><g><rect x="133.07" y="109.64" width="204.26" height="34.17" rx="12" ry="12" fill="#bc1e53"/><g><path d="M157.39,128.28l.02,.07c.03,1.6-.53,2.94-1.69,4.02s-2.68,1.62-4.58,1.62-3.5-.68-4.72-2.05-1.82-3.1-1.82-5.2v-3.04c0-2.1,.61-3.84,1.82-5.21s2.79-2.06,4.72-2.06,3.46,.51,4.61,1.54,1.7,2.39,1.66,4.08l-.02,.07h-2.21c0-1.2-.35-2.14-1.05-2.84s-1.7-1.04-2.98-1.04-2.32,.52-3.08,1.56-1.15,2.33-1.15,3.87v3.06c0,1.55,.38,2.85,1.15,3.89s1.79,1.56,3.08,1.56,2.27-.35,2.98-1.04,1.05-1.65,1.05-2.87h2.21Z" fill="#fff"/><path d="M162.4,122.76c.44-.61,.97-1.08,1.61-1.42s1.34-.51,2.12-.51c1.35,0,2.4,.41,3.16,1.22s1.13,2.06,1.13,3.75v7.95h-2.31v-7.97c0-1.05-.22-1.82-.67-2.32s-1.12-.75-2.01-.75c-.69,0-1.29,.13-1.79,.4s-.92,.65-1.23,1.13v9.5h-2.31v-18.28h2.31v7.3Z" fill="#fff"/><path d="M181.53,133.74c-.08-.38-.14-.72-.18-1.01s-.07-.59-.08-.88c-.43,.61-.99,1.12-1.68,1.53s-1.44,.62-2.23,.62c-1.32,0-2.33-.34-3.02-1.01s-1.04-1.61-1.04-2.79,.49-2.16,1.47-2.84,2.31-1.03,3.99-1.03h2.51v-1.25c0-.74-.23-1.33-.68-1.76s-1.09-.65-1.92-.65c-.75,0-1.36,.19-1.82,.56s-.69,.82-.69,1.35l-2.19,.02-.02-.07c-.05-.92,.38-1.77,1.29-2.53s2.1-1.15,3.56-1.15,2.59,.37,3.47,1.1,1.31,1.78,1.31,3.16v6.11c0,.45,.02,.89,.07,1.31s.13,.84,.26,1.24h-2.38Zm-3.83-1.69c.84,0,1.59-.21,2.26-.64s1.11-.92,1.31-1.48v-2.06h-2.59c-.93,0-1.67,.23-2.23,.7s-.84,1.02-.84,1.65c0,.56,.18,1.01,.53,1.34s.87,.49,1.56,.49Z" fill="#fff"/><path d="M188.99,121.06l.16,1.89c.42-.67,.95-1.19,1.59-1.56s1.36-.56,2.17-.56c1.37,0,2.43,.4,3.18,1.2s1.12,2.04,1.12,3.71v8h-2.31v-7.96c0-1.12-.22-1.91-.66-2.38s-1.12-.7-2.02-.7c-.71,0-1.31,.14-1.81,.43s-.89,.69-1.18,1.2v9.41h-2.31v-12.68h2.06Z" fill="#fff"/><path d="M200.16,127.63c0-2.04,.44-3.68,1.31-4.93s2.09-1.88,3.65-1.88c.8,0,1.51,.16,2.12,.49s1.12,.79,1.54,1.4l.28-1.65h1.84v12.75c0,1.62-.47,2.87-1.42,3.74s-2.31,1.31-4.09,1.31c-.61,0-1.27-.08-1.97-.25s-1.33-.4-1.87-.69l.35-1.79c.45,.23,.98,.42,1.61,.57s1.25,.22,1.86,.22c1.12,0,1.94-.26,2.46-.77s.77-1.29,.77-2.34v-1.44c-.41,.53-.91,.93-1.49,1.21s-1.25,.41-2,.41c-1.55,0-2.76-.56-3.63-1.68s-1.31-2.6-1.31-4.42v-.25Zm2.31,.25c0,1.27,.26,2.3,.79,3.07s1.33,1.16,2.43,1.16c.7,0,1.28-.16,1.75-.47s.86-.76,1.16-1.34v-5.84c-.3-.54-.68-.97-1.16-1.28s-1.05-.47-1.72-.47c-1.1,0-1.92,.46-2.44,1.37s-.79,2.1-.79,3.56v.25Z" fill="#fff"/><path d="M219.46,133.98c-1.82,0-3.24-.58-4.26-1.75s-1.53-2.7-1.53-4.59v-.52c0-1.82,.53-3.33,1.58-4.52s2.33-1.79,3.85-1.79c1.7,0,2.97,.53,3.81,1.58s1.27,2.46,1.27,4.21v1.22h-8.11l-.04,.06c0,1.27,.28,2.31,.84,3.1s1.42,1.19,2.58,1.19c.78,0,1.47-.11,2.06-.33s1.1-.53,1.52-.92l.9,1.5c-.45,.44-1.05,.81-1.79,1.11s-1.64,.45-2.68,.45Zm-.36-11.34c-.8,0-1.47,.31-2,.93s-.85,1.42-.97,2.38l.02,.06h5.72v-.19c0-.92-.23-1.68-.68-2.29s-1.15-.9-2.1-.9Z" fill="#fff"/><path d="M226.25,127.63c0-2.04,.44-3.68,1.31-4.93s2.09-1.88,3.66-1.88c.74,0,1.4,.14,1.97,.41s1.06,.67,1.47,1.2v-6.97h2.31v18.28h-1.77l-.35-1.61c-.41,.61-.93,1.07-1.54,1.38s-1.32,.47-2.12,.47c-1.55,0-2.76-.56-3.63-1.68s-1.31-2.6-1.31-4.42v-.25Zm2.31,.25c0,1.28,.26,2.31,.79,3.08s1.34,1.15,2.44,1.15c.69,0,1.27-.16,1.73-.47s.85-.75,1.15-1.31v-5.92c-.3-.52-.68-.94-1.15-1.25s-1.04-.46-1.71-.46c-1.11,0-1.93,.46-2.46,1.37s-.79,2.1-.79,3.56v.25Z" fill="#fff"/><path d="M253.75,130.33c0-.51-.19-.92-.58-1.24s-1.12-.6-2.2-.84c-1.49-.32-2.64-.77-3.44-1.35s-1.2-1.35-1.2-2.32c0-1.03,.44-1.91,1.32-2.65s2.02-1.1,3.42-1.1,2.6,.39,3.49,1.17,1.32,1.69,1.28,2.73l-.02,.07h-2.2c0-.55-.24-1.04-.72-1.49s-1.09-.67-1.82-.67c-.81,0-1.42,.18-1.82,.55s-.6,.8-.6,1.31,.17,.89,.52,1.16,1.06,.52,2.15,.75c1.55,.33,2.73,.79,3.54,1.39s1.21,1.39,1.21,2.36c0,1.12-.46,2.04-1.37,2.75s-2.1,1.07-3.57,1.07c-1.62,0-2.89-.41-3.82-1.23s-1.37-1.78-1.32-2.87l.02-.07h2.2c.04,.82,.34,1.42,.91,1.8s1.24,.57,2,.57c.82,0,1.46-.17,1.93-.52s.7-.79,.7-1.33Z" fill="#fff"/><path d="M269.74,127.88c0,1.83-.44,3.3-1.31,4.42s-2.08,1.68-3.62,1.68c-.78,0-1.47-.13-2.06-.39s-1.09-.65-1.51-1.18v6.2h-2.31v-17.55h1.77l.36,1.64c.41-.61,.93-1.07,1.55-1.39s1.34-.48,2.16-.48c1.57,0,2.79,.62,3.66,1.87s1.31,2.89,1.31,4.94v.25Zm-2.31-.25c0-1.44-.28-2.62-.85-3.54s-1.4-1.39-2.5-1.39c-.66,0-1.23,.15-1.7,.45s-.85,.71-1.14,1.24v6.13c.29,.52,.67,.93,1.14,1.22s1.04,.44,1.72,.44c1.09,0,1.92-.4,2.48-1.2s.84-1.83,.84-3.1v-.25Z" fill="#fff"/><path d="M277.82,133.98c-1.82,0-3.24-.58-4.26-1.75s-1.53-2.7-1.53-4.59v-.52c0-1.82,.53-3.33,1.58-4.52s2.33-1.79,3.85-1.79c1.7,0,2.97,.53,3.81,1.58s1.27,2.46,1.27,4.21v1.22h-8.11l-.04,.06c0,1.27,.28,2.31,.84,3.1s1.42,1.19,2.58,1.19c.78,0,1.47-.11,2.06-.33s1.1-.53,1.52-.92l.9,1.5c-.45,.44-1.05,.81-1.79,1.11s-1.64,.45-2.68,.45Zm-.36-11.34c-.8,0-1.47,.31-2,.93s-.85,1.42-.97,2.38l.02,.06h5.72v-.19c0-.92-.23-1.68-.68-2.29s-1.15-.9-2.1-.9Z" fill="#fff"/><path d="M290.17,132.18c.71,0,1.33-.24,1.86-.71s.8-1.05,.8-1.74h2.09l.04,.07c.03,1.09-.44,2.06-1.41,2.91s-2.09,1.27-3.38,1.27c-1.78,0-3.16-.61-4.12-1.82s-1.45-2.72-1.45-4.52v-.49c0-1.79,.49-3.29,1.46-4.51s2.35-1.82,4.12-1.82c1.41,0,2.57,.44,3.47,1.31s1.34,1.95,1.31,3.22l-.02,.07h-2.1c0-.77-.25-1.43-.76-1.97s-1.14-.81-1.9-.81c-1.13,0-1.96,.44-2.48,1.32s-.78,1.94-.78,3.19v.49c0,1.27,.26,2.35,.77,3.22s1.34,1.31,2.49,1.31Z" fill="#fff"/><path d="M300.19,117.81h-2.31v-2.36h2.31v2.36Zm0,15.93h-2.31v-12.68h2.31v12.68Z" fill="#fff"/><path d="M308.99,133.98c-1.82,0-3.24-.58-4.26-1.75s-1.53-2.7-1.53-4.59v-.52c0-1.82,.53-3.33,1.58-4.52s2.33-1.79,3.85-1.79c1.7,0,2.97,.53,3.81,1.58s1.27,2.46,1.27,4.21v1.22h-8.11l-.04,.06c0,1.27,.28,2.31,.84,3.1s1.42,1.19,2.58,1.19c.78,0,1.47-.11,2.06-.33s1.1-.53,1.52-.92l.9,1.5c-.45,.44-1.05,.81-1.79,1.11s-1.64,.45-2.68,.45Zm-.36-11.34c-.8,0-1.47,.31-2,.93s-.85,1.42-.97,2.38l.02,.06h5.72v-.19c0-.92-.23-1.68-.68-2.29s-1.15-.9-2.1-.9Z" fill="#fff"/><path d="M323.68,130.33c0-.51-.19-.92-.58-1.24s-1.12-.6-2.2-.84c-1.49-.32-2.64-.77-3.44-1.35s-1.2-1.35-1.2-2.32c0-1.03,.44-1.91,1.32-2.65s2.02-1.1,3.42-1.1,2.6,.39,3.49,1.17,1.32,1.69,1.28,2.73l-.02,.07h-2.2c0-.55-.24-1.04-.72-1.49s-1.09-.67-1.82-.67c-.81,0-1.42,.18-1.82,.55s-.6,.8-.6,1.31,.17,.89,.52,1.16,1.06,.52,2.15,.75c1.55,.33,2.73,.79,3.54,1.39s1.21,1.39,1.21,2.36c0,1.12-.46,2.04-1.37,2.75s-2.1,1.07-3.57,1.07c-1.62,0-2.89-.41-3.82-1.23s-1.37-1.78-1.32-2.87l.02-.07h2.2c.04,.82,.34,1.42,.91,1.8s1.24,.57,2,.57c.82,0,1.46-.17,1.93-.52s.7-.79,.7-1.33Z" fill="#fff"/></g></g><g><rect x="372.83" y="109.64" width="134.65" height="34.17" rx="9.74" ry="9.74" fill="#16ae7a"/><g><path d="M397.18,133.74h-2.31l-8.21-13.03-.07,.02v13.01h-2.31v-17.06h2.31l8.21,13.02,.07-.02v-13h2.31v17.06Z" fill="#fff"/><path d="M400.32,127.28c0-1.88,.51-3.42,1.52-4.63s2.39-1.82,4.14-1.82,3.15,.61,4.17,1.82,1.53,2.76,1.53,4.64v.26c0,1.89-.51,3.44-1.52,4.64s-2.4,1.8-4.15,1.8-3.13-.6-4.15-1.81-1.53-2.75-1.53-4.63v-.26Zm2.31,.26c0,1.34,.28,2.45,.85,3.33s1.41,1.31,2.53,1.31,1.94-.44,2.51-1.31,.86-1.98,.86-3.33v-.26c0-1.33-.29-2.43-.86-3.32s-1.42-1.32-2.53-1.32-1.94,.44-2.5,1.32-.85,1.99-.85,3.32v.26Z" fill="#fff"/><path d="M425.5,132.18c.71,0,1.33-.24,1.86-.71s.8-1.05,.8-1.74h2.09l.04,.07c.03,1.09-.44,2.06-1.41,2.91s-2.09,1.27-3.38,1.27c-1.78,0-3.16-.61-4.12-1.82s-1.45-2.72-1.45-4.52v-.49c0-1.79,.49-3.29,1.46-4.51s2.35-1.82,4.12-1.82c1.41,0,2.57,.44,3.47,1.31s1.34,1.95,1.31,3.22l-.02,.07h-2.1c0-.77-.25-1.43-.76-1.97s-1.14-.81-1.9-.81c-1.13,0-1.96,.44-2.48,1.32s-.78,1.94-.78,3.19v.49c0,1.27,.26,2.35,.77,3.22s1.34,1.31,2.49,1.31Z" fill="#fff"/><path d="M435.33,122.76c.44-.61,.97-1.08,1.61-1.42s1.34-.51,2.12-.51c1.35,0,2.4,.41,3.16,1.22s1.13,2.06,1.13,3.75v7.95h-2.31v-7.97c0-1.05-.22-1.82-.67-2.32s-1.12-.75-2.01-.75c-.69,0-1.29,.13-1.79,.4s-.92,.65-1.23,1.13v9.5h-2.31v-18.28h2.31v7.3Z" fill="#fff"/><path d="M454.46,133.74c-.08-.38-.14-.72-.18-1.01s-.07-.59-.08-.88c-.43,.61-.99,1.12-1.68,1.53s-1.44,.62-2.23,.62c-1.32,0-2.33-.34-3.02-1.01s-1.04-1.61-1.04-2.79,.49-2.16,1.47-2.84,2.31-1.03,3.99-1.03h2.51v-1.25c0-.74-.23-1.33-.68-1.76s-1.09-.65-1.92-.65c-.75,0-1.36,.19-1.82,.56s-.69,.82-.69,1.35l-2.19,.02-.02-.07c-.05-.92,.38-1.77,1.29-2.53s2.1-1.15,3.56-1.15,2.59,.37,3.47,1.1,1.31,1.78,1.31,3.16v6.11c0,.45,.02,.89,.07,1.31s.13,.84,.26,1.24h-2.38Zm-3.83-1.69c.84,0,1.59-.21,2.26-.64s1.11-.92,1.31-1.48v-2.06h-2.59c-.93,0-1.67,.23-2.23,.7s-.84,1.02-.84,1.65c0,.56,.18,1.01,.53,1.34s.87,.49,1.56,.49Z" fill="#fff"/><path d="M461.92,121.06l.16,1.89c.42-.67,.95-1.19,1.59-1.56s1.36-.56,2.17-.56c1.37,0,2.43,.4,3.18,1.2s1.12,2.04,1.12,3.71v8h-2.31v-7.96c0-1.12-.22-1.91-.66-2.38s-1.12-.7-2.02-.7c-.71,0-1.31,.14-1.81,.43s-.89,.69-1.18,1.2v9.41h-2.31v-12.68h2.06Z" fill="#fff"/><path d="M473.09,127.63c0-2.04,.44-3.68,1.31-4.93s2.09-1.88,3.65-1.88c.8,0,1.51,.16,2.12,.49s1.12,.79,1.54,1.4l.28-1.65h1.84v12.75c0,1.62-.47,2.87-1.42,3.74s-2.31,1.31-4.09,1.31c-.61,0-1.27-.08-1.97-.25s-1.33-.4-1.87-.69l.35-1.79c.45,.23,.98,.42,1.61,.57s1.25,.22,1.86,.22c1.12,0,1.94-.26,2.46-.77s.77-1.29,.77-2.34v-1.44c-.41,.53-.91,.93-1.49,1.21s-1.25,.41-2,.41c-1.55,0-2.76-.56-3.63-1.68s-1.31-2.6-1.31-4.42v-.25Zm2.31,.25c0,1.27,.26,2.3,.79,3.07s1.33,1.16,2.43,1.16c.7,0,1.28-.16,1.75-.47s.86-.76,1.16-1.34v-5.84c-.3-.54-.68-.97-1.16-1.28s-1.05-.47-1.72-.47c-1.1,0-1.92,.46-2.44,1.37s-.79,2.1-.79,3.56v.25Z" fill="#fff"/><path d="M492.39,133.98c-1.82,0-3.24-.58-4.26-1.75s-1.53-2.7-1.53-4.59v-.52c0-1.82,.53-3.33,1.58-4.52s2.33-1.79,3.85-1.79c1.7,0,2.97,.53,3.81,1.58s1.27,2.46,1.27,4.21v1.22h-8.11l-.04,.06c0,1.27,.28,2.31,.84,3.1s1.42,1.19,2.58,1.19c.78,0,1.47-.11,2.06-.33s1.1-.53,1.52-.92l.9,1.5c-.45,.44-1.05,.81-1.79,1.11s-1.64,.45-2.68,.45Zm-.36-11.34c-.8,0-1.47,.31-2,.93s-.85,1.42-.97,2.38l.02,.06h5.72v-.19c0-.92-.23-1.68-.68-2.29s-1.15-.9-2.1-.9Z" fill="#fff"/></g></g></g><g id="fh"><line id="fi" x1="71.93" y1="193.27" x2="71.93" y2="367.13" fill="#0073b2" stroke="#231f20" stroke-miterlimit="10"/><line id="fj" x1="603.11" y1="193.27" x2="603.11" y2="367.13" fill="#0073b2" stroke="#231f20" stroke-miterlimit="10"/><line id="fk" x1="603.11" y1="367.13" x2="71.93" y2="367.13" fill="#0073b2" stroke="#231f20" stroke-miterlimit="10"/><line id="fl" x1="603.11" y1="193.27" x2="71.93" y2="193.27" fill="#0073b2" stroke="#231f20" stroke-miterlimit="10"/></g></g></svg>