<?xml version="1.0" encoding="UTF-8"?><svg id="a" xmlns="http://www.w3.org/2000/svg" xmlns:xlink="http://www.w3.org/1999/xlink" viewBox="0 0 632 553.15"><defs><clipPath id="f"><rect x="85.77" y="12.53" width="483.03" height="479.92" fill="none"/></clipPath><clipPath id="i"><rect x="85.77" y="12.53" width="483.03" height="479.92" fill="none"/></clipPath><clipPath id="o"><rect x="85.77" y="12.53" width="483.03" height="479.92" fill="none"/></clipPath><clipPath id="u"><rect x="85.77" y="12.53" width="483.03" height="479.92" fill="none"/></clipPath><clipPath id="aa"><rect x="85.77" y="12.53" width="483.03" height="479.92" fill="none"/></clipPath><clipPath id="ag"><rect x="85.77" y="12.53" width="483.03" height="479.92" fill="none"/></clipPath><clipPath id="am"><rect x="85.77" y="12.53" width="483.03" height="479.92" fill="none"/></clipPath><clipPath id="as"><rect x="85.77" y="12.53" width="483.03" height="479.92" fill="none"/></clipPath><clipPath id="ay"><rect x="85.77" y="12.53" width="483.03" height="479.92" fill="none"/></clipPath><clipPath id="bk"><rect x="85.77" y="12.53" width="483.03" height="479.92" fill="none"/></clipPath><clipPath id="bq"><rect x="85.77" y="12.53" width="483.03" height="479.92" fill="none"/></clipPath><clipPath id="bw"><rect x="85.77" y="12.53" width="483.03" height="479.92" fill="none"/></clipPath><clipPath id="cc"><rect x="85.77" y="12.53" width="483.03" height="479.92" fill="none"/></clipPath><clipPath id="ci"><rect x="85.77" y="12.53" width="483.03" height="479.92" fill="none"/></clipPath><clipPath id="co"><rect x="85.77" y="12.53" width="483.03" height="479.92" fill="none"/></clipPath><clipPath id="cu"><rect x="85.77" y="12.53" width="483.03" height="479.92" fill="none"/></clipPath><clipPath id="da"><rect x="85.77" y="12.53" width="483.03" height="479.92" fill="none"/></clipPath><clipPath id="dg"><rect x="85.77" y="12.53" width="483.03" height="479.92" fill="none"/></clipPath><clipPath id="du"><rect x="85.77" y="12.53" width="483.03" height="479.92" fill="none"/></clipPath><clipPath id="dv"><rect x="85.77" y="12.53" width="483.03" height="479.92" fill="none"/></clipPath><clipPath id="eg"><rect x="85.77" y="12.53" width="483.03" height="479.92" fill="none"/></clipPath><clipPath id="eh"><rect x="85.77" y="12.53" width="483.03" height="479.92" fill="none"/></clipPath><clipPath id="es"><rect x="85.77" y="12.53" width="483.03" height="479.92" fill="none"/></clipPath><clipPath id="et"><rect x="85.77" y="12.53" width="483.03" height="479.92" fill="none"/></clipPath></defs><g id="b"><g id="c"><g id="d"><g id="e"><g clip-path="url(#f)"><path d="M95.06,492.45V12.53" fill="none" stroke="#d0d2d3" stroke-linecap="square" stroke-linejoin="round" stroke-width="1.08"/></g></g></g><g id="g"><g id="h"><g clip-path="url(#i)"><path d="M104.35,492.45V12.53" fill="none" stroke="#d0d2d3" stroke-linecap="square" stroke-linejoin="round" stroke-width="1.08"/></g></g><g id="j"><path id="k" d="M104.35,492.45v3.03" stroke="#000" stroke-linejoin="round" stroke-width="1.08"/></g><g id="l"><g isolation="isolate"><path d="M105.91,516.15h-2.32v-14.93l-3.71,.04v-1.78l6.04-.63v17.31Z"/></g></g></g><g id="m"><g id="n"><g clip-path="url(#o)"><path d="M141.51,492.45V12.53" fill="none" stroke="#d0d2d3" stroke-linecap="square" stroke-linejoin="round" stroke-width="1.08"/></g></g><g id="p"><path id="q" d="M141.51,492.45v3.03" stroke="#000" stroke-linejoin="round" stroke-width="1.08"/></g><g id="r"><g isolation="isolate"><path d="M135.44,508.57l.98-9.48h8.54v2.05h-6.6l-.55,4.91c.37-.27,.77-.5,1.22-.67s.95-.27,1.52-.28c1.58-.02,2.81,.48,3.71,1.48s1.34,2.38,1.34,4.13-.46,3.09-1.38,4.12-2.26,1.56-4.01,1.56c-1.45,0-2.65-.39-3.61-1.18s-1.42-1.95-1.38-3.48l.02-.07h2.09c0,.93,.27,1.65,.8,2.16s1.23,.77,2.08,.77c.98,0,1.73-.34,2.27-1.03s.81-1.63,.81-2.82c0-1.09-.27-1.96-.81-2.64s-1.3-1.01-2.27-1.01c-.91,0-1.56,.14-1.97,.41s-.71,.7-.9,1.27l-1.91-.2Z"/></g></g></g><g id="s"><g id="t"><g clip-path="url(#u)"><path d="M187.95,492.45V12.53" fill="none" stroke="#d0d2d3" stroke-linecap="square" stroke-linejoin="round" stroke-width="1.08"/></g></g><g id="v"><path id="w" d="M187.95,492.45v3.03" stroke="#000" stroke-linejoin="round" stroke-width="1.08"/></g><g id="x"><g isolation="isolate"><path d="M183.04,516.15h-2.32v-14.93l-3.71,.04v-1.78l6.04-.63v17.31Z"/><path d="M200.42,510.13c0,1.93-.49,3.46-1.47,4.58s-2.3,1.69-3.96,1.69-2.97-.56-3.96-1.69-1.48-2.65-1.48-4.58v-5.02c0-1.91,.49-3.44,1.47-4.57s2.29-1.7,3.94-1.7,2.98,.57,3.97,1.7,1.48,2.66,1.48,4.57v5.02Zm-2.31-5.5c0-1.23-.27-2.2-.82-2.91s-1.32-1.07-2.32-1.07-1.76,.36-2.3,1.07-.81,1.68-.81,2.91v5.96c0,1.23,.28,2.2,.83,2.92s1.32,1.08,2.3,1.08,1.77-.36,2.31-1.07,.81-1.69,.81-2.92v-5.96Z"/></g></g></g><g id="y"><g id="z"><g clip-path="url(#aa)"><path d="M234.4,492.45V12.53" fill="none" stroke="#d0d2d3" stroke-linecap="square" stroke-linejoin="round" stroke-width="1.08"/></g></g><g id="ab"><path id="ac" d="M234.4,492.45v3.03" stroke="#000" stroke-linejoin="round" stroke-width="1.08"/></g><g id="ad"><g isolation="isolate"><path d="M229.48,516.15h-2.32v-14.93l-3.71,.04v-1.78l6.04-.63v17.31Z"/><path d="M236.72,508.57l.98-9.48h8.54v2.05h-6.6l-.55,4.91c.37-.27,.77-.5,1.22-.67s.95-.27,1.52-.28c1.58-.02,2.81,.48,3.71,1.48s1.34,2.38,1.34,4.13-.46,3.09-1.38,4.12-2.26,1.56-4.01,1.56c-1.45,0-2.65-.39-3.61-1.18s-1.42-1.95-1.38-3.48l.02-.07h2.09c0,.93,.27,1.65,.8,2.16s1.23,.77,2.08,.77c.98,0,1.73-.34,2.27-1.03s.81-1.63,.81-2.82c0-1.09-.27-1.96-.81-2.64s-1.3-1.01-2.27-1.01c-.91,0-1.56,.14-1.97,.41s-.71,.7-.9,1.27l-1.91-.2Z"/></g></g></g><g id="ae"><g id="af"><g clip-path="url(#ag)"><path d="M280.85,492.45V12.53" fill="none" stroke="#d0d2d3" stroke-linecap="square" stroke-linejoin="round" stroke-width="1.08"/></g></g><g id="ah"><path id="ai" d="M280.85,492.45v3.03" stroke="#000" stroke-linejoin="round" stroke-width="1.08"/></g><g id="aj"><g isolation="isolate"><path d="M279.96,516.15h-10.59v-1.58l5.36-6.39c.95-1.16,1.6-2.08,1.94-2.76s.51-1.37,.51-2.07c0-.79-.23-1.44-.69-1.94s-1.1-.76-1.91-.76c-1.01,0-1.78,.31-2.3,.93s-.79,1.39-.79,2.31h-2.23l-.02-.07c-.04-1.39,.43-2.57,1.39-3.53s2.29-1.45,3.95-1.45c1.52,0,2.72,.42,3.6,1.27s1.31,1.93,1.31,3.27c0,.9-.25,1.78-.74,2.64s-1.25,1.94-2.27,3.23l-4.3,5.04,.02,.06h7.77v1.8Z"/><path d="M293.31,510.13c0,1.93-.49,3.46-1.47,4.58s-2.3,1.69-3.96,1.69-2.97-.56-3.96-1.69-1.48-2.65-1.48-4.58v-5.02c0-1.91,.49-3.44,1.47-4.57s2.29-1.7,3.94-1.7,2.98,.57,3.97,1.7,1.48,2.66,1.48,4.57v5.02Zm-2.31-5.5c0-1.23-.27-2.2-.82-2.91s-1.32-1.07-2.32-1.07-1.76,.36-2.3,1.07-.81,1.68-.81,2.91v5.96c0,1.23,.28,2.2,.83,2.92s1.32,1.08,2.3,1.08,1.77-.36,2.31-1.07,.81-1.69,.81-2.92v-5.96Z"/></g></g></g><g id="ak"><g id="al"><g clip-path="url(#am)"><path d="M373.74,492.45V12.53" fill="none" stroke="#d0d2d3" stroke-linecap="square" stroke-linejoin="round" stroke-width="1.08"/></g></g><g id="an"><path id="ao" d="M373.74,492.45v3.03" stroke="#000" stroke-linejoin="round" stroke-width="1.08"/></g><g id="ap"><g isolation="isolate"><path d="M367.29,506.45c1.03,0,1.76-.26,2.19-.77s.64-1.23,.64-2.15c0-.86-.23-1.55-.7-2.08s-1.15-.79-2.07-.79-1.63,.28-2.21,.83-.87,1.24-.87,2.07h-2.2l-.04-.07c-.04-1.28,.45-2.38,1.45-3.28s2.3-1.36,3.87-1.36,2.83,.4,3.73,1.2,1.35,1.98,1.35,3.53c0,.8-.21,1.52-.63,2.18s-1,1.17-1.75,1.54c.86,.34,1.51,.87,1.96,1.56s.67,1.54,.67,2.54c0,1.56-.49,2.79-1.48,3.67s-2.27,1.33-3.85,1.33c-1.45,0-2.73-.43-3.84-1.28s-1.64-1.99-1.6-3.39l.02-.07h2.2c0,.83,.3,1.53,.9,2.09s1.37,.85,2.31,.85,1.68-.29,2.21-.87,.81-1.34,.81-2.28c0-1.07-.25-1.87-.74-2.4s-1.28-.8-2.34-.8h-1.9v-1.79h1.9Z"/><path d="M386.2,510.13c0,1.93-.49,3.46-1.47,4.58s-2.3,1.69-3.96,1.69-2.97-.56-3.96-1.69-1.48-2.65-1.48-4.58v-5.02c0-1.91,.49-3.44,1.47-4.57s2.29-1.7,3.94-1.7,2.98,.57,3.97,1.7,1.48,2.66,1.48,4.57v5.02Zm-2.31-5.5c0-1.23-.27-2.2-.82-2.91s-1.32-1.07-2.32-1.07-1.76,.36-2.3,1.07-.81,1.68-.81,2.91v5.96c0,1.23,.28,2.2,.83,2.92s1.32,1.08,2.3,1.08,1.77-.36,2.31-1.07,.81-1.69,.81-2.92v-5.96Z"/></g></g></g><g id="aq"><g id="ar"><g clip-path="url(#as)"><path d="M466.63,492.45V12.53" fill="none" stroke="#d0d2d3" stroke-linecap="square" stroke-linejoin="round" stroke-width="1.08"/></g></g><g id="at"><path id="au" d="M466.63,492.45v3.03" stroke="#000" stroke-linejoin="round" stroke-width="1.08"/></g><g id="av"><g isolation="isolate"><path d="M463.86,510.41h2.36v1.8h-2.36v3.94h-2.3v-3.94h-7.32v-1.3l7.18-11.82h2.44v11.32Zm-7.15,0h4.85v-8h-.07s-.22,.57-.22,.57l-4.56,7.43Z"/><path d="M479.09,510.13c0,1.93-.49,3.46-1.47,4.58s-2.3,1.69-3.96,1.69-2.97-.56-3.96-1.69-1.48-2.65-1.48-4.58v-5.02c0-1.91,.49-3.44,1.47-4.57s2.29-1.7,3.94-1.7,2.98,.57,3.97,1.7,1.48,2.66,1.48,4.57v5.02Zm-2.31-5.5c0-1.23-.27-2.2-.82-2.91s-1.32-1.07-2.32-1.07-1.76,.36-2.3,1.07-.81,1.68-.81,2.91v5.96c0,1.23,.28,2.2,.83,2.92s1.32,1.08,2.3,1.08,1.77-.36,2.31-1.07,.81-1.69,.81-2.92v-5.96Z"/></g></g></g><g id="aw"><g id="ax"><g clip-path="url(#ay)"><path d="M559.52,492.45V12.53" fill="none" stroke="#d0d2d3" stroke-linecap="square" stroke-linejoin="round" stroke-width="1.08"/></g></g><g id="az"><path id="ba" d="M559.52,492.45v3.03" stroke="#000" stroke-linejoin="round" stroke-width="1.08"/></g><g id="bb"><g isolation="isolate"><path d="M548.34,508.57l.98-9.48h8.54v2.05h-6.6l-.55,4.91c.37-.27,.77-.5,1.22-.67s.95-.27,1.52-.28c1.58-.02,2.81,.48,3.71,1.48s1.34,2.38,1.34,4.13-.46,3.09-1.38,4.12-2.26,1.56-4.01,1.56c-1.45,0-2.65-.39-3.61-1.18s-1.42-1.95-1.38-3.48l.02-.07h2.09c0,.93,.27,1.65,.8,2.16s1.23,.77,2.08,.77c.98,0,1.73-.34,2.27-1.03s.81-1.63,.81-2.82c0-1.09-.27-1.96-.81-2.64s-1.3-1.01-2.27-1.01c-.91,0-1.56,.14-1.97,.41s-.71,.7-.9,1.27l-1.91-.2Z"/><path d="M571.99,510.13c0,1.93-.49,3.46-1.47,4.58s-2.3,1.69-3.96,1.69-2.97-.56-3.96-1.69-1.48-2.65-1.48-4.58v-5.02c0-1.91,.49-3.44,1.47-4.57s2.29-1.7,3.94-1.7,2.98,.57,3.97,1.7,1.48,2.66,1.48,4.57v5.02Zm-2.31-5.5c0-1.23-.27-2.2-.82-2.91s-1.32-1.07-2.32-1.07-1.76,.36-2.3,1.07-.81,1.68-.81,2.91v5.96c0,1.23,.28,2.2,.83,2.92s1.32,1.08,2.3,1.08,1.77-.36,2.31-1.07,.81-1.69,.81-2.92v-5.96Z"/></g></g></g><g id="bc"><g isolation="isolate"><path d="M209.8,532.87c0-1.01,.33-1.85,.98-2.52s1.56-1.01,2.72-1.01,2.09,.33,2.74,1,.97,1.51,.97,2.53v.9c0,1.01-.32,1.84-.97,2.51s-1.55,1-2.72,1-2.09-.33-2.74-1-.98-1.5-.98-2.51v-.9Zm2.27,.9c0,.45,.12,.83,.38,1.14s.61,.46,1.08,.46,.8-.15,1.05-.46,.37-.69,.37-1.14v-.9c0-.45-.12-.84-.38-1.15s-.61-.47-1.07-.47-.81,.16-1.06,.47-.37,.7-.37,1.15v.9Zm2.02,11.6l-1.66-.88,8.33-13.34,1.66,.88-8.33,13.34Zm3.87-2.91c0-1,.33-1.84,.98-2.51s1.57-1.01,2.73-1.01,2.08,.33,2.74,1,.98,1.51,.98,2.51v.9c0,1.02-.32,1.86-.97,2.52s-1.55,1-2.72,1-2.09-.33-2.75-1-.99-1.51-.99-2.51v-.9Zm2.27,.9c0,.45,.13,.83,.4,1.14s.62,.47,1.06,.47c.51,0,.87-.15,1.09-.44s.33-.69,.33-1.18v-.9c0-.45-.12-.83-.38-1.14s-.61-.47-1.07-.47-.83,.16-1.07,.47-.37,.7-.37,1.14v.9Z"/><path d="M233.18,540.19c0-1.89,.53-3.44,1.58-4.65s2.52-1.81,4.38-1.81,3.34,.6,4.41,1.8,1.59,2.75,1.59,4.65v.25c0,1.91-.53,3.46-1.59,4.66s-2.52,1.8-4.39,1.8-3.34-.6-4.4-1.8-1.59-2.75-1.59-4.66v-.25Zm3.41,.25c0,1.16,.2,2.08,.61,2.78s1.06,1.05,1.97,1.05,1.53-.35,1.94-1.05,.62-1.63,.62-2.78v-.25c0-1.12-.21-2.04-.62-2.75s-1.07-1.07-1.96-1.07-1.53,.36-1.94,1.07-.62,1.63-.62,2.75v.25Z"/><path d="M248.15,546.65v-10.28h-1.89v-2.4h1.89v-1.41c0-1.42,.41-2.52,1.23-3.29s1.97-1.15,3.46-1.15c.29,0,.58,.02,.88,.06s.63,.1,.99,.18l-.29,2.54c-.19-.03-.37-.06-.54-.08s-.38-.04-.62-.04c-.55,0-.97,.15-1.26,.46s-.43,.74-.43,1.31v1.41h2.44v2.4h-2.44v10.28h-3.42Z"/><path d="M261.1,540.41c0-2,.43-3.61,1.3-4.84s2.09-1.84,3.66-1.84c.71,0,1.34,.16,1.88,.48s1,.78,1.38,1.37l.27-1.62h2.94v12.62c0,1.65-.54,2.92-1.62,3.83s-2.58,1.35-4.51,1.35c-.64,0-1.32-.09-2.04-.26s-1.38-.42-1.99-.72l.57-2.55c.52,.25,1.06,.44,1.62,.57s1.16,.19,1.81,.19c.94,0,1.63-.2,2.07-.59s.66-1,.66-1.83v-1.15c-.38,.48-.82,.84-1.32,1.09s-1.09,.38-1.75,.38c-1.55,0-2.77-.57-3.63-1.71s-1.3-2.65-1.3-4.52v-.25Zm3.42,.25c0,1.11,.19,1.98,.56,2.62s.98,.96,1.82,.96c.52,0,.97-.1,1.33-.29s.65-.47,.87-.84v-5.5c-.22-.39-.51-.69-.87-.9s-.8-.32-1.31-.32c-.84,0-1.45,.37-1.83,1.11s-.57,1.71-.57,2.91v.25Z"/><path d="M280.64,546.89c-1.89,0-3.37-.58-4.43-1.74s-1.59-2.65-1.59-4.48v-.47c0-1.9,.52-3.45,1.55-4.66s2.45-1.81,4.25-1.8c1.7,0,3.01,.52,3.92,1.56s1.37,2.45,1.37,4.21v1.77h-7.56l-.04,.07c.05,.87,.32,1.57,.79,2.11s1.17,.81,2.1,.81c.77,0,1.42-.08,1.95-.23s1.09-.39,1.66-.71l.93,2.11c-.51,.41-1.2,.76-2.06,1.04s-1.81,.42-2.84,.42Zm-.22-10.52c-.69,0-1.22,.24-1.59,.71s-.6,1.1-.67,1.88l.02,.06h4.17v-.26c0-.74-.15-1.33-.46-1.75s-.8-.64-1.48-.64Z"/><path d="M290.83,533.97l.15,1.82c.42-.65,.94-1.15,1.56-1.51s1.31-.54,2.07-.54c1.28,0,2.28,.41,3,1.24s1.08,2.13,1.08,3.91v7.77h-3.43v-7.76c0-.91-.16-1.55-.47-1.93s-.79-.57-1.42-.57c-.51,0-.96,.1-1.34,.29s-.71,.46-.96,.79v9.18h-3.42v-12.68h3.19Z"/><path d="M300.72,540.19c0-1.89,.53-3.44,1.58-4.65s2.52-1.81,4.38-1.81,3.34,.6,4.41,1.8,1.59,2.75,1.59,4.65v.25c0,1.91-.53,3.46-1.59,4.66s-2.52,1.8-4.39,1.8-3.34-.6-4.4-1.8-1.59-2.75-1.59-4.66v-.25Zm3.41,.25c0,1.16,.2,2.08,.61,2.78s1.06,1.05,1.97,1.05,1.53-.35,1.94-1.05,.62-1.63,.62-2.78v-.25c0-1.12-.21-2.04-.62-2.75s-1.07-1.07-1.96-1.07-1.53,.36-1.94,1.07-.62,1.63-.62,2.75v.25Z"/><path d="M317.97,533.97l.14,1.68c.41-.61,.92-1.08,1.53-1.41s1.32-.5,2.13-.5,1.51,.18,2.09,.54,1.02,.9,1.31,1.63c.39-.68,.9-1.21,1.52-1.59s1.36-.57,2.2-.57c1.25,0,2.24,.44,2.96,1.33s1.08,2.24,1.08,4.06v7.52h-3.42v-7.54c0-1.02-.16-1.72-.47-2.12s-.78-.6-1.39-.6c-.48,0-.9,.11-1.26,.32s-.64,.51-.85,.9c0,.15,0,.28,.01,.38s.01,.21,.01,.32v8.33h-3.41v-7.54c0-.99-.16-1.69-.47-2.1s-.78-.62-1.41-.62c-.46,0-.87,.09-1.21,.26s-.63,.42-.86,.74v9.25h-3.41v-12.68h3.18Z"/><path d="M341.05,546.89c-1.89,0-3.37-.58-4.43-1.74s-1.59-2.65-1.59-4.48v-.47c0-1.9,.52-3.45,1.55-4.66s2.45-1.81,4.25-1.8c1.7,0,3.01,.52,3.92,1.56s1.37,2.45,1.37,4.21v1.77h-7.56l-.04,.07c.05,.87,.32,1.57,.79,2.11s1.17,.81,2.1,.81c.77,0,1.42-.08,1.95-.23s1.09-.39,1.66-.71l.93,2.11c-.51,.41-1.2,.76-2.06,1.04s-1.81,.42-2.84,.42Zm-.22-10.52c-.69,0-1.22,.24-1.59,.71s-.6,1.1-.67,1.88l.02,.06h4.17v-.26c0-.74-.15-1.33-.46-1.75s-.8-.64-1.48-.64Z"/><path d="M360.75,536.91l-1.25-.04c-.51,0-.93,.11-1.25,.32s-.58,.51-.75,.89v8.57h-3.41v-12.68h3.18l.15,1.88c.3-.66,.68-1.18,1.15-1.55s1.02-.56,1.63-.56c.17,0,.33,.01,.47,.04s.29,.06,.44,.1l-.36,3.04Z"/><path d="M367.81,546.89c-1.89,0-3.37-.58-4.43-1.74s-1.59-2.65-1.59-4.48v-.47c0-1.9,.52-3.45,1.55-4.66s2.45-1.81,4.25-1.8c1.7,0,3.01,.52,3.92,1.56s1.37,2.45,1.37,4.21v1.77h-7.56l-.04,.07c.05,.87,.32,1.57,.79,2.11s1.17,.81,2.1,.81c.77,0,1.42-.08,1.95-.23s1.09-.39,1.66-.71l.93,2.11c-.51,.41-1.2,.76-2.06,1.04s-1.81,.42-2.84,.42Zm-.22-10.52c-.69,0-1.22,.24-1.59,.71s-.6,1.1-.67,1.88l.02,.06h4.17v-.26c0-.74-.15-1.33-.46-1.75s-.8-.64-1.48-.64Z"/><path d="M378.04,533.97l.14,1.68c.41-.61,.92-1.08,1.53-1.41s1.32-.5,2.13-.5,1.51,.18,2.09,.54,1.02,.9,1.31,1.63c.39-.68,.9-1.21,1.52-1.59s1.36-.57,2.2-.57c1.25,0,2.24,.44,2.96,1.33s1.08,2.24,1.08,4.06v7.52h-3.42v-7.54c0-1.02-.16-1.72-.47-2.12s-.78-.6-1.39-.6c-.48,0-.9,.11-1.26,.32s-.64,.51-.85,.9c0,.15,0,.28,.01,.38s.01,.21,.01,.32v8.33h-3.41v-7.54c0-.99-.16-1.69-.47-2.1s-.78-.62-1.41-.62c-.46,0-.87,.09-1.21,.26s-.63,.42-.86,.74v9.25h-3.41v-12.68h3.18Z"/><path d="M395.1,540.19c0-1.89,.53-3.44,1.58-4.65s2.52-1.81,4.38-1.81,3.34,.6,4.41,1.8,1.59,2.75,1.59,4.65v.25c0,1.91-.53,3.46-1.59,4.66s-2.52,1.8-4.39,1.8-3.34-.6-4.4-1.8-1.59-2.75-1.59-4.66v-.25Zm3.41,.25c0,1.16,.2,2.08,.61,2.78s1.06,1.05,1.97,1.05,1.53-.35,1.94-1.05,.62-1.63,.62-2.78v-.25c0-1.12-.21-2.04-.62-2.75s-1.07-1.07-1.96-1.07-1.53,.36-1.94,1.07-.62,1.63-.62,2.75v.25Z"/><path d="M413.58,541.93l.22,1.17h.07l.23-1.17,2.09-7.96h3.57l-4.31,12.68h-3.27l-4.31-12.68h3.57l2.13,7.96Z"/><path d="M426.6,546.89c-1.89,0-3.37-.58-4.43-1.74s-1.59-2.65-1.59-4.48v-.47c0-1.9,.52-3.45,1.55-4.66s2.45-1.81,4.25-1.8c1.7,0,3.01,.52,3.92,1.56s1.37,2.45,1.37,4.21v1.77h-7.56l-.04,.07c.05,.87,.32,1.57,.79,2.11s1.17,.81,2.1,.81c.77,0,1.42-.08,1.95-.23s1.09-.39,1.66-.71l.93,2.11c-.51,.41-1.2,.76-2.06,1.04s-1.81,.42-2.84,.42Zm-.22-10.52c-.69,0-1.22,.24-1.59,.71s-.6,1.1-.67,1.88l.02,.06h4.17v-.26c0-.74-.15-1.33-.46-1.75s-.8-.64-1.48-.64Z"/><path d="M433.13,540.41c0-2,.43-3.61,1.29-4.84s2.08-1.84,3.65-1.84c.63,0,1.2,.14,1.71,.41s.95,.66,1.34,1.17v-6.95h3.43v18.28h-2.92l-.29-1.56c-.4,.59-.87,1.03-1.42,1.34s-1.17,.46-1.88,.46c-1.55,0-2.76-.57-3.63-1.71s-1.29-2.65-1.29-4.52v-.25Zm3.41,.25c0,1.11,.19,1.98,.56,2.62s.98,.96,1.83,.96c.49,0,.92-.1,1.29-.3s.67-.49,.9-.87v-5.4c-.23-.4-.53-.71-.9-.93s-.79-.33-1.27-.33c-.84,0-1.45,.37-1.83,1.11s-.58,1.71-.58,2.91v.25Z"/></g></g></g><g id="bd"><g id="be"><g id="bf"><path id="bg" d="M85.77,492.45h-3.03" stroke="#000" stroke-linejoin="round" stroke-width="1.08"/></g><g id="bh"><g isolation="isolate"><path d="M61.33,487.75c0,.89-.25,1.67-.75,2.35s-1.16,1.18-1.99,1.52c.97,.34,1.75,.87,2.33,1.61s.88,1.58,.88,2.54c0,1.57-.51,2.79-1.53,3.64s-2.32,1.29-3.9,1.29c-1.67,0-3.04-.43-4.1-1.29s-1.59-2.07-1.59-3.64c0-.96,.3-1.81,.9-2.54s1.4-1.27,2.42-1.62c-.88-.33-1.57-.83-2.07-1.51s-.76-1.46-.76-2.35c0-1.49,.48-2.63,1.44-3.42s2.21-1.18,3.74-1.18c1.45,0,2.65,.4,3.58,1.19s1.4,1.93,1.4,3.42Zm-1.83,7.97c0-.93-.3-1.7-.91-2.3s-1.35-.9-2.24-.9c-.97,0-1.77,.3-2.4,.9s-.95,1.37-.95,2.3,.31,1.73,.94,2.31,1.44,.87,2.43,.87c.89,0,1.63-.29,2.23-.87s.9-1.35,.9-2.3Zm-.48-7.93c0-.82-.26-1.5-.77-2.03s-1.15-.8-1.9-.8c-.84,0-1.52,.26-2.06,.77s-.81,1.2-.81,2.06,.27,1.57,.82,2.11,1.24,.81,2.07,.81c.76,0,1.39-.27,1.89-.81s.76-1.24,.76-2.11Z"/><path d="M75.19,494.42c0,1.93-.49,3.46-1.47,4.58s-2.3,1.69-3.96,1.69-2.97-.56-3.96-1.69-1.48-2.65-1.48-4.58v-5.02c0-1.91,.49-3.44,1.47-4.57s2.29-1.7,3.94-1.7,2.98,.57,3.97,1.7,1.48,2.66,1.48,4.57v5.02Zm-2.31-5.5c0-1.23-.27-2.2-.82-2.91s-1.32-1.07-2.32-1.07-1.76,.36-2.3,1.07-.81,1.68-.81,2.91v5.96c0,1.23,.28,2.2,.83,2.92s1.32,1.08,2.3,1.08,1.77-.36,2.31-1.07,.81-1.69,.81-2.92v-5.96Z"/></g></g></g><g id="bi"><g id="bj"><g clip-path="url(#bk)"><path d="M85.77,432.46h483.03" fill="none" stroke="#d0d2d3" stroke-linecap="square" stroke-linejoin="round" stroke-width="1.08"/></g></g><g id="bl"><path id="bm" d="M85.77,432.46h-3.03" stroke="#000" stroke-linejoin="round" stroke-width="1.08"/></g><g id="bn"><g isolation="isolate"><path d="M43.44,427.76c0,.89-.25,1.67-.75,2.35s-1.16,1.18-1.99,1.52c.97,.34,1.75,.87,2.33,1.61s.88,1.58,.88,2.54c0,1.57-.51,2.79-1.53,3.64s-2.32,1.29-3.9,1.29c-1.67,0-3.04-.43-4.1-1.29s-1.59-2.07-1.59-3.64c0-.96,.3-1.81,.9-2.54s1.4-1.27,2.42-1.62c-.88-.33-1.57-.83-2.07-1.51s-.76-1.46-.76-2.35c0-1.49,.48-2.63,1.44-3.42s2.21-1.18,3.74-1.18c1.45,0,2.65,.4,3.58,1.19s1.4,1.93,1.4,3.42Zm-1.83,7.97c0-.93-.3-1.7-.91-2.3s-1.35-.9-2.24-.9c-.97,0-1.77,.3-2.4,.9s-.95,1.37-.95,2.3,.31,1.73,.94,2.31,1.44,.87,2.43,.87c.89,0,1.63-.29,2.23-.87s.9-1.35,.9-2.3Zm-.48-7.93c0-.82-.26-1.5-.77-2.03s-1.15-.8-1.9-.8c-.84,0-1.52,.26-2.06,.77s-.81,1.2-.81,2.06,.27,1.57,.82,2.11,1.24,.81,2.07,.81c.76,0,1.39-.27,1.89-.81s.76-1.24,.76-2.11Z"/><path d="M57.46,440.46h-10.59v-1.58l5.36-6.39c.95-1.16,1.6-2.08,1.94-2.76s.51-1.37,.51-2.07c0-.79-.23-1.44-.69-1.94s-1.1-.76-1.91-.76c-1.01,0-1.78,.31-2.3,.93s-.79,1.39-.79,2.31h-2.23l-.02-.07c-.04-1.39,.43-2.57,1.39-3.53s2.29-1.45,3.95-1.45c1.52,0,2.72,.42,3.6,1.27s1.31,1.93,1.31,3.27c0,.9-.25,1.78-.74,2.64s-1.25,1.94-2.27,3.23l-4.3,5.04,.02,.06h7.77v1.8Z"/><path d="M62.82,440.46h-2.31v-2.37h2.31v2.37Z"/><path d="M67.1,432.88l.98-9.48h8.54v2.05h-6.6l-.55,4.91c.37-.27,.77-.5,1.22-.67s.95-.27,1.52-.28c1.58-.02,2.81,.48,3.71,1.48s1.34,2.38,1.34,4.13-.46,3.09-1.38,4.12-2.26,1.56-4.01,1.56c-1.45,0-2.65-.39-3.61-1.18s-1.42-1.95-1.38-3.48l.02-.07h2.09c0,.93,.27,1.65,.8,2.16s1.23,.77,2.08,.77c.98,0,1.73-.34,2.27-1.03s.81-1.63,.81-2.82c0-1.09-.27-1.96-.81-2.64s-1.3-1.01-2.27-1.01c-.91,0-1.56,.14-1.97,.41s-.71,.7-.9,1.27l-1.91-.2Z"/></g></g></g><g id="bo"><g id="bp"><g clip-path="url(#bq)"><path d="M85.77,372.47h483.03" fill="none" stroke="#d0d2d3" stroke-linecap="square" stroke-linejoin="round" stroke-width="1.08"/></g></g><g id="br"><path id="bs" d="M85.77,372.47h-3.03" stroke="#000" stroke-linejoin="round" stroke-width="1.08"/></g><g id="bt"><g isolation="isolate"><path d="M61.44,367.77c0,.89-.25,1.67-.75,2.35s-1.16,1.18-1.99,1.52c.97,.34,1.75,.87,2.33,1.61s.88,1.58,.88,2.54c0,1.57-.51,2.79-1.53,3.64s-2.32,1.29-3.9,1.29c-1.67,0-3.04-.43-4.1-1.29s-1.59-2.07-1.59-3.64c0-.96,.3-1.81,.9-2.54s1.4-1.27,2.42-1.62c-.88-.33-1.57-.83-2.07-1.51s-.76-1.46-.76-2.35c0-1.49,.48-2.63,1.44-3.42s2.21-1.18,3.74-1.18c1.45,0,2.65,.4,3.58,1.19s1.4,1.93,1.4,3.42Zm-1.83,7.97c0-.93-.3-1.7-.91-2.3s-1.35-.9-2.24-.9c-.97,0-1.77,.3-2.4,.9s-.95,1.37-.95,2.3,.31,1.73,.94,2.31,1.44,.87,2.43,.87c.89,0,1.63-.29,2.23-.87s.9-1.35,.9-2.3Zm-.48-7.93c0-.82-.26-1.5-.77-2.03s-1.15-.8-1.9-.8c-.84,0-1.52,.26-2.06,.77s-.81,1.2-.81,2.06,.27,1.57,.82,2.11,1.24,.81,2.07,.81c.76,0,1.39-.27,1.89-.81s.76-1.24,.76-2.11Z"/><path d="M65.16,372.89l.98-9.48h8.54v2.05h-6.6l-.55,4.91c.37-.27,.77-.5,1.22-.67s.95-.27,1.52-.28c1.58-.02,2.81,.48,3.71,1.48s1.34,2.38,1.34,4.13-.46,3.09-1.38,4.12-2.26,1.56-4.01,1.56c-1.45,0-2.65-.39-3.61-1.18s-1.42-1.95-1.38-3.48l.02-.07h2.09c0,.93,.27,1.65,.8,2.16s1.23,.77,2.08,.77c.98,0,1.73-.34,2.27-1.03s.81-1.63,.81-2.82c0-1.09-.27-1.96-.81-2.64s-1.3-1.01-2.27-1.01c-.91,0-1.56,.14-1.97,.41s-.71,.7-.9,1.27l-1.91-.2Z"/></g></g></g><g id="bu"><g id="bv"><g clip-path="url(#bw)"><path d="M85.77,312.48h483.03" fill="none" stroke="#d0d2d3" stroke-linecap="square" stroke-linejoin="round" stroke-width="1.08"/></g></g><g id="bx"><path id="by" d="M85.77,312.48h-3.03" stroke="#000" stroke-linejoin="round" stroke-width="1.08"/></g><g id="bz"><g isolation="isolate"><path d="M43.44,307.78c0,.89-.25,1.67-.75,2.35s-1.16,1.18-1.99,1.52c.97,.34,1.75,.87,2.33,1.61s.88,1.58,.88,2.54c0,1.57-.51,2.79-1.53,3.64s-2.32,1.29-3.9,1.29c-1.67,0-3.04-.43-4.1-1.29s-1.59-2.07-1.59-3.64c0-.96,.3-1.81,.9-2.54s1.4-1.27,2.42-1.62c-.88-.33-1.57-.83-2.07-1.51s-.76-1.46-.76-2.35c0-1.49,.48-2.63,1.44-3.42s2.21-1.18,3.74-1.18c1.45,0,2.65,.4,3.58,1.19s1.4,1.93,1.4,3.42Zm-1.83,7.97c0-.93-.3-1.7-.91-2.3s-1.35-.9-2.24-.9c-.97,0-1.77,.3-2.4,.9s-.95,1.37-.95,2.3,.31,1.73,.94,2.31,1.44,.87,2.43,.87c.89,0,1.63-.29,2.23-.87s.9-1.35,.9-2.3Zm-.48-7.93c0-.82-.26-1.5-.77-2.03s-1.15-.8-1.9-.8c-.84,0-1.52,.26-2.06,.77s-.81,1.2-.81,2.06,.27,1.57,.82,2.11,1.24,.81,2.07,.81c.76,0,1.39-.27,1.89-.81s.76-1.24,.76-2.11Z"/><path d="M57.57,305.23c-2.16,2.56-3.61,4.82-4.37,6.79s-1.14,4.16-1.14,6.6v1.86h-2.31v-1.86c0-2.58,.47-4.9,1.42-6.97s2.32-4.21,4.12-6.42h-9.05v-1.82h11.32v1.82Z"/><path d="M62.82,320.48h-2.31v-2.37h2.31v2.37Z"/><path d="M67.1,312.9l.98-9.48h8.54v2.05h-6.6l-.55,4.91c.37-.27,.77-.5,1.22-.67s.95-.27,1.52-.28c1.58-.02,2.81,.48,3.71,1.48s1.34,2.38,1.34,4.13-.46,3.09-1.38,4.12-2.26,1.56-4.01,1.56c-1.45,0-2.65-.39-3.61-1.18s-1.42-1.95-1.38-3.48l.02-.07h2.09c0,.93,.27,1.65,.8,2.16s1.23,.77,2.08,.77c.98,0,1.73-.34,2.27-1.03s.81-1.63,.81-2.82c0-1.09-.27-1.96-.81-2.64s-1.3-1.01-2.27-1.01c-.91,0-1.56,.14-1.97,.41s-.71,.7-.9,1.27l-1.91-.2Z"/></g></g></g><g id="ca"><g id="cb"><g clip-path="url(#cc)"><path d="M85.77,252.49h483.03" fill="none" stroke="#d0d2d3" stroke-linecap="square" stroke-linejoin="round" stroke-width="1.08"/></g></g><g id="cd"><path id="ce" d="M85.77,252.49h-3.03" stroke="#000" stroke-linejoin="round" stroke-width="1.08"/></g><g id="cf"><g isolation="isolate"><path d="M55.47,258.93c1.11,0,2.01-.38,2.69-1.15s1.03-1.85,1.03-3.26v-1.45c-.38,.55-.84,.97-1.4,1.26s-1.17,.43-1.83,.43c-1.64,0-2.93-.51-3.86-1.52s-1.4-2.42-1.4-4.21,.5-3.12,1.49-4.21,2.22-1.63,3.68-1.63c1.7,0,3.07,.54,4.1,1.61s1.55,2.58,1.55,4.54v5.18c0,1.96-.56,3.49-1.69,4.59s-2.57,1.65-4.35,1.65c-.6,0-1.22-.06-1.85-.19s-1.22-.31-1.76-.55l.35-1.76c.52,.25,1.02,.43,1.52,.53s1.08,.16,1.74,.16Zm.48-5.98c.8,0,1.48-.18,2.03-.55s.95-.84,1.2-1.41v-2.02c0-1.27-.29-2.26-.86-2.95s-1.37-1.04-2.4-1.04c-.84,0-1.53,.37-2.09,1.12s-.84,1.72-.84,2.91,.26,2.12,.77,2.84,1.24,1.08,2.18,1.08Z"/><path d="M75.3,254.47c0,1.93-.49,3.46-1.47,4.58s-2.3,1.69-3.96,1.69-2.97-.56-3.96-1.69-1.48-2.65-1.48-4.58v-5.02c0-1.91,.49-3.44,1.47-4.57s2.29-1.7,3.94-1.7,2.98,.57,3.97,1.7,1.48,2.66,1.48,4.57v5.02Zm-2.31-5.5c0-1.23-.27-2.2-.82-2.91s-1.32-1.07-2.32-1.07-1.76,.36-2.3,1.07-.81,1.68-.81,2.91v5.96c0,1.23,.28,2.2,.83,2.92s1.32,1.08,2.3,1.08,1.77-.36,2.31-1.07,.81-1.69,.81-2.92v-5.96Z"/></g></g></g><g id="cg"><g id="ch"><g clip-path="url(#ci)"><path d="M85.77,192.5h483.03" fill="none" stroke="#d0d2d3" stroke-linecap="square" stroke-linejoin="round" stroke-width="1.08"/></g></g><g id="cj"><path id="ck" d="M85.77,192.5h-3.03" stroke="#000" stroke-linejoin="round" stroke-width="1.08"/></g><g id="cl"><g isolation="isolate"><path d="M37.47,198.94c1.11,0,2.01-.38,2.69-1.15s1.03-1.85,1.03-3.26v-1.45c-.38,.55-.84,.97-1.4,1.26s-1.17,.43-1.83,.43c-1.64,0-2.93-.51-3.86-1.52s-1.4-2.42-1.4-4.21,.5-3.12,1.49-4.21,2.22-1.63,3.68-1.63c1.7,0,3.07,.54,4.1,1.61s1.55,2.58,1.55,4.54v5.18c0,1.96-.56,3.49-1.69,4.59s-2.57,1.65-4.35,1.65c-.6,0-1.22-.06-1.85-.19s-1.22-.31-1.76-.55l.35-1.76c.52,.25,1.02,.43,1.52,.53s1.08,.16,1.74,.16Zm.48-5.98c.8,0,1.48-.18,2.03-.55s.95-.84,1.2-1.41v-2.02c0-1.27-.29-2.26-.86-2.95s-1.37-1.04-2.4-1.04c-.84,0-1.53,.37-2.09,1.12s-.84,1.72-.84,2.91,.26,2.12,.77,2.84,1.24,1.08,2.18,1.08Z"/><path d="M57.46,200.5h-10.59v-1.58l5.36-6.39c.95-1.16,1.6-2.08,1.94-2.76s.51-1.37,.51-2.07c0-.79-.23-1.44-.69-1.94s-1.1-.76-1.91-.76c-1.01,0-1.78,.31-2.3,.93s-.79,1.39-.79,2.31h-2.23l-.02-.07c-.04-1.39,.43-2.57,1.39-3.53s2.29-1.45,3.95-1.45c1.52,0,2.72,.42,3.6,1.27s1.31,1.93,1.31,3.27c0,.9-.25,1.78-.74,2.64s-1.25,1.94-2.27,3.23l-4.3,5.04,.02,.06h7.77v1.8Z"/><path d="M62.82,200.5h-2.31v-2.37h2.31v2.37Z"/><path d="M67.1,192.92l.98-9.48h8.54v2.05h-6.6l-.55,4.91c.37-.27,.77-.5,1.22-.67s.95-.27,1.52-.28c1.58-.02,2.81,.48,3.71,1.48s1.34,2.38,1.34,4.13-.46,3.09-1.38,4.12-2.26,1.56-4.01,1.56c-1.45,0-2.65-.39-3.61-1.18s-1.42-1.95-1.38-3.48l.02-.07h2.09c0,.93,.27,1.65,.8,2.16s1.23,.77,2.08,.77c.98,0,1.73-.34,2.27-1.03s.81-1.63,.81-2.82c0-1.09-.27-1.96-.81-2.64s-1.3-1.01-2.27-1.01c-.91,0-1.56,.14-1.97,.41s-.71,.7-.9,1.27l-1.91-.2Z"/></g></g></g><g id="cm"><g id="cn"><g clip-path="url(#co)"><path d="M85.77,132.51h483.03" fill="none" stroke="#d0d2d3" stroke-linecap="square" stroke-linejoin="round" stroke-width="1.08"/></g></g><g id="cp"><path id="cq" d="M85.77,132.51h-3.03" stroke="#000" stroke-linejoin="round" stroke-width="1.08"/></g><g id="cr"><g isolation="isolate"><path d="M55.47,138.95c1.11,0,2.01-.38,2.69-1.15s1.03-1.85,1.03-3.26v-1.45c-.38,.55-.84,.97-1.4,1.26s-1.17,.43-1.83,.43c-1.64,0-2.93-.51-3.86-1.52s-1.4-2.42-1.4-4.21,.5-3.12,1.49-4.21,2.22-1.63,3.68-1.63c1.7,0,3.07,.54,4.1,1.61s1.55,2.58,1.55,4.54v5.18c0,1.96-.56,3.49-1.69,4.59s-2.57,1.65-4.35,1.65c-.6,0-1.22-.06-1.85-.19s-1.22-.31-1.76-.55l.35-1.76c.52,.25,1.02,.43,1.52,.53s1.08,.16,1.74,.16Zm.48-5.98c.8,0,1.48-.18,2.03-.55s.95-.84,1.2-1.41v-2.02c0-1.27-.29-2.26-.86-2.95s-1.37-1.04-2.4-1.04c-.84,0-1.53,.37-2.09,1.12s-.84,1.72-.84,2.91,.26,2.12,.77,2.84,1.24,1.08,2.18,1.08Z"/><path d="M65.16,132.93l.98-9.48h8.54v2.05h-6.6l-.55,4.91c.37-.27,.77-.5,1.22-.67s.95-.27,1.52-.28c1.58-.02,2.81,.48,3.71,1.48s1.34,2.38,1.34,4.13-.46,3.09-1.38,4.12-2.26,1.56-4.01,1.56c-1.45,0-2.65-.39-3.61-1.18s-1.42-1.95-1.38-3.48l.02-.07h2.09c0,.93,.27,1.65,.8,2.16s1.23,.77,2.08,.77c.98,0,1.73-.34,2.27-1.03s.81-1.63,.81-2.82c0-1.09-.27-1.96-.81-2.64s-1.3-1.01-2.27-1.01c-.91,0-1.56,.14-1.97,.41s-.71,.7-.9,1.27l-1.91-.2Z"/></g></g></g><g id="cs"><g id="ct"><g clip-path="url(#cu)"><path d="M85.77,72.52h483.03" fill="none" stroke="#d0d2d3" stroke-linecap="square" stroke-linejoin="round" stroke-width="1.08"/></g></g><g id="cv"><path id="cw" d="M85.77,72.52h-3.03" stroke="#000" stroke-linejoin="round" stroke-width="1.08"/></g><g id="cx"><g isolation="isolate"><path d="M37.47,78.96c1.11,0,2.01-.38,2.69-1.15s1.03-1.85,1.03-3.26v-1.45c-.38,.55-.84,.97-1.4,1.26s-1.17,.43-1.83,.43c-1.64,0-2.93-.51-3.86-1.52s-1.4-2.42-1.4-4.21,.5-3.12,1.49-4.21,2.22-1.63,3.68-1.63c1.7,0,3.07,.54,4.1,1.61s1.55,2.58,1.55,4.54v5.18c0,1.96-.56,3.49-1.69,4.59s-2.57,1.65-4.35,1.65c-.6,0-1.22-.06-1.85-.19s-1.22-.31-1.76-.55l.35-1.76c.52,.25,1.02,.43,1.52,.53s1.08,.16,1.74,.16Zm.48-5.98c.8,0,1.48-.18,2.03-.55s.95-.84,1.2-1.41v-2.02c0-1.27-.29-2.26-.86-2.95s-1.37-1.04-2.4-1.04c-.84,0-1.53,.37-2.09,1.12s-.84,1.72-.84,2.91,.26,2.12,.77,2.84,1.24,1.08,2.18,1.08Z"/><path d="M57.57,65.28c-2.16,2.56-3.61,4.82-4.37,6.79s-1.14,4.16-1.14,6.6v1.86h-2.31v-1.86c0-2.58,.47-4.9,1.42-6.97s2.32-4.21,4.12-6.42h-9.05v-1.82h11.32v1.82Z"/><path d="M62.82,80.52h-2.31v-2.37h2.31v2.37Z"/><path d="M67.1,72.94l.98-9.48h8.54v2.05h-6.6l-.55,4.91c.37-.27,.77-.5,1.22-.67s.95-.27,1.52-.28c1.58-.02,2.81,.48,3.71,1.48s1.34,2.38,1.34,4.13-.46,3.09-1.38,4.12-2.26,1.56-4.01,1.56c-1.45,0-2.65-.39-3.61-1.18s-1.42-1.95-1.38-3.48l.02-.07h2.09c0,.93,.27,1.65,.8,2.16s1.23,.77,2.08,.77c.98,0,1.73-.34,2.27-1.03s.81-1.63,.81-2.82c0-1.09-.27-1.96-.81-2.64s-1.3-1.01-2.27-1.01c-.91,0-1.56,.14-1.97,.41s-.71,.7-.9,1.27l-1.91-.2Z"/></g></g></g><g id="cy"><g id="cz"><g clip-path="url(#da)"><path d="M85.77,12.53h483.03" fill="none" stroke="#afafb0" stroke-linecap="square" stroke-linejoin="round" stroke-width="1.08"/></g></g><g id="db"><path id="dc" d="M85.77,12.53h-3.03" stroke="#000" stroke-linejoin="round" stroke-width="1.08"/></g><g id="dd"><g isolation="isolate"><path d="M47.58,20.53h-2.32V5.6l-3.71,.04v-1.78l6.04-.63V20.53Z"/><path d="M64.96,14.51c0,1.93-.49,3.46-1.47,4.58s-2.3,1.69-3.96,1.69-2.97-.56-3.96-1.69-1.48-2.65-1.48-4.58v-5.02c0-1.91,.49-3.44,1.47-4.57s2.29-1.7,3.94-1.7,2.98,.57,3.97,1.7,1.48,2.66,1.48,4.57v5.02Zm-2.31-5.5c0-1.23-.27-2.2-.82-2.91s-1.32-1.07-2.32-1.07-1.76,.36-2.3,1.07-.81,1.68-.81,2.91v5.96c0,1.23,.28,2.2,.83,2.92s1.32,1.08,2.3,1.08,1.77-.36,2.31-1.07,.81-1.69,.81-2.92v-5.96Z"/><path d="M78.47,14.51c0,1.93-.49,3.46-1.47,4.58s-2.3,1.69-3.96,1.69-2.97-.56-3.96-1.69-1.48-2.65-1.48-4.58v-5.02c0-1.91,.49-3.44,1.47-4.57s2.29-1.7,3.94-1.7,2.98,.57,3.97,1.7,1.48,2.66,1.48,4.57v5.02Zm-2.31-5.5c0-1.23-.27-2.2-.82-2.91s-1.32-1.07-2.32-1.07-1.76,.36-2.3,1.07-.81,1.68-.81,2.91v5.96c0,1.23,.28,2.2,.83,2.92s1.32,1.08,2.3,1.08,1.77-.36,2.31-1.07,.81-1.69,.81-2.92v-5.96Z"/></g></g></g><g id="de"><g isolation="isolate"><path d="M16.85,267.24v5.53l3.68,1.15v3.57l-17.06-5.75v-3.5l17.06-5.73v3.57l-3.68,1.16Zm-2.68,4.69v-3.86l-6.01,1.89v.07l6.01,1.9Z"/><path d="M20.53,247.07v3.42l-11.51,6.88v.07h11.51v3.42H3.47v-3.42l11.5-6.88v-.07H3.47v-3.42H20.53Z"/><path d="M20.53,240.27v3.42H3.47v-3.42H20.53Z"/><path d="M6.75,231.37c-1.01,0-1.85-.33-2.52-.98s-1.01-1.56-1.01-2.72,.33-2.09,1-2.74,1.51-.97,2.53-.97h.9c1.01,0,1.84,.32,2.51,.97s1,1.55,1,2.72-.33,2.09-1,2.74-1.5,.98-2.51,.98h-.9Zm12.5-4.29l-.88,1.66-13.34-8.33,.88-1.66,13.34,8.33Zm-11.6,2.02c.45,0,.83-.12,1.14-.38s.46-.61,.46-1.08-.15-.8-.46-1.05-.69-.37-1.14-.37h-.9c-.45,0-.84,.12-1.15,.38s-.47,.61-.47,1.07,.16,.81,.47,1.06,.7,.37,1.15,.37h.9Zm8.7-5.88c-1,0-1.84-.33-2.51-.98s-1.01-1.57-1.01-2.73,.33-2.08,1-2.74,1.51-.98,2.51-.98h.9c1.02,0,1.86,.32,2.52,.97s1,1.55,1,2.72-.33,2.09-1,2.75-1.51,.99-2.51,.99h-.9Zm.9-2.27c.45,0,.83-.13,1.14-.4s.47-.62,.47-1.06c0-.51-.15-.87-.44-1.09s-.69-.33-1.18-.33h-.9c-.45,0-.83,.12-1.14,.38s-.47,.61-.47,1.07,.16,.83,.47,1.07,.7,.37,1.14,.37h.9Z"/></g></g></g><g id="df"><g clip-path="url(#dg)"><path d="M7,132.51H632" fill="none" stroke="#bd1e52" stroke-dasharray="0 0 20 20" stroke-linejoin="round" stroke-width="6"/></g></g><g><line x1="85.77" y1="12.53" x2="568.81" y2="12.53" fill="none" stroke="#231f20"/><line x1="85.77" y1="492.42" x2="568.81" y2="492.42" fill="none" stroke="#231f20"/><line x1="86.06" y1="12.06" x2="86.06" y2="492.19" fill="none" stroke="#231f20"/><line x1="568.22" y1="12.06" x2="568.22" y2="492.19" fill="none" stroke="#231f20"/></g><g id="dh"><rect x="306.72" y="168.89" width="320.39" height="123.87" rx="11.34" ry="11.34" fill="#f1f1f2" isolation="isolate" stroke="#e6e7e8" stroke-width="1.51"/><g><g id="di"><path d="M319.16,189.39h20.78" fill="none" stroke="#4f2d83" stroke-linecap="square" stroke-linejoin="round" stroke-width="6"/><path id="dj" d="M329.54,193.06l3.67-3.67-3.67-3.67-3.67,3.67,3.67,3.67Z" fill="#4f2d83" stroke="#4f2d83" stroke-width="6"/></g><g id="dk"><g isolation="isolate"><path d="M359.79,188.69h-1.37l-1.15,7.71h-2.31l2.55-17.06h2.31l-1.11,7.42h1.5l6.39-7.42h2.84l.02,.06-7.68,8.48,5.41,8.52h-2.64l-4.77-7.71Z"/><path d="M371.71,196.4h-2.31l2.74-18.28h2.31l-2.74,18.28Z"/><path d="M380.47,196.64c-1.75,0-3.06-.59-3.94-1.77s-1.18-2.7-.9-4.57l.08-.52c.27-1.89,1.02-3.41,2.23-4.57s2.59-1.73,4.13-1.73c1.63,0,2.81,.54,3.53,1.61s.95,2.46,.69,4.18l-.18,1.22h-8.2c-.18,1.34-.05,2.4,.4,3.18s1.25,1.17,2.43,1.17c.75,0,1.45-.11,2.09-.34s1.2-.53,1.67-.91l.68,1.5c-.52,.44-1.17,.81-1.96,1.11s-1.71,.45-2.75,.45Zm1.34-11.34c-.77,0-1.47,.31-2.1,.94s-1.08,1.41-1.35,2.37l.02,.07h5.71l.02-.19c.14-.95,.03-1.71-.33-2.3s-1.02-.88-1.97-.88Z"/><path d="M399.53,190.54c-.29,1.9-.95,3.39-1.98,4.48s-2.32,1.63-3.88,1.63c-.82,0-1.52-.17-2.09-.52s-1.02-.85-1.34-1.51l-.66,1.78h-1.77l2.74-18.28h2.31l-1.07,7.1c.49-.56,1.05-.99,1.69-1.29s1.34-.45,2.12-.45c1.5,0,2.61,.63,3.32,1.89s.92,2.9,.63,4.92l-.04,.25Zm-2.27-.25c.23-1.51,.14-2.71-.26-3.6s-1.15-1.34-2.25-1.34c-.69,0-1.31,.18-1.86,.53s-1.02,.83-1.4,1.44l-.82,5.46c.2,.62,.52,1.11,.95,1.46s1.01,.52,1.75,.52c1.05,0,1.9-.39,2.57-1.18s1.1-1.8,1.28-3.05l.04-.25Z"/><path d="M409.37,192.99c.07-.52-.06-.94-.4-1.25s-1.03-.59-2.09-.83c-1.45-.32-2.54-.77-3.26-1.35s-1.01-1.35-.87-2.32c.15-1.08,.71-1.97,1.68-2.68s2.17-1.07,3.58-1.07,2.47,.39,3.28,1.18,1.13,1.7,.95,2.72l-.02,.07h-2.21c.08-.56-.09-1.06-.5-1.5s-.99-.66-1.73-.66c-.78,0-1.41,.19-1.88,.56s-.74,.81-.81,1.31c-.07,.52,.05,.91,.35,1.17s.99,.51,2.06,.74c1.51,.33,2.62,.79,3.34,1.39s1.01,1.39,.88,2.36c-.16,1.16-.75,2.09-1.75,2.78s-2.24,1.04-3.73,1.04-2.74-.41-3.59-1.24-1.17-1.78-.98-2.86l.02-.07h2.21c-.07,.82,.15,1.42,.67,1.8s1.16,.57,1.92,.57,1.45-.18,1.97-.53,.83-.79,.91-1.32Z"/><path d="M416.51,196.4h-2.31l1.9-12.68h2.31l-1.9,12.68Zm2.39-15.93h-2.31l.35-2.36h2.31l-.35,2.36Z"/><path d="M425.27,196.64c-1.75,0-3.06-.59-3.94-1.77s-1.18-2.7-.9-4.57l.08-.52c.27-1.89,1.02-3.41,2.23-4.57s2.59-1.73,4.13-1.73c1.63,0,2.81,.54,3.53,1.61s.95,2.46,.69,4.18l-.18,1.22h-8.2c-.18,1.34-.05,2.4,.4,3.18s1.25,1.17,2.43,1.17c.75,0,1.45-.11,2.09-.34s1.2-.53,1.67-.91l.68,1.5c-.52,.44-1.17,.81-1.96,1.11s-1.71,.45-2.75,.45Zm1.34-11.34c-.77,0-1.47,.31-2.1,.94s-1.08,1.41-1.35,2.37l.02,.07h5.71l.02-.19c.14-.95,.03-1.71-.33-2.3s-1.02-.88-1.97-.88Z"/><path d="M435.12,196.4h-2.31l2.74-18.28h2.31l-2.74,18.28Z"/><path d="M441.16,196.4h-2.31l2.74-18.28h2.31l-2.74,18.28Z"/><path d="M452.51,196.4c-.02-.44-.02-.79-.02-1.06s.02-.54,.05-.83c-.52,.6-1.16,1.11-1.92,1.52s-1.53,.62-2.31,.62c-1.27,0-2.22-.34-2.83-1.03s-.83-1.61-.65-2.78c.18-1.25,.8-2.21,1.88-2.87s2.46-1,4.16-1h2.51l.19-1.25c.12-.77-.02-1.37-.4-1.79s-1-.63-1.83-.63c-.71,0-1.34,.19-1.88,.56s-.84,.82-.91,1.35l-2.2,.02v-.07c.08-.96,.64-1.81,1.66-2.56s2.27-1.12,3.73-1.12c1.38,0,2.47,.37,3.26,1.11s1.09,1.79,.89,3.15l-.91,6.11c-.08,.48-.12,.92-.13,1.33s.01,.82,.08,1.22h-2.38Zm-3.57-1.69c.8,0,1.57-.22,2.32-.66s1.27-.93,1.56-1.48l.32-2.05h-2.59c-.9,0-1.67,.24-2.32,.71s-1.02,1.02-1.1,1.64c-.09,.59,0,1.04,.31,1.35s.8,.47,1.51,.47Z"/><path d="M475.56,190.54c-.29,1.9-.95,3.39-1.97,4.48s-2.32,1.63-3.87,1.63c-.76,0-1.41-.14-1.97-.42s-1-.69-1.35-1.22l-.94,6.27h-2.31l2.62-17.55h1.77l.12,1.64c.51-.61,1.09-1.07,1.76-1.39s1.41-.48,2.23-.48c1.51,0,2.62,.63,3.33,1.89s.92,2.9,.62,4.92l-.04,.25Zm-2.27-.25c.23-1.49,.12-2.69-.3-3.59s-1.2-1.35-2.31-1.35c-.64,0-1.22,.15-1.74,.46s-.97,.73-1.35,1.26l-.91,6.09c.22,.52,.54,.93,.96,1.22s.97,.44,1.65,.44c1.05,0,1.92-.4,2.63-1.21s1.15-1.84,1.34-3.09l.04-.25Z"/><path d="M480.01,196.4h-2.31l2.74-18.28h2.31l-2.74,18.28Z"/><path d="M491.35,196.4c-.02-.44-.02-.79-.02-1.06s.02-.54,.05-.83c-.52,.6-1.16,1.11-1.92,1.52s-1.53,.62-2.31,.62c-1.27,0-2.22-.34-2.83-1.03s-.83-1.61-.65-2.78c.18-1.25,.8-2.21,1.88-2.87s2.46-1,4.16-1h2.51l.19-1.25c.12-.77-.02-1.37-.4-1.79s-1-.63-1.83-.63c-.71,0-1.34,.19-1.88,.56s-.84,.82-.91,1.35l-2.2,.02v-.07c.08-.96,.64-1.81,1.66-2.56s2.27-1.12,3.73-1.12c1.38,0,2.47,.37,3.26,1.11s1.09,1.79,.89,3.15l-.91,6.11c-.08,.48-.12,.92-.13,1.33s.01,.82,.08,1.22h-2.38Zm-3.57-1.69c.8,0,1.57-.22,2.32-.66s1.27-.93,1.56-1.48l.32-2.05h-2.59c-.9,0-1.67,.24-2.32,.71s-1.02,1.02-1.1,1.64c-.09,.59,0,1.04,.31,1.35s.8,.47,1.51,.47Z"/><path d="M500.61,185.54c.52-.66,1.12-1.16,1.81-1.52s1.44-.53,2.26-.53c1.32,0,2.31,.4,2.96,1.21s.85,2.04,.6,3.7l-1.2,8h-2.31l1.2-7.96c.17-1.16,.07-1.96-.29-2.41s-1.01-.67-1.93-.67c-.69,0-1.3,.15-1.85,.45s-1.01,.72-1.38,1.25l-1.41,9.34h-2.31l1.9-12.68h2.06l-.11,1.82Z"/><path d="M515.96,180.66l-.46,3.06h2.4l-.26,1.71h-2.4l-1.15,7.7c-.09,.62-.04,1.04,.17,1.27s.52,.35,.93,.35c.12,0,.28-.02,.45-.05s.32-.07,.43-.11l.08,1.58c-.2,.14-.47,.26-.81,.35s-.69,.13-1.01,.13c-.91,0-1.6-.29-2.09-.86s-.64-1.46-.45-2.66l1.15-7.7h-2.02l.26-1.71h2.02l.46-3.06h2.31Z"/><path d="M520.98,196.4h-2.31l1.9-12.68h2.31l-1.9,12.68Zm2.39-15.93h-2.31l.35-2.36h2.31l-.35,2.36Z"/><path d="M529.8,194.84c.68,0,1.33-.24,1.94-.71s.97-1.05,1.08-1.73h2.09l.02,.07c-.14,1.14-.75,2.12-1.83,2.95s-2.27,1.24-3.57,1.24c-1.7,0-2.97-.61-3.79-1.83s-1.1-2.72-.84-4.51l.07-.49c.28-1.85,.99-3.37,2.13-4.55s2.61-1.78,4.39-1.78c1.37,0,2.45,.44,3.25,1.32s1.08,1.96,.86,3.22l-.02,.06h-2.11c.12-.8-.03-1.47-.45-2s-1.01-.79-1.79-.79c-1.09,0-1.97,.45-2.65,1.34s-1.11,1.95-1.29,3.17l-.07,.49c-.2,1.31-.11,2.4,.27,3.25s1.15,1.28,2.31,1.28Z"/><path d="M537.53,189.94c.29-1.95,1.03-3.51,2.21-4.69s2.65-1.77,4.41-1.77,2.97,.61,3.84,1.83,1.17,2.76,.9,4.62l-.05,.26c-.3,1.96-1.04,3.53-2.21,4.69s-2.65,1.75-4.42,1.75-2.97-.61-3.84-1.83-1.17-2.76-.88-4.62l.05-.26Zm2.26,.26c-.21,1.39-.1,2.51,.34,3.36s1.22,1.28,2.34,1.28c1.05,0,1.94-.44,2.67-1.33s1.19-1.99,1.39-3.31l.05-.26c.2-1.38,.08-2.49-.36-3.35s-1.22-1.29-2.34-1.29-1.96,.45-2.68,1.34-1.18,1.99-1.37,3.3l-.05,.26Z"/><path d="M553.23,196.4h-2.31l2.74-18.28h2.31l-2.74,18.28Z"/><path d="M564.57,196.4c-.02-.44-.02-.79-.02-1.06s.02-.54,.05-.83c-.52,.6-1.16,1.11-1.92,1.52s-1.53,.62-2.31,.62c-1.27,0-2.22-.34-2.83-1.03s-.83-1.61-.65-2.78c.18-1.25,.8-2.21,1.88-2.87s2.46-1,4.16-1h2.51l.19-1.25c.12-.77-.02-1.37-.4-1.79s-1-.63-1.83-.63c-.71,0-1.34,.19-1.88,.56s-.84,.82-.91,1.35l-2.2,.02v-.07c.08-.96,.64-1.81,1.66-2.56s2.27-1.12,3.73-1.12c1.38,0,2.47,.37,3.26,1.11s1.09,1.79,.89,3.15l-.91,6.11c-.08,.48-.12,.92-.13,1.33s.01,.82,.08,1.22h-2.38Zm-3.57-1.69c.8,0,1.57-.22,2.32-.66s1.27-.93,1.56-1.48l.32-2.05h-2.59c-.9,0-1.67,.24-2.32,.71s-1.02,1.02-1.1,1.64c-.09,.59,0,1.04,.31,1.35s.8,.47,1.51,.47Z"/></g></g></g><g><g id="dl"><path d="M319.16,216.99h20.78" fill="none" stroke="#16ae7a" stroke-linecap="square" stroke-linejoin="round" stroke-width="6"/><path id="dm" d="M329.54,220.66l3.67-3.67-3.67-3.67-3.67,3.67,3.67,3.67Z" fill="#16ae7a" stroke="#16ae7a" stroke-width="6"/></g><g id="dn"><g isolation="isolate"><path d="M359.79,216.29h-1.37l-1.15,7.71h-2.31l2.55-17.06h2.31l-1.11,7.42h1.5l6.39-7.42h2.84l.02,.06-7.68,8.48,5.41,8.52h-2.64l-4.77-7.71Z"/><path d="M371.71,224h-2.31l2.74-18.28h2.31l-2.74,18.28Z"/><path d="M380.47,224.25c-1.75,0-3.06-.59-3.94-1.77s-1.18-2.7-.9-4.57l.08-.52c.27-1.89,1.02-3.41,2.23-4.57s2.59-1.73,4.13-1.73c1.63,0,2.81,.54,3.53,1.61s.95,2.46,.69,4.18l-.18,1.22h-8.2c-.18,1.34-.05,2.4,.4,3.18s1.25,1.17,2.43,1.17c.75,0,1.45-.11,2.09-.34s1.2-.53,1.67-.91l.68,1.5c-.52,.44-1.17,.81-1.96,1.11s-1.71,.45-2.75,.45Zm1.34-11.34c-.77,0-1.47,.31-2.1,.94s-1.08,1.41-1.35,2.37l.02,.07h5.71l.02-.19c.14-.95,.03-1.71-.33-2.3s-1.02-.88-1.97-.88Z"/><path d="M399.53,218.14c-.29,1.9-.95,3.39-1.98,4.48s-2.32,1.63-3.88,1.63c-.82,0-1.52-.17-2.09-.52s-1.02-.85-1.34-1.51l-.66,1.78h-1.77l2.74-18.28h2.31l-1.07,7.1c.49-.56,1.05-.99,1.69-1.29s1.34-.45,2.12-.45c1.5,0,2.61,.63,3.32,1.89s.92,2.9,.63,4.92l-.04,.25Zm-2.27-.25c.23-1.51,.14-2.71-.26-3.6s-1.15-1.34-2.25-1.34c-.69,0-1.31,.18-1.86,.53s-1.02,.83-1.4,1.44l-.82,5.46c.2,.62,.52,1.11,.95,1.46s1.01,.52,1.75,.52c1.05,0,1.9-.39,2.57-1.18s1.1-1.8,1.28-3.05l.04-.25Z"/><path d="M409.37,220.59c.07-.52-.06-.94-.4-1.25s-1.03-.59-2.09-.83c-1.45-.32-2.54-.77-3.26-1.35-.72-.58-1.01-1.35-.87-2.32,.15-1.08,.71-1.97,1.68-2.68s2.17-1.07,3.58-1.07,2.47,.39,3.28,1.18,1.13,1.7,.95,2.72l-.02,.07h-2.21c.08-.56-.09-1.06-.5-1.5s-.99-.66-1.73-.66c-.78,0-1.41,.19-1.88,.56s-.74,.81-.81,1.31c-.07,.52,.05,.91,.35,1.17s.99,.51,2.06,.74c1.51,.33,2.62,.79,3.34,1.4,.72,.6,1.01,1.39,.88,2.36-.16,1.16-.75,2.09-1.75,2.78s-2.24,1.04-3.73,1.04-2.74-.41-3.59-1.24-1.17-1.78-.98-2.86l.02-.07h2.21c-.07,.82,.15,1.42,.67,1.8s1.16,.57,1.92,.57,1.45-.18,1.97-.53,.83-.79,.91-1.32Z"/><path d="M416.51,224h-2.31l1.9-12.68h2.31l-1.9,12.68Zm2.39-15.93h-2.31l.35-2.36h2.31l-.35,2.36Z"/><path d="M425.27,224.25c-1.75,0-3.06-.59-3.94-1.77s-1.18-2.7-.9-4.57l.08-.52c.27-1.89,1.02-3.41,2.23-4.57s2.59-1.73,4.13-1.73c1.63,0,2.81,.54,3.53,1.61s.95,2.46,.69,4.18l-.18,1.22h-8.2c-.18,1.34-.05,2.4,.4,3.18s1.25,1.17,2.43,1.17c.75,0,1.45-.11,2.09-.34s1.2-.53,1.67-.91l.68,1.5c-.52,.44-1.17,.81-1.96,1.11s-1.71,.45-2.75,.45Zm1.34-11.34c-.77,0-1.47,.31-2.1,.94s-1.08,1.41-1.35,2.37l.02,.07h5.71l.02-.19c.14-.95,.03-1.71-.33-2.3s-1.02-.88-1.97-.88Z"/><path d="M435.12,224h-2.31l2.74-18.28h2.31l-2.74,18.28Z"/><path d="M441.16,224h-2.31l2.74-18.28h2.31l-2.74,18.28Z"/><path d="M452.51,224c-.02-.44-.02-.79-.02-1.06s.02-.54,.05-.83c-.52,.6-1.16,1.11-1.92,1.52s-1.53,.62-2.31,.62c-1.27,0-2.22-.34-2.83-1.03s-.83-1.61-.65-2.78c.18-1.25,.8-2.21,1.88-2.87,1.07-.66,2.46-1,4.16-1h2.51l.19-1.25c.12-.77-.02-1.37-.4-1.79s-1-.63-1.83-.63c-.71,0-1.34,.19-1.88,.56s-.84,.82-.91,1.35l-2.2,.02v-.07c.08-.96,.64-1.81,1.66-2.56s2.27-1.12,3.73-1.12c1.38,0,2.47,.37,3.26,1.11s1.09,1.79,.89,3.15l-.91,6.11c-.08,.48-.12,.92-.13,1.33s.01,.82,.08,1.22h-2.38Zm-3.57-1.69c.8,0,1.57-.22,2.32-.66s1.27-.93,1.56-1.48l.32-2.05h-2.59c-.9,0-1.67,.24-2.32,.71s-1.02,1.02-1.1,1.64c-.09,.59,0,1.04,.31,1.35s.8,.47,1.51,.47Z"/><path d="M464.31,217.54c.29-1.95,1.03-3.51,2.21-4.69s2.65-1.77,4.41-1.77,2.97,.61,3.84,1.83,1.17,2.76,.9,4.62l-.05,.26c-.3,1.96-1.04,3.53-2.21,4.69s-2.65,1.75-4.42,1.75-2.97-.61-3.84-1.83-1.17-2.76-.88-4.62l.05-.26Zm2.26,.26c-.21,1.39-.1,2.51,.34,3.36s1.22,1.28,2.34,1.28c1.05,0,1.94-.44,2.67-1.33s1.19-1.99,1.39-3.31l.05-.26c.2-1.38,.08-2.49-.36-3.35s-1.22-1.29-2.34-1.29-1.96,.45-2.68,1.34-1.18,1.99-1.37,3.3l-.05,.26Z"/><path d="M485.11,213.36l-1.17-.07c-.6,0-1.13,.15-1.59,.45s-.85,.72-1.17,1.27l-1.35,8.99h-2.31l1.9-12.68h2.06l-.05,1.79c.45-.64,.97-1.14,1.55-1.49s1.21-.53,1.91-.53c.16,0,.33,.01,.49,.04s.29,.06,.38,.09l-.64,2.14Z"/><path d="M489.77,213.14c.52-.66,1.12-1.16,1.81-1.52s1.44-.53,2.26-.53c1.32,0,2.31,.4,2.96,1.21s.85,2.04,.6,3.7l-1.2,8h-2.31l1.2-7.96c.17-1.16,.07-1.96-.29-2.41s-1.01-.67-1.93-.67c-.69,0-1.3,.15-1.85,.45s-1.01,.72-1.38,1.25l-1.41,9.34h-2.31l1.9-12.68h2.06l-.11,1.82Z"/><path d="M502.05,224h-2.31l1.9-12.68h2.31l-1.9,12.68Zm2.39-15.93h-2.31l.35-2.36h2.31l-.35,2.36Z"/><path d="M511.17,208.26l-.46,3.06h2.4l-.26,1.71h-2.4l-1.15,7.7c-.09,.62-.04,1.04,.17,1.27s.52,.35,.93,.35c.12,0,.28-.02,.45-.05s.32-.07,.43-.11l.08,1.58c-.2,.14-.47,.26-.81,.35s-.69,.13-1.01,.13c-.91,0-1.6-.29-2.09-.86s-.64-1.46-.45-2.66l1.15-7.7h-2.02l.26-1.71h2.02l.46-3.06h2.31Z"/><path d="M517.65,212.95c.53-.59,1.14-1.05,1.82-1.38s1.41-.49,2.19-.49c1.3,0,2.28,.41,2.94,1.23s.86,2.07,.62,3.74l-1.2,7.95h-2.31l1.2-7.97c.16-1.08,.06-1.86-.32-2.34s-1.01-.73-1.91-.73c-.66,0-1.28,.14-1.83,.42s-1.03,.67-1.42,1.17l-1.42,9.45h-2.31l2.74-18.28h2.31l-1.09,7.23Z"/><path d="M529.83,224h-2.31l1.9-12.68h2.31l-1.9,12.68Zm2.39-15.93h-2.31l.35-2.36h2.31l-.35,2.36Z"/><path d="M537.23,213.14c.52-.66,1.12-1.16,1.81-1.52s1.44-.53,2.26-.53c1.32,0,2.31,.4,2.96,1.21s.85,2.04,.6,3.7l-1.2,8h-2.31l1.2-7.96c.17-1.16,.07-1.96-.29-2.41s-1.01-.67-1.93-.67c-.69,0-1.3,.15-1.85,.45s-1.01,.72-1.38,1.25l-1.41,9.34h-2.31l1.9-12.68h2.06l-.11,1.82Z"/><path d="M547.45,217.54c.29-1.95,1.03-3.51,2.21-4.69s2.65-1.77,4.41-1.77,2.97,.61,3.84,1.83,1.17,2.76,.9,4.62l-.05,.26c-.3,1.96-1.04,3.53-2.21,4.69s-2.65,1.75-4.42,1.75-2.97-.61-3.84-1.83-1.17-2.76-.88-4.62l.05-.26Zm2.26,.26c-.21,1.39-.1,2.51,.34,3.36s1.22,1.28,2.34,1.28c1.05,0,1.94-.44,2.67-1.33s1.19-1.99,1.39-3.31l.05-.26c.2-1.38,.08-2.49-.36-3.35s-1.22-1.29-2.34-1.29-1.96,.45-2.68,1.34-1.18,1.99-1.37,3.3l-.05,.26Z"/><path d="M563.16,224h-2.31l2.74-18.28h2.31l-2.74,18.28Z"/><path d="M571.29,219.3l.18,1.59h.07s4.55-9.57,4.55-9.57h2.57l-7.52,14.63c-.45,.85-1.03,1.59-1.72,2.23s-1.54,.95-2.56,.95c-.18,0-.41-.02-.69-.06s-.5-.08-.66-.12l.5-1.82s.12,0,.43,.02,.51,.04,.59,.04c.47,0,.9-.23,1.31-.69s.74-.93,1-1.42l.76-1.32-2.86-12.42h2.58l1.48,7.98Z"/><path d="M584.34,208.26l-.46,3.06h2.4l-.26,1.71h-2.4l-1.15,7.7c-.09,.62-.04,1.04,.17,1.27s.52,.35,.93,.35c.12,0,.28-.02,.45-.05s.32-.07,.43-.11l.08,1.58c-.2,.14-.47,.26-.81,.35s-.69,.13-1.01,.13c-.91,0-1.6-.29-2.09-.86s-.64-1.46-.45-2.66l1.15-7.7h-2.02l.26-1.71h2.02l.46-3.06h2.31Z"/><path d="M589.36,224h-2.31l1.9-12.68h2.31l-1.9,12.68Zm2.39-15.93h-2.31l.35-2.36h2.31l-.35,2.36Z"/><path d="M598.18,222.44c.68,0,1.33-.24,1.94-.71s.97-1.05,1.08-1.73h2.09l.02,.07c-.14,1.14-.75,2.12-1.83,2.95s-2.27,1.24-3.57,1.24c-1.7,0-2.97-.61-3.79-1.83s-1.1-2.72-.84-4.51l.07-.49c.28-1.85,.99-3.37,2.13-4.55s2.61-1.78,4.39-1.78c1.37,0,2.45,.44,3.25,1.32s1.08,1.96,.86,3.22l-.02,.06h-2.11c.12-.8-.03-1.47-.45-2s-1.01-.79-1.79-.79c-1.09,0-1.97,.45-2.65,1.34s-1.11,1.95-1.29,3.17l-.07,.49c-.2,1.31-.11,2.4,.27,3.25s1.15,1.28,2.31,1.28Z"/><path d="M613.26,224c-.02-.44-.02-.79-.02-1.06s.02-.54,.05-.83c-.52,.6-1.16,1.11-1.92,1.52s-1.53,.62-2.31,.62c-1.27,0-2.22-.34-2.83-1.03s-.83-1.61-.65-2.78c.18-1.25,.8-2.21,1.88-2.87,1.07-.66,2.46-1,4.16-1h2.51l.19-1.25c.12-.77-.02-1.37-.4-1.79s-1-.63-1.83-.63c-.71,0-1.34,.19-1.88,.56s-.84,.82-.91,1.35l-2.2,.02v-.07c.08-.96,.64-1.81,1.66-2.56s2.27-1.12,3.73-1.12c1.38,0,2.47,.37,3.26,1.11s1.09,1.79,.89,3.15l-.91,6.11c-.08,.48-.12,.92-.13,1.33s.01,.82,.08,1.22h-2.38Zm-3.57-1.69c.8,0,1.57-.22,2.32-.66s1.27-.93,1.56-1.48l.32-2.05h-2.59c-.9,0-1.67,.24-2.32,.71s-1.02,1.02-1.1,1.64c-.09,.59,0,1.04,.31,1.35s.8,.47,1.51,.47Z"/></g></g></g><g><g id="do"><path d="M319.16,244.59h20.78" fill="none" stroke="#ec9d3d" stroke-linecap="square" stroke-linejoin="round" stroke-width="6"/><path id="dp" d="M329.54,248.26l3.67-3.67-3.67-3.67-3.67,3.67,3.67,3.67Z" fill="#ec9d3d" stroke="#ec9d3d" stroke-width="6"/></g><g id="dq"><g isolation="isolate"><path d="M368.14,246.14l.02,.07c-.22,1.66-.98,3.02-2.29,4.07s-2.91,1.57-4.83,1.57-3.3-.69-4.35-2.07-1.42-3.11-1.1-5.19l.46-3.04c.32-2.18,1.18-3.94,2.59-5.27s3.09-2,5.04-2,3.3,.52,4.32,1.55,1.39,2.39,1.11,4.07l-.04,.07h-2.21c.18-1.24-.03-2.2-.62-2.87s-1.54-1.01-2.84-1.01-2.33,.53-3.28,1.58-1.54,2.33-1.76,3.85l-.46,3.06c-.25,1.62-.07,2.93,.54,3.94s1.57,1.51,2.87,1.51c1.23,0,2.27-.35,3.09-1.05s1.34-1.65,1.52-2.85h2.2Z"/><path d="M372.54,251.6h-2.31l1.9-12.68h2.31l-1.9,12.68Zm2.39-15.93h-2.31l.35-2.36h2.31l-.35,2.36Z"/><path d="M381.66,235.86l-.46,3.06h2.4l-.26,1.71h-2.4l-1.15,7.7c-.09,.62-.04,1.04,.17,1.27s.52,.35,.93,.35c.12,0,.28-.02,.45-.05s.32-.07,.43-.11l.08,1.58c-.2,.14-.47,.26-.81,.35s-.69,.13-1.01,.13c-.91,0-1.6-.29-2.09-.86s-.64-1.46-.45-2.66l1.15-7.7h-2.02l.26-1.71h2.02l.46-3.06h2.31Z"/><path d="M391.77,240.96l-1.17-.07c-.6,0-1.13,.15-1.59,.45s-.85,.72-1.17,1.27l-1.35,8.99h-2.31l1.9-12.68h2.06l-.05,1.79c.45-.64,.97-1.14,1.55-1.49s1.21-.53,1.91-.53c.16,0,.33,.01,.49,.04s.29,.06,.38,.09l-.64,2.14Z"/><path d="M392.78,245.15c.29-1.95,1.03-3.51,2.21-4.69s2.65-1.77,4.41-1.77,2.97,.61,3.84,1.83,1.17,2.76,.9,4.62l-.05,.26c-.3,1.96-1.04,3.53-2.21,4.69s-2.65,1.75-4.42,1.75-2.97-.61-3.84-1.83-1.17-2.76-.88-4.62l.05-.26Zm2.26,.26c-.21,1.39-.1,2.51,.34,3.36s1.22,1.28,2.34,1.28c1.05,0,1.94-.44,2.67-1.33s1.19-1.99,1.39-3.31l.05-.26c.2-1.38,.08-2.49-.36-3.35s-1.22-1.29-2.34-1.29-1.96,.45-2.68,1.34-1.18,1.99-1.37,3.3l-.05,.26Z"/><path d="M417.69,245.74c-.29,1.9-.95,3.39-1.98,4.48s-2.32,1.63-3.88,1.63c-.82,0-1.52-.17-2.09-.52s-1.02-.85-1.34-1.51l-.66,1.78h-1.77l2.74-18.28h2.31l-1.07,7.1c.49-.56,1.05-.99,1.69-1.29s1.34-.45,2.12-.45c1.5,0,2.61,.63,3.32,1.89s.92,2.9,.63,4.92l-.04,.25Zm-2.27-.25c.23-1.51,.14-2.71-.26-3.6s-1.15-1.34-2.25-1.34c-.69,0-1.31,.18-1.86,.53s-1.02,.83-1.4,1.44l-.82,5.46c.2,.62,.52,1.11,.95,1.46s1.01,.52,1.75,.52c1.05,0,1.9-.39,2.57-1.18s1.1-1.8,1.28-3.05l.04-.25Z"/><path d="M427.42,251.6c-.02-.44-.02-.79-.02-1.06s.02-.54,.05-.83c-.52,.6-1.16,1.11-1.92,1.52s-1.53,.62-2.31,.62c-1.27,0-2.22-.34-2.83-1.03s-.83-1.61-.65-2.78c.18-1.25,.8-2.21,1.88-2.87s2.46-1,4.16-1h2.51l.19-1.25c.12-.77-.02-1.37-.4-1.79s-1-.63-1.83-.63c-.71,0-1.34,.19-1.88,.56s-.84,.82-.91,1.35l-2.2,.02v-.07c.08-.96,.64-1.81,1.66-2.56s2.27-1.12,3.73-1.12c1.38,0,2.47,.37,3.26,1.11s1.09,1.79,.89,3.15l-.91,6.11c-.08,.48-.12,.92-.13,1.33s.01,.82,.08,1.22h-2.38Zm-3.57-1.69c.8,0,1.57-.22,2.32-.66s1.27-.93,1.56-1.48l.32-2.05h-2.59c-.9,0-1.67,.24-2.32,.71s-1.02,1.02-1.1,1.64c-.09,.59,0,1.04,.31,1.35s.8,.47,1.51,.47Z"/><path d="M438.09,250.04c.68,0,1.33-.24,1.94-.71s.97-1.05,1.08-1.73h2.09l.02,.07c-.14,1.14-.75,2.12-1.83,2.95s-2.27,1.24-3.57,1.24c-1.7,0-2.97-.61-3.79-1.83s-1.1-2.72-.84-4.51l.07-.49c.28-1.85,.99-3.37,2.13-4.55s2.61-1.78,4.39-1.78c1.37,0,2.45,.44,3.25,1.32s1.08,1.96,.86,3.22l-.02,.06h-2.11c.12-.8-.03-1.47-.45-2s-1.01-.79-1.79-.79c-1.09,0-1.97,.45-2.65,1.34s-1.11,1.95-1.29,3.17l-.07,.49c-.2,1.31-.11,2.4,.27,3.25s1.15,1.28,2.31,1.28Z"/><path d="M450.95,235.86l-.46,3.06h2.4l-.26,1.71h-2.4l-1.15,7.7c-.09,.62-.04,1.04,.17,1.27s.52,.35,.93,.35c.12,0,.28-.02,.45-.05s.32-.07,.43-.11l.08,1.58c-.2,.14-.47,.26-.81,.35s-.69,.13-1.01,.13c-.91,0-1.6-.29-2.09-.86s-.64-1.46-.45-2.66l1.15-7.7h-2.02l.26-1.71h2.02l.46-3.06h2.31Z"/><path d="M458.68,251.85c-1.75,0-3.06-.59-3.94-1.77s-1.18-2.7-.9-4.57l.08-.52c.27-1.89,1.02-3.41,2.23-4.57s2.59-1.73,4.13-1.73c1.63,0,2.81,.54,3.53,1.61s.95,2.46,.69,4.18l-.18,1.22h-8.2c-.18,1.34-.05,2.4,.4,3.18s1.25,1.17,2.43,1.17c.75,0,1.45-.11,2.09-.34s1.2-.53,1.67-.91l.68,1.5c-.52,.44-1.17,.81-1.96,1.11s-1.71,.45-2.75,.45Zm1.34-11.34c-.77,0-1.47,.31-2.1,.94s-1.08,1.41-1.35,2.37l.02,.07h5.71l.02-.19c.14-.95,.03-1.71-.33-2.3s-1.02-.88-1.97-.88Z"/><path d="M473.62,240.96l-1.17-.07c-.6,0-1.13,.15-1.59,.45s-.85,.72-1.17,1.27l-1.35,8.99h-2.31l1.9-12.68h2.06l-.05,1.79c.45-.64,.97-1.14,1.55-1.49s1.21-.53,1.91-.53c.16,0,.33,.01,.49,.04s.29,.06,.38,.09l-.64,2.14Z"/><path d="M492.1,245.74c-.29,1.9-.95,3.39-1.98,4.48s-2.32,1.63-3.88,1.63c-.82,0-1.52-.17-2.09-.52s-1.02-.85-1.34-1.51l-.66,1.78h-1.77l2.74-18.28h2.31l-1.07,7.1c.49-.56,1.05-.99,1.69-1.29s1.34-.45,2.12-.45c1.5,0,2.61,.63,3.32,1.89s.92,2.9,.63,4.92l-.04,.25Zm-2.27-.25c.23-1.51,.14-2.71-.26-3.6s-1.15-1.34-2.25-1.34c-.69,0-1.31,.18-1.86,.53s-1.02,.83-1.4,1.44l-.82,5.46c.2,.62,.52,1.11,.95,1.46s1.01,.52,1.75,.52c1.05,0,1.9-.39,2.57-1.18s1.1-1.8,1.28-3.05l.04-.25Z"/><path d="M501.63,240.96l-1.17-.07c-.6,0-1.13,.15-1.59,.45s-.85,.72-1.17,1.27l-1.35,8.99h-2.31l1.9-12.68h2.06l-.05,1.79c.45-.64,.97-1.14,1.55-1.49s1.21-.53,1.91-.53c.16,0,.33,.01,.49,.04s.29,.06,.38,.09l-.64,2.14Z"/><path d="M510.23,251.6c-.02-.44-.02-.79-.02-1.06s.02-.54,.05-.83c-.52,.6-1.16,1.11-1.92,1.52s-1.53,.62-2.31,.62c-1.27,0-2.22-.34-2.83-1.03s-.83-1.61-.65-2.78c.18-1.25,.8-2.21,1.88-2.87s2.46-1,4.16-1h2.51l.19-1.25c.12-.77-.02-1.37-.4-1.79s-1-.63-1.83-.63c-.71,0-1.34,.19-1.88,.56s-.84,.82-.91,1.35l-2.2,.02v-.07c.08-.96,.64-1.81,1.66-2.56s2.27-1.12,3.73-1.12c1.38,0,2.47,.37,3.26,1.11s1.09,1.79,.89,3.15l-.91,6.11c-.08,.48-.12,.92-.13,1.33s.01,.82,.08,1.22h-2.38Zm-3.57-1.69c.8,0,1.57-.22,2.32-.66s1.27-.93,1.56-1.48l.32-2.05h-2.59c-.9,0-1.67,.24-2.32,.71s-1.02,1.02-1.1,1.64c-.09,.59,0,1.04,.31,1.35s.8,.47,1.51,.47Z"/><path d="M523.43,251.6c-.02-.44-.02-.79-.02-1.06s.02-.54,.05-.83c-.52,.6-1.16,1.11-1.92,1.52s-1.53,.62-2.31,.62c-1.27,0-2.22-.34-2.83-1.03s-.83-1.61-.65-2.78c.18-1.25,.8-2.21,1.88-2.87s2.46-1,4.16-1h2.51l.19-1.25c.12-.77-.02-1.37-.4-1.79s-1-.63-1.83-.63c-.71,0-1.34,.19-1.88,.56s-.84,.82-.91,1.35l-2.2,.02v-.07c.08-.96,.64-1.81,1.66-2.56s2.27-1.12,3.73-1.12c1.38,0,2.47,.37,3.26,1.11s1.09,1.79,.89,3.15l-.91,6.11c-.08,.48-.12,.92-.13,1.33s.01,.82,.08,1.22h-2.38Zm-3.57-1.69c.8,0,1.57-.22,2.32-.66s1.27-.93,1.56-1.48l.32-2.05h-2.59c-.9,0-1.67,.24-2.32,.71s-1.02,1.02-1.1,1.64c-.09,.59,0,1.04,.31,1.35s.8,.47,1.51,.47Z"/><path d="M533.23,245.75h-1.2l-.88,5.85h-2.31l2.74-18.28h2.31l-1.59,10.59h1.16l4.56-4.99h2.67l.04,.07-5.41,5.78,3.97,6.83h-2.73l-3.33-5.85Z"/><path d="M543.63,251.6h-2.31l1.9-12.68h2.31l-1.9,12.68Zm2.39-15.93h-2.31l.35-2.36h2.31l-.35,2.36Z"/><path d="M549.68,251.6h-2.31l1.9-12.68h2.31l-1.9,12.68Zm2.39-15.93h-2.31l.35-2.36h2.31l-.35,2.36Z"/></g></g></g><g><g id="dr"><path d="M319.16,272.19h20.78" fill="none" stroke="#bd1e52" stroke-dasharray="0 0 7.52 3.25" stroke-linejoin="round" stroke-width="6"/></g><g id="ds"><g isolation="isolate"><path d="M364.91,274.81h-6.42l-1.52,4.39h-2.36l6.15-17.06h1.98l6.02,17.06h-2.36l-1.5-4.39Zm-5.75-1.93h5.1l-2.48-7.32h-.07l-2.54,7.32Z"/><path d="M384.17,279.21h-2.31l-8.21-13.03-.07,.02v13.01h-2.31v-17.06h2.31l8.21,13.02,.07-.02v-13h2.31v17.06Z"/><path d="M390.72,279.21h-2.32v-17.06h2.32v17.06Z"/><path d="M403.23,271.81v7.39h-2.31v-17.05h5.84c1.87,0,3.29,.41,4.28,1.24s1.48,2.03,1.48,3.61c0,.88-.23,1.64-.69,2.29s-1.12,1.16-2,1.55c.94,.3,1.61,.8,2.02,1.48s.62,1.53,.62,2.54v1.61c0,.53,.06,1.01,.18,1.43s.32,.77,.61,1.03v.28h-2.38c-.3-.27-.5-.66-.59-1.17s-.13-1.05-.13-1.59v-1.56c0-.92-.27-1.66-.81-2.23s-1.26-.84-2.17-.84h-3.95Zm0-1.82h3.29c1.3,0,2.24-.25,2.82-.74s.86-1.25,.86-2.27c0-.96-.28-1.71-.84-2.23s-1.43-.79-2.61-.79h-3.53v6.04Z"/><path d="M423.67,279.21c-.08-.38-.14-.72-.18-1.01s-.07-.59-.08-.88c-.43,.61-.99,1.12-1.68,1.53s-1.44,.62-2.23,.62c-1.32,0-2.33-.34-3.02-1.01s-1.04-1.61-1.04-2.79,.49-2.16,1.47-2.84,2.31-1.03,3.99-1.03h2.51v-1.25c0-.74-.23-1.33-.68-1.76s-1.09-.65-1.92-.65c-.75,0-1.36,.19-1.82,.56s-.69,.82-.69,1.35l-2.19,.02-.02-.07c-.05-.92,.38-1.77,1.29-2.53s2.1-1.15,3.56-1.15,2.59,.37,3.47,1.1,1.31,1.78,1.31,3.16v6.11c0,.45,.02,.89,.07,1.31s.13,.84,.26,1.24h-2.38Zm-3.83-1.69c.84,0,1.59-.21,2.26-.64s1.11-.92,1.31-1.48v-2.06h-2.59c-.93,0-1.67,.23-2.23,.7s-.84,1.02-.84,1.65c0,.56,.18,1.01,.53,1.34s.87,.49,1.56,.49Z"/><path d="M428.54,273.1c0-2.04,.44-3.68,1.31-4.93s2.09-1.88,3.66-1.88c.74,0,1.4,.14,1.97,.41s1.06,.67,1.47,1.2v-6.97h2.31v18.28h-1.77l-.35-1.61c-.41,.61-.93,1.07-1.54,1.38s-1.32,.47-2.12,.47c-1.55,0-2.76-.56-3.63-1.68s-1.31-2.6-1.31-4.42v-.25Zm2.31,.25c0,1.28,.26,2.31,.79,3.08s1.34,1.15,2.44,1.15c.69,0,1.27-.16,1.73-.47s.85-.75,1.15-1.31v-5.92c-.3-.52-.68-.94-1.15-1.25s-1.04-.46-1.71-.46c-1.11,0-1.93,.46-2.46,1.37s-.79,2.1-.79,3.56v.25Z"/><path d="M445.21,263.28h-2.31v-2.36h2.31v2.36Zm0,15.93h-2.31v-12.68h2.31v12.68Z"/><path d="M456.81,277.33c-.4,.68-.91,1.2-1.54,1.57s-1.35,.55-2.17,.55c-1.38,0-2.46-.44-3.23-1.32s-1.16-2.26-1.16-4.12v-7.48h2.31v7.5c0,1.35,.2,2.28,.6,2.79s1.02,.76,1.86,.76,1.5-.17,2.03-.5,.94-.8,1.21-1.41v-9.14h2.31v12.68h-2.07l-.15-1.88Z"/><path d="M469.77,275.79c0-.51-.19-.92-.58-1.24s-1.12-.6-2.2-.84c-1.49-.32-2.64-.77-3.44-1.35s-1.2-1.35-1.2-2.32c0-1.03,.44-1.91,1.32-2.65s2.02-1.1,3.42-1.1,2.6,.39,3.49,1.17,1.32,1.69,1.28,2.73l-.02,.07h-2.2c0-.55-.24-1.04-.72-1.49s-1.09-.67-1.82-.67c-.81,0-1.42,.18-1.82,.55s-.6,.8-.6,1.31,.17,.89,.52,1.16,1.06,.52,2.15,.75c1.55,.33,2.73,.79,3.54,1.39s1.21,1.39,1.21,2.36c0,1.12-.46,2.04-1.37,2.75s-2.1,1.07-3.57,1.07c-1.62,0-2.89-.41-3.82-1.23s-1.37-1.78-1.32-2.87l.02-.07h2.2c.04,.82,.34,1.42,.91,1.8s1.24,.57,2,.57c.82,0,1.46-.17,1.93-.52s.7-.79,.7-1.33Z"/><path d="M477.47,268.94h-2.31v-2.37h2.31v2.37Zm0,10.27h-2.31v-2.37h2.31v2.37Z"/><path d="M491.17,277.65c1.11,0,2.01-.38,2.69-1.15s1.03-1.85,1.03-3.26v-1.45c-.38,.55-.84,.97-1.4,1.26s-1.17,.43-1.83,.43c-1.64,0-2.93-.51-3.86-1.52s-1.4-2.42-1.4-4.21,.5-3.12,1.49-4.21,2.22-1.63,3.68-1.63c1.7,0,3.07,.54,4.1,1.61s1.55,2.58,1.55,4.54v5.18c0,1.96-.56,3.49-1.69,4.59s-2.57,1.65-4.35,1.65c-.6,0-1.22-.06-1.85-.19s-1.22-.31-1.76-.55l.35-1.76c.52,.25,1.02,.43,1.52,.53s1.08,.16,1.74,.16Zm.48-5.98c.8,0,1.48-.18,2.03-.55s.95-.84,1.2-1.41v-2.02c0-1.27-.29-2.26-.86-2.95s-1.37-1.04-2.4-1.04c-.84,0-1.53,.37-2.09,1.12s-.84,1.72-.84,2.91,.26,2.12,.77,2.84,1.24,1.08,2.18,1.08Z"/><path d="M500.86,271.62l.98-9.48h8.54v2.05h-6.6l-.55,4.91c.37-.27,.77-.5,1.22-.67s.95-.27,1.52-.28c1.58-.02,2.81,.48,3.71,1.48s1.34,2.38,1.34,4.13-.46,3.09-1.38,4.12-2.26,1.56-4.01,1.56c-1.45,0-2.65-.39-3.61-1.18s-1.42-1.95-1.38-3.48l.02-.07h2.09c0,.93,.27,1.65,.8,2.16s1.23,.77,2.08,.77c.98,0,1.73-.34,2.27-1.03s.81-1.63,.81-2.82c0-1.09-.27-1.96-.81-2.64s-1.3-1.01-2.27-1.01c-.91,0-1.56,.14-1.97,.41s-.71,.7-.9,1.27l-1.91-.2Z"/><path d="M516.51,279.21h-2.31v-2.37h2.31v2.37Z"/><path d="M530.93,273.18c0,1.93-.49,3.46-1.47,4.58s-2.3,1.69-3.96,1.69-2.97-.56-3.96-1.69-1.48-2.65-1.48-4.58v-5.02c0-1.91,.49-3.44,1.47-4.57s2.29-1.7,3.94-1.7,2.98,.57,3.97,1.7,1.48,2.66,1.48,4.57v5.02Zm-2.31-5.5c0-1.23-.27-2.2-.82-2.91s-1.32-1.07-2.32-1.07-1.76,.36-2.3,1.07-.81,1.68-.81,2.91v5.96c0,1.23,.28,2.2,.83,2.92s1.32,1.08,2.3,1.08,1.77-.36,2.31-1.07,.81-1.69,.81-2.92v-5.96Z"/><path d="M544.44,273.18c0,1.93-.49,3.46-1.47,4.58s-2.3,1.69-3.96,1.69-2.97-.56-3.96-1.69-1.48-2.65-1.48-4.58v-5.02c0-1.91,.49-3.44,1.47-4.57s2.29-1.7,3.94-1.7,2.98,.57,3.97,1.7,1.48,2.66,1.48,4.57v5.02Zm-2.31-5.5c0-1.23-.27-2.2-.82-2.91s-1.32-1.07-2.32-1.07-1.76,.36-2.3,1.07-.81,1.68-.81,2.91v5.96c0,1.23,.28,2.2,.83,2.92s1.32,1.08,2.3,1.08,1.77-.36,2.31-1.07,.81-1.69,.81-2.92v-5.96Z"/><path d="M546.98,265.42c0-.99,.32-1.83,.96-2.51s1.5-1.02,2.57-1.02,1.93,.34,2.57,1.01,.96,1.51,.96,2.51v.9c0,.99-.32,1.82-.96,2.5s-1.49,1.01-2.55,1.01-1.94-.34-2.58-1.01-.97-1.5-.97-2.5v-.9Zm1.71,.9c0,.58,.16,1.07,.47,1.47s.77,.6,1.37,.6,1.01-.2,1.32-.6,.47-.89,.47-1.48v-.9c0-.58-.16-1.07-.47-1.48s-.76-.62-1.34-.62-1.04,.21-1.35,.62-.47,.9-.47,1.48v.9Zm2.44,11.59l-1.28-.79,8.33-13.34,1.28,.79-8.33,13.34Zm4.11-2.89c0-.99,.32-1.83,.96-2.5s1.5-1.01,2.57-1.01,1.92,.34,2.56,1.01,.97,1.51,.97,2.5v.91c0,1-.32,1.84-.96,2.51s-1.49,1.01-2.54,1.01-1.94-.34-2.58-1.01-.97-1.51-.97-2.51v-.91Zm1.71,.91c0,.59,.16,1.08,.47,1.48s.77,.6,1.37,.6,1.01-.2,1.32-.6,.47-.9,.47-1.48v-.91c0-.58-.16-1.07-.48-1.48s-.77-.61-1.34-.61-1.03,.2-1.34,.61-.47,.9-.47,1.48v.91Z"/></g></g></g></g><g id="dt"><g clip-path="url(#du)"><path d="M95.06,133.36l9.29-1.84,37.16-7.22,46.45-11.96,46.45-11.36,46.45-7.66,92.89-29.99,92.89-29.75,92.89-8.02" fill="none" stroke="#4f2d83" stroke-linecap="square" stroke-linejoin="round" stroke-width="6"/></g><g clip-path="url(#dv)"><g><path id="dw" d="M95.06,137.04l3.67-3.67-3.67-3.67-3.67,3.67,3.67,3.67Z" fill="#4f2d83" stroke="#4f2d83" stroke-width="6"/><path id="dx" d="M104.35,135.2l3.67-3.67-3.67-3.67-3.67,3.67,3.67,3.67Z" fill="#4f2d83" stroke="#4f2d83" stroke-width="6"/><path id="dy" d="M141.51,127.98l3.67-3.67-3.67-3.67-3.67,3.67,3.67,3.67Z" fill="#4f2d83" stroke="#4f2d83" stroke-width="6"/><path id="dz" d="M187.95,116.02l3.67-3.67-3.67-3.67-3.67,3.67,3.67,3.67Z" fill="#4f2d83" stroke="#4f2d83" stroke-width="6"/><path id="ea" d="M234.4,104.66l3.67-3.67-3.67-3.67-3.67,3.67,3.67,3.67Z" fill="#4f2d83" stroke="#4f2d83" stroke-width="6"/><path id="eb" d="M280.85,97l3.67-3.67-3.67-3.67-3.67,3.67,3.67,3.67Z" fill="#4f2d83" stroke="#4f2d83" stroke-width="6"/><path id="ec" d="M373.74,67.01l3.67-3.67-3.67-3.67-3.67,3.67,3.67,3.67Z" fill="#4f2d83" stroke="#4f2d83" stroke-width="6"/><path id="ed" d="M466.63,37.26l3.67-3.67-3.67-3.67-3.67,3.67,3.67,3.67Z" fill="#4f2d83" stroke="#4f2d83" stroke-width="6"/><path id="ee" d="M559.52,29.24l3.67-3.67-3.67-3.67-3.67,3.67,3.67,3.67Z" fill="#4f2d83" stroke="#4f2d83" stroke-width="6"/></g></g></g><g id="ef"><g clip-path="url(#eg)"><path d="M95.06,194.4l9.29-1.31,37.16-6.04,46.45-9.85,46.45-12.37,46.45-6.94,92.89-24.58,92.89-25.74,92.89-4.5" fill="none" stroke="#16ae7a" stroke-linecap="square" stroke-linejoin="round" stroke-width="6"/></g><g clip-path="url(#eh)"><g><path id="ei" d="M95.06,198.07l3.67-3.67-3.67-3.67-3.67,3.67,3.67,3.67Z" fill="#16ae7a" stroke="#16ae7a" stroke-width="6"/><path id="ej" d="M104.35,196.76l3.67-3.67-3.67-3.67-3.67,3.67,3.67,3.67Z" fill="#16ae7a" stroke="#16ae7a" stroke-width="6"/><path id="ek" d="M141.51,190.72l3.67-3.67-3.67-3.67-3.67,3.67,3.67,3.67Z" fill="#16ae7a" stroke="#16ae7a" stroke-width="6"/><path id="el" d="M187.95,180.88l3.67-3.67-3.67-3.67-3.67,3.67,3.67,3.67Z" fill="#16ae7a" stroke="#16ae7a" stroke-width="6"/><path id="em" d="M234.4,168.51l3.67-3.67-3.67-3.67-3.67,3.67,3.67,3.67Z" fill="#16ae7a" stroke="#16ae7a" stroke-width="6"/><path id="en" d="M280.85,161.57l3.67-3.67-3.67-3.67-3.67,3.67,3.67,3.67Z" fill="#16ae7a" stroke="#16ae7a" stroke-width="6"/><path id="eo" d="M373.74,137l3.67-3.67-3.67-3.67-3.67,3.67,3.67,3.67Z" fill="#16ae7a" stroke="#16ae7a" stroke-width="6"/><path id="ep" d="M466.63,111.25l3.67-3.67-3.67-3.67-3.67,3.67,3.67,3.67Z" fill="#16ae7a" stroke="#16ae7a" stroke-width="6"/><path id="eq" d="M559.52,106.76l3.67-3.67-3.67-3.67-3.67,3.67,3.67,3.67Z" fill="#16ae7a" stroke="#16ae7a" stroke-width="6"/></g></g></g><g id="er"><g clip-path="url(#es)"><path d="M104.35,225.83l37.16,8.83,46.45,18.12,46.45,22.04,46.45,14.03,92.89,72.1,185.78,98.1" fill="none" stroke="#ec9d3d" stroke-linecap="square" stroke-linejoin="round" stroke-width="6"/></g><g clip-path="url(#et)"><g><path id="eu" d="M104.35,229.51l3.67-3.67-3.67-3.67-3.67,3.67,3.67,3.67Z" fill="#ec9d3d" stroke="#ec9d3d" stroke-width="6"/><path id="ev" d="M141.51,238.34l3.67-3.67-3.67-3.67-3.67,3.67,3.67,3.67Z" fill="#ec9d3d" stroke="#ec9d3d" stroke-width="6"/><path id="ew" d="M187.95,256.46l3.67-3.67-3.67-3.67-3.67,3.67,3.67,3.67Z" fill="#ec9d3d" stroke="#ec9d3d" stroke-width="6"/><path id="ex" d="M234.4,278.5l3.67-3.67-3.67-3.67-3.67,3.67,3.67,3.67Z" fill="#ec9d3d" stroke="#ec9d3d" stroke-width="6"/><path id="ey" d="M280.85,292.53l3.67-3.67-3.67-3.67-3.67,3.67,3.67,3.67Z" fill="#ec9d3d" stroke="#ec9d3d" stroke-width="6"/><path id="ez" d="M373.74,364.63l3.67-3.67-3.67-3.67-3.67,3.67,3.67,3.67Z" fill="#ec9d3d" stroke="#ec9d3d" stroke-width="6"/><path id="fa" d="M559.52,462.72l3.67-3.67-3.67-3.67-3.67,3.67,3.67,3.67Z" fill="#ec9d3d" stroke="#ec9d3d" stroke-width="6"/></g></g></g></g><path id="fb" d="M94.96,229.21l3.67-3.67-3.67-3.67-3.67,3.67,3.67,3.67Z" fill="#ec9d3d" stroke="#ec9d3d" stroke-width="6"/></svg>