<?xml version="1.0" encoding="UTF-8"?><svg id="a" xmlns="http://www.w3.org/2000/svg" viewBox="0 0 366.24 146.09"><path id="b" d="M366.24,111.58H0v.77H366.24v-.77ZM60.22,43.29c.83,0,1.51,.67,1.51,1.51s-.68,1.51-1.51,1.51h-4.85v3.91h-9.24q-1.86,0-3.07,.5c-.66,.28-1.57,.65-2.54,.65s-1.88-.37-2.55-.66q-1.19-.5-3.06-.5h-9.24v-3.91h-3.73c-.37,.61-.95,1-1.61,1-.97,0-1.78-.86-1.97-2.01h-.54c-.28,0-.5-.22-.5-.5s.23-.5,.5-.5h.54c.19-1.15,1-2.01,1.97-2.01,.65,0,1.24,.39,1.61,1h3.73v-5.55h-3.73c-.37,.61-.95,1-1.61,1-.97,0-1.78-.86-1.97-2.01h-.54c-.28,0-.5-.23-.5-.5s.23-.5,.5-.5h.54c.19-1.15,1-2.01,1.97-2.01,.65,0,1.24,.39,1.61,1h3.73v-2.85l2.01-1.14v17.46h7.24c2.26,0,2.41,.06,3.84,.65,.4,.17,1.05,.5,1.77,.5s1.37-.33,1.77-.5c1.43-.59,1.58-.65,3.84-.65h7.23V30.98l2.01,.9v2.85h4.85c.83,0,1.51,.68,1.51,1.51s-.68,1.51-1.51,1.51h-4.85v5.55h4.85Zm-30.55-12.96c1.66,.32,3.27-.66,6.27-.66,2.03,0,3.57,.9,3.57,2.38v15.12c-1.72-.71-2.12-.81-4.61-.81h-5.23V30.33Zm11.84,1.78c0-1.48,1.54-2.38,3.57-2.38,3,0,4.61,.98,6.27,.66v16.04h-5.23c-2.48,0-2.89,.09-4.61,.81v-15.12Zm29.02-15.71c-2.8,5.88-7.16,9.7-17.17,11.29,1.59-10.02,5.4-14.38,11.29-17.18h0s-48.26,0-48.26,0h0c5.89,2.81,9.7,7.16,11.29,17.18-10.02-1.59-14.37-5.4-17.18-11.29h0v48.26h0c2.8-5.89,7.16-9.7,17.18-11.29-1.59,10.02-5.4,14.37-11.29,17.17h0s48.26,0,48.26,0h0c-5.89-2.81-9.7-7.16-11.29-17.18,10.02,1.59,14.37,5.4,17.17,11.29h.01V16.39h-.01ZM20.33,43.29c-.42,0-.8,.43-.94,1.01h1.88c-.15-.57-.52-1.01-.94-1.01m0,3.01c.42,0,.8-.43,.94-1.01h-1.88c.14,.57,.52,1.01,.94,1.01m0-8.56c.42,0,.8-.43,.94-1.01h-1.88c.14,.57,.52,1.01,.94,1.01m0-3.01c-.42,0-.8,.43-.94,1.01h1.88c-.15-.57-.52-1.01-.94-1.01M81.03,0H0V49.8c0,19.56,16.8,38.97,39.95,46.16l.6,.19,.6-.19c23.11-7.2,39.89-26.61,39.89-46.16V0Zm-2.01,2.01V49.8c0,18.45-16.09,37.27-38.48,44.24C18.09,87.07,2.01,68.25,2.01,49.8V2.01H79.02ZM120.39,.5c0-.21-.22-.49-.45-.49h-20.66c-.23,0-.45,.28-.45,.49l-.27,6.39h1.2v-.27c.1-1.83,.68-4.01,3-4.01h4.45V22.68c0,1.14-.92,2.13-1.96,2.13h-1.43v1.29h11.59v-1.29h-1.43c-1.05,0-1.96-1-1.96-2.13V2.6h4.45c2.31,0,2.9,2.18,2.98,4.01v.27h1.21l-.27-6.39Zm156.9,56.07c-1.16-2.23-4.13-3.87-6.52-5.18l-.42-.23c-1.37-.77-2.17-1.84-2.18-2.96,0-.89,.51-1.7,1.42-2.24,.96-.59,2.2-.56,3.38,.1,1.62,.91,2.67,2.74,2.67,4.66v.28h1.16v-7.19h-1.11l-.05,.23c-.07,.34-.2,.57-.38,.66-.23,.12-.6,.08-1.09-.14-2.98-1.43-5.42-1.25-7.44,.56-1.25,1.18-1.92,2.98-1.74,4.69,.18,1.7,1.16,3.17,2.76,4.15,.49,.31,1.02,.62,1.56,.94,1.83,1.09,3.73,2.21,4.51,3.31,1.03,1.42,.81,2.81-.67,4.12-1.01,.86-2.37,1-3.73,.37-1.58-.73-3.18-2.61-3.18-5.16v-.28h-1.16v7.36h1.11l.04-.18c.09-.38,.28-.66,.55-.78,.23-.11,.5-.08,.79,.08,1.22,.63,2.73,1.09,4.24,1.09,1.3,0,2.61-.34,3.73-1.2,2.28-1.71,3.02-4.74,1.74-7.06M110.99,38.25c-.26,0-4.72-.17-8.27,3.05-2.55,2.31-3.95,5.76-4.16,10.26,0,7.68,5.22,13.26,12.42,13.26s12.41-5.58,12.41-13.26-5.1-13.2-12.41-13.31m-.01,24.48h-.1c-1.51,0-2.9-.59-4.05-1.72-1.99-1.96-3.15-5.4-3.16-9.46,0-2.53,.49-10.82,7.29-11.17,2.67,.14,7.18,1.76,7.32,10.98,0,6.79-2.94,11.36-7.31,11.36m87.84-4.85v-11.83c0-.72,.37-1.12,1.03-1.12h.92v-1.12h-6.08v1.12h.83c.69,0,1.12,.43,1.12,1.12v11.83c0,3.19-2.8,4.85-5.58,4.85s-4.59-2.1-4.59-5.11v-11.03c0-.86,.71-1.67,1.45-1.67h.41v-1.12h-7.65v.84l.04,.28h.28c.88,0,1.5,.88,1.5,1.67v10.9c0,4.31,3.41,7.32,8.3,7.32s8-2.79,8-6.94m-20.79,12.66h.28v-1.23l-.27-.02c-3.83-.24-6.73-2.78-7.9-5.15,4.99-1.77,8.08-6.5,8.08-12.42-.16-10.65-8.29-13.47-12.56-13.48h0c-7.18,.05-12.39,5.65-12.39,13.3,0,6.69,3.97,11.94,9.9,13.11,3.81,3.9,8.81,5.88,14.86,5.88m-19.57-18.99c.04-4.35,1.06-7.52,3.05-9.41,1.78-1.69,3.78-1.76,4.09-1.76h.06c3.67,0,7.37,3.46,7.37,11.17,0,5.56-2.25,11.17-7.27,11.17-4.44,0-7.31-4.38-7.31-11.17m80.26,7.25c-.84,2.66-2.18,3.79-4.49,3.79h-5.09c-.36,0-.73-.26-.73-.78v-7.18h5.53c.84,0,1.28,.84,1.28,1.67v.36h1.08v-6.16h-1.08v.41c0,.79-.4,1.63-1.28,1.63h-5.53v-6.78h5.99c1.47,0,2.45,1.15,2.56,3l.02,.27h1.04l-.38-5.23h-15.06v1.12h.37c1.06,0,1.58,.61,1.58,1.88v14.88c0,1.26-.5,1.84-1.58,1.84h-.37v1.08h15.46l1.92-6h-1.19l-.06,.2Zm97.98-13.88h.28c.78,0,1.58,.47,1.58,1.24v10.82l-11.29-13.08-.08-.1h-5.59v1.12h.28c.83,0,1.27,.14,1.53,.5l.3,.33c.34,.36,.63,.68,1.06,1.19v15.29c0,.82-.78,1.24-1.54,1.24h-.41v1.12h6.12v-1.12h-.37c-.79,0-1.58-.38-1.58-1.24v-12.64l12.82,14.9,.08,.1h.84v-18.44c0-.82,.75-1.24,1.5-1.24h.5v-1.12h-6.04v1.12Zm-18.75,17.01l-7.83-18.09s-.17-.39-.51-.44c-.16-.03-.4,0-.65,.3l-7.51,18.14c-.35,.76-.95,1.66-1.82,1.66h-.66v1.12h5.95v-1.12h-.54c-.32,0-.65-.16-.82-.41-.13-.18-.15-.38-.07-.59l1.84-4.33h6.8l1.87,4.32c.12,.3,.03,.52-.06,.66-.15,.21-.4,.35-.65,.35h-.83v1.12h7.61v-1.12h-.5c-.63,0-1.16-.51-1.61-1.56m-11.83-5.81l2.55-5.86,2.53,5.86h-5.08Zm57.5-9.12c-2.15-2.25-5.45-3.32-9.8-3.18h-7.97v1.12h.45c.66,0,1.54,.2,1.54,1.92v14.76c0,1.3-.48,1.88-1.54,1.88h-.45v1.11h9.66c6,0,10.71-4.57,10.72-10.41,.02-.29,.24-4.23-2.6-7.21m-1.06,7.15c0,5.46-3.19,8.58-8.75,8.58-.67,0-1.07-.03-1.71-.19v-16.85c.64-.35,1.61-.22,1.67-.21,2.91-.07,5.15,.74,6.67,2.4,2.31,2.54,2.14,6.18,2.13,6.26m-65.49,4.37l-.06,.2c-.83,2.68-2.21,3.87-4.48,3.87h-4.71c-.39,0-.78-.5-.78-.99v-14.76c0-1.33,.5-1.93,1.63-1.93h.41v-1.11h-7.86v1.11h.45c1.04,0,1.54,.63,1.54,1.93v14.76c0,1.68-.88,1.88-1.54,1.88h-.45v1.12h15.21l1.83-6.08h-1.18Zm-41.12-13.6h.41c.78,0,1.59,.47,1.59,1.24v10.82l-11.34-13.09-.08-.1h-5.59v1.12h.28c.85,0,1.31,.14,1.57,.5l.3,.32c.34,.37,.64,.68,1.06,1.2v15.3c0,.85-.8,1.24-1.54,1.24h-.45v1.12h6.16v-1.12h-.41c-.77,0-1.54-.38-1.54-1.24v-12.64l12.82,14.9,.09,.1h.83v-18.44c0-.81,.77-1.24,1.5-1.24h.45v-1.12h-6.12v1.12Zm-52.28,18.6h-.41v1.08h15.55l1.83-6h-1.14l-.06,.2c-.82,2.62-2.2,3.79-4.48,3.79h-5.05c-.41,0-.82-.27-.82-.78v-7.18h5.61c.75,0,1.2,.85,1.2,1.67v.37h1.08v-6.16h-1.08v.41c0,.79-.42,1.63-1.2,1.63h-5.61v-6.77h5.99c1.53,0,2.53,1.15,2.6,3v.27h1.05l-.38-5.23h-15.09v1.12h.41c1.09,0,1.58,.58,1.58,1.88v14.89c0,1.27-.49,1.84-1.58,1.84m-61.54-19.72h-16.03v1.12h.41c1.09,0,1.58,.6,1.58,1.92v14.84c0,1.27-.49,1.84-1.58,1.84h-.41v1.08h7.86v-1.08h-.49c-1.08,0-1.54-.54-1.54-1.8v-7.1h5.61c1.1,0,1.16,1.39,1.16,1.67v.37h1.12v-6.16h-1.12v.41c0,.27-.06,1.63-1.16,1.63h-5.61v-6.77h6.97c1.42,0,2.45,1.21,2.56,3v.27h1.05l-.38-5.23Zm143.38-18.83h-.41c-1.1,0-1.59-.57-1.59-1.84v-6.38h.89l7.08,9.33h5.01v-1.11h-.41c-.56,0-1.01-.53-1.49-1.1l-5.89-7.68c2.67-.93,4.42-2.99,4.4-5.24-.02-1.68-.5-2.95-1.48-3.86-1.53-1.43-4.29-2.03-8.39-1.8h-5.58v1.12h.5c1.03,0,1.54,.6,1.54,1.84v14.89c0,1.27-.48,1.84-1.54,1.84h-.5v1.11h7.86v-1.11Zm-1.99-17.57c.75-.3,1.38-.24,1.42-.24,2.32,0,4.13,1.67,4.13,3.79s-1.85,3.96-4.13,3.96h-1.42V7.42Zm60.56-2.12h-16.71c-.2,0-.41,.22-.41,.4l-.18,4.96h1.03l.02-.27c.11-2.02,.85-3,2.26-3h3.78v15.88c0,1.2-.5,1.71-1.67,1.71h-.37v1.12h7.78v-1.12h-.37c-1.14,0-1.58-.48-1.58-1.71V7.39h3.75c.88,0,2.06,.31,2.22,3l.02,.27h1.07l-.22-4.95c0-.19-.22-.41-.41-.41m-110.86,19.68h-.37c-1.09,0-1.58-.57-1.58-1.84V8.26c0-1.25,.5-1.84,1.58-1.84h.37v-1.12h-7.78v1.12h.36c1.15,0,1.67,.57,1.67,1.84v14.89c0,1.29-.5,1.84-1.67,1.84h-.36v1.12h7.78v-1.12ZM177.4,3.43v13.83c0,5.41,4.25,9.19,10.33,9.19s10.04-3.61,10.04-8.77V2.83c0-1.02,.47-1.5,1.46-1.5h1.13V0h-7.9V1.33h1.26c.91,0,1.41,.53,1.41,1.5v14.84c0,4.24-3.63,6.17-7.01,6.17s-5.95-2.66-5.95-6.46V3.43c0-1.12,.94-2.1,2.01-2.1h.62V0h-9.98V1.33h.58c1.2,0,2.01,1.08,2.01,2.1m60.19,4.52l7.72,17.86,.04,.06c.15,.18,.38,.3,.61,.3h.05c.22-.02,.41-.13,.52-.33l7.01-17.79c.57-1.18,1.01-1.62,1.61-1.62h.28v-1.12h-5.23v1.12h.58c.23,0,.47,.13,.62,.33,.1,.13,.19,.36,.09,.64l-4.76,11.84-5.2-11.84c-.11-.29-.02-.51,.07-.64,.15-.22,.4-.34,.56-.34h.96v-1.12h-7.43v1.12h.28c.63,0,1.11,.46,1.61,1.52m-33.86-1.02c.26,.29,.47,.54,.71,.82,.17,.2,.35,.41,.57,.67v15.33c0,.82-.77,1.2-1.5,1.2h-.49v1.15h6.21v-1.15h-.41c-.79,0-1.58-.41-1.58-1.2V11.1l12.87,14.9,.08,.1h.84V7.67c0-.82,.77-1.24,1.54-1.24h.41v-1.12h-6.16v1.12h.45c.72,0,1.5,.39,1.5,1.24v10.78l-11.34-13.14h-5.59v1.12h.28c.79,0,1.26,.07,1.61,.5m144.64,1.02l6.15,9.39v5.81c0,1.33-.46,1.88-1.59,1.88h-.41v1.12h7.95v-1.12h-.41c-1.17,0-1.62-.5-1.62-1.79v-6.03l5.47-9.34c.57-.9,1.3-1.4,2.05-1.4h.28v-1.16h-5.53v1.16h.79c.14,0,.28,.11,.38,.27,.09,.16,.15,.43,.02,.66l-4.4,7.49-4.82-7.35c-.18-.36-.07-.63,.01-.76,.11-.19,.31-.31,.5-.31h.75v-1.16h-7.74v1.16h.28c.51,0,1.18,.16,1.88,1.48m-184.57,12.16h-1.19l-.06,.2c-.77,2.58-2.15,3.74-4.48,3.74h-5.09c-.42,0-.73-.31-.73-.73v-7.19h5.57c.8,0,1.16,.85,1.16,1.63v.41h1.16v-6.16h-1.16v.41c0,.67-.36,1.63-1.16,1.63h-5.57V7.22h6c1.47,0,2.45,1.15,2.56,3l.02,.27h1.08l-.38-5.19h-15.14v1.12h.41c1.08,0,1.59,.59,1.59,1.84v14.89c0,1.27-.49,1.84-1.59,1.84h-.41v1.12h15.55l1.88-5.99Zm-32.52,4.88h-.41c-1.06,0-1.54-.57-1.54-1.84v-6.67h8.08v6.67c0,1.29-.48,1.84-1.62,1.84h-.41v1.12h7.9v-1.12h-.49c-1.08,0-1.54-.55-1.54-1.84V8.26c0-1.27,.47-1.84,1.54-1.84h.49v-1.11h-7.9v1.11h.41c1.11,0,1.62,.58,1.62,1.84v6.21h-8.08v-6.21c0-1.24,.5-1.84,1.54-1.84h.41v-1.11h-7.82v1.11h.41c1.11,0,1.54,.52,1.54,1.84v14.89c0,1.34-.42,1.84-1.54,1.84h-.41v1.12h7.82v-1.12Zm192.28,0h-.41c-1.09,0-1.59-.57-1.59-1.84V8.26c0-1.25,.51-1.84,1.59-1.84h.41v-1.12h-7.86v1.12h.5c1.06,0,1.54,.57,1.54,1.84v14.89c0,1.29-.46,1.84-1.54,1.84h-.5v1.12h7.86v-1.12Zm-48.22-4.88h-1.19l-.06,.2c-.82,2.59-2.2,3.74-4.48,3.74h-5.09c-.42,0-.73-.31-.73-.73v-7.19h5.53c.95,0,1.2,1.02,1.2,1.63v.41h1.16v-6.16h-1.16v.41c0,.63-.33,1.63-1.2,1.63h-5.53V7.22h6c1.44,0,2.45,1.18,2.56,3l.02,.27h1.08l-.43-5.19h-15.09v1.12h.41c1.07,0,1.54,.57,1.54,1.84v14.89c0,1.29-.46,1.84-1.54,1.84h-.41v1.12h15.51l1.92-5.99Zm26.61-4.74c.46,.29,.96,.59,1.47,.89,1.78,1.06,3.8,2.27,4.6,3.36,1.07,1.45,.85,2.79-.68,4.11-1,.87-2.34,1.02-3.69,.42-1.58-.72-3.18-2.61-3.18-5.21v-.28h-1.16v7.44h1.09l.06-.21c.11-.39,.34-.68,.62-.8,.22-.09,.47-.06,.71,.08,1.35,.72,2.77,1.08,4.11,1.08,1.44,0,2.77-.41,3.82-1.23,2.26-1.65,3.02-4.76,1.74-7.06-1.2-2.27-4.22-3.97-6.94-5.37-1.32-.75-2.09-1.8-2.13-2.9-.03-.91,.48-1.76,1.36-2.34,1.02-.59,2.28-.52,3.49,.17,1.27,.73,2.62,2.32,2.62,4.59v.28h1.07V5.3h-1.03l-.04,.24c-.05,.3-.15,.48-.32,.57-.24,.13-.65,.08-1.19-.15-3.05-1.38-5.38-1.19-7.35,.6-1.28,1.18-1.97,2.97-1.8,4.68,.16,1.68,1.14,3.14,2.73,4.12M108.7,89.15h-2.81l1.41-3.24,1.4,3.24Zm3.92,3.33l-4.46-10.3s-.11-.23-.31-.27c-.1-.02-.24,0-.4,.18l-4.28,10.34c-.2,.42-.53,.93-1.01,.93h-.41v.69h3.45v-.69h-.34c-.17,0-.35-.09-.44-.22-.07-.1-.08-.21-.03-.32l1.04-2.45h3.84l1.06,2.44c.06,.16,.02,.28-.03,.35-.08,.11-.21,.19-.34,.19h-.5v.69h4.39v-.69h-.31c-.34,0-.64-.29-.89-.88m146.76-3.33h-2.81l1.41-3.24,1.4,3.24Zm4.81,4.21c-.35,0-.64-.29-.89-.88l-4.46-10.3s-.11-.24-.31-.27c-.1-.02-.24,0-.39,.18l-4.28,10.34c-.2,.42-.53,.93-1.01,.93h-.41v.69h3.45v-.69h-.34c-.17,0-.35-.09-.44-.22-.07-.1-.08-.21-.03-.32l1.04-2.45h3.84l1.05,2.44c.06,.16,.02,.28-.03,.35-.08,.11-.21,.19-.34,.19h-.5v.69h4.39v-.69h-.31Zm-58.27-4.21h-2.81l1.41-3.24,1.4,3.24Zm3.92,3.33l-4.46-10.3s-.11-.23-.31-.27c-.1-.02-.24,0-.4,.18l-4.28,10.34c-.2,.42-.54,.93-1.01,.93h-.41v.69h3.45v-.69h-.34c-.18,0-.35-.09-.44-.22-.07-.1-.08-.21-.04-.32l1.04-2.45h3.84l1.05,2.44c.06,.16,.02,.28-.03,.35-.08,.11-.21,.19-.35,.19h-.5v.69h4.39v-.69h-.31c-.34,0-.64-.29-.89-.88m-63.14-6.02l-.23-.12c-.77-.43-1.22-1.04-1.23-1.66,0-.5,.28-.95,.8-1.25,.54-.33,1.24-.31,1.91,.06,.92,.51,1.51,1.54,1.51,2.63v.19h.71v-4.15h-.68l-.03,.15c-.04,.19-.11,.31-.21,.36-.13,.06-.33,.04-.59-.08-1.71-.82-3.11-.72-4.27,.32-.72,.68-1.1,1.71-1,2.69,.1,.98,.67,1.82,1.58,2.39,.29,.18,.6,.37,.92,.55,1.03,.61,2.1,1.24,2.54,1.86,.58,.8,.45,1.57-.38,2.31-.57,.49-1.33,.56-2.1,.21-.89-.41-1.79-1.47-1.79-2.92v-.19h-.72v4.26h.68l.03-.15c.05-.21,.15-.36,.29-.42,.12-.05,.27-.04,.42,.04,.7,.36,1.56,.62,2.43,.62,.75,0,1.5-.19,2.15-.69,1.31-.98,1.73-2.73,1-4.05-.67-1.28-2.37-2.22-3.74-2.97m82.36,4.21c-.46,1.51-1.24,2.18-2.52,2.18h-2.68c-.2,0-.42-.27-.42-.54v-8.41c0-.75,.27-1.07,.9-1.07h.26v-.69h-4.53v.69h.28c.21,0,.85,0,.85,1.07v8.41c0,.93-.49,1.04-.85,1.04h-.28v.69h8.71l1.06-3.51h-.73l-.04,.13Zm-98.24-7.83h.51c.38,0,.61,.23,.61,.61v6.74c0,1.79-1.58,2.73-3.15,2.73s-2.59-1.18-2.59-2.88v-6.28c0-.46,.4-.92,.8-.92h.26v-.69h-4.41v.51l.03,.19h.19c.48,0,.82,.49,.82,.92v6.21c0,2.47,1.95,4.2,4.75,4.2s4.59-1.6,4.59-3.98v-6.74c0-.28,.1-.61,.56-.61h.55v-.69h-3.52v.69Zm38.9-.69h-9.52c-.12,0-.27,.12-.27,.26l-.1,2.85h.64v-.18c.08-1.13,.49-1.68,1.27-1.68h2.13v9.01c0,.66-.28,.95-.92,.95h-.24v.69h4.48v-.69h-.24c-.64,0-.88-.26-.88-.95v-9.01h2.11c.53,0,1.15,.19,1.24,1.68v.18h.67l-.13-2.84c0-.13-.13-.26-.26-.26m69.14,.69h.31c.4,0,.85,.12,.85,1.02v8.48c0,.71-.25,1.02-.85,1.02h-.31v.69h4.53v-.69h-.26c-.61,0-.88-.31-.88-1.02v-8.48c0-.92,.5-1.02,.88-1.02h.26v-.69h-4.53v.69Zm-53.22,2.56c0,1.23-1.04,2.23-2.33,2.23h-.78v-4.23c.41-.16,.75-.12,.78-.12,1.31,0,2.33,.93,2.33,2.12m3.2,7.34l-3.33-4.34c1.51-.54,2.5-1.72,2.49-3h0c-.01-.97-.29-1.69-.85-2.22-.88-.82-2.45-1.16-4.8-1.04h-3.21v.69h.31c.57,0,.85,.33,.85,1.02v8.48c0,.9-.45,1.02-.85,1.02h-.31v.69h4.53v-.69h-.26c-.61,0-.87-.3-.87-1.02v-3.6h.47l4.04,5.32h2.89v-.69h-.26c-.31,0-.56-.3-.83-.62m105.54,37.14h11.52v1.64h-9.72v5.44h8.7v1.64h-8.7v5.58h9.84v1.64h-11.64v-15.94Zm-22.42,8.01v-.04c0-4.37,3.21-8.24,7.99-8.24,2.69,0,4.35,.78,5.94,2.12l-1.16,1.37c-1.23-1.07-2.6-1.82-4.85-1.82-3.53,0-6.06,2.98-6.06,6.54v.04c0,3.8,2.44,6.62,6.31,6.62,1.82,0,3.51-.71,4.6-1.59v-3.96h-4.85v-1.62h6.58v6.35c-1.48,1.32-3.71,2.44-6.4,2.44-5.01,0-8.11-3.64-8.11-8.2m-20.94-8.01h1.68l10.04,12.77v-12.77h1.75v15.94h-1.44l-10.29-13.07v13.07h-1.75v-15.94Zm-11.26,10.11l-3.62-8.13-3.64,8.13h7.26Zm-4.44-10.22h1.68l7.26,16.05h-1.94l-1.87-4.21h-8.68l-1.89,4.21h-1.84l7.26-16.05Zm-26.74,.12h1.8v7.08h9.2v-7.08h1.8v15.94h-1.8v-7.17h-9.2v7.17h-1.8v-15.94Zm-21.18,8.01v-.04c0-4.51,3.37-8.24,8.06-8.24,2.89,0,4.62,1.03,6.22,2.53l-1.23,1.32c-1.34-1.28-2.85-2.19-5.01-2.19-3.53,0-6.17,2.87-6.17,6.54v.04c0,3.69,2.67,6.58,6.17,6.58,2.18,0,3.62-.84,5.14-2.3l1.18,1.16c-1.66,1.68-3.48,2.8-6.38,2.8-4.6,0-7.99-3.62-7.99-8.2m-28.84-8.01h11.52v1.64h-9.72v5.44h8.7v1.64h-8.7v5.58h9.83v1.64h-11.63v-15.94Zm-13.97,1.66h-5.35v-1.66h12.52v1.66h-5.35v14.28h-1.82v-14.28Zm-13.22,8.45l-3.62-8.13-3.64,8.13h7.26Zm-4.44-10.22h1.69l7.26,16.05h-1.94l-1.87-4.21h-8.67l-1.89,4.21h-1.84l7.26-16.05Zm-25.18,.12h11.52v1.64h-9.72v5.44h8.7v1.64h-8.7v5.58h9.84v1.64h-11.64v-15.94Zm-13.49,8.13c2.39,0,4.1-1.23,4.1-3.28v-.05c0-1.96-1.5-3.14-4.07-3.14h-4.92v6.47h4.9Zm-6.69-8.13h6.85c1.96,0,3.53,.59,4.53,1.59,.77,.78,1.23,1.89,1.23,3.14v.05c0,2.64-1.82,4.19-4.33,4.64l4.9,6.51h-2.21l-4.62-6.19h-4.55v6.19h-1.8v-15.94Zm-21.18,8.01v-.04c0-4.51,3.37-8.24,8.06-8.24,2.89,0,4.62,1.03,6.21,2.53l-1.23,1.32c-1.34-1.28-2.85-2.19-5.01-2.19-3.53,0-6.17,2.87-6.17,6.54v.04c0,3.69,2.66,6.58,6.17,6.58,2.19,0,3.62-.84,5.15-2.3l1.18,1.16c-1.66,1.68-3.48,2.8-6.38,2.8-4.6,0-7.99-3.62-7.99-8.2" fill="#fff"/></svg>